<svg xmlns="http://www.w3.org/2000/svg" height="92" width="134" xmlns:xlink="http://www.w3.org/1999/xlink" viewBox="0 0 134 92"><title>Artboard</title><defs><path id="a" d="M50.226 94.84H0V0H100.45v94.84z"/><path id="c" d="M50.226 94.84H0V0H100.45v94.84z"/><path id="e" d="M50.226 94.84H0V0H100.45v94.84z"/></defs><g fill-rule="evenodd" fill="none"><g transform="translate(17 -3)"><mask id="b" fill="#fff"><use xlink:href="#a"/></mask><path fill="#1257DC" mask="url(#b)" d="M90.708 3.542H7.71c-4.535 0-7.71 3.35-7.71 7.93v106.57h99.443V11.47c0-4.58-4.193-7.928-8.735-7.928"/></g><g fill="#fff" transform="translate(17 -3)"><mask id="d"><use xlink:href="#c"/></mask><path mask="url(#d)" d="M9.04 118.04h82.185V28.23c0-.448-.133-.627-.588-.627h-80.39c-.46 0-1.206.17-1.206.627v89.81z"/></g><g fill="#fff" transform="translate(17 -3)"><mask id="f"><use xlink:href="#e"/></mask><rect rx="1.018" mask="url(#f)" height="2.507" width="21.132" y="17.646" x="39.448"/></g><path fill="#FBFBFB" d="M25.878 24.553H53.32v27.553H25.878z"/><path fill="#FACA00" d="M46.182 29.942l-3.05-.707s-.837 1.506-2.874 1.52c-2.037.013-2.895-1.48-2.895-1.48l-3.04.747-4.41 4.022 2.236 3.424 2.216-1.06.07 10.77 11.86-.08-.07-10.77 2.23 1.03 2.188-3.452-4.462-3.964z"/><path fill="#E5E5E5" d="M25.878 50.486h82.327v1.62H25.878zM58.164 32.657h45.2V35.9h-45.2zM58.164 40.76h45.2v3.243h-45.2z"/><path fill="#f66" d="M30 59h71.027v24.312H30z"/><path d="M49.89 70.102h2.68c.323 0 .646-.078.646-.557 0-.544-.466-.544-.647-.544h-1.062v-.62h.66c.414 0 .53-.22.53-.53s-.142-.53-.53-.53h-.66v-.545h.815c.298 0 .673-.09.673-.583 0-.582-.543-.582-.673-.582h-.815v-.26c0-.284-.09-.543-.764-.543-.53 0-.647.272-.647.544v.26H48.35v-.272c0-.31-.143-.53-.752-.53-.414 0-.62.193-.62.543v.26h-.856c-.246 0-.66.065-.66.595 0 .57.518.57.66.57h.855v.544h-.673c-.466 0-.53.27-.53.568 0 .427.27.492.53.492h.673V69H45.94c-.14 0-.66 0-.66.558 0 .544.532.544.66.544h2.603v.427h-1.19c-1.218 0-1.464.27-1.464 1.45v1.863h-.234c-.362 0-.504.26-.504.57 0 .453.297.556.504.556h.233v1.436c0 .298.05.686.698.686.674 0 .687-.48.687-.712v-1.41h3.896v.44c0 .18-.09.284-.258.297-.09.013-.557 0-.66 0-.272 0-.738 0-.738.62 0 .662.48.662 1.243.662 1.463 0 1.8-.144 1.8-1.464v-.557h.22c.4 0 .49-.324.49-.57 0-.156-.038-.557-.49-.557h-.22V71.98c0-1.205-.286-1.45-1.464-1.45H49.89V70.1zm-2.615 2.07v-.284c0-.22.116-.31.297-.31h.97v.595h-1.267zm1.268 1.67h-1.268v-.62h1.268v.62zm1.346-2.264h.983c.194 0 .298.103.298.31v.285h-1.28v-.595zm1.28 2.265h-1.28v-.62h1.28v.62zm-1.073-6.524H48.35v-.545h1.747v.544zm0 1.682H48.35v-.622h1.747v.622zm-4.984-2.395c0-1.204-.272-1.45-1.45-1.45h-.75c-1.192 0-1.45.26-1.45 1.45v5.825c0 1.19.258 1.45 1.45 1.45h.75c1.204 0 1.45-.272 1.45-1.45v-5.825zm-1.178 3.47H42.81l-.002-1.218h1.127v1.216zm-1.126-3.21c-.002-.17.076-.273.257-.273h.622c.18 0 .245.116.245.272v.88H42.81l-.002-.88zm1.125 4.374v.972c0 .18-.078.26-.246.26h-.623c-.18 0-.26-.092-.26-.26l.002-.97h1.125zm-1.554 2.745c-.387 0-.49.26-.568.453-.194.518-.233.622-.402.958-.362.725-.4.803-.4.97 0 .48.517.636.737.636.337 0 .48-.195.854-.997.183-.39.48-1.062.48-1.424 0-.465-.466-.595-.7-.595zm1.878.013c-.272 0-.725.156-.725.557 0 .116.013.246.104.44.065.13.362.79.427.932.285.634.363.803.712.803.22 0 .712-.13.712-.596 0-.246-.26-.764-.44-1.14-.388-.802-.48-.996-.79-.996zm14.42-7.055c.377 0 .597.013.597.48 0 1.41-.725 5.475-4.648 7.69-.35.193-.582.374-.582.775 0 .53.427 1.01.92 1.01.543 0 1.94-1.01 2.782-1.877 1.683-1.734 2.2-3.662 2.434-4.53.726 3.042 2.434 4.66 3.328 5.41.517.44 1.178.998 1.695.998.544 0 .945-.518.945-1.036 0-.142-.038-.362-.207-.53-.115-.104-.788-.505-.918-.596-3.47-2.485-3.82-5.993-3.948-7.767-.117-1.438-.66-1.658-1.71-1.658h-2.69c-.39 0-.843.117-.843.816 0 .802.61.815.843.815h2.006zm17.23 1.113c.22-.012 1.334-.038 1.593-.038.83-.026 1.296-.04 1.296-.79 0-.725-.53-.777-.855-.777-.09 0-1.785.053-2.03.066v-.595c0-.206 0-.854-.88-.854-.87 0-.856.673-.856.88l.013.596c-1.035.026-2.692.052-4.466.052h-1.436c-.414 0-.996 0-.996.764 0 .556.323.7.453.737.17.04.22.052 1.632.052 1.67 0 3.236-.026 4.84-.065l.027 1.114c-.726-.376-1.684-.376-1.878-.376-2.07 0-3.184 1.204-3.184 2.576 0 1.398 1.126 2.55 3.184 2.55 1.346 0 1.8-.49 2.162-.893-.22.907-.83 2.033-3.793 2.06-.828.012-1.28.012-1.28.698 0 .842.763.842 1.022.842.168 0 .984-.013 1.93-.155 2.096-.31 3.818-1.41 3.818-3.987 0-.855-.182-1.372-.31-1.735v-2.719zm-3.404 4.57c-.634 0-1.67-.272-1.67-1.23s1.05-1.28 1.774-1.28c.44 0 1.63.14 1.63 1.23 0 .58-.4 1.28-1.734 1.28zm13.373-3.262c.362-.298.893-.75 1.94-1.424 1.464-.945 1.606-1.036 1.606-1.63 0-.74-.634-.83-1.1-.83-.453 0-1.23.026-1.372.04-.646.025-3.818.077-4.53.09-.31.013-.92.04-.92.815 0 .816.623.83.88.83.52 0 3.91-.195 4.22-.22-.827.788-3.61 2.873-5.177 4.038-1.022.776-1.113.854-1.113 1.217 0 .49.427.893.906.893.285 0 .337-.04 1.165-.79 1.115-1.01 2.5-1.85 4.35-1.85.596 0 1.386.077 1.982.49.556.39.815 1.088.815 1.748 0 .817-.4 1.917-1.93 2.24.08-.22.105-.35.105-.607 0-2.085-1.955-2.188-2.563-2.188-1.335 0-2.746.647-2.746 2.213 0 .648.337 1.256.906 1.606.505.31 1.243.62 2.784.62.97 0 1.954-.116 2.86-.49 1.98-.83 2.37-2.512 2.37-3.535 0-1.89-1.19-3.56-3.897-3.56-.816 0-1.19.154-1.54.284zm.336 5.864c-.233.04-.375.052-.582.052-.893 0-1.72-.285-1.72-.88 0-.505.53-.842 1.203-.842.427 0 1.23.09 1.23 1.062 0 .246-.052.388-.13.608z" fill="#fff"/><path fill="#f66" d="M122.598 71.385c.297-.185.655-.254 1.023-.173l8.445 1.945c.73.167 1.183.893 1.013 1.62-.17.73-.89 1.18-1.62 1.012l-8.452-1.94c-.73-.166-1.183-.892-1.013-1.62.09-.368.308-.66.605-.845M121 66.507c.09-.338.308-.642.63-.825l7.505-4.346c.647-.375 1.474-.154 1.846.495.373.65.15 1.48-.496 1.855l-7.5 4.337c-.648.375-1.475.153-1.848-.495-.188-.32-.224-.692-.136-1.02"/></g></svg>