<svg width="168" height="109" viewBox="0 0 168 109" xmlns="http://www.w3.org/2000/svg"><title>img</title><g fill="none" fill-rule="evenodd"><path d="M137.932 47.054h-19.64v-13.12h19.64v13.12zm-29.455-18.71v3.668c0 1.062.86 1.922 1.916 1.922h1.358V53.62h32.73V33.936h13.09V53.62h6.543V33.936h1.358c1.06 0 1.917-.86 1.917-1.923v-3.667h-58.91zM148.457 15.01c0-.52.052-1.007.157-1.46.104-.454.264-.884.48-1.292.213-.41.484-.812.81-1.203.324-.393.7-.787 1.132-1.185l.958-.895c.266-.233.478-.45.636-.648.162-.198.286-.397.374-.596.087-.2.145-.413.173-.646.028-.234.04-.497.04-.797 0-.972-.386-1.458-1.156-1.458-.296 0-.53.06-.703.18-.17.123-.303.288-.396.5-.092.207-.153.45-.18.728-.028.277-.04.568-.04.88h-2.283v-.45c0-1.093.29-1.933.875-2.52.586-.585 1.506-.878 2.76-.878 1.193 0 2.074.277 2.647.83.572.552.86 1.342.86 2.37 0 .377-.033.727-.1 1.053-.065.326-.17.638-.314.938-.143.297-.33.588-.56.872-.233.28-.514.57-.845.87l-1.323 1.226c-.352.32-.626.634-.826.937-.198.304-.323.568-.38.787h4.416v1.858h-7.21zm7.87-4.395l3.885-7.345h2.465v7.445h1.124v1.858h-1.123v2.437h-2.183v-2.437h-4.167v-1.958zm11.04 11.93c0-1.062-.858-1.923-1.917-1.923h-5.948v-2.01h3.904c1.63 0 2.948-1.325 2.948-2.957v-12.7c0-1.632-1.32-2.955-2.948-2.955h-14.62c-1.627 0-2.947 1.323-2.947 2.956v12.7c0 1.63 1.32 2.955 2.947 2.955h3.905v2.012h-42.3c-1.056 0-1.915.86-1.915 1.924v2.94h58.89v-2.94z" fill="#FACA00"/><path fill="#FACA00" d="M160.494 6.255h-.033l-2.28 4.46h2.314"/><path d="M109.628 65.846v4.93c0 1.868-1.514 3.387-3.375 3.387h-2.04v-2.16h.8c.97 0 1.754-.788 1.754-1.76V66.38c0-.97-.785-1.758-1.753-1.758h-40.89c-.967 0-1.752.787-1.752 1.758v3.866c0 .97.785 1.758 1.753 1.758h.683v2.16h-1.92c-1.862 0-3.377-1.518-3.377-3.386v-4.93c0-1.868 1.516-3.385 3.377-3.385h43.366c1.86 0 3.375 1.518 3.375 3.386zM96.716 91.73c.584.408 1.08.934 1.08 1.783 0 1.315-1.196 2.252-2.014 2.252-.318 0-.816-.117-1.194-.38l-6.825-4.68-1.887-1.29v4.35c0 .722-.586 1.308-1.305 1.308-.72 0-1.305-.586-1.305-1.31V87.63l-.167-.113h-1.594v6.247c0 .723-.585 1.31-1.306 1.31-.72 0-1.306-.587-1.306-1.31v-6.247h-5.535c-1.05 0-2.014-.47-2.014-2.106 0-1.49.73-2.134 2.014-2.134h5.535V77.03c0-.725.586-1.31 1.306-1.31.72 0 1.306.585 1.306 1.31v6.246h1.594l.167-.114V77.03c0-.725.586-1.31 1.306-1.31.72 0 1.306.585 1.306 1.31v4.348l1.887-1.29 6.825-4.68c.174-.116.672-.38 1.137-.38.846 0 2.07.878 2.07 2.312 0 .64-.32 1.198-1.08 1.723l-9.33 6.348 9.33 6.32zm9.537-32.785H62.887c-3.794 0-6.882 3.095-6.882 6.9v4.93c0 3.807 3.088 6.902 6.882 6.902h1.92v24.966c0 3.204 2.6 5.81 5.795 5.81h27.82c3.194 0 5.792-2.606 5.792-5.81V77.677h2.04c3.792 0 6.88-3.095 6.88-6.9v-4.93c0-3.807-3.088-6.902-6.88-6.902z" fill="#1257DC"/><path d="M40.53 53.333H7.22c-2.135 0-3.872-1.742-3.872-3.885V38.303h41.056v11.145c0 2.143-1.737 3.885-3.874 3.885M7.22 25.823h33.31c2.135 0 3.874 1.742 3.874 3.883v1.83H3.348v-1.83c0-2.14 1.737-3.884 3.872-3.884m33.962-3.09H6.57C2.946 22.732 0 25.686 0 29.32v20.515c0 3.632 2.947 6.588 6.57 6.588H41.18c3.62 0 6.57-2.956 6.57-6.588V29.32c0-3.634-2.947-6.588-6.57-6.588" fill="#2BB570"/><path d="M56.228 19.505L23.223 9.002c-3.454-1.1-7.154.823-8.25 4.288l-3.466 10.95c.093-.004.18-.014.274-.014 1.156 0 2.175.206 3.076.556l2.646-8.36.552-1.742c.646-2.04 2.827-3.176 4.864-2.527l31.748 10.104c2.035.648 3.166 2.836 2.52 4.877l-5.954 18.818c-.518 1.635-2.023 2.67-3.647 2.69.013 1.08-.166 2.17-.524 3.197 3.143.48 6.263-1.368 7.253-4.5l6.19-19.56c1.097-3.464-.82-7.175-4.275-8.275" fill="#2BB570"/></g></svg>