<svg width="172" height="90" viewBox="0 0 172 90" xmlns="http://www.w3.org/2000/svg"><title>Artboard</title><g fill="none" fill-rule="evenodd"><path d="M158.214 63.742c0 1.508-1.333 2.73-2.96 2.73h-59.15c-1.626 0-2.957-1.227-2.957-2.726V31.012c0-1.507 1.323-2.727 2.956-2.727h21.317l9.075 4.35c1.366.655 1.51 2.407.268 3.247l-11.048 7.454c-1.008.68-1.142 2.02-.286 2.86L126 56.552c1.57 1.537 4.29-.06 3.443-2.022l-3.516-8.157c-.403-.936.047-2 1.028-2.435l10.284-4.564c.972-.432 1.424-1.48 1.04-2.41l-3.593-8.683h20.567c1.627 0 2.96 1.23 2.96 2.732v32.73zM111.7 78.662l2.588-2.864h22.78l2.59 2.865H111.7zm20.767 3.13h-13.564c-.47 0-.85-.35-.85-.785 0-.434.38-.783.85-.783h13.564c.47 0 .85.35.85.783-.01.436-.382.785-.85.785zm30.52-12.52V28.605c0-1.718-1.524-3.127-3.39-3.127H91.768c-1.865 0-3.398 1.4-3.398 3.127V69.273l-8.474 9.386c0 2.585 2.277 4.69 5.082 4.69h81.397c2.803 0 5.083-2.105 5.083-4.69l-8.472-9.387z" fill="#1257DC"/><path d="M38.05 81.303c-.198 1.068-1.2 1.85-2.37 1.85H7.343c-1.174 0-2.173-.782-2.37-1.85-.196-1.065.473-2.108 1.58-2.464l9.432-3.032c.6-1.545 1.844-1.835 1.844-9.033 0-6.145-.894-7.303-1.45-8.606C7.4 55.77 1 47.274 1 37.52c0-2.27.346-4.516 1.03-6.675.3-.947 1.24-1.596 2.307-1.596h17.375l-1.388 12.024c-.015.135.002.264.045.384.042.12.11.23.2.32.18.186.443.303.735.303h3.586c.702 0 1.215.608 1.046 1.234l-.918 3.374-.61 2.246c-.012.038-.016.075-.016.11v.03c.002.028.004.052.01.077l.006.027c.01.032.023.063.04.09v.003c.016.026.036.053.057.075.006.008.014.013.02.02.018.018.037.033.055.048l.023.015c.028.02.057.034.088.047.003 0 .003.002.005.002.028.012.06.02.092.028l.028.006c.025.005.05.007.076.01h.03c.034 0 .067-.003.1-.01l.006-.003c.03-.007.06-.018.092-.032.01-.003.018-.007.03-.013.02-.01.044-.026.064-.04.008-.01.018-.015.027-.022.027-.023.054-.05.078-.08l8.006-10.54c.115-.152.172-.316.18-.48.004-.082-.004-.16-.022-.24-.01-.038-.023-.075-.037-.113-.135-.338-.48-.6-.928-.6H26.9c-.363 0-.674-.166-.868-.415-.158-.2-.24-.454-.197-.724l1.15-7.132c.12-.017.24-.027.363-.027h11.337c1.07 0 2.01.648 2.308 1.595.682 2.16 1.03 4.405 1.03 6.676 0 9.755-6.4 18.25-15.38 20.65-.556 1.3-1.45 2.46-1.45 8.605 0 7.187 1.237 7.475 1.847 9.035l9.43 3.03c1.106.355 1.775 1.398 1.58 2.463" fill="#2BB570"/><path d="M69.877 24.433V7.69c0-.46.44-.79.882-.662l8.383 2.427c.43.124.63.62.403 1.007L71.163 24.78c-.356.606-1.286.354-1.286-.347M62.97 30.146l-9.324-12.003c-.244-.316-.17-.77.16-.993l5.778-3.87c.404-.27.955-.05 1.058.423l3.513 15.89c.154.697-.748 1.118-1.186.553" fill="#6EA8F5"/></g></svg>