<svg width="167" height="86" viewBox="0 0 167 86" xmlns="http://www.w3.org/2000/svg" xmlns:xlink="http://www.w3.org/1999/xlink"><title>img</title><defs><path id="a" d="M42.083.188H0v42.218h42.083V.188z"/></defs><g fill="none" fill-rule="evenodd"><path d="M119.174 77.54c-1.14 1.143-2.495 1.718-4.058 1.718-1.564 0-2.917-.573-4.06-1.72-1.14-1.144-1.713-2.502-1.713-4.07 0-1.57.572-2.927 1.713-4.073 1.143-1.145 2.496-1.72 4.06-1.72 1.563 0 2.917.575 4.058 1.72 1.143 1.146 1.713 2.504 1.713 4.073 0 1.568-.57 2.926-1.713 4.07zm-38.69-27.235H63.17V48.95c0-.395.134-.725.405-.997l8.792-8.82c.272-.273.603-.408.994-.408h7.125v11.58zM78.773 77.54c-1.143 1.143-2.496 1.718-4.06 1.718-1.562 0-2.915-.573-4.058-1.72-1.143-1.144-1.713-2.502-1.713-4.07 0-1.57.573-2.927 1.714-4.073 1.143-1.145 2.494-1.72 4.058-1.72 1.564 0 2.917.575 4.06 1.72 1.143 1.146 1.713 2.504 1.713 4.073 0 1.568-.57 2.926-1.713 4.07zm52.803-55.33c-.57-.57-1.248-.858-2.028-.858H83.372c-.783 0-1.46.287-2.03.86-.57.572-.857 1.252-.857 2.036v8.686H73.27c-.812 0-1.69.195-2.64.587-.944.395-1.704.876-2.275 1.448l-8.93 8.958c-.39.39-.726.844-1.013 1.357-.286.512-.496.974-.63 1.38-.137.407-.234.965-.294 1.674-.06.71-.1 1.228-.112 1.56-.015.332-.015.906 0 1.72.015.815.022 1.342.022 1.584v14.476c-.782 0-1.457.287-2.03.86-.57.572-.856 1.253-.856 2.036 0 .452.06.852.18 1.198.12.348.322.625.608.838.287.21.535.384.745.52.21.136.563.226 1.06.27.496.047.834.077 1.014.093.18.014.563.014 1.15 0 .585-.015.924-.022 1.013-.022h2.887c0 3.196 1.127 5.925 3.38 8.187 2.256 2.26 4.976 3.392 8.164 3.392 3.186 0 5.906-1.13 8.16-3.392 2.256-2.262 3.382-4.99 3.382-8.187h17.316c0 3.196 1.127 5.925 3.383 8.187 2.253 2.26 4.975 3.392 8.16 3.392 3.19 0 5.907-1.13 8.162-3.392 2.255-2.262 3.38-4.99 3.38-8.187.092 0 .43.007 1.015.023.588.014.97.014 1.15 0 .183-.015.52-.045 1.017-.09.493-.046.848-.136 1.058-.273.21-.135.46-.308.743-.52.287-.212.49-.49.61-.837.123-.346.18-.746.18-1.198V24.248c0-.784-.283-1.462-.855-2.037z" fill="#2BB570"/><g transform="translate(0 .075)"><mask id="b" fill="#fff"><use xlink:href="#a"/></mask><path d="M21.04 37.674c-9 0-16.323-7.347-16.323-16.377 0-9.03 7.322-16.377 16.324-16.377 9.002 0 16.326 7.347 16.326 16.377 0 9.03-7.324 16.377-16.325 16.377m0-37.487C9.44.187 0 9.657 0 21.297c0 11.64 9.438 21.11 21.04 21.11 11.602 0 21.043-9.47 21.043-21.11 0-11.64-9.44-21.11-21.042-21.11" fill="#FACA00" mask="url(#b)"/></g><path d="M21.026 8.152c-1.188 0-2.15.966-2.15 2.154v8.91H13.29c-1.183 0-2.146.964-2.146 2.156 0 1.188.963 2.154 2.145 2.154h7.736c1.186 0 2.15-.966 2.15-2.154V10.306c0-1.188-.962-2.154-2.15-2.154" fill="#FACA00"/><path d="M166.515 79.045c0 1.846-1.492 3.344-3.334 3.344-1.84 0-3.333-1.5-3.333-3.345 0-1.847 1.494-3.345 3.334-3.345 1.843 0 3.335 1.498 3.335 3.345zm-11.786 0c0 1.846-1.493 3.344-3.335 3.344-1.84 0-3.334-1.5-3.334-3.345 0-1.847 1.495-3.345 3.335-3.345 1.842 0 3.334 1.498 3.334 3.345zm-11.787 0c0 1.846-1.492 3.344-3.334 3.344-1.84 0-3.335-1.5-3.335-3.345 0-1.847 1.494-3.345 3.334-3.345s3.333 1.498 3.333 3.345z" fill="#2BB570"/></g></svg>