<svg xmlns="http://www.w3.org/2000/svg" height="96" width="168" viewBox="0 0 168 96"><title>img</title><g fill-rule="evenodd" fill="none"><path d="M154.766 57.114c-1.43 0-2.59-1.164-2.59-2.596 0-1.435 1.16-2.598 2.59-2.598 1.432 0 2.59 1.163 2.59 2.598 0 1.432-1.158 2.596-2.59 2.596zm-17.094-2.596c0-1.435 1.16-2.598 2.59-2.598 1.432 0 2.592 1.163 2.592 2.598 0 1.432-1.16 2.596-2.59 2.596s-2.592-1.164-2.592-2.596zm20.734 22.978c-.6-1.058-.3-2.393.688-3.102 5.335-3.832 8.7-10.22 8.276-17.4-.587-9.878-8.52-17.934-18.36-18.654-11.66-.855-21.386 8.384-21.386 19.892 0 6.683 3.283 12.553 8.317 16.162.986.707 1.28 2.042.685 3.1l-8.32 14.72c-.896 1.586.246 3.55 2.062 3.55h34.295c1.816 0 2.958-1.966 2.063-3.55l-8.32-14.718z" fill="#2377E4"/><path stroke-linejoin="round" d="M96.272 59.48h11.938c7.23 0 13.08-5.857 13.08-13.08V15.08c0-7.226-5.85-13.08-13.08-13.08H15.08C7.854 2 2 7.856 2 15.08V46.4c0 7.224 5.856 13.08 13.08 13.08h70.055l11.94 7.976-.803-7.977z" stroke="#6EA8F5" stroke-linecap="round" stroke-width="3.269" fill="#fff"/><path fill="#888" d="M45.847 15.22v-.85h6.047c.703 0 .834-.31.834-.833 0-.654-.49-.72-.834-.72h-6.047v-.702c0-.588-.376-.72-.915-.72-.523 0-.8.23-.8.72v.703h-6c-.72 0-.833.36-.833.834 0 .653.49.72.832.72h6v.85h-3.99c-1.176 0-1.634.44-1.634 1.65v2.99c0 1.243.49 1.65 1.635 1.65h2.566c-1.783 1.75-2.992 2.273-4.807 3.058-.392.18-.457.44-.457.67 0 .474.327 1.046.915 1.046.46 0 2.077-.948 2.436-1.177 1.243-.785 2.42-1.7 3.335-2.86v3.693c0 .604.262.85.9.85.817 0 .817-.62.817-.85v-3.71c1.75 2.288 5.296 4.086 5.835 4.086.605 0 .9-.67.9-1.08 0-.213-.067-.474-.475-.654-1.978-.85-2.99-1.275-4.854-3.073h2.63c1.112 0 1.652-.376 1.652-1.65V16.87c0-1.24-.507-1.65-1.65-1.65h-4.038zm-5.72 2.518v-.703c0-.23.08-.458.457-.458h3.547v1.16h-4.004zm4.004 2.45h-3.546c-.36 0-.458-.195-.458-.456v-.736h4.005v1.193zm1.717-3.61h3.628c.344 0 .442.212.442.457v.703h-4.07v-1.16zm4.07 2.418v.736c0 .212-.066.457-.442.457h-3.628v-1.194h4.07zm11.96 1.815h3.27c1.21 0 1.813-.408 1.813-1.83v-1.602c0-1.422-.604-1.814-1.814-1.814H56.86c-1.275 0-1.83.44-1.83 1.814v1.602c0 1.39.57 1.83 1.83 1.83h3.268v3.286c0 .327-.13.572-.457.637-.032.017-.947.017-1.045.017-.376 0-1.046 0-1.046.833 0 .23.08.654.358.834.23.13.327.147 1.373.147 1.636 0 2.567 0 2.567-1.83V20.81zm3.286-2.14c0 .424-.197.653-.638.653h-7.093c-.442 0-.638-.23-.638-.654v-1.014c0-.44.23-.637.638-.637h7.093c.392 0 .638.178.638.636v1.013zm-3.286-5.77v-.736c0-.637-.408-.752-.964-.752-.588 0-.834.278-.834.752v.736h-5.966c-.425 0-.85.13-.85.8 0 .77.604.785.85.785h13.762c.376 0 .866-.082.866-.8 0-.785-.654-.785-.866-.785h-6zm-4.952 8.613c-.327 0-.458.147-.703.474-.343.474-.915 1.275-1.732 1.962-.965.8-.98.816-.98 1.16 0 .473.39.964.93.964.213 0 .36-.066.605-.246.54-.425.965-.85 1.422-1.34.474-.54 1.406-1.618 1.406-2.108 0-.654-.768-.867-.948-.867zm7.747-.05c-.31 0-.948.296-.948.884 0 .425.8 1.29 1.193 1.716.393.41 1.945 1.96 2.583 1.96.556 0 .93-.587.93-1.028 0-.115 0-.343-.342-.59-.735-.522-1.503-1.077-2.174-1.878-.85-1.014-.882-1.063-1.242-1.063zm11.78-5c1.014-1.357 1.98-3.17 1.98-3.63 0-.67-.786-.734-.884-.734-.392 0-.523.244-.572.326-.098.212-.54 1.242-.654 1.47 0-.342-.098-.75-.784-.75h-1.44v-.982c0-.572-.374-.72-.88-.72-.606 0-.77.344-.77.72v.98h-1.846c-.59 0-.785.295-.785.785 0 .67.523.72.785.72h1.847v1.813h-2.355c-.507 0-.785.212-.785.768 0 .23.1.737.785.737h2.926c-.964.768-2.026 1.405-3.137 1.96-.344.164-.622.328-.622.785 0 .376.214.883.737.883.278 0 .523-.13.817-.278v3.498c0 1.26.523 1.634 1.635 1.634h3.284c1.08 0 1.65-.344 1.65-1.635V20.81c0-1.274-.555-1.65-1.65-1.65h-1.88c.785-.654 1.112-.997 1.308-1.193H77.5c.555 0 .767-.344.767-.77 0-.522-.31-.734-.768-.734h-1.047zM72.4 21.007c0-.31.163-.458.457-.458h2.5c.312 0 .46.146.46.457v1.046H72.4v-1.046zm3.416 2.37v1.193c0 .31-.164.457-.458.457h-2.5c-.328 0-.458-.163-.458-.457v-1.193h3.416zm-1.766-6.914V14.65h1.488c.23 0 .31-.034.408-.067-.343.572-.62 1.03-1.356 1.88h-.54zm6.13-2.5c0-.295.13-.46.457-.46h1.455c.212 0 .458 0 .458.296 0 .358-.622 1.91-1.03 2.745-.36.75-.54 1.11-.54 1.487 0 .327.13.474.67 1.11.426.492 1.226 1.44 1.226 2.862 0 .555-.18 1.062-.506 1.242-.164.114-.327.114-.768.114-.59 0-1.095 0-1.095.8 0 .884.637.884 1.11.884.867 0 2.96 0 2.96-2.893 0-1.307-.507-2.55-1.472-3.628-.36-.408-.44-.523-.44-.72 0-.13.015-.195.244-.67.735-1.584 1.356-2.908 1.356-4.118 0-1.095-.932-1.095-1.75-1.095H80.23c-1.374 0-1.685.342-1.685 1.683v12.42c0 .508.196.786.866.786.77 0 .77-.573.77-.786V13.962zM41.15 37.09c.198 0 .85 0 .85-.736 0-.752-.67-.752-.85-.752h-1.878v-1.65h1.503c.148 0 .85 0 .85-.736 0-.752-.702-.752-.85-.752h-1.503v-.72c0-.653-.572-.702-.785-.702-.44 0-.817.18-.817.703v.72h-2.86v-.72c0-.62-.507-.686-.785-.686-.425 0-.8.178-.8.685v.72h-1.488c-.147 0-.85 0-.85.735 0 .752.703.752.85.752h1.487v1.65H31.28c-.164 0-.834 0-.834.736 0 .752.653.752.833.752h1.928c-.54.964-1.504 1.634-2.027 1.96-.8.49-.914.557-.914.95 0 .424.327.882.8.882.377 0 1.554-.867 1.766-1.046.13.05.18.05.392.05h4.43c.31 0 .457.162.457.473v.57c0 .28-.13.458-.456.458h-3.94c-1.34 0-1.683.31-1.683 1.684v1.585c0 1.47.85 1.504 1.8 1.504h5.458c1.095 0 1.65 0 1.978-.587.327-.605.343-1.88.343-1.994 0-.263 0-.884-.85-.884-.67 0-.704.343-.77 1.013-.08.898-.08.947-.85.947h-4.82c-.377 0-.654 0-.654-.49v-.98c0-.328.163-.458.457-.458h3.907c1.34 0 1.683-.312 1.683-1.7v-.998c.425.343 1.095.915 1.504.915.474 0 .833-.44.833-.915 0-.376-.05-.41-1.127-1.095-.948-.605-1.455-1.324-1.83-1.847h2.058zm-3.84 0c.246.555.638 1.08 1.014 1.536H34.09c.54-.605.818-1.046 1.063-1.536h2.157zm.36-1.488h-2.86v-1.65h2.86v1.65zm-8.025 4.61c-.507 0-.62.294-.785.72-.376.947-.703 1.78-1.226 2.81-.67 1.29-.72 1.39-.72 1.602 0 .343.377.817.933.817.376 0 .62-.097 1.455-1.993.294-.654 1.193-2.713 1.193-3.204 0-.555-.572-.75-.85-.75zm.31-6.18c.393.018.785-.44.785-.914 0-.36-.213-.572-.98-1.08-.622-.39-1.21-.783-1.537-.783-.572 0-.85.572-.85.882 0 .23.13.425.327.572.18.13 1.11.72 1.324.866.588.425.654.457.93.457zm-.588 4.463c.474 0 .8-.523.8-.915s-.31-.67-.98-1.095c-.392-.245-1.21-.768-1.536-.768-.57 0-.85.556-.85.882 0 .26.148.424.28.522.162.115.98.654 1.16.785.784.54.865.588 1.127.588zm22.52-1.078c-1.357-.997-3.253-2.125-3.45-2.24-.506-.31-.653-.375-.898-.375-.574 0-.868.588-.868.948 0 .375.18.49.67.784 1.292.768 2.338 1.39 3.384 2.174-.245.26-.703.703-1.455 1.324-1.012.817-1.274.964-2.712 1.814-.164.098-.425.278-.425.687 0 .375.343.997.98.997.213 0 .344-.017 1.177-.556 1.422-.915 2.844-2.158 3.84-3.187 1.03.833 2.044 1.683 2.96 2.647.23.23.408.41.72.41.506 0 1.03-.49 1.03-1.03 0-.328-.148-.475-.85-1.128-1.113-1.03-2.6-2.158-2.698-2.223 1.11-1.44 2.337-3.367 2.337-3.743 0-.59-.687-.866-1.03-.866-.393 0-.556.228-.703.49-.72 1.258-1.16 2.043-2.01 3.073zm-6.31-5.786c-1.487 0-2.14.524-2.14 2.158v10.02c0 1.683.702 2.157 2.14 2.157h11.72c.326 0 .85-.033.85-.817 0-.785-.557-.8-.85-.8h-11.28c-.67 0-.816-.426-.816-.835V34.1c0-.524.23-.835.818-.835h11.017c.278 0 .85-.016.85-.817 0-.817-.62-.817-.85-.817H45.577zM75.644 43.63v.702c0 .49-.392.49-.686.49-.23 0-1.34-.048-1.602-.048-.327 0-.785 0-.785.686 0 .785.54.8 1.832.8 1.52 0 1.978-.015 2.37-.244.588-.36.605-1.03.605-1.618v-4.282c0-1.324-.54-1.75-1.75-1.75h-8.155c-1.21 0-1.75.426-1.75 1.75v5.46c0 .685.328.865.932.865.736 0 .8-.524.8-.867v-1.945h8.19zm-8.19-3.596c0-.294.132-.458.46-.458h7.272c.344 0 .458.18.458.458v.392h-8.19v-.392zm8.19 2.45h-8.19v-.88h8.19v.88zm-4.97-10.377H65.02c-.458 0-.703.228-.703.67 0 .572.392.67.703.67h5.655v.8h-4.952c-.425 0-.638.23-.638.606 0 .344.18.59.638.59h4.952v.865H64.58c-.443 0-.72.196-.72.703 0 .654.523.67.72.67h13.924c.164 0 .703 0 .703-.686 0-.687-.556-.687-.703-.687h-6.08v-.866h4.985c.408 0 .62-.214.62-.606 0-.36-.196-.588-.62-.588h-4.986v-.8h5.672c.44 0 .703-.214.703-.67 0-.573-.41-.67-.704-.67h-5.672v-.46c0-.506-.294-.685-.948-.685-.49 0-.8.197-.8.687v.458zm15.95 12.176h-3.678c-.506 0-.686-.276-.686-.67v-9.135c0-.54-.164-.85-.948-.85-.85 0-.85.588-.85.85v9.578c0 1.503.654 1.912 1.93 1.912h10.263c1.275 0 1.93-.41 1.93-1.912v-9.578c0-.507-.148-.85-.966-.85-.867 0-.867.604-.867.85v9.136c0 .426-.212.67-.67.67h-3.66V31.81c0-.474-.132-.817-.95-.817-.85 0-.85.572-.85.817v12.47z"/><path opacity=".8" fill="#FF4545" d="M36.317 15.138h50.66v8.21h-50.66zM24.878 34.845h73.537v8.21H24.878z"/></g></svg>