<svg width="362" height="218" viewBox="0 0 362 218" xmlns="http://www.w3.org/2000/svg" xmlns:xlink="http://www.w3.org/1999/xlink"><title>Group 2</title><defs><path id="a" d="M94.86 65.204V.068H0v65.136h94.86z"/><path id="c" d="M47.378.107H0v40.685h47.378V.107z"/></defs><g fill="none" fill-rule="evenodd"><path d="M163.963 56.5c0 1.637-1.448 2.964-3.216 2.964H96.5c-1.765 0-3.21-1.333-3.21-2.96V20.96c0-1.636 1.436-2.96 3.21-2.96h23.154l9.857 4.72c1.484.714 1.642 2.616.292 3.527l-12 8.094c-1.095.737-1.24 2.193-.31 3.104l11.482 11.246c1.705 1.668 4.658-.064 3.74-2.195l-3.82-8.86c-.438-1.015.05-2.17 1.117-2.643l11.17-4.955c1.057-.47 1.548-1.608 1.13-2.617l-3.9-9.428h22.337c1.768 0 3.216 1.333 3.216 2.965V56.5zM113.44 72.7l2.812-3.11h24.74l2.817 3.11h-30.37zm22.557 3.397h-14.733c-.51 0-.922-.38-.922-.852 0-.47.413-.85.922-.85h14.733c.51 0 .922.38.922.85-.01.473-.414.852-.923.852zm33.15-13.592V18.348c0-1.866-1.656-3.395-3.683-3.395h-73.67c-2.027 0-3.692 1.52-3.692 3.395V62.505l-9.204 10.19c0 2.808 2.473 5.094 5.52 5.094h88.412c3.044 0 5.52-2.287 5.52-5.094l-9.202-10.19z" fill="#1257DC"/><path d="M40.24 75.567c-.212 1.16-1.3 2.007-2.573 2.007H6.89c-1.274 0-2.36-.848-2.573-2.007-.213-1.157.513-2.29 1.714-2.676l10.247-3.29c.653-1.677 2.003-1.992 2.003-9.808 0-6.67-.97-7.928-1.575-9.343C6.953 47.84 0 38.62 0 28.03c0-2.466.375-4.905 1.12-7.25.324-1.027 1.345-1.732 2.504-1.732h18.873L20.99 32.104c-.017.147 0 .287.048.418.046.13.122.248.22.348.195.2.48.327.797.327h3.895c.76 0 1.32.66 1.134 1.34l-.997 3.663-.66 2.44c-.015.04-.02.08-.02.12v.032c.003.03.005.055.012.082 0 .01.003.02.006.03.01.034.024.066.042.097v.003c.018.03.04.057.062.082l.022.022c.02.02.04.035.06.052.01.005.018.01.024.015.032.02.063.037.096.05.002 0 .002.003.004.003.032.013.065.023.1.03l.03.007c.028.004.057.006.084.008l.02.002.01-.002c.038 0 .074-.002.11-.01l.006-.002c.033-.007.067-.02.1-.034.01-.004.02-.008.03-.014.026-.012.05-.03.072-.045.01-.008.02-.014.03-.023.03-.024.06-.053.086-.088l8.695-11.444c.124-.164.186-.342.195-.518.004-.09-.005-.176-.025-.262-.01-.04-.024-.082-.04-.123-.146-.367-.52-.652-1.008-.652H28.13c-.393 0-.73-.18-.94-.45-.172-.218-.26-.494-.215-.787l1.248-7.743c.13-.018.262-.03.396-.03H40.93c1.16 0 2.182.706 2.507 1.734.74 2.345 1.118 4.784 1.118 7.25 0 10.59-6.953 19.812-16.705 22.42-.604 1.412-1.575 2.67-1.575 9.342 0 7.804 1.344 8.117 2.005 9.81l10.244 3.29c1.2.386 1.927 1.518 1.714 2.675" fill="#00C592"/><path d="M69.713 18.928V.748c0-.497.48-.856.96-.718l9.104 2.635c.47.135.684.673.44 1.094L71.11 19.303c-.387.66-1.397.386-1.397-.376M62.21 25.132L52.084 12.1c-.265-.344-.185-.838.175-1.08l6.274-4.2c.438-.293 1.037-.055 1.15.458l3.814 17.252c.168.758-.812 1.214-1.288.602" fill="#6EA8F5"/><path d="M37.636 110.405c0 3.193-.025 7.077-1.478 9.657v-9.12c0-2.146-.56-2.632-2.652-2.632h-1.733c.535-1.763.84-3.576 1.096-5.39h3.237c.305 0 1.325 0 1.325-1.252 0-1.226-1.02-1.226-1.325-1.226h-7.444c-.28 0-1.352 0-1.352 1.252 0 1.226 1.072 1.226 1.353 1.226h1.733c-.102.97-.255 2.07-.714 3.704-.535 1.865-.79 2.504-2.473 5.084-.077.128-.23.485-.23.87 0 .765.535 1.48 1.224 1.48.408 0 .688-.255.866-.46v6.26c0 2.12.816 2.656 2.652 2.656h1.784c.51 0 1.224-.025 1.734-.255.127.69.765 1.097 1.3 1.097.56 0 .867-.357 1.377-1.38 1.86-3.652 1.937-7.178 1.988-10.37h6.373c.306 0 .74 0 .74.484 0 .257-.56 2.735-2.218 4.88-1.046-1.302-1.275-1.915-2.116-4.266-.128-.383-.306-.792-.995-.792-.128 0-1.25 0-1.25 1.073 0 .64.765 3.22 2.626 5.697-.433.358-1.428 1.124-3.9 2.197-.434.178-.765.383-.765.945 0 .664.485 1.48 1.276 1.48.637 0 2.778-.893 5.022-2.834 1.937 1.712 4.053 2.938 5.073 2.938.842 0 1.3-.945 1.3-1.558 0-.383-.127-.74-.738-1.022-2.932-1.405-3.01-1.43-3.9-2.197 2.013-2.63 3.033-5.594 3.033-7.305 0-2.095-1.657-2.095-2.677-2.095h-1.63v-4.522h2.37c.203 0 .586 0 .586.434 0 .307-.306 1.124-.434 1.406-.33.817-.357.817-.357.996 0 .92 1.097.92 1.2.92.738 0 .967-.358 1.273-1.1.102-.28.765-2.043.765-3.192 0-1.865-1.58-1.865-2.446-1.865h-2.957v-1.635c0-.383 0-1.2-1.275-1.2s-1.275.868-1.275 1.2v1.635h-2.065c-2.345 0-2.906.613-2.906 2.912v5.185zm2.27-4.777c0-.613.305-.92.917-.92h1.886v4.522h-2.805v-3.602zm-6.12 13.872c0 .357-.178.587-.56.587h-1.173c-.408 0-.56-.255-.56-.587v-8.277c0-.384.178-.588.56-.588h1.173c.357 0 .56.204.56.588v8.277zm41.835-9.708c0-1.967-.84-2.555-2.574-2.555h-8.744c-1.76 0-2.575.613-2.575 2.555v6.72c0 1.99.84 2.58 2.575 2.58h8.744c1.76 0 2.575-.59 2.575-2.58v-6.72zm-2.472 4.113h-8.974v-1.507h8.974v1.507zm-8.974-4.01c0-.512.255-.742.714-.742h7.546c.484 0 .714.256.714.74v.82h-8.974v-.82zm8.974 5.696v.895c0 .51-.255.74-.714.74h-7.546c-.484 0-.714-.254-.714-.714v-.92h8.974zm1.937-12.926c0-1.967-.51-2.452-2.626-2.452h-7.47c-2.14 0-2.626.51-2.626 2.452v.97c0 1.994.536 2.454 2.626 2.454h7.47c2.115 0 2.625-.486 2.625-2.453v-.97zm-2.447.92c0 .383-.204.613-.612.613h-6.628c-.33 0-.612-.18-.612-.613v-.766c0-.41.255-.613.612-.613h6.628c.382 0 .612.204.612.613v.766zm-14.2 10.193c2.6-1.073 3.034-1.303 3.034-2.146 0-.484-.28-1.148-1.02-1.148-.357 0-.51.05-2.014.613v-4.292h1.683c.562 0 1.3-.128 1.3-1.277 0-1.252-.942-1.278-1.3-1.278H58.44v-3.397c0-.357 0-1.353-1.274-1.353-1.275 0-1.275 1.02-1.275 1.354v3.398H53.9c-.407 0-1.274.05-1.274 1.278 0 1.277.943 1.277 1.275 1.277h1.99v5.212c-.41.153-2.372.74-2.6.843-.256.102-.792.306-.792 1.124 0 .536.255 1.456 1.122 1.456.357 0 .867-.153 2.27-.664v5.058c0 .332-.077.69-.46.792-.076.025-1.07.025-1.223.025-.357 0-.56.05-.69.127-.483.256-.56.818-.56 1.15 0 1.43 1.02 1.43 2.142 1.43 2.166 0 3.338 0 3.338-2.657v-6.923zm11.447 6.745c0 .408.153.74 2.014 1.66.585.307 2.624 1.278 3.415 1.278.866 0 1.172-.92 1.172-1.43 0-.512-.23-.767-.892-.997-1.275-.435-2.04-.69-3.008-1.176-1.198-.613-1.25-.638-1.58-.638-.612 0-1.122.484-1.122 1.302zm-3.773-1.303c-.306 0-.638.152-1.35.484-.996.46-1.735.792-3.035 1.2-1.07.333-1.453.435-1.453 1.202 0 .306.153 1.354 1.198 1.354.765 0 2.753-.87 3.518-1.227 1.86-.894 2.192-1.073 2.192-1.788 0-.434-.305-1.226-1.07-1.226zm23.963-10.322c-1.453 0-2.65 1.175-2.65 2.657 0 1.456 1.172 2.657 2.65 2.657 1.48 0 2.65-1.2 2.65-2.657 0-1.482-1.197-2.657-2.65-2.657zm26.87-3.602c.612-1.124.917-1.737 1.12-2.197h8.185c.994 0 1.35-.436 1.35-1.406 0-1.227-.942-1.252-1.35-1.252h-21.363c-.995 0-1.352.434-1.352 1.405 0 1.226.97 1.252 1.352 1.252h10.222c-1.887 3.984-5.737 7.918-10.045 10.345-.84.46-1.377.792-1.377 1.533 0 .792.663 1.66 1.453 1.66.64 0 1.94-.894 2.602-1.353 2.702-1.84 4.767-4.037 6.347-5.953v12.85c0 .92.382 1.33 1.504 1.33 1.325 0 1.35-.92 1.35-1.33v-16.886zm9.075 11.266c.638 0 1.504-.64 1.504-1.66 0-.588-.306-.844-.637-1.1-1.504-1.123-3.722-2.81-5.812-5.338-1.505-1.814-1.58-1.916-2.193-1.916-.612 0-1.35.536-1.35 1.277 0 .255.126.536.458 1.022.255.357 2.65 3.602 5.506 6.105 1.58 1.38 1.99 1.61 2.524 1.61zm15.5 1.94h2.88v3.655c0 .332 0 1.175 1.097 1.175 1.07 0 1.07-.87 1.07-1.175v-3.654h2.958v1.814c0 .792-.485.792-1.147.792-.255 0-.97 0-.97 1.072 0 1.124.868 1.15 1.454 1.15 2.014.025 3.034-.026 3.034-2.35v-9.146c0-2.02-.893-2.58-2.575-2.58h-7.443c-1.708 0-2.575.56-2.575 2.58v10.602c0 .485.076 1.175 1.122 1.175 1.096 0 1.096-.818 1.096-1.175v-3.935zm0-5.49v-1.125c0-.716.51-.716.816-.716h2.065v1.84h-2.88zm5.048-1.84h2.192c.484 0 .714.23.714.715v1.124h-2.906v-1.84zm-2.167 5.518h-2.88v-1.865h2.88v1.865zm5.074-1.865v1.865h-2.906v-1.865h2.906zm-7.7-13.157v-1.124c0-.818-.458-1.073-1.4-1.073-1.02 0-1.2.563-1.2 1.074v1.124h-2.625c-.588 0-1.148.204-1.148 1.073 0 1.074.866 1.074 1.147 1.074h2.625v2.07h-3.62c-.434 0-1.173.025-1.173 1.098 0 .562.255 1.047.84 1.047h.69v4.93c0 1.94-.255 4.7-1.046 6.923-.586 1.686-.663 1.89-.663 2.17 0 .844.918 1.074 1.403 1.074.713 0 .892-.332 1.402-1.788 1.223-3.424 1.25-7.588 1.25-8.482v-4.83h13.536c.433 0 1.172-.05 1.172-1.072 0-1.073-.84-1.073-1.172-1.073h-3.315v-2.07h2.65c.485 0 1.173-.127 1.173-1.072 0-1.072-.917-1.072-1.172-1.072h-2.65v-1.15c0-.868-.536-1.073-1.403-1.073-.943 0-1.198.486-1.198 1.073v1.15h-4.105zm4.105 4.215h-4.105v-2.07h4.104v2.07zm-12.288.256c.79-2.147 1.427-4.855 1.427-5.494 0-.92-.842-1.098-1.275-1.098-.56 0-.816.23-.944.51-.1.205-.407 1.56-.585 2.35-.408 1.764-1.453 4.395-2.09 5.442-1.326 2.172-1.352 2.197-1.352 2.734 0 .715.485 1.558 1.275 1.558.535 0 .79-.383 1.096-.843v11.138c0 .485.05 1.2 1.224 1.2 1.224 0 1.224-.843 1.224-1.2v-16.3z" fill="#646464"/><g transform="translate(186.948 81.75)"><path d="M67.878 40.295c2.2.008 3.993-1.783 4-3.996l.05-15.64c.024-6.99 5.7-12.663 12.654-12.64 6.952.022 12.592 5.733 12.567 12.724l-.052 15.64c-.008 2.21 1.773 4.014 3.974 4.02 2.2.008 3.993-1.782 4-3.996l.05-15.64C105.163 9.357 95.957.04 84.608 0c-11.35-.037-20.613 9.22-20.65 20.632l-.052 15.64c-.01 2.212 1.772 4.014 3.973 4.023" fill="#FACA00"/><g transform="translate(36.955 31.12)"><mask id="b" fill="#fff"><use xlink:href="#a"/></mask><path d="M85.358 13.21H83.21v2.16c0 .743-.6 1.343-1.335 1.343-.738 0-1.334-.6-1.334-1.343v-2.16h-2.148c-.738 0-1.334-.6-1.334-1.342 0-.74.596-1.343 1.334-1.343h2.15v-2.16c0-.74.595-1.342 1.333-1.342.736 0 1.335.602 1.335 1.342v2.16h2.148c.736 0 1.335.603 1.335 1.343 0 .742-.6 1.342-1.335 1.342m-5.572 28.02h-2.15v2.162c0 .742-.598 1.342-1.333 1.342-.74 0-1.335-.6-1.335-1.342v-2.16H72.82c-.74 0-1.335-.6-1.335-1.343 0-.74.596-1.343 1.335-1.343h2.148v-2.16c0-.74.596-1.343 1.335-1.343.735 0 1.334.603 1.334 1.342v2.16h2.15c.734 0 1.333.603 1.333 1.343 0 .742-.6 1.34-1.334 1.34m-12.54-14.01H65.1v2.16c0 .744-.6 1.343-1.336 1.343-.738 0-1.335-.6-1.335-1.342v-2.16h-2.15c-.737 0-1.334-.6-1.334-1.342 0-.74.597-1.342 1.335-1.342h2.15v-2.16c0-.74.596-1.343 1.334-1.343.736 0 1.335.603 1.335 1.343v2.16h2.147c.736 0 1.335.603 1.335 1.342 0 .743-.6 1.343-1.335 1.343m0 28.022H65.1v2.16c0 .743-.6 1.343-1.336 1.343-.738 0-1.335-.6-1.335-1.342v-2.16h-2.15c-.737 0-1.334-.6-1.334-1.343 0-.74.597-1.342 1.335-1.342h2.15v-2.16c0-.74.596-1.343 1.334-1.343.736 0 1.335.602 1.335 1.342v2.16h2.147c.736 0 1.335.603 1.335 1.343 0 .742-.6 1.342-1.335 1.342M50.53 13.21h-2.15v2.16c0 .743-.6 1.343-1.334 1.343-.74 0-1.335-.6-1.335-1.343v-2.16h-2.147c-.738 0-1.335-.6-1.335-1.342 0-.74.597-1.343 1.335-1.343h2.148v-2.16c0-.74.597-1.342 1.336-1.342.735 0 1.335.602 1.335 1.342v2.16h2.15c.734 0 1.333.603 1.333 1.343 0 .742-.6 1.342-1.334 1.342m0 28.02h-2.15v2.162c0 .742-.6 1.342-1.334 1.342-.74 0-1.335-.6-1.335-1.342v-2.16h-2.147c-.738 0-1.335-.6-1.335-1.343 0-.74.597-1.343 1.335-1.343h2.148v-2.16c0-.74.597-1.343 1.336-1.343.735 0 1.335.603 1.335 1.342v2.16h2.15c.734 0 1.333.603 1.333 1.343 0 .742-.6 1.34-1.334 1.34M35.203 27.22h-2.148v2.16c0 .744-.6 1.343-1.335 1.343-.737 0-1.334-.6-1.334-1.342v-2.16h-2.148c-.738 0-1.335-.6-1.335-1.342 0-.74.597-1.342 1.335-1.342h2.148v-2.16c0-.74.597-1.343 1.335-1.343.737 0 1.336.603 1.336 1.343v2.16h2.148c.735 0 1.335.603 1.335 1.342 0 .743-.6 1.343-1.336 1.343m-2.786 28.022h-2.15v2.16c0 .743-.598 1.343-1.333 1.343-.74 0-1.335-.6-1.335-1.342v-2.16h-2.148c-.74 0-1.335-.6-1.335-1.343 0-.74.596-1.342 1.335-1.342H27.6v-2.16c0-.74.596-1.343 1.335-1.343.735 0 1.334.602 1.334 1.342v2.16h2.148c.735 0 1.334.603 1.334 1.343 0 .742-.6 1.342-1.334 1.342m-11.146-14.01h-2.148v2.16c0 .742-.6 1.342-1.335 1.342-.74 0-1.335-.6-1.335-1.342v-2.16h-2.15c-.737 0-1.333-.6-1.333-1.343 0-.74.596-1.343 1.334-1.343h2.15v-2.16c0-.74.595-1.343 1.333-1.343.735 0 1.334.603 1.334 1.342v2.16h2.148c.736 0 1.335.603 1.335 1.343 0 .742-.6 1.34-1.335 1.34m-10.39-25.86v-2.16H8.734c-.74 0-1.335-.6-1.335-1.342 0-.74.595-1.343 1.334-1.343h2.148v-2.16c0-.74.596-1.342 1.334-1.342.736 0 1.335.602 1.335 1.342v2.16h2.15c.735 0 1.334.603 1.334 1.343 0 .742-.6 1.342-1.335 1.342h-2.15v2.16c0 .743-.598 1.343-1.334 1.343-.738 0-1.334-.6-1.334-1.343M93.288.373L72.12.303l-.016 5c-.014 4.424-3.603 8.008-8 7.994-4.397-.017-7.963-3.623-7.95-8.048l.017-5L38.93.19l-.017 5.003c-.014 4.422-3.603 8.008-8 7.992-4.4-.014-7.963-3.624-7.95-8.045L22.98.138 1.58.068C.48.065-.2.934.055 2.01l13.762 57.183c.833 3.214 4.185 5.83 7.487 5.84l51.834.17c3.308.012 6.674-2.58 7.532-5.79l14.134-57.09c.262-1.076-.412-1.947-1.516-1.95" fill="#FACA00" mask="url(#b)"/></g><rect fill="#FFF" x="112.811" y="53.059" width="62.241" height="49.129" rx="5.099"/><path d="M165.94 59.045v11.01h5.014v-11.01c0-1.636-1.29-2.975-2.865-2.975h-3.22c-.92 0 1.07.658 1.07 2.975M165.94 82.77v11.01c0 2.468-1.862 2.976-.625 2.976h2.774c1.574 0 2.864-1.34 2.864-2.975V82.77h-5.013zM160.153 78.598c-1.162 0-2.104-.978-2.104-2.185s.94-2.186 2.103-2.186c1.163 0 2.105.98 2.105 2.186 0 1.207-.942 2.185-2.105 2.185m10.946-6.982h-14.042c-.992 0-1.804.844-1.804 1.874v5.846c0 1.03.812 1.873 1.804 1.873h14.04c.993 0 1.805-.843 1.805-1.874V73.49c0-1.03-.812-1.874-1.804-1.874" fill="#00C592"/><g transform="translate(116.7 55.963)"><mask id="d" fill="#fff"><use xlink:href="#c"/></mask><path d="M36.857 4.683h-1.202c-.457 0-.827-.384-.827-.858s.37-.86.827-.86h1.202c.457 0 .827.386.827.86s-.37.858-.827.858zm.733 30.923c.456 0 .826.385.826.86 0 .473-.37.858-.826.858h-1.203c-.456 0-.827-.385-.827-.86 0-.473.37-.858.827-.858h1.203zm-5.713 1.718h-1.202c-.456 0-.827-.385-.827-.86 0-.473.37-.858.827-.858h1.202c.457 0 .827.385.827.86 0 .473-.37.858-.827.858zm-2.76-33.5c0-.473.37-.858.826-.858h1.202c.457 0 .827.385.827.86 0 .473-.37.857-.827.857h-1.202c-.457 0-.827-.384-.827-.858zm-2.952 33.5h-1.202c-.457 0-.827-.385-.827-.86 0-.473.37-.858.827-.858h1.202c.457 0 .827.385.827.86 0 .473-.37.858-.827.858zm-2.76-33.5c0-.473.368-.858.826-.858h1.203c.456 0 .826.385.826.86 0 .473-.37.857-.827.857H24.23c-.457 0-.826-.384-.826-.858zm-2.952 33.5H19.25c-.456 0-.826-.385-.826-.86 0-.473.37-.858.827-.858h1.203c.457 0 .827.385.827.86 0 .473-.37.858-.827.858zm-2.762-33.5c0-.473.37-.858.828-.858h1.202c.457 0 .827.385.827.86 0 .473-.37.857-.827.857h-1.202c-.457 0-.827-.384-.827-.858zm-2.95 33.5h-1.2c-.458 0-.828-.385-.828-.86 0-.473.37-.858.827-.858h1.2c.458 0 .828.385.828.86 0 .473-.37.858-.827.858zm-2.76-33.5c0-.473.37-.858.825-.858h1.203c.457 0 .827.385.827.86 0 .473-.37.857-.827.857h-1.203c-.456 0-.826-.384-.826-.858zm-2.95 33.5H7.826c-.458 0-.827-.385-.827-.86 0-.473.37-.858.827-.858H9.03c.455 0 .825.385.825.86 0 .473-.37.858-.826.858zm-2.764-33.5c0-.473.37-.858.827-.858h1.203c.456 0 .827.385.827.86 0 .473-.37.857-.827.857H7.093c-.456 0-.827-.384-.827-.858zM4.61 6.32c0 .474-.37.858-.825.858-.458 0-.827-.384-.827-.858V5.07c0-.474.37-.857.827-.857.456 0 .825.383.825.858v1.25zm0 5.932c0 .474-.37.86-.825.86-.458 0-.827-.386-.827-.86v-1.25c0-.473.37-.858.827-.858.456 0 .825.385.825.86v1.248zm0 5.932c0 .473-.37.858-.825.858-.458 0-.827-.385-.827-.858v-1.25c0-.473.37-.858.827-.858.456 0 .825.385.825.86v1.248zm0 5.93c0 .476-.37.86-.825.86-.458 0-.827-.384-.827-.86v-1.248c0-.473.37-.858.827-.858.456 0 .825.385.825.858v1.25zm0 5.933c0 .475-.37.86-.825.86-.458 0-.827-.385-.827-.86v-1.25c0-.473.37-.857.827-.857.456 0 .825.384.825.858v1.25zm0 5.933c0 .473-.37.857-.825.857-.458 0-.827-.384-.827-.857v-1.25c0-.474.37-.858.827-.858.456 0 .825.384.825.86v1.248zm37.49-.374H43.3c.457 0 .827.385.827.86 0 .473-.37.858-.828.858H42.1c-.457 0-.827-.385-.827-.86 0-.473.37-.858.826-.858zm-.733-32.64h1.202c.456 0 .826.385.826.86 0 .473-.37.857-.827.857h-1.203c-.457 0-.827-.384-.827-.858s.37-.86.827-.86zm-2.513 11.126h8.524V3.082c0-1.637-1.29-2.976-2.865-2.976H2.865C1.29.106 0 1.446 0 3.08v34.737c0 1.636 1.29 2.975 2.865 2.975h41.648c1.576 0 2.865-1.34 2.865-2.975v-11.01h-8.524c-.992 0-1.804-.844-1.804-1.874v-8.968c0-1.03.812-1.873 1.804-1.873z" fill="#00C592" mask="url(#d)"/></g><g fill="#1257DC"><path d="M19.582 67.153h-1.558v-4.808c0-1.13-.855-1.978-1.992-1.978-1.135 0-1.99.85-1.99 1.978v6.78c0 1.11.786 1.975 1.99 1.975h3.558c1.135 0 1.99-.85 1.99-1.976 0-1.13-.863-1.97-1.998-1.97"/><path d="M7.482 77.606c-4.67-4.638-4.666-12.185 0-16.818 4.665-4.63 12.272-4.63 16.937 0 4.67 4.64 4.663 12.186 0 16.818-4.666 4.633-12.267 4.638-16.938 0m16.655 15.97l1.882-12.098c.417-.333.826-.7 1.217-1.087 2.7-2.68 4.227-6.1 4.582-9.617l1.122-.026c1.135 0 1.99-.85 1.99-1.978 0-1.128-.855-1.977-1.99-1.977h-1.23c-.493-3.22-1.986-6.316-4.483-8.795-.342-.34-.692-.658-1.06-.96l-1.894-12.176c-.076-.917-.925-1.623-1.924-1.623H9.684c-.923-.076-1.778.637-1.922 1.622l-1.874 12.05c-.424.338-.828.698-1.224 1.092-6.22 6.175-6.22 16.214 0 22.387.39.39.793.747 1.216 1.088l1.882 12.097c.158 1.065 1.11 1.71 1.922 1.623l12.524-.007c.93.083 1.78-.623 1.93-1.615"/></g></g><path d="M265.594 199.325c-.943 3.526-2.626 6.847-5.15 9.478-.178.204-1.147 1.1-1.325 1.33v-10.86c.356-.97 1.376-3.882 1.376-4.98 0-.792-.79-1.125-1.326-1.125-.943 0-1.122.716-1.224 1.176-.892 3.653-1.988 6.284-3.747 9.043-.307.46-.41.715-.41 1.1 0 .816.69 1.634 1.403 1.634.51 0 .816-.408 1.428-1.404v11.24c0 .588.154 1.33 1.25 1.33 1.25 0 1.25-.972 1.25-1.33v-4.42c.152.282.534.767 1.12.767.383 0 .714-.204.995-.46.918-.843 1.708-1.814 2.396-2.784h10.58c.28 0 .79 0 .79.663 0 .153-.05 1.558-.254 3.142-.153 1.226-.204 1.584-1.147 1.635-.282 0-1.556-.025-1.837-.025-1.07 0-1.198.74-1.198 1.226 0 1.304 1.045 1.33 1.836 1.33 2.448 0 3.62-.026 4.233-1.585.662-1.762.84-6.412.84-6.59 0-1.074-.1-1.84-1.605-2.07l.33-2.248c.027-.128.078-.74.078-.945 0-.946-.46-1.33-1.25-1.533l.28-2.224c.026-.18.077-.766.077-1.022 0-.638-.305-1.2-.713-1.507-.536-.434-1.046-.434-1.81-.434h-4.18c.126-.64.38-2.07.38-2.76 0-.97-.968-1.02-1.248-1.02-.97 0-1.096.56-1.173.893-.077.358-.383 2.427-.46 2.887h-1.606c.128-.102.383-.28.383-.74 0-.333-.128-.665-.714-1.61-.663-1.074-.84-1.33-1.48-1.33-.483 0-1.197.308-1.197.946 0 .382.18.663.434 1.098.153.23.79 1.405.968 1.635h-1.274c-.332 0-1.25 0-1.25 1.226 0 1.225.944 1.225 1.25 1.225h3.9zm7.113 4.905c.662 0 .968.102.815.997l-.23 1.456h-8.13c.738-1.278 1.07-2.044 1.248-2.453h6.297zm-.842-4.905c.51 0 .944.05.816.945l-.228 1.66h-5.124c.28-.842.586-1.864.79-2.605h3.747zm-2.014 10.704c-.406-.052-1.07.102-1.07.613 0 .204.613 2.937.69 3.295.076.332.178.715.79.715.407 0 .892-.255.892-.843 0-.51-.306-1.762-.46-2.3-.33-1.25-.382-1.43-.84-1.48zm-6.6.102c-.613.076-.74.536-.792.843-.178.69-.484 2.043-.917 3.065-.458 1.022-.484 1.15-.484 1.43 0 .614.587 1.048 1.224 1.048s.918-.357 1.275-1.405c.433-1.226.943-3.398.943-4.036 0-.716-.612-1.048-1.25-.945zm3.16.025c-.56 0-.84.383-.84.92 0 .332.152 2.53.177 2.99.026 1.378.026 1.915 1.02 1.915s.994-.74.994-1.124c0-1.124-.28-3.372-.356-3.858-.153-.792-.586-.843-.994-.843zm5.94-.383c-.408 0-.714.204-.714.587 0 .13.05.334.102.487.255.613.408.996.535 1.354.383.997.408 1.1.842 1.1.254 0 .713-.128.713-.614 0-.23-.05-.434-.61-1.84-.41-.97-.562-1.072-.868-1.072zm26.232-10.653c-.84 3.296-1.096 4.318-2.447 7.052-2.27 4.598-4.97 6.642-6.527 7.74-.458.307-.968.69-.968 1.303 0 .716.637 1.405 1.35 1.405 1.276 0 4.692-3.448 6.323-5.952 1.785-2.733 2.932-5.722 3.773-8.967-.05 2.454-.127 5.468-.51 8.79-.382 3.397-.816 3.73-2.14 3.73-.282 0-1.556-.078-1.862-.078-1.402 0-1.402 1.15-1.402 1.354 0 1.43 1.045 1.43 3.34 1.43 2.676 0 3.62-.484 4.333-3.576.79-3.525.84-11.674.84-12.824 0-2.376-.203-3.934-3.21-3.934h-5.992c.026-.102.536-1.763.536-2.325 0-.64-.588-1.1-1.378-1.1-.994 0-1.173.666-1.376 1.458-.28 1.073-1.07 4.062-2.703 6.36-.74 1.023-.815 1.15-.815 1.508 0 .818.79 1.405 1.478 1.405 1.173 0 2.575-2.86 3.34-4.777h1.963c-1.48 5.723-4.794 8.38-6.12 9.428-.382.28-.713.587-.713 1.098 0 .69.586 1.38 1.325 1.38.765 0 2.167-1.405 3.008-2.376 3.263-3.807 4.31-7.434 4.92-9.53h1.632zm-11.982 9.147c.587-.28 1.734-.818 2.244-1.1.586-.357.688-.714.688-1.123 0-.664-.306-1.43-1.045-1.43-.23 0-.383.076-1.887.766v-4.777h1.48c.968 0 1.07-.767 1.07-1.406 0-.46-.153-1.2-1.07-1.2h-1.48v-3.45c0-1.02-.46-1.327-1.376-1.327-1.224 0-1.224.996-1.224 1.328v3.45h-1.224c.077-.717.128-2.122.128-2.454 0-.357 0-1.098-1.02-1.098s-1.045.74-1.07 1.15c-.077 1.89-.18 3.448-.663 5.44-.1.36-.662 2.12-.662 2.556 0 .843.816 1.073 1.223 1.073.69 0 .894-.46 1.02-.844.18-.484.562-2.042.715-3.217H284v5.824c-.816.307-1.835.664-3.29 1.073-.967.28-1.452.613-1.452 1.405 0 .716.485 1.456 1.25 1.456.61 0 1.81-.433 3.492-1.02v6.54c0 .996.433 1.328 1.377 1.328 1.223 0 1.223-.996 1.223-1.328v-7.613z" fill="#646464"/></g></svg>