<svg xmlns="http://www.w3.org/2000/svg" height="250" width="400" xmlns:xlink="http://www.w3.org/1999/xlink" viewBox="0 0 400 250"><title>img</title><defs><path id="a" d="M0 249.96V1.244h218.1V249.96H109.05z"/></defs><g fill-rule="evenodd" fill="none"><path fill="#F6F6F1" d="M0 0h400v250H0z"/><g transform="translate(91.667)"><mask id="b" fill="#fff"><use xlink:href="#a"/></mask><path fill="#1257DC" mask="url(#b)" d="M196.94 17.694H16.74C6.893 17.694 0 24.97 0 34.918v231.49h215.9V34.918c0-9.95-9.1-17.226-18.96-17.226"/><path fill="#fff" mask="url(#b)" d="M19.628 266.41h178.43V71.32c0-.97-.29-1.36-1.28-1.36H22.248c-1 0-2.622.37-2.622 1.362v195.09z"/><rect rx="2.215" mask="url(#b)" height="5.447" width="45.879" y="48.332" x="85.648" fill="#fff"/></g><path fill="#FBFBFB" d="M110.943 69.853h59.58v59.853h-59.58z"/><path fill="#E5E5E5" d="M181.038 170.973h98.133v7.042H181.04zM181.038 184.953h98.133v7.042H181.04z"/><path fill="#989898" d="M123.535 168.986c-1.2 0-1.455.617-1.455 1.517v7.29c0 1.17.495 1.51 1.515 1.51h3.48c1.005 0 1.515-.33 1.515-1.51v-7.29c0-.72-.15-1.517-1.425-1.517h-.405v-1.605h1.455c.18 0 .705 0 .705-.69s-.51-.69-.705-.69h-5.85c-.18 0-.705 0-.705.69s.51.69.705.69h1.5v1.606h-.33zm2.175 1.317v2.52c0 .93.18 1.19 1.11 1.19h.555v1.12h-4.065v-4.41c0-.3.135-.42.42-.42h.3v.87c0 .9-.075 1.32-.405 1.88-.27.46-.3.51-.3.63 0 .37.315.54.54.54.345 0 1.035-.77 1.035-2.93v-.99h.81zm-.81-1.317v-1.605h.81v1.606h-.81zm2.055 1.317c.315 0 .42.17.42.42v1.98h-.465c-.165 0-.33-.04-.33-.36v-2.04h.375zm.42 6.03v1.2c0 .29-.135.42-.42.42h-3.225c-.285 0-.42-.13-.42-.42v-1.2h4.065zm3.735-5.32c-1.215 0-1.68.46-1.68 1.66v4.98c0 1.68.84 1.68 2.52 1.68 2.145 0 2.7 0 3.195-.55.465-.53.6-2.06.6-2.75 0-.16 0-.84-.81-.84-.24 0-.495.09-.6.33-.075.18-.18 1.11-.225 1.32-.21.93-.39.93-2.175.93-.63 0-1.005 0-1.005-.61v-4.07c0-.4.21-.6.6-.6h2.115c1.14 0 1.68-.39 1.68-1.66v-3.167c0-1.29-.555-1.665-1.68-1.665h-3.675c-.21 0-.75 0-.75.75s.555.75.75.75h3.195c.39 0 .585.18.585.586v2.337c0 .41-.195.59-.585.59h-2.055zm15.1.07v-1.857h3.03c.585 0 .765-.27.765-.795 0-.554-.375-.69-.75-.69h-1.305c.18-.254.81-1.17.81-1.56 0-.614-.735-.66-.855-.66-.495 0-.6.256-.72.526-.36.765-.465 1.02-.87 1.695h-2.55c.21-.12.36-.3.36-.54 0-.344-.405-1.034-.45-1.094-.165-.285-.33-.54-.72-.54-.27 0-.81.18-.81.63 0 .195.03.255.345.87.09.18.3.585.375.675h-1.275c-.51 0-.735.24-.735.75 0 .706.48.736.765.736h3.015v1.857h-3.495c-.54 0-.78.21-.78.78 0 .71.585.71.78.71h3.195c-.06.19-.225.55-.465.93-.645 1-1.29 1.39-2.61 2.16-.225.13-.375.3-.375.61 0 .33.3.84.855.84.51 0 1.245-.54 1.74-.94 1.2-.96 1.605-1.83 1.965-2.6.3.63.72 1.44 1.575 2.24.585.52 1.8 1.39 2.475 1.39.36 0 .78-.31.78-.84 0-.13-.03-.36-.255-.54-.06-.04-1.035-.58-1.215-.67-.705-.39-1.635-1.14-2.25-2.58h3.225c.555 0 .78-.23.78-.77 0-.72-.585-.72-.78-.72h-3.57zm-8.775-5.277c-.27 0-.69.375-.69.795 0 .316.18.496.36.646.405.36 1.095.885 1.485 1.26.375.375.57.525.87.525.39 0 .795-.42.795-.87 0-.164-.045-.33-.165-.45-.225-.254-.945-.884-1.65-1.424-.63-.48-.765-.48-1.005-.48zm5.52 11.967c-.75 0-1.455-.13-2.055-.49-.705-.44-.93-.92-1.065-1.71v-2.76c0-1.23-.3-1.55-1.545-1.55h-1.02c-.54 0-.78.23-.78.8 0 .55.33.73.735.73h.66c.42 0 .42.35.42.47v3.06c-.21.25-1.005 1-1.335 1.27-.45.36-.6.53-.6.86 0 .43.36.93.855.93.255 0 .45-.11.78-.47.645-.67.72-.75 1.26-1.45.42.66.78 1.08 1.44 1.36.78.35 1.5.45 2.385.45h6.735c.78 0 .78-.66.78-.79 0-.57-.405-.71-.735-.71h-6.915zm12.28-10.242c.09-.224.33-.87.33-1.17 0-.57-.69-.66-.9-.66-.404 0-.57.18-.674.466-.45 1.17-.75 1.98-1.44 2.955-.584.823-.644.913-.644 1.153 0 .45.435.83.915.83.346 0 .526-.17.676-.38.24-.31.585-.82 1.05-1.707h3v2.487h-5.565c-.374 0-.78.11-.78.75 0 .74.57.74.78.74h3.436c-.06 2.91-.96 4.06-3.465 4.9-.254.09-.57.2-.57.69 0 .5.33.99.84.99.376 0 1.95-.48 3.12-1.62.87-.84 1.696-2.2 1.756-4.96h2.055v4.72c0 1.68.93 1.68 2.296 1.68 1.95 0 2.52-.01 2.94-.39.465-.42.825-1.59.825-2.62 0-.53-.3-.84-.884-.84-.555 0-.66.31-.705.75-.074.75-.09.91-.18 1.11-.18.36-.33.36-1.86.36-.434 0-.824 0-.824-.6v-4.17h3.795c.526 0 .78-.21.78-.77 0-.72-.584-.72-.78-.72h-5.37v-2.487h4.65c.36 0 .78-.09.78-.75 0-.72-.554-.735-.78-.735h-4.65v-1.29c0-.6-.27-.794-.87-.794-.734 0-.764.525-.764.795v1.29h-2.31zM238.98 150.267h-2.2c-.32 0-.47.252-.47.454s.15.455.47.455h2.8l1.1 1.612v.152h-3.9c-.3 0-.47.234-.47.452 0 .22.18.454.47.454h3.9v3.847c0 .79.55.974 1.04.974.65 0 1.02-.336 1.02-.974v-3.847h3.9c.25 0 .47-.202.47-.47 0-.22-.19-.437-.47-.437h-3.9v-.153l1.08-1.612h2.82c.32 0 .47-.236.47-.454s-.19-.453-.47-.453h-2.2l2.85-4.216c.17-.25.19-.537.19-.57 0-.42-.45-1.01-1.09-1.01-.39 0-.66.22-.88.54l-3.81 5.71-3.8-5.71c-.22-.32-.5-.54-.85-.54-.69 0-1.11.59-1.11 1.026 0 .235.12.47.18.555l2.86 4.217zm14.06 1.798c1.74 0 2.5.958 2.5 2.42 0 2.1-1.75 2.486-2.57 2.486-1.72 0-2.39-1.21-2.51-1.847-.11-.723-.2-1.21-1.07-1.21-.62 0-.97.37-.97.94 0 .505.25 1.345.73 2.084.46.655 1.4 1.73 3.9 1.73 3.19 0 4.5-2.016 4.5-4.166s-1.22-2.89-2.15-3.46c.47-.252 1.68-.89 1.68-2.84 0-1.847-1.22-3.73-4.06-3.73-3.6 0-4.25 2.992-4.25 3.68 0 .622.43.89.99.89.81 0 .89-.47.96-.89.11-.604.42-1.965 2.25-1.965 1.49 0 2.1 1.008 2.1 2.083 0 1.563-.93 2.2-2.05 2.2h-.4c-.71 0-.83.488-.83.807 0 .22.05.79.83.79h.42zm10.29-7.594c-4.13 0-4.57 4.52-4.57 7.108 0 1.512.17 3.998 1.33 5.577.63.857 1.84 1.512 3.24 1.512 1.28 0 2.52-.554 3.24-1.512 1.21-1.596 1.33-4.317 1.33-5.577-.02-2.57-.44-7.107-4.57-7.107zm0 1.715c2.28 0 2.55 2.923 2.55 5.393 0 2.37-.22 5.393-2.55 5.393-2.29 0-2.55-2.872-2.55-5.392s.26-5.393 2.55-5.393zm10.34-1.714c-4.13 0-4.57 4.52-4.57 7.108 0 1.512.17 3.998 1.33 5.577.64.857 1.85 1.512 3.24 1.512 1.28 0 2.52-.554 3.25-1.512 1.2-1.596 1.32-4.317 1.32-5.577-.01-2.57-.43-7.107-4.57-7.107zm0 1.715c2.29 0 2.56 2.923 2.56 5.393 0 2.37-.22 5.393-2.56 5.393-2.28 0-2.55-2.872-2.55-5.392s.27-5.393 2.55-5.393zM132.13 149.38c.235 0 .52 0 .52.268 0 .47-1.293 2.2-2.99 3.477-1.193-.873-1.747-1.58-2.234-2.2-.807-1.025-.84-1.093-1.244-1.093-.487 0-.974.353-.974.874 0 .638 1.646 2.42 2.84 3.427-1.765.924-3.78 1.395-5.326 1.647-.303.05-.874.15-.874.79 0 .1.034 1.04.958 1.04.873 0 4.3-.89 6.837-2.35 2.974 1.796 6.267 2.334 6.838 2.334.942 0 .942-.974.942-1.042 0-.604-.504-.705-.756-.756-3.226-.588-4.704-1.31-5.376-1.663 1.293-1.025 3.612-3.494 3.612-5.19 0-1.026-.756-1.295-1.865-1.295h-2.52v-2.05h6.165c.353 0 .874-.066.874-.873 0-.857-.655-.857-.874-.857h-6.165v-1.108c0-.64-.403-.756-.99-.756s-.84.285-.84.756v1.108h-6.117c-.285 0-.873.017-.873.874s.638.857.873.857h6.116v2.048h-4.856c-.403 0-.873.118-.873.874 0 .84.588.857.873.857h8.3zm12.208 5.845c-.722.05-1.31.1-1.31.89 0 .42.235.94.84.94.302 0 4.553-.402 8.064-1.124.05.152.336 1.31.353 1.362.168.403.537.42.672.42.134 0 1.075-.068 1.075-.857 0-.37-.47-2.487-1.83-5.93-.69-1.73-.892-1.882-1.362-1.882-.336 0-.89.2-.89.756 0 .352.453 1.46.638 1.88.302.723.638 1.832.924 2.74-1.78.284-3.578.503-5.376.688.504-1.563.907-2.84 1.63-5.813.47-1.983 1.293-6.015 1.293-6.367 0-.857-.774-.908-.975-.908-.79 0-.975.488-1.126 1.983-.05.453-1.06 6.552-2.622 11.222zm-1.83-3.63c1.83-.704 2.082-.805 2.082-1.443 0-.42-.218-.79-.705-.79-.185 0-.924.27-1.378.437v-3.042h1.277c.353 0 .84-.067.84-.84 0-.823-.605-.823-.84-.823h-1.277v-2.184c0-.688-.336-.873-.94-.873-.773 0-.807.57-.807.874v2.185h-1.613c-.353 0-.857.067-.857.84 0 .823.605.823.857.823h1.613v3.646c-.286.1-1.697.47-2 .588-.184.067-.503.252-.503.722 0 .185.033.99.773.99.268 0 1.16-.3 1.73-.486v3.142c0 .302-.1.487-.37.554h-.924c-.05.017-.352.017-.537.218-.17.168-.203.42-.203.605 0 .958.706.958 1.428.958 1.428 0 2.352 0 2.352-1.697v-4.402zm14.342-8.516c-.404 0-.874.016-1.042.637-.1.336-.27 3.075-.27 4.822 0 1.712 0 8.315 3.815 8.315 1.797 0 2.738-1.48 3.242-2.453.588-1.142.807-1.764.807-2.25 0-.572-.504-.858-1.008-.858-.572 0-.672.27-.908 1.025-.42 1.292-1.04 2.435-2.05 2.435-.503 0-.94-.353-1.142-.672-.89-1.512-.89-4.906-.89-5.46 0-1.31.118-2.638.185-3.444.016-.17.1-1.026.1-1.228 0-.873-.723-.873-.84-.873zm12.297 12.582c.99 0 .99-.74.99-1.546 0-1.092-.032-2.47-.167-3.628-.1-.924-.37-3.04-1.142-4.318-1.21-2.033-3.41-2.1-3.646-2.1-.94 0-1.024.69-1.024.924 0 .823.487.89.957.94.655.068 1.025.186 1.36.438 1.26.99 1.58 3.696 1.647 5.947.017.318 0 1.964 0 2.334 0 .27 0 1.008 1.025 1.008zm9.22-7.476v1.714h-5.562c-.202 0-.874.016-.874.79 0 .604.253.856.875.856h5.56v3.982h-5.846c-.22 0-.874 0-.874.772 0 .605.252.874.873.874h13.49c.2 0 .856 0 .856-.773 0-.57-.2-.872-.856-.872h-5.88v-3.982h5.56c.303 0 .874-.034.874-.806 0-.69-.403-.84-.874-.84h-5.56v-1.714h3.074c.42 0 .857-.1.857-.79 0-.168-.016-.235-.033-.336.57.32 1.68.924 2.184.924.757 0 .942-.756.942-1.075 0-.505-.32-.64-.69-.79-2.1-.807-3.577-1.9-4.08-2.302-1.597-1.327-1.698-1.41-1.95-1.58-.27-.184-.504-.318-1.075-.318-.756 0-.958.168-1.714.806-1.41 1.21-1.932 1.663-3.343 2.436-.638.336-1.193.57-2.134.924-.386.15-.772.32-.772.857 0 .487.336 1.092.856 1.092.454 0 1.664-.622 2.218-.924-.017.085-.017.152-.017.27 0 .588.287.806.858.806h3.058zm-2.925-1.596c1.664-.974 2.89-2.134 3.41-2.67.286-.32.337-.337.47-.337.12 0 .203.084.42.302.724.74 2.1 1.882 3.462 2.705h-7.762zm-.52 5.275c-.488 0-1.042.286-1.042.756 0 .186.067.354.134.505.353.74.387.823.538 1.227.32.79.403 1.008.94 1.008.337 0 1.026-.168 1.026-.723 0-.37-.37-1.176-.538-1.562-.454-.99-.554-1.21-1.058-1.21zm9.56.672c0-.588-.673-.705-.96-.705-.352 0-.52.134-.62.268-.135.202-.588 1.294-.706 1.53-.353.705-.386.79-.386.974 0 .504.554.74.907.74.588 0 .806-.404 1.092-.942.184-.353.67-1.41.67-1.865zm14.308-8.484c-.118.538-.135.605-.32 1.277h-.336c-1.394 0-1.73.336-1.73 1.747v5.494c0 1.43.37 1.748 1.73 1.748h3.21c1.377 0 1.73-.336 1.73-1.747v-5.493c0-1.41-.353-1.747-1.73-1.747h-1.26c.218-.773.234-.806.352-1.277h2.486c.22 0 .773 0 .773-.756s-.554-.756-.773-.756h-6.3c-.252 0-.772 0-.772.757s.554.756.772.756h2.168zm2.637 6.267h-3.377v-1.21h3.377v1.21zm-3.377-3.21c0-.2.05-.47.47-.47h2.437c.336 0 .47.168.47.47v.774h-3.377v-.773zm3.377 4.453v.957c0 .32-.15.47-.47.47h-2.436c-.386 0-.47-.218-.47-.47v-.957h3.377zm-9.542-5.242c.067-.133.134-.234.134-.402 0-.37-.404-.588-.757-.588-.27 0-.487.134-.69.403-.452.64-.973 1.36-1.662 1.95-.856.738-.89.755-.89 1.057 0 .353.303.807.74.807.218 0 .386-.067 1.16-.807.167.252.486.672 1.074 1.294-.772.538-1.478.89-2.47 1.36-.402.202-.57.337-.57.706 0 .47.302.908.74.908.452 0 2.15-.958 3.392-1.95 1.126.925 2.655 1.933 3.176 1.933.37 0 .756-.352.756-.89 0-.453-.27-.57-.622-.705-.622-.235-1.327-.672-2.2-1.294.62-.604 1.83-1.813 1.83-2.82 0-.304-.067-.556-.37-.774.102.05.202.084.454.084.74 0 .756-.504.756-.756v-.74c0-1.326-.336-1.646-1.646-1.646h-1.243v-.756c0-.604-.487-.688-.907-.688-.47 0-.79.2-.79.705v.738h-1.243c-1.327 0-1.647.336-1.647 1.647v.823c0 .605.27.773.84.773.706 0 .756-.47.756-.755v-.622c0-.32.168-.453.454-.453h3.46c.303 0 .454.168.454.453v.538c0 .32.068.488.236.606-.286-.135-.656-.135-.94-.135h-1.765zm3.343 8.065c0-1.428-.37-1.747-1.747-1.747h-2.872c-1.394 0-1.73.336-1.73 1.747v1.395c0 1.394.336 1.73 1.73 1.73h2.873c1.412 0 1.748-.353 1.748-1.73v-1.395zm-2.285-6.804c.22 0 .303.136.303.236 0 .387-.958 1.21-1.143 1.378-.69-.655-1.025-1.008-1.31-1.378.1-.117.1-.134.185-.235h1.965zm.706 8.132c0 .286-.136.488-.472.488h-2.234c-.37 0-.47-.236-.47-.488v-1.344c0-.252.1-.47.47-.47h2.234c.336 0 .47.168.47.47v1.344zm4.62-1.142c-.102 0-.287.067-.455.202-.672.588-.99.856-1.596 1.21-.74.42-.874.503-.874.873 0 .42.32.907.79.907.486 0 1.427-.722 1.864-1.092 1.075-.89 1.075-1.025 1.075-1.31 0-.387-.285-.79-.806-.79zm2.956.067c-.874 0-.924.74-.924.79 0 .185 0 .353.907 1.176.47.42 1.31 1.176 1.763 1.176.453 0 .806-.455.806-.892 0-.336-.152-.453-.337-.57-.504-.354-.907-.622-1.428-1.126-.537-.504-.588-.555-.79-.555z"/><path fill="#FACA00" d="M155.025 81.56l-6.62-1.537s-1.82 3.27-6.242 3.3c-4.423.03-6.286-3.216-6.286-3.216l-6.598 1.625-9.575 8.736 4.853 7.44 4.812-2.306.155 23.396 25.747-.172-.155-23.397 4.842 2.24 4.753-7.502-9.688-8.61z"/><path fill="#E5E5E5" d="M110.943 126.185h178.74v3.52h-178.74zM181.038 87.456h98.133v7.042H181.04zM181.038 105.06h98.133v7.042H181.04z"/><g><path fill="#f44" d="M120 203.33h163.33v36.667H120z"/><path fill="#fff" d="M177.99 220.954v.726h-1.666c-.743 0-1.14-.016-1.55-.05.032.48.048.842.048 1.52v2.49c-.412-.016-.627-.032-.94-.082v1.485c.33-.066.56-.083.94-.083v.726c0 1.04-.016 1.42-.082 2.03h1.732c-.05-.578-.066-.874-.066-2.03v-.726h4.917v.892c0 .313-.132.38-.676.38-.347 0-.81-.034-1.37-.116.182.478.198.643.28 1.468.628.033 1.007.033 1.486.033 1.485 0 1.848-.297 1.848-1.535v-1.122c.446.017.578.017.875.066v-1.468c-.264.05-.445.066-.874.082V223c0-.528.034-1.154.067-1.386-.462.05-.875.066-1.535.066h-1.897v-.726h2.87c.644 0 .974.017 1.337.083v-1.47c-.33.067-.643.084-1.32.084h-1.072v-.774h.676c.462 0 .858.016 1.155.066v-1.32c-.296.05-.642.066-1.12.066h-.71v-.726h1.006c.512 0 .792.016 1.188.066v-1.403c-.33.066-.627.083-1.204.083h-.99c0-.528.033-.826.1-1.156h-1.8c.083.314.1.43.1 1.156h-1.898c0-.628.016-.858.1-1.156h-1.8c.083.314.1.512.1 1.156h-.694c-.594 0-.89-.017-1.27-.083v1.403c.38-.05.693-.066 1.22-.066h.743v.726h-.46c-.793-.017-.793-.017-1.156-.066v1.32c.297-.05.677-.066 1.155-.066h.46v.775h-.79c-.61 0-.958-.016-1.354-.082v1.47c.413-.067.76-.084 1.353-.084h2.54zm0 4.686h-1.584v-.792h1.584v.792zm1.55 0v-.792h1.783v.792h-1.782zm-1.55-1.93h-1.584v-.776h1.584v.776zm1.55 0v-.776h1.783v.776h-1.782zm-1.698-6.748h1.897v.726h-1.898v-.726zm0 1.914h1.897v.775h-1.898v-.774zm-5.214 6.666c.544 0 .775.016 1.138.05-.05-.364-.05-.578-.05-1.552v-7.524c0-.825.017-1.122.05-1.485-.33.034-.693.05-1.303.05h-1.947c-.61 0-.99-.016-1.37-.05.05.546.066.942.066 1.65v7.162c0 .594-.016 1.27-.05 1.75.314-.034.595-.05 1.172-.05h2.294zm-1.93-8.927h1.55v1.485h-1.55v-1.485zm0 2.904h1.55v1.45h-1.55v-1.45zm0 2.886h1.55v1.618h-1.55v-1.618zm-.66 3.202c-.397 1.352-.743 2.078-1.52 3.085.496.264.777.48 1.354.973.76-1.088 1.106-1.814 1.568-3.366l-1.403-.692zm1.6.692c.445 1.27.76 1.948 1.37 3.004.626-.528.907-.726 1.303-.908-.643-.908-1.006-1.634-1.385-2.756l-1.287.66zm20.014-9.272c-.066 1.336-.214 2.194-.544 3.332-.528 1.782-1.535 3.548-2.822 4.884-1.105 1.156-1.914 1.782-3.316 2.59.627.512 1.006 1.008 1.353 1.734 1.798-1.205 3.036-2.36 4.092-3.73 1.105-1.468 1.765-2.87 2.36-4.982.263 1.022.412 1.435.84 2.342.48 1.007.842 1.634 1.453 2.442 1.122 1.518 2.36 2.723 4.01 3.878.46-.825.775-1.254 1.402-1.864-1.122-.66-1.6-1.007-2.442-1.782-1.14-1.024-1.947-2.014-2.64-3.168-1.172-2.014-1.766-4.192-1.766-6.534 0-.413 0-.562.05-1.04-.38.066-.825.082-1.502.082h-2.623c-.726 0-1.073-.016-1.55-.082v1.98c.642-.05 1.137-.082 1.583-.082h2.062zm19.883 2.524v-1.072c1.303-.034 1.6-.034 1.996-.034 1.37 0 2.163.034 2.773.083l-.016-1.898c-.61.066-1.898.098-4.77.115.018-1.42.018-1.452.084-1.963l-2.078.016c.082.43.082.43.1 1.996-.86.034-.86.034-1.404.05-1.353.033-1.518.033-2.59.066-2.13.082-2.393.082-2.805.082-.297 0-.446 0-.81-.032l.067 1.963c.446-.066.446-.066 2.937-.247.726-.05 2.277-.1 4.637-.166 0 .446 0 1.37.016 1.403 0 .115 0 .115.017.198-.38-.313-1.007-.495-1.716-.495-1.913 0-3.283 1.254-3.283 3.003 0 .942.363 1.668 1.14 2.228.56.413 1.154.594 1.913.594 1.09 0 1.947-.412 2.425-1.17-.132.923-.792 1.764-1.914 2.408-.774.462-1.45.693-2.804.957.545.594.71.84 1.172 1.865 1.534-.528 2.293-.875 2.986-1.354 1.6-1.105 2.46-2.656 2.46-4.454 0-.892-.166-1.568-.53-2.327 0-.198-.016-.33-.016-.396l.017-1.418zm-1.898 2.722c0 .858-.676 1.486-1.617 1.486-.825 0-1.402-.545-1.402-1.304 0-.726.693-1.32 1.534-1.32.908 0 1.485.446 1.485 1.138zm14.257-.792c.26-.148.26-.148.68-.428.33-.215 1.51-1.106 1.81-1.354.56-.478 1.77-1.55 2.59-2.31.46-.428.58-.528.86-.676l-1.02-1.452c-.27.132-.45.165-1.03.214-1.6.116-3.61.198-5.01.198-.91 0-1.39-.032-1.95-.098l.08 1.98c.32-.05.43-.066.79-.083 2.99-.132 4.05-.198 4.67-.28l.02.016c-.1.098-.26.263-.3.296-1.25 1.27-3.4 3.118-4.93 4.29-1.09.825-1.75 1.27-2.326 1.55l1.126 1.783c1.98-1.8 4.38-2.773 6.79-2.773 2 0 3.27.84 3.27 2.13 0 1.17-.59 1.88-1.96 2.39-.25-.71-.43-1.07-.76-1.484-.69-.875-1.7-1.353-2.86-1.353-1.65 0-2.83.99-2.83 2.36 0 .742.36 1.435.99 1.897.66.495 1.81.76 3.2.76 1.51 0 2.92-.33 3.99-.94 1.47-.827 2.24-2.08 2.24-3.648 0-2.262-1.81-3.714-4.63-3.714-1.24 0-1.97.166-3.47.76l-.03-.034zm2.38 5.874c-.47.066-.55.066-.86.066-1.22 0-1.97-.38-1.97-1.04 0-.46.38-.758.98-.758.92 0 1.55.594 1.85 1.732z"/></g></g></svg>