<svg width="380" height="162" viewBox="0 0 380 162" xmlns="http://www.w3.org/2000/svg" xmlns:xlink="http://www.w3.org/1999/xlink"><title>img</title><defs><path d="M100.748 49.898l-8.82 8.82c-1.295 1.295-3.393 1.298-4.687.005l-8.823-8.825H9.955C4.457 49.898 0 45.448 0 39.95V9.948C0 4.454 4.452 0 9.955 0H169.26c5.497 0 9.954 4.45 9.954 9.948V39.95c0 5.494-4.452 9.948-9.955 9.948h-68.512z" id="a"/><mask id="c" x="0" y="0" width="179.214" height="59.714" fill="#fff"><use xlink:href="#a"/></mask><path d="M94.11 49.898l-8.82 8.82c-1.295 1.295-3.393 1.298-4.686.005l-8.825-8.825H9.96c-5.5 0-9.96-4.45-9.96-9.948V9.948C0 4.454 4.46 0 9.96 0h146.02c5.5 0 9.96 4.45 9.96 9.948V39.95c0 5.494-4.46 9.948-9.96 9.948H94.11z" id="b"/><mask id="d" x="0" y="0" width="165.939" height="59.714" fill="#fff"><use xlink:href="#b"/></mask></defs><g fill="none" fill-rule="evenodd"><g transform="translate(13.275 18.296)"><use stroke="#D5D5D5" mask="url(#c)" stroke-width="3.319" fill="#FFF" xlink:href="#a"/><path d="M19.554 24.613h6.49v-1.098h-6.49v1.098zm6.49-2.85v-1.057h-6.49v1.056h6.49zm-14.537-6.23c0-.21.112-.317.337-.317h8.89c.084-.577.147-1.056.19-1.436.028-.183.14-.274.337-.274l2.234.063c.112 0 .196.038.252.115.057.078.078.166.064.264-.028.28-.056.524-.085.728-.028.204-.056.383-.084.538h6.532c.224 0 .337.106.337.317v1.626c0 .21-.114.316-.338.316h-6.89c-.055.253-.097.468-.125.644-.028.176-.057.327-.085.454h5.52c.224 0 .337.105.337.316v10.22c0 .226-.114.338-.338.338H17.09c-.225 0-.338-.112-.338-.338V18.89c0-.21.113-.316.337-.316h3.054c.014-.07.028-.148.042-.233.014-.083.035-.182.063-.294.028-.113.05-.218.063-.317.014-.1.028-.184.042-.254h-8.51c-.226 0-.338-.106-.338-.317v-1.627zm14.536 10.832h-6.49v1.12h6.49v-1.12zm-10.807 3.99h14.936c.224 0 .337.107.337.318V32.3c0 .21-.114.316-.338.316H15.236v.675c0 .212-.113.318-.337.318h-2.192c-.225 0-.337-.106-.337-.317V19.61c0-.225.113-.338.338-.338h2.19c.225 0 .338.113.338.338v10.748zm30.248-10.05c.197-.38.39-.778.58-1.193.19-.415.368-.84.537-1.277h-4.613c.197.408.386.82.57 1.235.182.415.35.827.505 1.235h2.422zm-4.677 3.843c.155-.253.31-.51.464-.77.155-.26.31-.532.464-.813h-4.487c-.21 0-.316-.106-.316-.317v-1.774H35.88v3.38c.14-.058.31-.12.505-.19.1-.03.197-.06.295-.096.1-.036.204-.074.316-.117.014 0 .025-.002.032-.01.007-.006.025-.01.053-.01.11-.028.216-.017.315.032.098.05.154.13.168.243l.042.443h3.202zm3.982 4.287c.617-.493 1.18-1.155 1.684-1.985h-3.96l-.327.433c-.133.176-.298.376-.495.6.618.17 1.183.332 1.696.487.513.155.98.31 1.4.465zm.905-12.944h5.14c.225 0 .337.106.337.318v1.69c0 .224-.112.337-.337.337H49.34c-.155.478-.32.922-.496 1.33-.175.408-.347.788-.516 1.14h2.865c.21 0 .316.113.316.338v1.605c0 .21-.106.317-.317.317H44.81c-.07.183-.176.404-.316.665-.14.26-.302.566-.484.918h7.183c.21 0 .316.106.316.317v1.668c0 .21-.106.317-.317.317H49.38c-.518 1.168-1.2 2.182-2.042 3.04.534.24 1.106.507 1.717.803.61.295 1.26.633 1.95 1.013.083.043.14.11.167.2.028.093.014.18-.042.265l-.948 1.606c-.112.183-.267.225-.463.126-.844-.478-1.648-.915-2.414-1.31-.765-.393-1.492-.745-2.18-1.055-.997.564-2.16 1.035-3.486 1.415-1.328.38-2.84.67-4.54.866-.183 0-.295-.084-.337-.253l-.4-1.605c-.03-.113-.01-.21.052-.296.063-.084.15-.134.263-.148 2.19-.183 4.024-.57 5.5-1.16-.423-.142-.812-.268-1.17-.38-.36-.114-.685-.22-.98-.318-.042.042-.095.1-.158.17s-.137.14-.22.21l-.212.21c-.112.1-.24.107-.38.023l-1.495-.97c-.112-.07-.175-.156-.19-.254-.013-.1.03-.197.127-.296.576-.62 1.116-1.253 1.622-1.9h-1.875c-.21 0-.316-.106-.316-.317v-.127c-.49.183-.84.303-1.052.36V31.21c0 .234-.007.406-.02.52-.03.337-.07.653-.128.95-.07.266-.16.485-.273.654-.1.14-.253.253-.464.337-.112.058-.228.096-.348.118-.12.02-.235.038-.347.052-.084.028-.214.043-.39.043h-.642c-.127 0-.313-.01-.56-.032-.244-.02-.557-.045-.936-.073-.197-.028-.295-.127-.295-.296l-.084-1.646c-.013-.112.018-.2.096-.264.077-.063.172-.095.284-.095.295.03.527.05.695.064.17.013.288.02.358.02.17 0 .267-.042.295-.127.028-.14.042-.43.042-.866v-3.4c-.28.07-.526.127-.737.17-.21.042-.407.084-.59.126-.24.043-.372-.056-.4-.295l-.148-1.837c-.028-.182.057-.295.253-.337.337-.07.636-.137.895-.2.26-.064.503-.117.727-.16v-4.16H31.6c-.21 0-.315-.112-.315-.337v-1.73c0-.212.106-.318.316-.318h1.56v-3.42c0-.212.106-.317.316-.317h2.065c.226 0 .338.106.338.317v3.42H37.5c.21 0 .316.107.316.318v1.9h2.507c-.42-.97-.8-1.795-1.138-2.47h-1.432c-.21 0-.316-.113-.316-.338v-1.69c0-.21.105-.316.316-.316h5.077v-1.393c0-.225.105-.338.316-.338h2.212c.224 0 .337.112.337.337v1.394zm10.95 8.49c.184-.07.402-.145.655-.222.252-.078.554-.173.905-.285.014-.24.02-.553.02-.94v-2.46h-1.58v3.906zm0 5.954v.612c-.013.113-.02.21-.02.296v.19c.604-1.042 1.02-2.23 1.243-3.57.113-.773.176-1.26.19-1.456-.155.057-.348.12-.58.19l-.832.254v3.484zM61.682 18.7c0-.225.107-.337.317-.337h8.638c.21 0 .316.112.316.337v1.584c0 .225-.105.338-.315.338h-8.638c-.21 0-.316-.113-.316-.338V18.7zm-7.393 14.78c-.17 0-.41-.006-.727-.02-.316-.014-.713-.035-1.19-.063-.084 0-.158-.028-.22-.085-.064-.056-.096-.126-.096-.21l-.084-1.648c-.014-.112.017-.204.095-.274.077-.07.172-.106.284-.106.294.028.54.053.736.074.197.02.344.032.443.032.195 0 .315-.05.357-.148.042-.085.063-.38.063-.887V27.19l-.706.147-.916.19c-.113.042-.204.028-.274-.043-.07-.07-.112-.16-.126-.274l-.127-1.858c-.027-.183.057-.29.254-.317.267-.056.558-.116.874-.18.316-.063.657-.137 1.022-.22v-4.562h-1.833c-.21 0-.316-.106-.316-.317v-1.73c0-.212.107-.318.317-.318h1.833V14.35c0-.225.112-.337.337-.337h2.043c.21 0 .316.112.316.338v3.358h1.58v-2.872c0-.21.106-.317.316-.317h12.66c.226 0 .338.105.338.316v1.69c0 .225-.112.337-.337.337h-10.28v5.258h10.554c.21 0 .316.114.316.34v1.73c0 .212-.105.317-.316.317h-3.94c.226.845.5 1.66.822 2.45.477-.563.975-1.232 1.495-2.006.056-.084.13-.137.22-.158.093-.02.173.004.244.074l1.39.97c.07.058.115.128.136.213.02.083.003.16-.053.23-.365.508-.727.986-1.085 1.437-.358.45-.726.887-1.106 1.31.646.83 1.39 1.512 2.233 2.047.155.1.197.232.127.4l-.76 1.838c-.04.1-.107.166-.2.2-.09.036-.178.026-.262-.03-.604-.34-1.19-.778-1.76-1.32-.568-.542-1.112-1.2-1.632-1.975-.59-.844-1.08-1.738-1.474-2.68-.394-.945-.717-1.944-.97-3h-.674v5.913l1.085-.296c.358-.1.713-.204 1.064-.317.112-.028.213-.01.305.053.09.063.144.15.158.264l.126 1.605c.027.154-.05.252-.233.294-1.11.366-2.194.67-3.254.908-1.06.24-2.11.43-3.15.57-.098.015-.182-.007-.253-.063-.07-.057-.105-.135-.105-.233l-.147-1.668c0-.212.098-.332.294-.36.253-.043.495-.08.727-.116.23-.036.48-.074.747-.117v-6.44h-.78c-.056 1.732-.23 3.217-.526 4.456-.154.703-.364 1.397-.63 2.08-.268.682-.577 1.347-.928 1.995-.084.127-.186.197-.305.21-.12.015-.222-.034-.306-.147l-1.495-1.772v.02c0 .226-.01.416-.03.57-.022.156-.047.282-.075.38-.07.254-.154.465-.253.634-.098.155-.245.275-.442.36-.112.056-.218.094-.316.115-.1.022-.198.04-.296.053-.07.014-.186.02-.348.02h-.58zm25.867-9.986l.927 1.858c.085.197.036.345-.147.443l-.474.2-.412.18c-.45.197-.92.356-1.41.475-.493.12-.99.074-1.497-.137-.364-.14-.666-.338-.905-.59-.238-.254-.424-.532-.558-.835-.133-.303-.228-.627-.284-.97-.056-.346-.092-.688-.106-1.026-.014-.24-.02-.475-.02-.707V15.11c0-.21.112-.316.336-.316h2.17c.225 0 .337.106.337.317v6.63c0 .085-.003.19-.01.318-.007.126-.018.253-.032.38v.39c0 .134.014.264.042.39.07.536.225.747.464.635.196-.07.386-.152.57-.243.18-.092.37-.187.567-.285.198-.1.345-.043.444.17zm8.953-8.72l.02 2.955c.015.816.02 1.628.012 2.438-.008.81-.026 1.622-.054 2.44-.028.8-.09 1.58-.19 2.332-.098.753-.224 1.482-.38 2.186-.322 1.407-.838 2.657-1.547 3.748-.71 1.09-1.725 1.94-3.045 2.544l-1.012.465c-.21.084-.358.02-.442-.19l-.905-1.88c-.042-.084-.052-.17-.03-.253.02-.085.08-.148.178-.19l1.01-.444c.928-.394 1.633-1.017 2.118-1.868.486-.852.833-1.87 1.044-3.052.112-.605.19-1.228.232-1.868.042-.64.077-1.313.105-2.017.03-.703.05-1.414.064-2.132.014-.718.007-1.464-.02-2.238l-.022-2.977c0-.21.12-.317.358-.317h2.19c.212 0 .317.106.317.317zM106.19 22.9c-.62 1.267-1.384 2.45-2.297 3.548-.562.66-1.145 1.26-1.75 1.795-.603.535-1.228 1-1.874 1.393-.155.085-.296.057-.422-.084l-1.18-1.668c-.154-.197-.126-.366.084-.507 1.925-1.212 3.413-2.626 4.467-4.245 1.094-1.76 1.642-3.625 1.642-5.596v-.276h-3.834c-.21 0-.316-.105-.316-.316v-1.88c0-.225.105-.337.316-.337h6.404c.225 0 .337.113.337.338v1.605c0 2.62.406 4.815 1.22 6.588.773 1.677 1.897 3.028 3.37 4.056.17.14.198.302.086.485l-1.16 1.733c-.14.17-.287.197-.44.084-1.616-1.084-2.95-2.766-4.004-5.046-.084-.182-.183-.41-.295-.686-.112-.274-.232-.602-.358-.982zm-9.04-2.998c-.14.14-.293.127-.462-.042-.59-.634-1.152-1.236-1.685-1.806-.534-.57-1.054-1.115-1.56-1.636-.182-.17-.182-.33 0-.486l1.39-1.267c.184-.112.338-.105.465.02.59.607 1.155 1.198 1.695 1.775s1.05 1.154 1.528 1.732c.085.07.124.147.117.232-.007.084-.053.162-.137.232l-1.35 1.246zm.486 2.112c.225 0 .337.112.337.337v6.483c.337.577.758 1.006 1.264 1.288.506.296 1.32.507 2.444.633 1.124.127 2.79.19 4.993.19h5.393c.225 0 .338.12.338.36l-.085 1.73c0 .085-.032.156-.096.212-.063.055-.143.084-.242.084h-5.393c-2.01 0-3.638-.064-4.888-.19-1.306-.14-2.36-.388-3.16-.74-.76-.337-1.313-.696-1.664-1.076-.408.366-.84.725-1.296 1.076-.456.352-.93.704-1.422 1.056-.098.07-.193.095-.284.074-.092-.02-.158-.08-.2-.18l-.99-1.69c-.1-.168-.064-.308.105-.42.45-.297.878-.6 1.286-.91.407-.31.8-.618 1.18-.928v-5.004H93.19c-.21 0-.315-.106-.315-.317v-1.732c0-.225.105-.337.316-.337h4.446zm34.778 8.214c-.267.394-.544.777-.832 1.15-.288.373-.636.7-1.043.982-.886.606-1.883.908-2.993.908-.87.014-1.678-.204-2.422-.654-.745-.45-1.3-1.063-1.664-1.837l-.252-.572-.253-.612c-.098-.24-.19-.468-.274-.686-.083-.218-.182-.433-.294-.644-.21-.394-.463-.708-.758-.94-.295-.232-.68-.292-1.16-.18-.42.1-.796.282-1.126.55-.33.267-.625.58-.885.94-.26.358-.48.75-.663 1.17-.183.424-.344.825-.485 1.205l-.717 2.007c-.042.112-.116.19-.22.232-.107.04-.216.048-.328.02l-1.896-.612c-.226-.1-.303-.268-.233-.507 1.012-2.87 2.06-5.704 3.15-8.498 1.088-2.794 2.3-5.564 3.634-8.31l.422-.844c0-.028.007-.042.02-.042.142-.225.317-.288.528-.19l1.812.824c.126.042.207.112.242.21.035.1.024.205-.032.317-.786 1.577-1.524 3.154-2.212 4.73-.688 1.577-1.362 3.175-2.022 4.794.24-.126.49-.232.758-.316.267-.085.548-.134.843-.148.617-.028 1.196.074 1.737.306.54.233 1.008.574 1.4 1.024.226.24.408.497.55.77.14.276.265.56.378.856.112.254.22.52.326.803.107.28.223.563.35.844.18.436.47.774.863 1.013.393.24.814.324 1.264.253.505-.084.916-.295 1.232-.633.315-.338.62-.725.915-1.162.14-.224.33-.26.57-.104l1.663 1.056c.225.14.26.316.106.528zm18.036-14.17v2.028c0 .183-.063.31-.19.38l-.042.02c-.772.24-1.56.547-2.36.92-.8.373-1.544.823-2.232 1.35-.69.53-1.282 1.127-1.78 1.796-.5.67-.833 1.418-1 2.25-.198.914-.13 1.765.2 2.554.33.788.894 1.422 1.695 1.9.675.423 1.367.732 2.076.93.71.196 1.457.33 2.243.4.21.03.315.148.315.36l-.063 2.048c0 .225-.12.323-.358.295-.843-.055-1.71-.185-2.602-.39-.89-.203-1.738-.506-2.538-.907-.8-.402-1.517-.908-2.15-1.52-.63-.613-1.1-1.37-1.41-2.27-.38-1-.502-1.99-.37-2.967.134-.98.44-1.9.917-2.766.48-.866 1.097-1.65 1.855-2.355.76-.704 1.566-1.295 2.423-1.774-.66.015-1.362.037-2.107.065-.743.028-1.502.06-2.274.095l-2.254.105c-.73.036-1.408.067-2.033.095-.626.03-1.167.053-1.623.074-.457.02-.783.04-.98.053-.238.014-.358-.106-.358-.36V16.4c0-.198.11-.297.336-.297l16.264-.36c.196 0 .33.107.4.318zm-1.875 5.554l1.116 3.147c.044.14-.013.247-.167.317l-1.433.4c-.07.016-.126.02-.168.012-.042-.008-.084-.068-.127-.18l-.295-.93c-.098-.28-.217-.615-.358-1.003l-.442-1.214c-.056-.14-.007-.246.147-.316l1.412-.38c.14-.057.245-.008.315.147zm2.465-.74l1.095 3.17c.07.168.02.266-.147.294l-1.412.4c-.14.044-.246-.013-.316-.167l-1.095-3.103c-.056-.127-.007-.233.147-.317l1.39-.423c.17-.042.28.008.338.148zM166.563 24c.688 0 1.327-.176 1.917-.527.505-.296 1.074-.817 1.706-1.563.155-.197.316-.21.485-.042l1.686 1.478c.154.127.168.267.042.422-1.503 2.027-3.448 3.04-5.835 3.04-1.7 0-3.294-.62-4.782-1.857-1.025-.872-2.015-1.31-2.97-1.31-.702 0-1.34.177-1.917.53-.505.295-1.08.816-1.727 1.562-.17.183-.337.204-.506.063l-1.643-1.5c-.14-.126-.155-.273-.042-.442 1.503-2.013 3.448-3.02 5.835-3.02 1.7 0 3.294.62 4.782 1.858 1.012.874 2.002 1.31 2.97 1.31z" fill="#575757"/></g><path d="M306.476 110.067c-1.865 0-3.376-1.51-3.426-3.39l6.428-1.752c.268.495.434 1.056.434 1.66 0 1.924-1.538 3.482-3.436 3.482zm-2.87 6.828l-3.752 7.043c-.175.33-.57.465-.906.312l-7.685-3.492c-.594-.27-.54-1.143.08-1.336l11.44-3.55c.6-.188 1.123.46.824 1.023zm-16.363-6.828c-1.898 0-3.436-1.558-3.436-3.48 0-.602.164-1.16.428-1.652l6.433 1.755c-.056 1.874-1.563 3.377-3.425 3.377zm24.06 27.324c-.794-1.418-.397-3.21.912-4.16 7.077-5.134 11.54-13.7 10.976-23.326-.777-13.238-11.296-24.037-24.35-25.004-15.463-1.145-28.36 11.24-28.36 26.667 0 8.96 4.353 16.827 11.03 21.665 1.307.946 1.7 2.738.907 4.155l-11.035 19.734c-1.188 2.125.327 4.76 2.736 4.76H319.6c2.41 0 3.924-2.635 2.736-4.76l-11.034-19.73zM112.328 110.067c-1.866 0-3.376-1.51-3.426-3.39l6.427-1.752c.267.495.433 1.056.433 1.66 0 1.924-1.537 3.482-3.435 3.482zm-2.87 6.828l-3.753 7.043c-.175.33-.57.465-.906.312l-7.686-3.492c-.594-.27-.54-1.143.082-1.336l11.438-3.55c.602-.188 1.124.46.824 1.023zm-16.364-6.828c-1.898 0-3.435-1.558-3.435-3.48 0-.602.162-1.16.427-1.652l6.433 1.755c-.056 1.874-1.563 3.377-3.426 3.377zm24.06 27.324c-.794-1.418-.397-3.21.912-4.16 7.077-5.134 11.54-13.7 10.976-23.326-.777-13.238-11.296-24.037-24.35-25.004-15.464-1.145-28.36 11.24-28.36 26.667 0 8.96 4.353 16.827 11.03 21.665 1.307.946 1.698 2.738.907 4.155L77.232 157.12c-1.187 2.125.327 4.76 2.736 4.76h45.482c2.41 0 3.924-2.635 2.736-4.76l-11.034-19.73z" fill="#2BB570"/><g><ellipse fill="#FFF" cx="16.594" cy="16.633" rx="16.594" ry="16.633"/><path d="M16.594 25.84c-2.07 0-3.98-.69-5.517-1.85l13.385-12.104c.836 1.387 1.318 3.012 1.318 4.747 0 5.077-4.12 9.208-9.186 9.208m0-18.415c1.856 0 3.584.556 5.03 1.508L8.436 20.86c-.656-1.267-1.03-2.704-1.03-4.227 0-5.078 4.123-9.208 9.188-9.208m0-4.098c-7.32 0-13.275 5.97-13.275 13.306 0 7.337 5.954 13.306 13.274 13.306 7.32 0 13.275-5.97 13.275-13.307 0-7.337-5.957-13.306-13.276-13.306" fill="#F66"/></g><g transform="translate(214.06 18.296)"><use stroke="#D5D5D5" mask="url(#d)" stroke-width="3.319" fill="#FFF" xlink:href="#b"/><path d="M12.607 31.496c-.056-.112-.063-.214-.02-.306.04-.09.118-.15.23-.18.886-.28 1.676-.626 2.37-1.034.696-.408 1.296-.922 1.802-1.54.982-1.1 1.572-2.423 1.77-3.97h-5.753c-.224 0-.337-.107-.337-.318v-1.795c0-.225.113-.337.337-.337h8.174v-3.23h-3.896c-.197.42-.414.858-.653 1.308-.238.45-.498.908-.78 1.373-.097.14-.237.175-.42.105l-1.896-.908c-.098-.042-.158-.116-.18-.222-.02-.105-.003-.2.054-.285.59-.915 1.095-1.86 1.516-2.84.422-.978.794-1.988 1.117-3.03.03-.084.078-.15.148-.2.07-.05.148-.053.232-.01l1.96.42c.21.044.294.177.252.403-.126.464-.274.964-.442 1.5h2.99v-2.134c0-.225.107-.338.317-.338h2.296c.21 0 .316.113.316.338V16.4h6.235c.21 0 .316.104.316.315v1.732c0 .225-.104.338-.315.338H24.11v3.23h7.52c.225 0 .337.113.337.338v1.795c0 .21-.112.317-.337.317h-5.288v5.47c0 .266.015.42.043.463.014.057.028.106.042.148.014.042.028.078.042.106.027.084.097.14.21.17h.042c.028.013.084.02.168.02h.042c.057.014.12.02.19.02h.042c.056.015.148.022.274.022h.484c.8 0 1.278-.148 1.433-.443.112-.253.225-1.19.337-2.808.028-.225.155-.338.38-.338l1.853.17c.197 0 .295.12.295.358v.243c0 .092-.007.194-.02.306-.03.466-.05.797-.064.994-.014.253-.035.496-.063.728-.03.233-.057.447-.085.644-.084.465-.175.81-.274 1.035-.084.254-.21.487-.38.698-.21.253-.385.408-.525.464-.114.07-.226.124-.34.16-.11.034-.237.066-.378.094-.35.07-.68.112-.99.126-.126.014-.295.022-.505.022h-.822c-.267 0-.537-.004-.81-.01-.275-.008-.56-.02-.854-.033-.533-.027-.912-.07-1.137-.125-.168-.043-.32-.092-.453-.148-.133-.057-.25-.113-.347-.17-.183-.112-.323-.28-.422-.506-.11-.168-.188-.414-.23-.738-.043-.267-.064-.626-.064-1.077v-6.06h-1.96c-.476 4.688-3.032 7.707-7.667 9.06-.085.027-.163.023-.233-.012s-.12-.088-.147-.158l-.843-1.86zm24.645.93c.014.112-.01.197-.074.253-.063.055-.137.083-.22.083l-2.15.127c-.196 0-.31-.098-.337-.296-.167-2.773-.266-5.497-.294-8.17-.028-2.676.05-5.4.232-8.173l.063-1.013c.03-.21.142-.316.338-.316l2.15.148c.224.015.322.134.294.36-.183 2.857-.27 5.687-.263 8.488.006 2.8.093 5.638.262 8.51zm14.093-2.26l.19 2.048c.028.226-.077.345-.316.36-.408.042-.882.09-1.423.147-.54.057-1.12.1-1.738.128-.62.028-1.244.04-1.876.032-.632-.007-1.25-.053-1.854-.138-.604-.084-1.172-.218-1.706-.4-.534-.184-.994-.44-1.38-.772-.386-.33-.688-.735-.906-1.214-.217-.478-.312-1.056-.284-1.73l.042-1.036c0-.098.028-.18.084-.243.056-.063.134-.095.232-.095h2.19c.1 0 .176.032.233.095.056.064.084.145.084.243v.042c-.03.14-.05.29-.064.444-.014.155-.02.316-.02.485 0 .353.055.628.167.825.21.24.502.4.874.486.373.085.713.14 1.022.17 1.01.098 2.028.12 3.054.063.505-.028 1.007-.064 1.506-.106l1.506-.126c.24-.028.365.07.38.296zm.443-10.832c-.014.253-.05.507-.105.76-.057.253-.127.5-.21.74-.1.238-.2.478-.307.717-.105.24-.207.48-.305.72-.083.196-.224.26-.42.19l-2.044-.74c-.21-.07-.274-.204-.19-.4.085-.212.162-.41.232-.593s.148-.38.232-.59l.084-.212.085-.21c.055-.198.062-.332.02-.402-.057-.085-.176-.134-.36-.148-.07-.014-.146-.02-.23-.02h-7.984c-.085 0-.158-.026-.222-.075-.063-.05-.094-.123-.094-.222v-2.07c0-.112.03-.196.094-.253.064-.056.137-.084.222-.084h7.752c.435 0 .878.057 1.327.17.45.113.857.28 1.222.507.365.225.66.524.885.897.225.373.33.813.316 1.32zm6.275 11.53v-1.67h-1.875v1.67h1.875zm5.056-7.117c-.212.07-.36.007-.444-.19-.28-.788-.565-1.566-.853-2.333-.288-.768-.593-1.524-.916-2.27-.1-.197-.042-.352.168-.465l1.707-.634c.168-.07.302-.014.4.17.674 1.56 1.278 3.124 1.812 4.686.07.197.007.338-.19.423l-1.685.612zm9.816-5.3c.182.084.252.225.21.422-.252.802-.537 1.6-.853 2.396-.316.795-.67 1.594-1.064 2.397-.07.168-.204.218-.4.147l-1.707-.675c-.085-.028-.148-.088-.19-.18-.042-.09-.042-.186 0-.285.38-.774.713-1.545 1-2.312.29-.767.552-1.524.79-2.27.085-.21.232-.282.443-.21l1.77.57zm-19.13-3.484c0-.225.107-.338.317-.338h5.73c.225 0 .337.113.337.338v1.52c0 .225-.112.338-.337.338h-5.73c-.21 0-.316-.112-.316-.337v-1.52zm-.59 3.083c0-.21.107-.317.317-.317h6.742c.21 0 .316.105.316.316v1.69c0 .21-.105.316-.315.316h-6.742c-.21 0-.316-.106-.316-.317v-1.69zm.76 3.294c0-.225.105-.338.316-.338h5.54c.225 0 .337.113.337.338v1.457c0 .225-.113.338-.338.338h-5.54c-.21 0-.316-.113-.316-.338V21.34zm0 3.062c0-.212.105-.317.316-.317h5.54c.225 0 .337.105.337.317v.38h5.392v-7.834h-4.297c-.21 0-.316-.113-.316-.338v-1.732c0-.21.104-.316.315-.316h11.523c.21 0 .316.105.316.316v1.732c0 .225-.105.338-.316.338h-4.36v7.834h4.676c.21 0 .316.112.316.338v1.794c0 .212-.105.317-.316.317h-4.677v6.104c0 .21-.105.316-.316.316H65.88c-.21 0-.316-.105-.316-.316V27.23h-5.287v5.386c0 .21-.113.316-.337.316h-3.75v.465c0 .21-.106.317-.316.317h-1.75c-.21 0-.315-.106-.315-.317v-5.955c0-.21.106-.316.316-.316h6.004v-.95h-5.835c-.21 0-.316-.106-.316-.317V24.4zm31.112-4.625h1.454v-2.66h-1.454v2.66zM81.444 33.08c0 .21-.113.317-.337.317h-1.94c-.21 0-.315-.106-.315-.317V20.094c0-.21.106-.317.316-.317h3.266v-2.66H78.79c-.324 1.14-.696 2.182-1.117 3.125v13.05c0 .21-.106.316-.316.316h-2.044c-.224 0-.337-.106-.337-.317V24.72c-.112.21-.232.405-.358.58-.126.177-.253.356-.38.54-.126.154-.273.214-.442.18-.168-.036-.273-.16-.316-.37l-.547-2.344c-.014-.085 0-.162.042-.233.87-1.195 1.615-2.533 2.233-4.01.576-1.38 1.046-2.992 1.41-4.836.043-.21.163-.303.36-.275l2.085.168c.225.028.337.078.337.148 0 .028-.003.05-.01.063-.007.013-.01.035-.01.063-.015.07-.022.126-.022.17 0 .04-.007.076-.02.104H93.22c.21 0 .316.113.316.338V16.8c0 .21-.106.317-.316.317h-4.024v2.66h3.413c.21 0 .315.106.315.317V33.08c0 .21-.106.317-.316.317h-2.087c-.224 0-.337-.106-.337-.317v-.612h-8.742v.612zm1.37-11h-1.37v8.15h1.37v-8.15zm3.686 0h-1.37v8.15h1.37v-8.15zm3.686 8.15v-8.15h-1.37v8.15h1.37zm22.56-3.42l-.506.928c-.52.957-1.176 1.816-1.97 2.576-.793.76-1.664 1.376-2.612 1.848-.948.47-1.938.788-2.97.95-1.033.162-2.033.137-3.002-.074-.366-.1-.833-.268-1.4-.507-.57-.238-1.125-.625-1.666-1.16-.54-.535-1.004-1.243-1.39-2.122-.386-.88-.58-2.003-.58-3.368V14.667c0-.197.092-.295.275-.295h2.317c.196 0 .295.098.295.295V25.88c0 .436.038.897.116 1.383.077.485.22.94.43 1.362.212.422.497.795.855 1.12.358.323.825.555 1.4.696.562.127 1.19.134 1.886.022.695-.113 1.387-.338 2.075-.676.687-.338 1.333-.778 1.937-1.32.604-.542 1.103-1.193 1.496-1.953l.506-.93c.083-.168.216-.21.4-.126l1.98.93c.182.098.224.24.125.422zm19.99-10.77v2.048c0 .197-.065.33-.19.4h-.043c-.773.24-1.56.547-2.36.92-.8.373-1.54.823-2.222 1.35-.68.53-1.27 1.13-1.77 1.807-.497.675-.83 1.428-1 2.26-.182.914-.108 1.76.222 2.533.33.774.888 1.407 1.675 1.9.66.423 1.344.732 2.054.93.71.196 1.458.33 2.244.4.21.03.316.148.316.36l-.063 2.048c0 .225-.105.323-.316.295-.856-.055-1.73-.185-2.622-.39-.892-.203-1.734-.506-2.528-.907-.793-.402-1.506-.908-2.138-1.52-.632-.613-1.117-1.37-1.454-2.27-.38-1-.498-1.99-.358-2.967.14-.98.45-1.9.927-2.766.478-.866 1.096-1.65 1.854-2.355.76-.704 1.567-1.295 2.424-1.774-.66.015-1.363.037-2.107.065-.744.028-1.503.06-2.275.095l-2.265.105c-.737.036-1.41.067-2.022.095-.61.03-1.148.053-1.612.074-.463.02-.793.04-.99.053-.24.014-.358-.106-.358-.36V16.4c0-.198.112-.297.337-.297l16.263-.38c.1 0 .186.028.264.085.076.056.115.133.115.232zM148.657 24c.688 0 1.327-.176 1.917-.527.506-.296 1.074-.817 1.706-1.563.156-.197.317-.21.486-.042l1.685 1.478c.156.127.17.267.043.422-1.502 2.027-3.448 3.04-5.835 3.04-1.7 0-3.293-.62-4.782-1.857-1.025-.872-2.016-1.31-2.97-1.31-.703 0-1.342.177-1.918.53-.505.295-1.08.816-1.727 1.562-.168.183-.336.204-.505.063l-1.643-1.5c-.14-.126-.154-.273-.042-.442 1.503-2.013 3.448-3.02 5.835-3.02 1.7 0 3.294.62 4.783 1.858 1.01.874 2 1.31 2.97 1.31z" fill="#575757"/></g><g transform="translate(204.105)"><ellipse fill="#FFF" cx="16.594" cy="16.633" rx="16.594" ry="16.633"/><path d="M16.594 25.84c-2.07 0-3.98-.69-5.517-1.85l13.385-12.104c.836 1.387 1.318 3.012 1.318 4.747 0 5.077-4.12 9.208-9.186 9.208m0-18.415c1.856 0 3.584.556 5.03 1.508L8.436 20.86c-.656-1.267-1.03-2.704-1.03-4.227 0-5.078 4.123-9.208 9.188-9.208m0-4.098c-7.32 0-13.275 5.97-13.275 13.306 0 7.337 5.954 13.306 13.274 13.306 7.32 0 13.275-5.97 13.275-13.307 0-7.337-5.957-13.306-13.276-13.306" fill="#F66"/></g></g></svg>