<svg xmlns="http://www.w3.org/2000/svg" height="234" width="400" xmlns:xlink="http://www.w3.org/1999/xlink" viewBox="0 0 400 234"><title>Group 6</title><defs><path id="a" d="M116.88 223.15H0V0H233.77v223.15z"/><path id="c" d="M8.256 16.463H0V0h16.512v16.463z"/></defs><g fill-rule="evenodd" fill="none"><path fill="#F6F6F1" d="M0 0h400v233.33H0z"/><g transform="translate(83.116 10.054)"><mask id="b" fill="#fff"><use xlink:href="#a"/></mask><path fill="#1257DC" mask="url(#b)" d="M211.09 8.333H17.94C7.388 8.333 0 16.213 0 26.99v250.74h231.42V26.99c0-10.776-9.76-18.657-20.33-18.657"/><path fill="#fff" mask="url(#b)" d="M21.038 277.73h191.25V66.42c0-1.052-.31-1.474-1.36-1.474H23.848c-1.073 0-2.812.402-2.812 1.476v211.31z"/><rect rx="2.383" mask="url(#b)" height="5.9" width="49.176" y="41.52" x="91.802" fill="#fff"/></g><path fill="#D9D9D9" d="M104.714 108.933h190.57v3.904h-190.57z"/><path fill="#333" d="M171.13 97.56c.513.697.788 1.192 1.118 2.035 1.742-1.247 2.604-2.035 3.685-3.483 1.027 1.41 1.78 2.126 3.63 3.465.24-.642.624-1.34 1.1-2.054-1.668-1.045-2.51-1.815-3.538-3.226 1.43-2.494 2.347-5.574 2.622-8.71.055-.55.09-.915.128-1.154-.477.055-.99.092-1.485.092h-4.803c-.46 0-.844-.018-1.174-.037v-1.136c-.53.073-.935.09-1.668.09h-5.592c-.623 0-1.136-.035-1.65-.09v1.98c.404-.037.605-.055 1.23-.074v10.01c-.68.13-.99.165-1.413.184l.513 2.09c.275-.11.77-.24 1.467-.385.825-.165 2.072-.495 3.905-1.045v1.705c0 .733-.037 1.393-.11 1.98h2.145c-.073-.46-.11-1.027-.11-1.98v-.257zm0-12.302c.403 0 .513 0 .697.018v1.174c.293-.037.42-.055.77-.074.256 2.31.44 3.282.843 4.64.348 1.154.752 2.144 1.357 3.28-1.137 1.467-1.89 2.146-3.667 3.227V85.258zm6.582 1.1c-.422 2.713-.88 4.345-1.724 6.014-.825-1.797-1.155-3.026-1.52-6.014h3.244zm-11.055-1.1h2.548v2.017h-2.548v-2.017zm0 3.648h2.548v1.962h-2.548v-1.962zm0 3.63h2.548v1.78c-1.21.33-1.338.347-2.548.586v-2.365zm18.076-.99c.165-.788.275-1.41.385-2.2h4.09c.585 0 1.172.02 1.63.055-.036-.44-.055-.824-.055-1.43v-3.005c0-.605.02-1.027.055-1.485-.513.055-1.063.073-1.778.073h-4.602c-.733 0-1.393-.037-1.943-.11v2.035c.605-.073 1.247-.11 1.925-.11h4.308v2.237h-4.088c-.642 0-1.027-.02-1.43-.074-.055 1.78-.385 3.98-.88 5.832.422-.037.843-.055 1.357-.055h5.06c-.147 1.85-.367 3.006-.734 3.74-.165.348-.476.458-1.19.458-.973 0-2-.11-3.393-.348.275.806.385 1.246.477 2.09 1.173.11 2.035.165 2.896.165 1.76 0 2.55-.312 3.007-1.23.587-1.135.972-3.225 1.082-5.737.018-.477.036-.605.073-.972-.44.055-.843.073-1.503.073h-4.75zm9.754-8.433c.11.715.128 1.082.128 2.035V97.34c0 1.063-.037 1.577-.128 2.347h2.328c-.092-.734-.11-1.247-.11-2.347V85.148c0-.953.018-1.375.11-2.035h-2.328zm12.947 2.072v1.63h-2.13c-.66 0-1.082-.017-1.504-.072.055.458.073.788.073 1.375v6.564c0 .66-.018.916-.073 1.356.477-.055.77-.073 1.654-.073h5.92c.84 0 1.13.018 1.61.073-.05-.403-.07-.678-.07-1.356v-6.564c0-.587.02-.972.07-1.375-.42.055-.84.073-1.5.073h-2.18v-1.63h5.17c.75 0 1.57.035 2.23.11v-2.018c-.71.073-1.43.11-2.25.11h-12.102c-.862 0-1.54-.037-2.22-.11v2.017c.753-.074 1.43-.11 2.256-.11h5.046zm0 3.336v1.926h-1.78V88.52h1.78zm1.87 0h1.85v1.926h-1.85V88.52zm-1.87 3.577v2.236h-1.78v-2.236h1.78zm1.87 0h1.85v2.236h-1.85v-2.236zm4.84-5.006c.07.46.09.863.09 1.596v8.49h-11.662v-8.453c0-.825.018-1.21.073-1.632h-2.127c.074.66.11 1.303.11 2.036v8.25c0 .972-.036 1.67-.11 2.44h2.09v-.863h11.566v.862h2.13c-.09-.77-.13-1.503-.13-2.457v-8.213c0-.642.04-1.412.11-2.054h-2.14zm7.04.056c-.94 0-1.6-.018-2.17-.09.08.75.11 1.447.11 2.345v7.977c0 1.118-.02 1.723-.11 2.493h2.07v-.88h11.3v.898h2.07c-.07-.66-.11-1.485-.11-2.493V89.42c0-1.082.02-1.65.11-2.365-.62.073-1.19.09-2.16.09h-5.49c.3-.53.63-1.264.81-1.87h5.15c.88 0 1.58.038 2.24.11v-2.034c-.66.075-1.41.11-2.24.11h-12.08c-.88 0-1.58-.035-2.24-.11v2.036c.66-.073 1.34-.11 2.26-.11h4.67c-.23.715-.51 1.302-.82 1.87h-3.37zm3.83 10.065v-1.778h3.32v1.78h-3.32zm-1.82 0h-2.11v-8.36h2.11v8.36zm1.82-8.36h3.32v1.633h-3.32V88.85zm5.15 0h2.22v8.36h-2.22v-8.36zm-1.83 4.932h-3.32v-1.65h3.32v1.65z"/><path fill="#FFFBC0" d="M104.714 112.592h190.57v60.366h-190.57z"/><path opacity=".6" fill="#D9D9D9" d="M137.737 145.52h146.77v3.903h-146.77zM137.737 156.494h146.77v3.904h-146.77z"/><path fill="#616161" d="M140.713 130.373c0 .16 0 .264-.014.454h-2.1c-.717 0-1.084-.014-1.54-.088v1.57c.485-.075.867-.09 1.54-.09h1.88c-.22.705-.53 1.174-1.043 1.63-.645.585-1.35.923-2.713 1.304.47.47.763.895 1.04 1.437 1.805-.703 2.685-1.29 3.42-2.257.44-.587.717-1.232.908-2.112h1.892v2.846c0 1.027.47 1.276 2.464 1.276 2.816 0 3.08-.22 3.403-2.7-.586-.087-1.01-.233-1.583-.512-.044.807-.132 1.29-.264 1.467-.162.205-.514.278-1.32.278-.5 0-.748-.014-.94-.073-.22-.06-.234-.088-.234-.396v-2.185h2.33c.66 0 1.087.03 1.54.09v-1.57c-.44.073-.82.087-1.54.087h-2.33v-1.584c.703 0 .967.015 1.407.06v-.632c.792.53 1.218.764 2.42 1.32.396-.85.484-1.01.822-1.45-1.072-.41-1.556-.646-2.348-1.115.513-.455.94-.88 1.32-1.35.293-.322.323-.366.41-.454l-1.35-.762c-.35.572-.893 1.203-1.524 1.775-.308-.235-.47-.367-.865-.704.366-.34.82-.793 1.085-1.1.337-.397.528-.617.572-.676l-1.35-.748c-.043.073-.043.073-.117.19-.058.118-.102.162-.308.426-.293.38-.396.47-.865.94-.557-.676-.763-1.013-.91-1.6-.337.044-.57.06-1.26.06h-2.714c-.513 0-.94-.03-1.217-.075v1.526l-.47-.382-1.203.896c.733.513 1.232.968 2.053 1.92-.983.647-1.672 1-2.8 1.424.395.47.615.82.864 1.35 1.173-.53 1.716-.837 2.58-1.423v.645c.368-.03.53-.044.984-.06l-.015 1.13zm1.57-1.13h1.7v1.584h-1.715v-.337l.015-1.247zm-.528-4.43c-.44.602-.822 1.013-1.438 1.57-.484-.542-.82-.865-1.598-1.51.307-.044.63-.06.893-.06h2.142zm-.558 3.052h-.396c1.043-.85 1.66-1.51 2.48-2.655.807 1.13 1.452 1.804 2.493 2.655h-4.576zm17.674-1.056c-.014.996-.014 1.157-.073 1.67h-2.302c-.5 0-.954-.03-1.364-.073v1.584c.397-.043.88-.072 1.365-.072h1.994c-.265.704-.646 1.276-1.16 1.716-.498.44-1.1.763-2.14 1.16.44.38.762.82 1.026 1.392.953-.44 1.48-.777 2.127-1.35.616-.527.982-1.01 1.35-1.774.38.645.776 1.13 1.378 1.643.807.704 1.41 1.04 2.773 1.525.146-.572.366-1.027.733-1.555-1.335-.41-1.965-.718-2.7-1.305-.527-.425-.908-.88-1.23-1.452h2.375c.515 0 .97.03 1.453.073v-1.583c-.396.06-.777.074-1.32.074h-2.786c.058-.542.073-.865.073-1.67h2.097c.484 0 .924.028 1.408.072v-1.555c-.41.06-.762.074-1.29.074h-.85c.22-.366.38-.66.586-1.04.338-.66.338-.66.514-.97l-1.584-.527c-.293.88-.66 1.672-1.188 2.538h-2.36l1.275-.63c-.323-.733-.646-1.305-1.086-1.92l-1.407.66c.528.732.734 1.113 1.042 1.89h-.572c-.484 0-.924-.03-1.335-.073v1.555c.425-.044.82-.073 1.32-.073h1.863zm-7.494-2.524c1.085.968 1.6 1.555 2.493 2.743l1.217-1.19c-1.218-1.422-1.452-1.67-2.538-2.64l-1.174 1.086zm-.103 5.837c.367-.058.602-.073.983-.073h.807v3.153c-.72.66-1.467 1.174-2.112 1.452l.705 1.672c.132-.117.38-.308.484-.38.63-.44 1.084-.822 1.7-1.41.69.837 1.144 1.16 2.053 1.41.646.175 1.878.263 3.667.263.748 0 2.904-.03 3.344-.044 1.056-.044 1.056-.044 1.628-.06.117-.79.16-.937.44-1.73-1.51.22-3.373.323-5.88.323-2.2 0-2.98-.118-3.653-.558-.383-.25-.544-.44-.837-.94v-3.064c0-.777.014-1.144.058-1.584-.336.044-.732.06-1.113.06h-1.1c-.558 0-.792-.016-1.174-.075v1.583zm15.576-3.666c.102-.015.19-.015.234-.015.132 0 .132 0 .41.015.323 0 1.614.03 1.85.03 0 0 .19-.016.248-.016-.06.075-.06.075-.117.192-.294.557-1.188 1.833-1.76 2.508-.514.6-.94 1.012-1.32 1.305l1.334 1.32c.322-.454.66-.82 1.275-1.334 1.13-.997 2.156-1.51 3.007-1.51.528 0 .82.25.895.792-1.658.69-2.494 1.247-3.154 2.068-.47.557-.645 1.027-.645 1.628 0 .807.396 1.51 1.07 1.892.75.44 1.717.616 3.27.616 1.292 0 2.7-.103 3.756-.264.352-.044.425-.06.675-.06l-.148-1.89c-1.04.395-2.552.615-4.312.615-1.775 0-2.48-.308-2.48-1.07 0-.426.25-.822.764-1.203.308-.22.69-.425 1.408-.763v.353c0 .69-.03 1.438-.088 1.702l1.7-.044c-.028-.25-.043-.454-.043-.777 0-.102 0-.234.016-.484v-.587c0-.206 0-.206-.015-.587v-.16c1.263-.44 1.996-.69 2.2-.75.78-.22 1.22-.337 1.63-.395l-.69-1.686c-.235.147-.293.16-1.085.44-.367.117-1.115.38-2.244.792-.234-1.012-.953-1.555-2.097-1.555-.748 0-1.525.25-2.068.66-.19.148-.19.148-.293.22l-.015-.028c.514-.528.924-1.115 1.35-1.95 1.48-.045 3.344-.162 4.414-.294.75-.088.75-.088 1.16-.117l-.103-1.67c-.806.233-2.14.395-3.842.497-.807.044-.807.044-.924.06.03-.06.06-.104.133-.265.498-1.173.498-1.173.586-1.32l-1.922-.205c-.06.498-.19.938-.587 1.818-1.86 0-2.8-.058-3.4-.19l-.03 1.672zm19.11 4.385c1.04-.323 1.936-.484 2.816-.484 1.57 0 2.596.82 2.596 2.083 0 .94-.616 1.63-1.48 1.63-.412 0-.764-.192-.925-.5-.147-.28-.206-.675-.206-1.29 0-.235 0-.367.03-.646-.63.337-.88.44-1.627.645 0 .894.058 1.378.25 1.877.38 1.056 1.216 1.628 2.404 1.628 1.907 0 3.33-1.438 3.33-3.344 0-2.082-1.746-3.578-4.195-3.578-1.07 0-1.995.117-2.992.41v-1.906c.557-.06.85-.103 1.335-.19 1.012-.177 1.29-.22 1.554-.265l-.06-1.64c-.747.233-1.73.424-2.83.556v-.94c0-.82.015-1.128.088-1.597h-1.833c.073.468.088.85.088 1.685v.968c-.162 0-.235 0-.587.015-.205.015-.367.015-.513.015-.778 0-1.364-.044-1.775-.132l.015 1.643c.132-.014.25-.014.308-.014.045 0 .177 0 .367.013.176 0 .587.015.807.015.367 0 .572 0 .792-.015.484-.03.484-.03.6-.03l.016 2.26c-.968.41-1.613.792-2.14 1.246-.808.703-1.263 1.48-1.263 2.17 0 .63.278 1.203.806 1.657.733.63 1.848 1.042 2.772 1.042.69 0 1.217-.34 1.35-.852.087-.293.117-.645.117-1.247l-.015-2.888zm-1.643 2.67c0 .483-.073.615-.322.615-.28 0-.646-.117-.94-.322-.336-.206-.483-.426-.483-.675 0-.528.645-1.173 1.745-1.76v2.14zm9.475-6.19c-.777-1.144-1.628-2.024-2.904-3.007l-1.38.924c1.13.85 2.2 2.01 2.935 3.167l1.35-1.085zm9.108-1.408v1.467h-2.024c-.66 0-1.012-.014-1.437-.073v1.555c.41-.06.776-.073 1.436-.073h4.198v1.26h-4.49c-.632 0-1.013-.015-1.44-.073v1.598c.44-.058.896-.088 1.527-.088h4.404v3.05c0 .28-.14.353-.634.353-.5 0-.968-.044-1.76-.16.22.54.308.937.396 1.597.704.044 1.012.06 1.38.06.918 0 1.378-.09 1.688-.31.35-.248.47-.527.47-1.172v-3.418h.38c.61 0 1.11.03 1.51.088v-1.598c-.46.058-.85.073-1.54.073h-.35v-1.26h.33c.72 0 1.19.028 1.56.072v-1.555c-.46.044-.93.074-1.59.074h-2.43v-1.466h1.91c.69 0 1.05.015 1.48.073v-1.57c-.43.06-.84.09-1.51.09h-1.88v-.397c0-.455.015-.777.073-1.144h-1.745c.06.38.088.72.088 1.13v.41h-1.657c-.675 0-1.1-.03-1.51-.088v1.57c.424-.06.79-.074 1.45-.074h1.717zm-4.752-3.095c-.543.997-1.613 1.965-3.08 2.815.337.396.587.807.82 1.38 1.233-.764 2.143-1.57 3.155-2.773.264-.308.264-.308.41-.47l-1.305-.953zM196.71 134.8c0 .792-.03 1.32-.087 1.73h1.686c-.06-.41-.074-.91-.074-1.715v-5.955c.38-.47.6-.777.88-1.203.044-.103.088-.162.117-.19.044-.075.088-.133.088-.133.075-.132.075-.132.192-.28l-1.305-.894c-.176.41-.44.85-.807 1.335-.792 1.056-1.452 1.716-2.464 2.435.308.498.47.85.704 1.584.616-.514.69-.587 1.1-1.1-.03 1.07-.03 1.1-.03 1.584v2.802zm6.645-.85c-.836-1.16-1.203-1.585-2.04-2.39l-1.202.864c.88.865 1.188 1.247 1.966 2.508l1.275-.983zm7.38-6.865h.12c.11 0 .26 0 .46.015.78.06 1.44.088 2.22.103-.21.718-.75 2.14-1.23 3.256-.22.514-.47.97-.69 1.32l1.77.617c.27-.367.53-.587 1.07-.85.94-.456 2.07-.72 3.16-.72 1.58 0 2.46.5 2.46 1.408 0 1.174-1.38 1.922-3.5 1.922-1.24 0-2.47-.235-3.79-.704.13.733.15 1.026.15 1.862 1.14.338 2.43.514 3.74.514 3.21 0 5.31-1.41 5.31-3.58 0-1.863-1.54-2.977-4.12-2.977-1.44 0-2.72.322-3.7.953v-.03c.29-.527.85-1.935 1.16-2.977 1.83-.045 3.12-.147 5.25-.382.38-.044.51-.06.85-.073l-.09-1.775c-.51.147-.79.205-1.88.337-.96.118-2.62.235-3.74.264.09-.277.09-.277.36-1.377.14-.587.14-.587.23-.85l-1.96-.162c-.03.63-.14 1.247-.41 2.42-1.52 0-2.5-.073-3.17-.25l-.03 1.717zm22.19-3.93c-.25.366-.41.557-1.07 1.217-.98.953-1.81 1.657-3.39 2.86-1.09.836-1.1.85-1.29 1.056-.32.352-.48.748-.48 1.188 0 .675.26 1.07 1.23 1.82 2.26 1.76 2.74 2.155 3.78 3.123 1 .925 1.53 1.482 1.91 2.01l1.51-1.525c-.19-.147-.28-.22-.43-.367-1.9-1.73-2.33-2.097-4.62-3.828-1.29-.968-1.32-.997-1.32-1.217 0-.162.11-.28.56-.616 1.72-1.306 2.74-2.127 3.49-2.816 1.28-1.187 1.56-1.437 1.81-1.613l-1.69-1.29zm6.89 4.268c.13-.015.21-.015.28-.015.12 0 .38 0 .59.015h1.04l.32.014h.15c-.5 2.625-1.67 6.16-2.63 7.86l1.85.72c1.28-3.36 2.01-5.81 2.55-8.64.35 0 1.43-.13 2.41-.307l.34-.06c.01 0 .05 0 .13-.014l-.08-1.687c-.69.205-1.55.352-2.5.44.04-.264.07-.382.08-.455.05-.264.08-.47.11-.645.13-.748.14-.822.23-1.144l-1.93-.177c.01.117.01.205.01.264 0 .41-.15 1.54-.28 2.244-.34.015-.5.015-.67.015-.85 0-1.44-.044-1.97-.132l-.03 1.702zm8.22-3.183c.64.704 1.05 1.29 1.54 2.185l1.02-.542c-.5-.91-.89-1.467-1.54-2.156l-1.02.512zm3.41 3.49c-.67-.014-1.01-.014-1.45-.014-1.58 0-2.3.073-4.37.47l.13 1.627c1.45-.337 2.42-.44 3.87-.44.74 0 1.15.03 1.85.103l-.03-1.745zm-5.78 3.08c-.8 1.115-1.08 1.775-1.08 2.553 0 .733.41 1.437 1.04 1.804.7.395 1.64.585 2.95.585.86 0 1.51-.058 2.73-.25.38-.058.45-.072.71-.102l-.13-1.79c-.85.31-2.26.544-3.33.544-1.46 0-2.2-.382-2.2-1.13 0-.528.18-.88.77-1.628l-1.46-.587zm6.68-5.88c-.46-.837-.87-1.394-1.53-2.07l-.98.515c.57.63 1.06 1.32 1.5 2.126l1.01-.572zm2.83 2.86c.22-.03.28-.03.64-.045 1.75-.03 3.92-.176 5.21-.352.97 1.804.98 1.848 1.58 2.67-.73-.294-1.58-.44-2.53-.44-1.68 0-2.89.337-3.74 1.056-.68.573-1.06 1.35-1.06 2.186 0 .733.31 1.452.87 1.98.74.72 2.2 1.115 4.07 1.115 1.47 0 2.83-.234 4.65-.79l-.23-1.88c-1.15.603-2.86.984-4.42.984-1.99 0-3.08-.528-3.08-1.48 0-1.043 1.18-1.644 3.17-1.644.88 0 1.66.117 2.32.337.41.147.64.294 1.01.63l1.7-.776c-.51-.69-1.16-1.642-1.55-2.317-.15-.264-.49-.88-1.01-1.862 1.21-.234 1.93-.38 2.15-.44.5-.102.66-.146 1.04-.205l-.2-1.745c-.78.293-2.09.6-3.6.865-.45-1.07-.71-1.848-.8-2.346l-1.89.248c.07.117.7 1.672.95 2.317-.91.118-2.86.25-3.96.25-.6 0-.98-.015-1.42-.074l.13 1.76zm14.3-3.242c.04.323.04.425.06.94.06 4.06.32 6.188.92 7.655.59 1.408 1.38 2.126 2.36 2.126 1.25 0 2.1-1.187 2.86-4.047-.72-.528-.95-.748-1.46-1.334-.17.98-.43 1.86-.78 2.653-.18.41-.38.63-.6.63-.47 0-.94-.938-1.19-2.463-.16-.895-.28-2.655-.28-3.93 0-.97.04-1.687.12-2.23h-2.01zm7.4 1.393c.88 1.086 1.59 2.274 2.09 3.608.51 1.336.85 2.86.94 4.24l1.81-.69c-.42-3.226-1.45-5.675-3.3-7.89l-1.54.733z"/><g transform="translate(112.855 121.097)"><mask id="d" fill="#fff"><use xlink:href="#c"/></mask><path fill="#f44" mask="url(#d)" d="M8.256 14.967c-3.725 0-6.755-3.022-6.755-6.735 0-3.714 3.03-6.735 6.756-6.735 3.724 0 6.755 3.02 6.755 6.735 0 3.713-3.03 6.735-6.754 6.735M8.256 0C3.703 0 0 3.692 0 8.232c0 4.54 3.703 8.23 8.256 8.23 4.552 0 8.256-3.69 8.256-8.23C16.512 3.692 12.808 0 8.256 0"/></g><path fill="#f44" d="M120.36 124.93v4.307c0 .464.36.84.805.84h2.895c.444 0 .803-.376.803-.84 0-.463-.36-.84-.803-.84h-2.09v-3.468c0-.464-.36-.84-.805-.84s-.805.376-.805.84"/><g><path fill="#f44" d="M115.722 181.79h165.12v40.244h-165.12z"/><path fill="#fff" d="M139.095 202.717c1.17-.363 2.178-.545 3.168-.545 1.765 0 2.92.924 2.92 2.343 0 1.056-.693 1.832-1.666 1.832-.462 0-.858-.215-1.04-.56-.165-.315-.23-.76-.23-1.453 0-.264 0-.413.032-.726-.71.38-.99.495-1.832.726 0 1.006.066 1.55.28 2.112.43 1.188 1.37 1.83 2.706 1.83 2.145 0 3.746-1.616 3.746-3.76 0-2.344-1.964-4.027-4.72-4.027-1.204 0-2.243.13-3.365.46v-2.144c.627-.066.957-.115 1.5-.214 1.14-.198 1.453-.248 1.75-.297l-.066-1.848c-.842.264-1.948.478-3.185.627v-1.056c0-.924.016-1.27.1-1.8h-2.064c.084.53.1.958.1 1.9v1.088c-.18 0-.264 0-.66.016-.23.017-.412.017-.577.017-.875 0-1.535-.05-1.997-.15l.017 1.848c.148-.016.28-.016.346-.016.05 0 .197 0 .412.016.198 0 .66.017.907.017.412 0 .643 0 .89-.017.545-.033.545-.033.677-.033l.016 2.54c-1.09.463-1.815.892-2.41 1.404-.906.79-1.418 1.665-1.418 2.44 0 .71.314 1.354.908 1.865.825.71 2.08 1.172 3.118 1.172.777 0 1.37-.38 1.52-.957.098-.33.13-.726.13-1.403l-.015-3.25zm-1.848 3.003c0 .544-.083.693-.363.693-.314 0-.726-.132-1.056-.363-.38-.23-.545-.48-.545-.76 0-.593.726-1.32 1.964-1.98v2.41zm10.66-6.963c-.876-1.287-1.833-2.277-3.268-3.383l-1.552 1.04c1.27.957 2.475 2.26 3.3 3.564l1.518-1.22zm3.992 1.287h2.97c.543 0 1.12.016 1.517.05-.033-.364-.05-.743-.05-1.486v-2.722c0-.644.017-1.023.05-1.55-.446.048-.825.065-1.683.065h-2.92c-.793 0-1.172-.016-1.684-.065.05.528.066.99.066 1.864v10.807c0 1.023-.033 1.55-.1 2.046H152c-.066-.43-.1-1.04-.1-2.03v-6.98zm0-4.29h2.82v.858h-2.82v-.858zm0 2.128h2.82v.875h-2.82v-.875zm12.06-1.7c0-.808.017-1.303.083-1.847-.512.05-.908.066-1.7.066h-3.135c-.825 0-1.188-.016-1.683-.065.033.478.05.924.05 1.55v2.723c0 .71-.017 1.04-.033 1.485.363-.033.957-.05 1.5-.05h3.186v6.75c0 .362-.083.428-.545.428-.544 0-1.336-.065-2.03-.147.265.61.347.957.463 1.75 1.09.065 1.27.065 1.534.065.957 0 1.403-.066 1.733-.264.43-.264.577-.693.577-1.6v-10.84zm-4.752-.428h3.02v.858h-3.02v-.858zm0 2.128h3.02v.875h-3.02v-.875zm1.04 4.44c0-.48.016-.81.05-1.14-.347.033-.76.05-1.27.05h-4.077c-.477 0-.857-.017-1.22-.05.033.347.05.71.05 1.155v3.53c0 .628-.033 1.14-.083 1.602h1.75v-1.107h3.68c.477 0 .824.017 1.17.05-.033-.314-.05-.644-.05-1.122v-2.97zm-4.802.378h3.135v2.162h-3.134V202.7zm11.6-7.062c.05.363.05.48.066 1.056.066 4.57.363 6.963 1.04 8.613.66 1.584 1.55 2.393 2.656 2.393 1.402 0 2.36-1.337 3.217-4.554-.808-.594-1.072-.842-1.65-1.502-.18 1.106-.478 2.096-.874 2.987-.197.463-.428.71-.676.71-.528 0-1.056-1.056-1.336-2.772-.182-1.006-.314-2.986-.314-4.422 0-1.09.05-1.897.132-2.508h-2.26zm8.332 1.568c.99 1.22 1.782 2.557 2.343 4.06.58 1.5.958 3.216 1.057 4.767l2.046-.775c-.478-3.63-1.633-6.386-3.712-8.877l-1.732.826zm10.412 3.3c.43-.05.89-.066 1.42-.066h5.642c.66 0 1.072.016 1.485.066v-1.155c1.006.66 1.518.925 2.69 1.453.313-.81.478-1.122.907-1.815-1.683-.627-2.92-1.287-4.208-2.26-1.32-.99-2.062-1.733-2.772-2.79h-1.963c-.676 1.024-1.45 1.85-2.59 2.756-1.27.99-2.673 1.782-4.207 2.376.478.644.676.99.957 1.683 1.138-.495 1.567-.726 2.64-1.386v1.14zm1.435-1.782h-.462c1.518-1.09 2.244-1.8 3.234-3.218 1.04 1.32 1.947 2.178 3.4 3.218H187.224zm-.808 10.296v-.842h7.21v.842h1.964c-.082-.512-.098-.974-.098-1.733v-3.86c0-.71.016-1.172.082-1.634-.38.05-.775.066-1.435.066h-8.25c-.66 0-1.057-.018-1.42-.067.05.478.082.957.082 1.633v3.845c0 .727-.033 1.222-.1 1.75h1.965zm0-5.56h7.21v3.1h-7.21v-3.1zm13.563 2.293c.214-.33.676-.842 1.27-1.42.495-.478.61-.61.726-.775h.033c-.034.33-.034.512-.034.974V206c0 1.667-.016 2.145-.1 2.64h2.146c-.082-.726-.132-2.574-.132-4.933l.017-1.716c1.815-1.65 3.432-2.49 4.8-2.49 1.734 0 2.823 1.105 2.823 2.87 0 2.013-1.386 3.416-3.366 3.416-.99 0-2.013-.215-2.937-.61.264.907.313 1.27.313 2.144.842.248 1.617.363 2.46.363 1.12 0 2.094-.214 2.936-.627 1.633-.84 2.623-2.59 2.623-4.67 0-1.336-.446-2.54-1.27-3.398-.826-.842-2.03-1.353-3.22-1.353-1.616 0-2.952.51-4.75 1.815-.215.148-.33.247-.397.313l-.033.017c.017-.05.033-.413.066-1.122.594-.743.71-.875.94-1.073l-.626-.676c-.083.048-.116.048-.23.08v-.296c.032-.462.032-.462.048-.775.066-1.14.066-1.156.165-1.585l-2.128-.017c.05.33.066.462.066.726v.165c0 .148-.016.38-.016.692 0 .594-.016.81-.05 1.238-.923.066-1.83.115-2.128.115-.148 0-.28-.016-.544-.033l.115 1.865c.512-.1.512-.1 2.508-.248-.033 1.352-.033 1.37-.066 2.375-1.964 1.815-2.608 2.376-2.987 2.64l.957 1.898zm28.942-.15c-1.07.43-2.62.628-4.77.628-2.69 0-3.4-.345-3.53-1.73-.03-.33-.08-2.13-.08-2.988v-.346l.01-.957v-.447c2.3-.132 2.3-.132 4.8-.23-.01.923-.06 1.583-.14 2.062-.1.643-.28.858-.71.858-.5 0-1.27-.297-2.16-.81.08.595.11.91.11 1.354 0 .23 0 .33-.02.66.86.396 1.59.56 2.36.56.98 0 1.65-.41 2.02-1.236.26-.593.41-1.83.43-3.497.77 0 1.71-.017 2.29-.017.41 0 .56 0 .94.05l-.03-1.964c-.55.066-.55.066-3.2.15v-2.065c0-.412.01-.61.08-1.138h-2.06c.09.643.09.643.09 3.267-2.45.115-2.45.115-4.76.23.05-2.606.05-2.606.14-3.217h-2.21c.1.594.12 1.056.12 2.805 0 .1 0 .248-.02.512-1.63.1-2.54.148-2.69.148-.08 0-.244 0-.475-.016l.132 1.93c.742-.133.742-.133 3.052-.298-.02 1.287-.02 1.353-.02 1.6 0 2.84.07 3.763.3 4.505.49 1.584 1.83 2.178 4.92 2.178 1.09 0 3.26-.115 4.47-.247.56-.066.56-.066.74-.083l-.13-2.21zm13-6.615v-1.073c1.3-.033 1.6-.033 2-.033 1.37 0 2.16.033 2.77.083l-.02-1.898c-.61.066-1.89.1-4.77.116.02-1.42.02-1.452.09-1.964l-2.08.016c.08.43.08.43.1 1.996-.86.033-.86.033-1.41.05-1.35.033-1.51.033-2.59.066-2.12.082-2.39.082-2.8.082-.3 0-.45 0-.81-.033l.07 1.964c.44-.065.44-.065 2.93-.247.73-.05 2.28-.1 4.64-.165 0 .446 0 1.37.02 1.403 0 .116 0 .116.01.2-.38-.315-1-.496-1.71-.496-1.92 0-3.29 1.254-3.29 3.003 0 .94.37 1.666 1.14 2.227.56.413 1.16.594 1.92.594 1.08 0 1.94-.412 2.42-1.17-.13.923-.79 1.764-1.91 2.408-.78.462-1.45.693-2.81.957.55.594.71.84 1.17 1.864 1.54-.528 2.3-.874 2.99-1.353 1.6-1.105 2.46-2.656 2.46-4.455 0-.892-.17-1.568-.53-2.327 0-.198-.02-.33-.02-.396l.02-1.42zm-1.9 2.722c0 .858-.67 1.485-1.61 1.485-.83 0-1.41-.544-1.41-1.303 0-.726.7-1.32 1.54-1.32.91 0 1.48.445 1.48 1.138zm14.26-.792c.26-.148.26-.148.68-.43.33-.213 1.51-1.104 1.81-1.352.56-.478 1.77-1.55 2.59-2.31.46-.43.58-.528.86-.676l-1.02-1.452c-.27.132-.45.165-1.03.214-1.6.116-3.61.198-5.01.198-.91 0-1.39-.033-1.95-.1l.08 1.98c.32-.048.43-.065.79-.08 2.99-.133 4.05-.2 4.67-.282l.02.017c-.1.1-.26.264-.3.297-1.25 1.27-3.4 3.118-4.93 4.29-1.09.825-1.75 1.27-2.33 1.55l1.13 1.783c1.98-1.8 4.38-2.772 6.79-2.772 2 0 3.27.84 3.27 2.128 0 1.173-.59 1.882-1.96 2.394-.25-.71-.43-1.073-.76-1.485-.69-.876-1.7-1.354-2.86-1.354-1.65 0-2.83.99-2.83 2.36 0 .742.36 1.435.99 1.897.66.495 1.81.76 3.2.76 1.51 0 2.92-.33 3.99-.942 1.47-.824 2.24-2.078 2.24-3.645 0-2.26-1.81-3.713-4.63-3.713-1.24 0-1.97.165-3.47.76l-.03-.034zm2.38 5.874c-.47.066-.55.066-.86.066-1.22 0-1.97-.38-1.97-1.04 0-.46.38-.758.98-.758.92 0 1.55.594 1.85 1.732z"/></g></g></svg>