<svg width="405" height="206" viewBox="0 0 405 206" xmlns="http://www.w3.org/2000/svg"><title>Group 2</title><g fill="none" fill-rule="evenodd"><g fill="#FACA00"><path d="M139.33 184.062l53.936 21.69V151.39l-53.937-20.416M197.816 151.39v54.364l65.39-26.795v-53.09M209.83 107.385l-67.936 21.69 23.915 8.488 67.205-23.694M261.932 121.958l-22.69-6.347.036.11-67.732 23.878 23.817 8.452"/></g><path d="M221.91 143.737v50.38" stroke="#858585" stroke-width="1.127" stroke-linecap="square"/><path fill="#858585" d="M219.102 190.155h5.617l-2.81 5.592M224.72 147.65H219.1l2.81-5.59"/><g><path d="M188.47 174.612l-47.342-17.23" stroke="#858585" stroke-width="1.127" stroke-linecap="square"/><path fill="#858585" d="M145.812 156.096l-1.92 5.28-4.296-4.553M187.186 177.03l1.922-5.28 4.294 4.554"/></g><g stroke-width="1.127"><path d="M203.513 175.062L259.98 153.8" stroke="#858585" stroke-linecap="square"/><path stroke="#979797" fill="#858585" d="M258.89 156.718l-1.83-5.31 6.202.834zM202.988 172.375l1.83 5.31-6.203-.834z"/></g><g><path d="M198.132 60.322h24.312c12.41 0 22.47-10.06 22.47-22.47V25.47c0-12.42-10.06-22.47-22.47-22.47H31.094C18.685 3 8.627 13.06 8.627 25.47v12.382c0 12.42 10.06 22.47 22.47 22.47h146.242l20.043 17.783.752-17.783z" stroke="#6EA8F5" stroke-width="5.617" stroke-linecap="round" stroke-linejoin="round" fill="#FFF"/><path d="M33.96 27.79c-.954 5.964-4.234 9.265-8.516 11.416-.66.342-1.004.61-1.004 1.27 0 .637.514 1.517 1.37 1.517.735 0 2.007-.905 2.962-1.565 2.276-1.564 5.04-3.716 6.975-9.045.71 2.102 2.08 4.79 4.65 7.236 1.54 1.466 4.16 3.324 5.14 3.324.684 0 1.394-.685 1.394-1.516 0-.733-.464-1.002-.93-1.247-5.873-3.03-7.586-6.697-8.638-11.39h8.516c.93 0 1.37-.416 1.37-1.32 0-1.174-.954-1.247-1.37-1.247h-8.98v-4.67c0-.953-.515-1.246-1.445-1.246s-1.273.513-1.273 1.246v4.67h-8.687c-.955 0-1.395.44-1.395 1.32 0 1.222 1.052 1.246 1.395 1.246h8.467zm24.42-5.183c-2.62.098-2.913.098-3.77.098-.513 0-3.01-.025-3.572-.025-.54 0-1.42 0-1.42 1.174 0 .66.343 1.002.66 1.1.368.122 1.69.122 2.546.122 1.517 0 1.885-.025 6.29-.147.244.684.514 1.393.954 2.37-3.99.147-4.454.172-5.727.172-.635 0-3.67-.098-4.38-.098-.415 0-1.247.05-1.247 1.173 0 .66.367 1.003.66 1.076.466.147 2.864.147 3.476.147 2.96 0 5.407-.098 8.344-.22.98 1.784 1.493 2.42 1.86 2.86-1.885-.514-3.524-.734-5.458-.734-2.006 0-4.282.367-5.653 1.32-1.028.71-1.91 1.81-1.91 3.496 0 1.907 1.274 3.3 2.742 3.912 2.007.83 4.21.953 6.388.953 3.72 0 6.632-.66 7.586-.978.44-.147 1.125-.392 1.125-1.345 0-.147-.025-1.296-1.15-1.296-.22 0-1.322.292-1.762.39-2.692.66-4.724.734-5.996.734-2.423 0-6.118-.27-6.118-2.567 0-1.76 2.152-2.543 4.722-2.543 3.818 0 6.877 1.223 7.268 1.37.465.195.71.244.88.244.686 0 1.396-.587 1.396-1.418 0-.465-.22-.734-.367-.93-1.225-1.54-2.424-3.52-2.497-3.642.44-.024 3.328-.244 4.43-.44.807-.146 1.15-.562 1.15-1.198 0-.733-.416-1.173-1.053-1.173-.244 0-.27.025-1.468.196-.954.146-2.814.293-4.283.39-.49-.977-.637-1.344-1.03-2.346 2.326-.147 4.015-.293 4.65-.39.613-.1 1.42-.27 1.42-1.224 0-1.222-.954-1.222-1.223-1.222-.294 0-1.273.148-1.64.197-1.297.17-2.325.244-3.94.342-.196-.734-.538-1.98-.612-2.2-.244-.563-.685-.686-1.125-.686-.147 0-1.542.025-1.542 1.223 0 .366.098.733.39 1.76zm24.566.953c-.98.05-2.62.098-4.82.098-.59 0-3.5-.05-4.162-.05-.367 0-1.37 0-1.37 1.297 0 1.32.856 1.32 2.643 1.32 4.43 0 5.8-.05 8.712-.17.807 1.76 1.712 3.08 2.79 4.546-1.127-.342-3.11-.953-5.728-.953-5.286 0-7.684 2.616-7.684 5.72 0 1.834.88 3.57 2.643 4.5 2.155 1.148 4.65 1.343 7.074 1.343 2.496 0 6.142-.415 7.684-.93.76-.243 1.003-.66 1.003-1.245 0-.49-.243-1.272-1.173-1.272-.318 0-.66.05-2.4.392-1.883.366-4.06.49-5.383.49-2.178 0-6.73-.1-6.73-3.155 0-1.71 1.59-3.618 5.36-3.618 1.2 0 2.545.147 3.916.513 1.223.318 2.594.83 2.96 1.003 1.2.537 1.298.586 1.64.586.784 0 1.42-.586 1.42-1.295 0-.515-.245-.833-1.273-1.908-1.052-1.125-2.3-2.91-3.28-4.865 4.16-.27 4.87-.293 5.776-.562.563-.147.857-.465.857-1.1 0-.123 0-1.345-1.248-1.345-.318 0-1.615.147-2.423.22-1.738.17-3.182.27-4.04.318-.195-.587-.244-.782-.66-2.47-.195-.855-.563-1.295-1.346-1.295-.416 0-1.468.122-1.468 1.15 0 .66.465 2.028.71 2.737zm26.524 1.027c-1.81.073-4.258.098-6.363.122-.808 0-1.69 0-1.69 1.27 0 1.296.98 1.296 1.42 1.296 2.08 0 5.703-.073 6.682-.122l.12 4.89c-.464-.123-1.247-.32-2.422-.32-3.352 0-5.775 1.76-5.775 4.744 0 2.396 1.566 4.693 5.726 4.693 1.1 0 3.744-.194 4.65-2.174.366-.83.39-1.834.39-3.13.54.367 1.347.954 2.105 1.76 1.126 1.174 1.2 1.272 1.713 1.272.66 0 1.37-.66 1.37-1.516 0-.415-.195-.88-.93-1.54-1.272-1.198-2.618-2.15-4.135-2.958l-.098-5.818c.612-.024 3.45-.122 3.77-.17.244-.026 1.002-.148 1.002-1.248 0-1.296-1.003-1.296-1.37-1.296-.294 0-2.937.123-3.426.147l-.048-2.983c0-.538-.05-1.418-1.395-1.418-1.346 0-1.395.928-1.37 1.44l.073 3.057zm.22 9.925c0 .538.17 2.37-.22 3.203-.465 1.026-1.81 1.173-2.496 1.173-1.028 0-3.133-.27-3.133-2.37 0-2.275 2.473-2.52 3.403-2.52 1.223 0 1.91.27 2.447.514zM98.947 20.235c-1.322-.17-1.518.636-1.64 1.076-.074.32-.906 4.646-.906 10.22 0 2.86.222 6.747.613 8.458.196.807.612 1.125 1.346 1.125.782 0 1.345-.318 1.345-1.223 0-.293-.122-1.075-.17-1.418-.32-1.858-.466-4.596-.466-6.747 0-4.522.488-7.236.93-9.803.023-.122.023-.27.023-.513 0-.54-.146-1.052-1.076-1.175zm32.47 13.03c0-1.638.563-2.126 2.497-3.764 1.54-1.295 2.618-2.224 2.618-4.498 0-2.346-1.444-5.11-6.093-5.11-5.63 0-6.682 4.06-6.682 5.575 0 1.296 1.1 1.418 1.517 1.418 1.175 0 1.468-.61 1.542-1.125.244-1.515.49-3.202 3.5-3.202.954 0 3.156.147 3.156 2.493 0 1.468-.88 2.128-2.716 3.546-2.13 1.638-2.276 3.276-2.276 4.45 0 .855 0 1.784 1.47 1.784 1.467 0 1.467-.978 1.467-1.565zm-1.468 3.667c-1.004 0-1.812.807-1.812 1.81 0 1.002.808 1.808 1.81 1.808 1.004 0 1.812-.806 1.812-1.81 0-1-.832-1.808-1.81-1.808zm25.006-14.79c3.06-.195 4.796-.293 6.975-.61.514-.074 1.028-.22 1.028-1.028 0-1.124-.807-1.124-1.027-1.124-.27 0-.734.073-.783.073-2.08.27-3.89.514-7.513.685-2.52.122-5.873.122-8.467.122-.54 0-1.248 0-1.248 1.05 0 .343.12.734.464.93.195.122.318.147 1.86.147 1.59 0 4.968-.074 6.167-.122v1.197h-8.98c-.662 0-1.102.245-1.102 1.052 0 1.002.734 1.05 1.1 1.05h8.983v1.2h-5.334c-2.056 0-2.52.536-2.52 2.54v3.008c0 2.03.513 2.518 2.52 2.518h5.335v1.247h-7.733c-.758 0-1.052.342-1.052 1.05 0 1.003.808 1.003 1.052 1.003h7.734v1.296h-9.128c-.342 0-1.1.05-1.1 1.027 0 1.002.88 1.002 1.1 1.002h20.924c.343 0 1.102-.05 1.102-1.027 0-1.002-.857-1.002-1.102-1.002h-9.25V38.13h7.856c.318 0 1.052-.024 1.052-1.027 0-1.026-.783-1.026-1.052-1.026h-7.856V34.83h5.457c2.03 0 2.52-.513 2.52-2.518v-3.007c0-2.03-.49-2.542-2.52-2.542h-5.457v-1.198h9.128c.71 0 1.1-.294 1.1-1.05 0-.98-.708-1.053-1.1-1.053h-9.128v-1.32zm-7.905 7.823v-.758c0-.44.197-.684.686-.684h4.675v1.442h-5.36zm5.36 3.105h-4.674c-.49 0-.685-.245-.685-.685v-.855h5.36v1.54zm2.546-4.547h4.772c.465 0 .685.22.685.684v.758h-5.457v-1.442zm5.457 3.007v.855c0 .465-.22.685-.685.685h-4.772v-1.54h5.457zm16.98-7.97c-.98.05-2.62.098-4.82.098-.588 0-3.5-.05-4.16-.05-.37 0-1.372 0-1.372 1.297 0 1.32.858 1.32 2.644 1.32 4.43 0 5.8-.05 8.712-.17.808 1.76 1.713 3.08 2.79 4.546-1.126-.342-3.108-.953-5.726-.953-5.286 0-7.685 2.616-7.685 5.72 0 1.834.88 3.57 2.643 4.5 2.154 1.148 4.65 1.343 7.073 1.343 2.497 0 6.143-.415 7.685-.93.76-.243 1.004-.66 1.004-1.245 0-.49-.246-1.272-1.176-1.272-.318 0-.66.05-2.398.392-1.885.366-4.063.49-5.384.49-2.178 0-6.73-.1-6.73-3.155 0-1.71 1.59-3.618 5.36-3.618 1.198 0 2.544.147 3.915.513 1.223.318 2.594.83 2.96 1.003 1.2.537 1.298.586 1.64.586.784 0 1.42-.586 1.42-1.295 0-.515-.245-.833-1.273-1.908-1.052-1.125-2.3-2.91-3.28-4.865 4.16-.27 4.87-.293 5.777-.562.564-.147.857-.465.857-1.1 0-.123 0-1.345-1.248-1.345-.32 0-1.616.147-2.424.22-1.737.17-3.18.27-4.038.318-.195-.587-.244-.782-.66-2.47-.196-.855-.563-1.295-1.346-1.295-.416 0-1.47.122-1.47 1.15 0 .66.466 2.028.71 2.737zm26.524 1.027c-1.81.073-4.258.098-6.363.122-.807 0-1.688 0-1.688 1.27 0 1.296.978 1.296 1.42 1.296 2.08 0 5.7-.073 6.68-.122l.122 4.89c-.465-.123-1.248-.32-2.422-.32-3.353 0-5.776 1.76-5.776 4.744 0 2.396 1.566 4.693 5.727 4.693 1.1 0 3.744-.194 4.65-2.174.366-.83.39-1.834.39-3.13.54.367 1.347.954 2.106 1.76 1.125 1.174 1.2 1.272 1.713 1.272.66 0 1.37-.66 1.37-1.516 0-.415-.196-.88-.93-1.54-1.272-1.198-2.618-2.15-4.136-2.958l-.098-5.818c.612-.024 3.45-.122 3.77-.17.244-.026 1.003-.148 1.003-1.248 0-1.296-1.004-1.296-1.37-1.296-.295 0-2.938.123-3.427.147l-.05-2.983c0-.538-.048-1.418-1.394-1.418-1.346 0-1.395.928-1.37 1.44l.073 3.057zm.22 9.925c0 .538.172 2.37-.22 3.203-.465 1.026-1.81 1.173-2.496 1.173-1.027 0-3.132-.27-3.132-2.37 0-2.275 2.472-2.52 3.402-2.52 1.224 0 1.91.27 2.447.514zm-10.743-14.277c-1.322-.17-1.517.636-1.64 1.076-.073.32-.905 4.646-.905 10.22 0 2.86.22 6.747.61 8.458.196.807.612 1.125 1.346 1.125.784 0 1.346-.318 1.346-1.223 0-.293-.122-1.075-.17-1.418-.32-1.858-.466-4.596-.466-6.747 0-4.522.49-7.236.93-9.803.025-.122.025-.27.025-.513 0-.54-.146-1.052-1.076-1.175zm32.47 13.03c0-1.638.564-2.126 2.497-3.764 1.543-1.295 2.62-2.224 2.62-4.498 0-2.346-1.444-5.11-6.094-5.11-5.63 0-6.68 4.06-6.68 5.575 0 1.296 1.1 1.418 1.516 1.418 1.175 0 1.468-.61 1.542-1.125.245-1.515.49-3.202 3.5-3.202.954 0 3.156.147 3.156 2.493 0 1.468-.88 2.128-2.716 3.546-2.13 1.638-2.276 3.276-2.276 4.45 0 .855 0 1.784 1.468 1.784 1.47 0 1.47-.978 1.47-1.565zm-1.468 3.667c-1.003 0-1.81.807-1.81 1.81 0 1.002.807 1.808 1.81 1.808 1.004 0 1.81-.806 1.81-1.81 0-1-.83-1.808-1.81-1.808z" fill="#646464"/><path d="M81.747 134.96H23.743c-11.187 0-20.257-9.064-20.257-20.244v-10.09c0-11.173 9.07-20.244 20.257-20.244h84.38c11.187 0 20.257 9.063 20.257 20.244v10.09c0 11.172-9.07 20.244-20.257 20.244H102.7l2.634 11.802-23.587-11.802z" stroke="#6EA8F5" stroke-width="5.617" stroke-linecap="round" stroke-linejoin="round" fill="#FFF"/><path d="M30.136 100.91c.22-.46.394-.963.394-1.248 0-.658-.658-.855-1.206-.855-.768 0-.966.46-1.053.636-.087.197-.438 1.25-.526 1.468h-1.82c-1.844 0-2.26.483-2.26 2.28v9.688c0 1.797.438 2.257 2.26 2.257h8.03c1.82 0 2.26-.46 2.26-2.257v-1.775c0-1.82-.44-2.258-2.26-2.258h-8.03v-1.73h7.656c1.82 0 2.26-.44 2.26-2.26v-1.665c0-1.84-.46-2.28-2.26-2.28h-3.444zm-4.213 2.587c0-.372.175-.57.57-.57h6.495c.46 0 .592.263.592.57v1.14c0 .373-.175.592-.592.592h-7.065v-1.733zm7.438 7.255c.418 0 .593.197.593.592v1.205c0 .438-.22.59-.592.59h-6.867c-.373 0-.57-.174-.57-.59v-1.798h7.438zm-16.345-10.477c0 .505.285.746 1.075 1.36.373.306 1.36 1.183 1.755 1.577.55.57.834.79 1.295.79.658 0 1.207-.702 1.207-1.294 0-.548-.154-.657-1.865-2.126-.79-.7-1.756-1.49-2.282-1.49-.68 0-1.185.657-1.185 1.183zm9.478 16.548c-1.58 0-2.48-.197-3.247-.68-.987-.613-1.645-1.534-1.645-2.673v-4.01c0-1.864-.482-2.26-2.28-2.26h-1.625c-.768 0-1.14.308-1.14 1.163 0 .723.416 1.052 1.074 1.052h1.052c.593 0 .615.504.615.7v4.626c-.395.483-1.58 1.58-2.02 1.93-.57.46-.855.68-.855 1.25 0 .613.46 1.336 1.25 1.336.506 0 .77-.263 1.56-1.096.723-.767 1.03-1.162 1.49-1.84 1.45 2.695 4.587 2.695 5.793 2.695h9.5c1.098 0 1.142-.833 1.142-1.118 0-.57-.264-1.074-1.12-1.074h-9.544zm12.118-.394c-.547.13-.942.35-.942 1.094 0 .22 0 1.206 1.03 1.206.725 0 3.972-.79 4.872-1.008 1.865-.44 2.26-.526 2.26-1.403 0-.68-.373-1.053-.944-1.053-.197 0-.33.044-1.536.307v-3.967h1.25c.703 0 .944-.417.944-1.03 0-.702-.33-1.03-.943-1.03h-1.25v-2.653c1.426-.087 1.953-.35 1.953-2.257v-2.893c0-1.797-.417-2.258-2.26-2.258h-2.39c-1.823 0-2.26.44-2.26 2.258v2.893c0 1.84.46 2.257 2.26 2.257h.788v9.052c-.218.044-.767.132-.942.176v-6.992c0-.35-.022-1.008-.944-1.008-.943 0-.943.723-.943 1.008v7.3zm4.718-12.056c0 .395-.197.614-.614.614h-1.69c-.504 0-.614-.285-.614-.614v-2.28c0-.306.088-.613.615-.613h1.69c.438 0 .613.22.613.615v2.28zm13.8-.482c.374 0 1.208-.044 1.208-1.096 0-.81-.483-1.118-1.207-1.118h-4.235v-1.71c0-.416-.044-1.14-1.076-1.14-.812 0-1.207.242-1.207 1.14v1.71h-4.015c-.373 0-1.14.044-1.14 1.052 0 .81.306 1.162 1.14 1.162h2.37v4.515c0 5.96-2.02 7.737-3.27 8.854-.373.33-.658.615-.658 1.053 0 .548.548 1.096 1.097 1.096.395 0 .702-.154 2.106-1.666 1.47-1.6 2.72-4.888 2.72-9.008v-4.844h1.36v12.274c0 .59-.174.832-.767.832-.33 0-1.075 0-1.207.022-.66.11-.79.658-.79 1.03 0 .263.11.965.702 1.14.175.044.24.066 1.667.066 1.447 0 2.435-.11 2.435-2.148v-13.216h2.764zm-2.127 2.718c0 1.62.33 4.36.966 6.816.373 1.446.746 1.578 1.25 1.578.506 0 .988-.263.988-.9 0-.327-.087-.656-.197-1.05-.483-1.776-.856-3.595-1.01-5.436-.11-1.447-.175-1.973-.987-1.973-.68 0-1.01.307-1.01.965zm-7.854-.987c-.812 0-.856.614-.878 1.052-.153 2.367-.22 3.99-1.053 5.918-.153.373-.22.548-.22.81 0 .593.527.856.944.856.482 0 .855-.09 1.425-2.346.55-2.214.68-5.02.68-5.304 0-.285 0-.987-.9-.987zm18.173-3.813c-.44.022-2.612 0-3.116 0-1.185 0-1.975 0-1.975 1.14s.92 1.14 1.316 1.14h3.708c-.022.766-.022.942-.044 2.607-3.094 1.337-5.442 3.945-5.442 7.21 0 2.26 1.273 4.21 3.533 4.21 1.646 0 2.787-.965 3.468-1.535.197.263.416.57.9.57.68 0 1.294-.548 1.294-1.184 0-.307-.066-.438-.44-1.183 1.712-1.973 3.402-5.15 4.082-6.86 1.338.35 3.752 1.16 3.752 4.186 0 4.012-4.037 4.297-5.573 4.384-.637.022-1.295.066-1.295 1.074 0 1.206 1.01 1.206 1.404 1.206.088 0 3.4 0 5.727-1.732.855-.635 2.215-2.104 2.215-4.8 0-3.66-2.59-6.597-8.184-6.597-.81 0-1.864.066-3.05.307 0-.35.045-1.644.067-1.907 3.116-.066 6.32-.13 9.325-.33.55-.042 1.273-.086 1.273-1.116 0-1.163-.944-1.163-1.25-1.163-.528 0-3.226.153-3.775.175-1.624.088-4.19.132-5.485.154 0-.197.066-1.206.066-1.425 0-.875-.482-1.16-1.294-1.16-.79 0-1.03.46-1.075.635-.087.263-.11 1.337-.13 1.995zm2.413 10.432c-.263-1.622-.22-3.222-.198-4.252 1.317-.328 2.107-.35 2.787-.35-.35.854-1.03 2.454-2.59 4.602zm-1.865 2.302c-.46.482-1.448 1.424-2.326 1.424-.44 0-1.536-.263-1.536-2.082 0-2.126 1.317-3.77 3.16-4.887 0 1.84.22 3.878.702 5.544zm19.775-9.732c.066-.79.132-1.402.46-2.915.11-.526.264-1.205.264-1.622 0-.898-.9-.964-1.273-.964-1.01 0-1.162.593-1.272 1.01-.395 1.6-.834 6.4-.834 9.248 0 .943.066 2.477.22 3.376.11.635.438.942 1.184.942.702 0 1.23-.285 1.23-1.096 0-.328-.11-1.907-.11-2.28 0-1.577.372-3.396 1.842-5.435.702-.986 2.392-2.98 4.783-2.98 3.445 0 3.555 5.02 3.555 7.035 0 4.252-1.382 6.53-5.902 7.145-.856.11-.922.11-3.247.11-.505 0-1.34.153-1.34 1.14 0 1.205 1.076 1.227 1.647 1.227 1.69 0 3.817-.022 6.077-.79 2.962-1.007 5.354-3.002 5.354-8.898 0-3.265-.57-9.227-6.033-9.227-3.993 0-5.704 3.112-6.604 4.975zm25.848 6.597c0-1.47.505-1.907 2.24-3.376 1.38-1.16 2.346-1.994 2.346-4.033 0-2.103-1.294-4.58-5.463-4.58-5.046 0-5.99 3.64-5.99 4.998 0 1.16.987 1.27 1.36 1.27 1.054 0 1.317-.547 1.383-1.007.22-1.358.44-2.87 3.137-2.87.856 0 2.83.13 2.83 2.235 0 1.315-.79 1.907-2.435 3.178-1.91 1.47-2.04 2.937-2.04 3.99 0 .766 0 1.6 1.316 1.6 1.317 0 1.317-.878 1.317-1.404zm-1.316 3.287c-.9 0-1.623.723-1.623 1.622 0 .898.725 1.62 1.624 1.62.9 0 1.624-.722 1.624-1.62 0-.9-.746-1.623-1.624-1.623z" fill="#646464"/><g><path d="M323.537 146.762h58.004c11.188 0 20.258-9.064 20.258-20.245v-10.09c0-11.172-9.07-20.244-20.257-20.244h-84.38c-11.186 0-20.256 9.064-20.256 20.245v10.09c0 11.172 9.07 20.244 20.257 20.244h5.424l-2.634 11.8 23.587-11.8z" stroke="#6EA8F5" stroke-width="5.617" stroke-linecap="round" stroke-linejoin="round" fill="#FFF"/><path d="M310.617 113.13c.065-.09.175-.198.175-.417 0-.307-.175-.592-.856-1.184-.768-.658-.877-.768-1.206-.768-.593 0-1.14.46-1.14.92 0 .35.043.395 1.184 1.447h-2.326v-1.447c0-.44-.066-1.03-1.097-1.03-1.096 0-1.096.7-1.096 1.03v1.446h-4.542c-.373 0-1.03.043-1.03 1.03 0 1.007.745 1.007 1.03 1.007h4.542v1.425h-2.458c-1.12 0-2.194.24-2.216 2.06-.24-.328-.548-.328-.636-.328-.44 0-.505.11-.987 1.008-.46.81-.505.898-.505 1.074 0 .438.373.723.746.723.176 0 .307-.023.636-.46.33-.44.527-.725.746-1.207v10.784c0 .416.066 1.03 1.053 1.03 1.01 0 1.032-.724 1.032-1.03v-4.12h2.698v3.88c0 .283 0 1.007 1.01 1.007.987 0 .987-.745.987-1.008v-3.924h2.896v2.126c0 .68-.263.68-1.01.68-.57 0-1.052 0-1.052.964 0 1.184.746 1.184 1.8 1.184 1.293 0 2.412-.044 2.412-2.06v-10.17c0-1.666-.68-2.214-2.216-2.214h-2.742v-1.425h4.76c.352 0 1.032 0 1.032-1.03 0-1.008-.746-1.008-1.03-1.008h-.593zm-6.254 7.385h-2.698v-1.36c0-.437.22-.612.614-.612h2.083v1.972zm0 3.77h-2.698v-1.93h2.698v1.93zm4.28-5.742c.438 0 .613.22.613.613v1.36h-2.896v-1.973h2.282zm.613 5.742h-2.896v-1.93h2.896v1.93zm-12.923-1.49c.395.438.856.876 1.03 1.052.528.482.638.57.945.57.57 0 .965-.68.965-1.074 0-.417-.153-.548-.965-1.162-1.032-.788-1.734-1.533-1.975-1.84v-.175c.812-1.272 2.02-3.156 2.02-4.647 0-1.14-.682-1.446-1.603-1.446h-.417v-2.28c0-.482-.132-1.14-1.12-1.14-1.074 0-1.074.833-1.074 1.14v2.28h-1.383c-.856 0-1.14.394-1.14 1.14 0 1.007.832 1.007 1.14 1.007h2.61c.264 0 .593 0 .593.394 0 .35-1.23 2.542-3.445 4.69-1.075 1.03-1.12 1.074-1.12 1.49 0 .636.528 1.316 1.208 1.316.263 0 .55-.044 1.536-1.118v7.145c0 .833.35 1.14 1.14 1.14 1.03 0 1.053-.833 1.053-1.14v-7.342zm31.6 4.953c-.635.22-.68.9-.68 1.03 0 .417.09.7 1.998 1.49.088.044 2.24.9 2.985.9.24 0 .438-.045.614-.22.262-.24.35-.658.35-.92 0-.505-.263-.746-.658-.855-1.23-.307-1.558-.395-2.5-.746-.243-.087-1.34-.57-1.603-.68h1.557c1.69 0 2.04-.393 2.04-2.037v-3.792c0-1.644-.373-2.038-2.04-2.038h-8.8c-1.666 0-2.06.394-2.06 2.038v3.792c0 1.665.394 2.038 2.06 2.038h6.737zm1.932-3.594h-8.535v-.855h8.535v.854zm-8.535-2.06v-.373c0-.262.11-.48.483-.48h7.57c.328 0 .482.196.482.48v.373h-8.535zm8.535 3.725c0 .284-.154.48-.483.48h-7.57c-.372 0-.482-.218-.482-.48v-.46h8.535v.46zm.505-8.877c0-1.403-.57-1.6-1.734-1.6h-6.01c-1.164 0-1.735.197-1.735 1.6v.57c0 1.402.572 1.6 1.735 1.6h6.01c1.164 0 1.735-.198 1.735-1.6v-.57zm-6.934.855c-.482 0-.482-.285-.482-.702 0-.285.153-.46.482-.46h4.39c.328 0 .48.175.48.46 0 .417 0 .702-.48.702h-4.39zm-6.165-1.732c.462-1.315 1.186-3.682 1.186-4.47 0-.746-.702-.944-1.185-.944-.81 0-.964.57-1.074.987-.768 3-1.207 4.645-3.225 7.582-.24.33-.33.526-.33.92 0 .768.55 1.36 1.186 1.36.55 0 .79-.33 1.25-1.01v9.69c0 .393.067 1.14 1.098 1.14 1.097 0 1.097-.856 1.097-1.14v-14.116zm3.05-3.112c-1.798 0-2.04.81-2.04 2.257v1.8c0 .283 0 1.03.988 1.03.79 0 1.075-.33 1.075-1.03V115.1c0-.417.197-.614.614-.614h9.325c.46 0 .614.24.614.614v1.907c0 .283 0 1.03.988 1.03.79 0 1.075-.308 1.075-1.03v-1.8c0-1.38-.2-2.256-1.998-2.256h-.658c.22-.373.68-1.162.68-1.49 0-.373-.35-.768-1.075-.768-.462 0-.813.154-1.01.548-.593 1.14-.637 1.25-.944 1.71h-1.25v-1.38c0-.44-.154-.987-1.098-.987-.987 0-1.097.548-1.097.986v1.38h-1.25c-.394-.876-.855-1.665-1.03-1.906-.154-.175-.33-.307-.68-.307-.417 0-1.185.24-1.185.81 0 .264.153.637.46 1.14.044.067.11.198.132.264h-.636zm2.897 14.838c-.263 0-.33.022-1.404.504-.68.307-1.887.592-2.458.723-1.03.218-1.338.306-1.338 1.007 0 .592.417 1.118.92 1.118.33 0 1.647-.33 3.183-.942 1.777-.724 1.953-1.008 1.953-1.403 0-.416-.286-1.008-.856-1.008zm17.208-14.18c-.44.02-2.61 0-3.116 0-1.186 0-1.975 0-1.975 1.14s.92 1.14 1.316 1.14h3.71c-.023.766-.023.94-.045 2.607-3.093 1.336-5.44 3.944-5.44 7.21 0 2.257 1.27 4.208 3.53 4.208 1.647 0 2.788-.965 3.468-1.534.197.263.417.57.9.57.68 0 1.294-.548 1.294-1.184 0-.307-.066-.438-.44-1.184 1.713-1.972 3.402-5.15 4.082-6.86 1.338.35 3.75 1.162 3.75 4.186 0 4.01-4.036 4.296-5.572 4.384-.636.022-1.294.066-1.294 1.074 0 1.205 1.01 1.205 1.404 1.205.088 0 3.4 0 5.726-1.73.856-.637 2.217-2.105 2.217-4.8 0-3.66-2.59-6.598-8.183-6.598-.812 0-1.865.066-3.05.307 0-.35.044-1.644.066-1.907 3.115-.066 6.32-.132 9.324-.33.55-.043 1.273-.087 1.273-1.117 0-1.16-.943-1.16-1.25-1.16-.527 0-3.226.152-3.774.174-1.624.088-4.19.132-5.486.153 0-.197.066-1.205.066-1.424 0-.877-.483-1.162-1.294-1.162-.79 0-1.032.462-1.075.637-.088.263-.11 1.337-.132 1.994zm2.413 10.432c-.263-1.622-.22-3.222-.197-4.252 1.317-.33 2.107-.35 2.787-.35-.35.854-1.03 2.454-2.59 4.602zm-1.865 2.3c-.46.483-1.448 1.426-2.325 1.426-.44 0-1.536-.263-1.536-2.082 0-2.126 1.316-3.77 3.16-4.888 0 1.84.22 3.88.7 5.545zm19.775-9.73c.066-.79.132-1.403.46-2.915.11-.527.265-1.206.265-1.623 0-.9-.9-.964-1.273-.964-1.01 0-1.163.592-1.273 1.008-.395 1.6-.833 6.4-.833 9.25 0 .943.065 2.477.22 3.375.11.636.438.943 1.184.943.702 0 1.23-.285 1.23-1.096 0-.33-.11-1.907-.11-2.28 0-1.578.372-3.397 1.842-5.435.702-.986 2.39-2.98 4.783-2.98 3.445 0 3.554 5.018 3.554 7.035 0 4.252-1.382 6.53-5.902 7.145-.855.11-.92.11-3.247.11-.505 0-1.338.153-1.338 1.14 0 1.205 1.075 1.226 1.645 1.226 1.69 0 3.818-.02 6.078-.79 2.962-1.007 5.353-3 5.353-8.897 0-3.266-.57-9.227-6.033-9.227-3.994 0-5.705 3.11-6.605 4.974zm25.848 6.597c0-1.467.505-1.906 2.238-3.374 1.382-1.162 2.348-1.995 2.348-4.033 0-2.104-1.295-4.58-5.464-4.58-5.046 0-5.99 3.638-5.99 4.996 0 1.16.988 1.27 1.36 1.27 1.054 0 1.317-.547 1.383-1.008.22-1.358.44-2.87 3.14-2.87.854 0 2.83.13 2.83 2.235 0 1.315-.79 1.907-2.436 3.178-1.91 1.468-2.04 2.937-2.04 3.99 0 .766 0 1.6 1.316 1.6s1.316-.878 1.316-1.404zm-1.316 3.29c-.9 0-1.624.722-1.624 1.62 0 .9.724 1.622 1.624 1.622.9 0 1.623-.723 1.623-1.62 0-.9-.746-1.623-1.623-1.623z" fill="#646464"/></g><g><path d="M315.098 65.836h39.442c11.196 0 20.254-9.064 20.254-20.244v-10.09c0-11.173-9.068-20.244-20.254-20.244h-64.134c-11.196 0-20.253 9.063-20.253 20.244v10.09c0 11.173 9.067 20.244 20.253 20.244h3.74l-2.634 11.802 23.586-11.802z" stroke="#6EA8F5" stroke-width="5.617" stroke-linecap="round" stroke-linejoin="round" fill="#FFF"/><path d="M311.327 41.058c.548 1.403 1.184 2.5 1.382 2.827.372.636.504.855.898.855.373 0 .922-.416.922-1.074 0-.328-.088-.46-.856-1.534-.9-1.25-1.645-2.608-2.172-4.055h1.997c.59 0 1.008-.22 1.008-.986 0-.854-.592-.94-1.01-.94h-2.17v-1.996c0-.635-.374-.898-.9-.898-.66 0-.9.416-.9.898v1.995h-2.26c-.746 0-1.01.327-1.01 1.03 0 .897.79.897 1.01.897h1.974c-.724 1.995-1.91 3.814-2.018 3.945-.944 1.38-.966 1.403-.966 1.754 0 .526.44 1.03.944 1.03.417 0 .548-.197 1.03-1.008.57-.986 1.098-2.302 1.295-2.784v5.24c0 .634.373.897.9.897.614 0 .9-.35.9-.897v-5.195zm-7.33-.592c-.174-.306-1.118-1.73-1.337-2.06-.307-.504-.68-1.14-.943-1.73v-.593h1.184c.725 0 .945-.417.945-1.074 0-.856-.46-1.03-.944-1.03h-1.183v-3.2c0-.593-.176-1.03-1.12-1.03-1.01 0-1.01.744-1.01 1.03v3.2h-1.557c-.33 0-1.075 0-1.075 1.05 0 1.053.812 1.053 1.075 1.053h1.558c-.702 3.112-1.667 4.866-2.72 6.794-.22.395-.242.592-.242.79 0 .613.505 1.16 1.075 1.16.352 0 .572-.174.725-.46.55-1.008 1.054-2.63 1.163-3.002v7.978c0 .723.307 1.03 1.12 1.03 1.01 0 1.01-.723 1.01-1.03V39.83c.657 1.425.723 1.535.92 1.864.132.24.35.416.614.416.154 0 .483-.066.746-.482v5.786c0 1.907.834 2.433 2.458 2.433h7.898c1.668 0 2.458-.57 2.458-2.433V33.036c0-1.863-.768-2.454-2.458-2.454h-7.898c-1.69 0-2.458.57-2.458 2.454v7.43zm10.73 6.313c0 .7-.394.875-.877.875h-6.912c-.46 0-.855-.175-.855-.876V33.54c0-.57.263-.854.855-.854h6.912c.592 0 .877.285.877.854v13.24zm14.992-10.807h-7.285c.263-.307.768-.876 1.426-1.907h10.313c.834 0 1.12.154 1.12 1.14 0 .614-.088 4.406-.308 5.918-.13.877-.24 1.403-.965 1.403h-1.47c-.55 0-1.273 0-1.273 1.03 0 .548.33 1.052.724 1.16.265.09 1.318.09 1.713.09 1.71 0 2.633-.133 3.18-1.47.615-1.512.747-6.882.747-8.723 0-2.235-.856-2.673-2.655-2.673h-9.807c.33-.635.482-.986.482-1.293 0-.79-.92-.986-1.338-.986-.417 0-.68.155-.878.418-.022.043-1.12 2.082-1.36 2.454-1.163 1.776-1.93 2.52-3.642 4.143-.307.285-.417.504-.417.833 0 .613.592 1.293 1.294 1.293.153 0 .35-.043.57-.197.33-.22 1.03-.898 1.645-1.6.022.943.615 1.052 1.14 1.052h6.474c.504 0 .79.22.79.79v1.315c0 .526-.264.79-.79.79h-5.75c-1.71 0-2.435.612-2.435 2.43v4.1c0 1.052.176 2.17 1.69 2.39.46.065 5.967.065 6.91.065h3.226c.615 0 3.248 0 3.71-.044 1.184-.087 1.557-.7 1.754-1.16.286-.702.505-2.346.505-2.697 0-1.227-1.142-1.227-1.274-1.227-.965 0-1.075.81-1.162 1.49-.176 1.425-.308 1.47-2.04 1.47-2.678.02-6.978 0-9.655 0-.79 0-1.36-.067-1.36-.922v-3.09c0-.658.372-.79.767-.79h5.682c1.71 0 2.435-.613 2.435-2.454v-2.104c0-1.907-.812-2.433-2.436-2.433zm21.18 6.313c0-1.47.503-1.907 2.237-3.376 1.382-1.16 2.347-1.994 2.347-4.033 0-2.104-1.294-4.58-5.463-4.58-5.045 0-5.99 3.638-5.99 4.997 0 1.16.99 1.27 1.36 1.27 1.055 0 1.318-.547 1.384-1.007.22-1.36.44-2.87 3.137-2.87.857 0 2.832.13 2.832 2.234 0 1.316-.79 1.908-2.436 3.18-1.91 1.468-2.04 2.936-2.04 3.988 0 .767 0 1.6 1.316 1.6 1.317 0 1.317-.876 1.317-1.402zm-1.318 3.287c-.9 0-1.623.723-1.623 1.622 0 .9.723 1.622 1.622 1.622.9 0 1.624-.723 1.624-1.622 0-.9-.746-1.622-1.624-1.622z" fill="#646464"/></g></g></g></svg>