<svg width="377" height="257" viewBox="0 0 377 257" xmlns="http://www.w3.org/2000/svg" xmlns:xlink="http://www.w3.org/1999/xlink"><title>Group</title><defs><path id="a" d="M79.483 54.587V.057H0v54.53h79.483z"/><path id="c" d="M39.7.09H0v34.06h39.7V.09z"/></defs><g fill="none" fill-rule="evenodd"><g transform="translate(212.853 138.548)"><path d="M64.762 33.733c1.844.008 3.346-1.49 3.353-3.345l.042-13.092c.018-5.853 4.774-10.6 10.602-10.582 5.824.018 10.55 4.8 10.528 10.652l-.042 13.093c-.007 1.85 1.485 3.36 3.33 3.365 1.844.007 3.345-1.492 3.352-3.345l.042-13.093C96.003 7.833 88.29.033 78.78 0c-9.51-.03-17.273 7.718-17.303 17.272l-.044 13.093c-.007 1.853 1.484 3.36 3.33 3.368" fill="#FACA00"/><g transform="translate(38.85 26.052)"><mask id="b" fill="#fff"><use xlink:href="#a"/></mask><path d="M71.523 11.06h-1.8v1.808c0 .62-.502 1.123-1.12 1.123-.617 0-1.117-.5-1.117-1.122v-1.81h-1.8c-.62 0-1.118-.5-1.118-1.123 0-.62.5-1.123 1.118-1.123h1.8v-1.81c0-.618.5-1.123 1.118-1.123.617 0 1.12.504 1.12 1.123v1.81h1.8c.615 0 1.117.503 1.117 1.122 0 .622-.5 1.124-1.117 1.124m-4.67 23.458h-1.8v1.808c0 .622-.502 1.124-1.118 1.124-.62 0-1.118-.502-1.118-1.124v-1.808h-1.8c-.62 0-1.12-.502-1.12-1.124 0-.62.5-1.124 1.12-1.124h1.8v-1.808c0-.62.5-1.124 1.118-1.124.616 0 1.118.504 1.118 1.124v1.808h1.8c.617 0 1.12.505 1.12 1.124 0 .622-.503 1.124-1.12 1.124m-10.506-11.73h-1.8v1.81c0 .62-.502 1.123-1.118 1.123-.62 0-1.12-.5-1.12-1.123v-1.81h-1.8c-.618 0-1.118-.5-1.118-1.122 0-.62.5-1.124 1.118-1.124h1.8v-1.808c0-.62.5-1.123 1.12-1.123.615 0 1.117.503 1.117 1.122v1.81h1.8c.617 0 1.118.503 1.118 1.123s-.5 1.123-1.118 1.123m0 23.46h-1.8v1.808c0 .62-.502 1.123-1.118 1.123-.62 0-1.12-.503-1.12-1.124v-1.81h-1.8c-.618 0-1.118-.5-1.118-1.123 0-.62.5-1.123 1.118-1.123h1.8v-1.81c0-.618.5-1.123 1.12-1.123.615 0 1.117.505 1.117 1.124V44h1.8c.617 0 1.118.504 1.118 1.123 0 .622-.5 1.124-1.118 1.124M42.34 11.06h-1.8v1.808c0 .62-.503 1.123-1.12 1.123-.618 0-1.118-.5-1.118-1.122v-1.81h-1.8c-.62 0-1.118-.5-1.118-1.123 0-.62.5-1.123 1.118-1.123h1.8v-1.81c0-.618.5-1.123 1.118-1.123.617 0 1.12.504 1.12 1.123v1.81h1.8c.615 0 1.117.503 1.117 1.122 0 .622-.502 1.124-1.118 1.124m0 23.458h-1.8v1.808c0 .622-.503 1.124-1.12 1.124-.618 0-1.118-.502-1.118-1.124v-1.808h-1.8c-.62 0-1.118-.502-1.118-1.124 0-.62.5-1.124 1.118-1.124h1.8v-1.808c0-.62.5-1.124 1.118-1.124.617 0 1.12.504 1.12 1.124v1.808h1.8c.615 0 1.117.505 1.117 1.124 0 .622-.502 1.124-1.118 1.124m-12.842-11.73h-1.8v1.81c0 .62-.502 1.123-1.12 1.123-.617 0-1.117-.5-1.117-1.123v-1.81h-1.8c-.618 0-1.117-.5-1.117-1.122 0-.62.5-1.124 1.118-1.124h1.8v-1.808c0-.62.5-1.123 1.12-1.123.616 0 1.118.503 1.118 1.122v1.81h1.8c.616 0 1.118.503 1.118 1.123s-.502 1.123-1.118 1.123m-2.335 23.46h-1.8v1.808c0 .62-.502 1.123-1.118 1.123-.62 0-1.12-.503-1.12-1.124v-1.81h-1.8c-.617 0-1.117-.5-1.117-1.123 0-.62.5-1.123 1.118-1.123h1.8v-1.81c0-.618.5-1.123 1.12-1.123.615 0 1.117.505 1.117 1.124V44h1.8c.616 0 1.118.504 1.118 1.123 0 .622-.5 1.124-1.117 1.124m-9.34-11.73h-1.8v1.81c0 .62-.5 1.123-1.117 1.123-.62 0-1.12-.502-1.12-1.124v-1.808h-1.8c-.617 0-1.117-.502-1.117-1.124 0-.62.5-1.124 1.117-1.124h1.8v-1.808c0-.62.5-1.124 1.12-1.124.615 0 1.117.504 1.117 1.124v1.808h1.8c.617 0 1.12.505 1.12 1.124 0 .622-.503 1.124-1.12 1.124m-8.706-21.65v-1.81h-1.8c-.62 0-1.118-.5-1.118-1.123 0-.62.5-1.123 1.118-1.123h1.8v-1.81c0-.618.5-1.123 1.118-1.123.617 0 1.12.504 1.12 1.123v1.81h1.8c.615 0 1.117.503 1.117 1.122 0 .622-.502 1.124-1.118 1.124h-1.8v1.808c0 .62-.502 1.123-1.12 1.123-.617 0-1.117-.5-1.117-1.122M78.168.312L60.43.254l-.013 4.185c-.012 3.703-3.02 6.703-6.703 6.692-3.685-.014-6.673-3.034-6.66-6.738L47.066.21 32.62.16l-.015 4.187c-.01 3.702-3.018 6.705-6.703 6.69-3.686-.01-6.672-3.032-6.66-6.734l.013-4.188L1.325.057C.403.054-.17.782.045 1.682l11.53 47.873c.7 2.69 3.508 4.88 6.275 4.89l43.433.142c2.77.01 5.59-2.16 6.31-4.847L79.44 1.945c.22-.9-.346-1.63-1.27-1.633" fill="#FACA00" mask="url(#b)"/></g><rect fill="#FFF" x="100.835" y="44.419" width="52.152" height="41.129" rx="4.264"/><path d="M145.353 49.43v9.22h4.2v-9.22c0-1.37-1.08-2.49-2.4-2.49h-2.697c-.772 0 .897.55.897 2.49M145.353 69.293v9.218c0 2.066-1.56 2.49-.524 2.49h2.323c1.32 0 2.4-1.12 2.4-2.49v-9.217h-4.2zM140.504 65.8c-.974 0-1.763-.82-1.763-1.83 0-1.01.79-1.83 1.764-1.83s1.763.82 1.763 1.83c0 1.01-.79 1.83-1.763 1.83m9.17-5.845H137.91c-.83 0-1.51.706-1.51 1.57v4.893c0 .863.68 1.568 1.51 1.568h11.765c.832 0 1.512-.705 1.512-1.568v-4.894c0-.863-.68-1.57-1.512-1.57" fill="#2BB570"/><g transform="translate(104.094 46.85)"><mask id="d" fill="#fff"><use xlink:href="#c"/></mask><path d="M30.883 3.92h-1.007c-.383 0-.693-.32-.693-.718 0-.397.31-.72.693-.72h1.007c.383 0 .693.323.693.72 0 .397-.31.72-.693.72zm.614 25.888c.382 0 .693.323.693.72 0 .396-.31.718-.693.718H30.49c-.383 0-.694-.322-.694-.72 0-.395.31-.718.693-.718h1.007zm-4.786 1.438h-1.007c-.382 0-.693-.322-.693-.72 0-.395.31-.718.693-.718h1.008c.383 0 .694.323.694.72 0 .396-.31.718-.693.718zM24.397 3.202c0-.397.31-.72.693-.72h1.007c.382 0 .693.323.693.72 0 .397-.31.72-.693.72H25.09c-.383 0-.694-.323-.694-.72zm-2.472 28.044h-1.007c-.383 0-.693-.322-.693-.72 0-.395.31-.718.693-.718h1.007c.383 0 .693.323.693.72 0 .396-.31.718-.693.718zM19.61 3.202c0-.397.31-.72.693-.72h1.008c.383 0 .693.323.693.72 0 .397-.31.72-.692.72h-1.007c-.383 0-.693-.323-.693-.72zm-2.472 28.044H16.13c-.382 0-.692-.322-.692-.72 0-.395.31-.718.692-.718h1.008c.382 0 .693.323.693.72 0 .396-.31.718-.692.718zM14.824 3.202c0-.397.31-.72.693-.72h1.007c.383 0 .693.323.693.72 0 .397-.31.72-.693.72h-1.007c-.383 0-.693-.323-.693-.72zm-2.472 28.044h-1.008c-.382 0-.693-.322-.693-.72 0-.395.312-.718.694-.718h1.008c.382 0 .693.323.693.72 0 .396-.31.718-.693.718zM10.038 3.202c0-.397.31-.72.692-.72h1.008c.383 0 .692.323.692.72 0 .397-.31.72-.692.72H10.73c-.383 0-.692-.323-.692-.72zM7.566 31.246H6.558c-.383 0-.693-.322-.693-.72 0-.395.31-.718.693-.718h1.008c.382 0 .692.323.692.72 0 .396-.31.718-.692.718zM5.25 3.202c0-.397.31-.72.694-.72H6.95c.384 0 .694.323.694.72 0 .397-.31.72-.693.72H5.945c-.383 0-.693-.323-.693-.72zm-1.387 2.09c0 .396-.31.717-.692.717-.382 0-.692-.322-.692-.72V4.247c0-.398.31-.72.693-.72.383 0 .693.322.693.72V5.29zm0 4.965c0 .397-.31.72-.692.72-.382 0-.692-.323-.692-.72V9.21c0-.395.31-.718.693-.718.383 0 .693.323.693.72v1.045zm0 4.966c0 .396-.31.72-.692.72-.382 0-.692-.324-.692-.72v-1.046c0-.396.31-.72.693-.72.383 0 .693.324.693.72v1.046zm0 4.966c0 .396-.31.717-.692.717-.382 0-.692-.32-.692-.718v-1.047c0-.397.31-.72.693-.72.383 0 .693.323.693.72v1.046zm0 4.964c0 .398-.31.72-.692.72-.382 0-.692-.322-.692-.72V24.11c0-.398.31-.72.693-.72.383 0 .693.322.693.72v1.044zm0 4.967c0 .398-.31.72-.692.72-.382 0-.692-.322-.692-.72v-1.044c0-.398.31-.72.693-.72.383 0 .693.322.693.72v1.045zm31.412-.312h1.008c.383 0 .693.323.693.72 0 .396-.31.718-.693.718h-1.008c-.382 0-.692-.322-.692-.72 0-.395.31-.718.692-.718zm-.613-27.325h1.007c.382 0 .692.322.692.72 0 .396-.31.718-.693.718H34.66c-.383 0-.693-.32-.693-.718 0-.397.31-.72.692-.72zm-2.106 9.314H39.7V2.58c0-1.37-1.082-2.49-2.402-2.49H2.4C1.08.09 0 1.21 0 2.58v29.08c0 1.37 1.08 2.49 2.4 2.49H37.3c1.32 0 2.4-1.12 2.4-2.49v-9.218h-7.142c-.83 0-1.512-.706-1.512-1.57v-7.507c0-.862.68-1.568 1.512-1.568z" fill="#2BB570" mask="url(#d)"/></g><g fill="#1257DC"><path d="M16.408 56.22h-1.306v-4.027c0-.945-.716-1.655-1.67-1.655-.95 0-1.666.71-1.666 1.655v5.675c0 .932.66 1.655 1.667 1.655h2.982c.95 0 1.667-.71 1.667-1.655 0-.945-.723-1.65-1.674-1.65"/><path d="M6.27 64.97c-3.915-3.883-3.91-10.202 0-14.08 3.908-3.877 10.282-3.877 14.19 0 3.915 3.885 3.91 10.2 0 14.08-3.908 3.878-10.277 3.882-14.19 0m13.955 13.368L21.8 68.21c.352-.278.695-.584 1.022-.91 2.264-2.245 3.542-5.106 3.84-8.05l.94-.023c.95 0 1.668-.71 1.668-1.655 0-.944-.717-1.655-1.668-1.655h-1.03c-.413-2.696-1.664-5.287-3.756-7.363-.286-.285-.58-.55-.888-.802L20.34 37.557c-.062-.768-.774-1.36-1.61-1.36H8.113c-.773-.062-1.49.536-1.61 1.36l-1.57 10.088c-.356.283-.694.585-1.026.914-5.21 5.168-5.21 13.573 0 18.74.326.326.664.626 1.02.91L6.503 78.34c.132.892.93 1.432 1.61 1.36l10.495-.007c.778.07 1.49-.52 1.615-1.352"/></g></g><g fill="#F66"><path d="M281.944 213.67c-9.562 0-18.25-3.794-24.656-9.945l52.74-47.588c4.725 6.046 7.55 13.644 7.55 21.895 0 19.65-15.985 35.638-35.634 35.638m0-71.276c8.833 0 16.92 3.24 23.152 8.58l-52.443 47.32c-3.994-5.757-6.344-12.74-6.344-20.262 0-19.65 15.984-35.638 35.634-35.638m0-7.136c-23.585 0-42.77 19.188-42.77 42.774 0 23.587 19.185 42.774 42.77 42.774 23.584 0 42.77-19.187 42.77-42.774 0-23.586-19.186-42.774-42.77-42.774" stroke="#FFF" stroke-width="8.686"/><path d="M281.944 213.67c-9.562 0-18.25-3.794-24.656-9.945l52.74-47.588c4.725 6.046 7.55 13.644 7.55 21.895 0 19.65-15.985 35.638-35.634 35.638m0-71.276c8.833 0 16.92 3.24 23.152 8.58l-52.443 47.32c-3.994-5.757-6.344-12.74-6.344-20.262 0-19.65 15.984-35.638 35.634-35.638m0-7.136c-23.585 0-42.77 19.188-42.77 42.774 0 23.587 19.185 42.774 42.77 42.774 23.584 0 42.77-19.187 42.77-42.774 0-23.586-19.186-42.774-42.77-42.774"/></g><g fill="#1257DC"><path d="M75.894 188.44c-1.578 0-2.868 1.284-2.868 2.854v8.29c0 1.572 1.29 2.856 2.868 2.856h39.76v-14h-39.76zM125.558 188.44h-7.163v14h7.163c1.578 0 2.868-1.284 2.868-2.855v-8.29c0-1.57-1.29-2.855-2.868-2.855M123.92 185.866c-.298-2.246-1.662-6.678-7.776-7.802-6-1.102-7.662-5.156-8.114-7.32-.102-.46-.718-.563-.954-.144-1.23 2.195-3.108 6.903.78 10.283 4.852 4.228 11.212 2.236 15.244 5.443.348.286.872-.01.82-.46"/></g><g fill="#FACA00"><path d="M74.63 146.775l-.025 2.064-1.716 1.234 1.955.565.565 1.957 1.235-1.716 2.066-.025-1.194-1.626.713-1.974-1.974.714M83.687 146.775l-.03 2.528-2.104 1.515 2.398.69.694 2.397 1.51-2.1 2.533-.032-1.465-1.99.873-2.42-2.417.874M85.406 163.54l.767-2.126-2.127.77-1.75-1.288-.03 2.226-1.847 1.33 2.108.61.61 2.11 1.33-1.85 2.225-.028M81.006 157.713c.33-.988-.205-2.058-1.193-2.387-.99-.33-2.057.206-2.388 1.193-.82 2.462-2.384 4.227-3.88 5.434l2.685 2.69c1.854-1.564 3.736-3.81 4.776-6.93M38.622 184.04c-.303.3-.303.795 0 1.096l12.575 12.58c.3.302.794.302 1.097 0l17.014-17.018c.303-.3.303-.795 0-1.098l-12.573-12.577c-.302-.303-.796-.303-1.1 0L38.623 184.04zM77.248 172.76c.607-.61.713-1.526.32-2.245L65.824 158.77c-.72-.4-1.64-.295-2.25.314l-4.572 4.572c-.3.3-.3.797 0 1.098l12.574 12.577c.303.304.797.304 1.098.003l4.573-4.574zM44.482 205.528l4.447-4.447c.3-.3.3-.794 0-1.096l-12.576-12.578c-.303-.303-.797-.303-1.098-.002l-4.448 4.45c-.737.736-.737 1.93 0 2.667l11.006 11.008c.37.37.85.553 1.334.553.484 0 .965-.183 1.334-.552M90.177 157.14c0 1.056-.855 1.91-1.91 1.91-1.057 0-1.912-.854-1.912-1.91s.855-1.912 1.91-1.912c1.057 0 1.912.856 1.912 1.912M88.266 169.117c0 .87-.704 1.574-1.574 1.574-.867 0-1.572-.703-1.572-1.573s.705-1.574 1.572-1.574c.87 0 1.574.705 1.574 1.574M71.64 154.866c0 1.056-.857 1.912-1.913 1.912-1.055 0-1.91-.856-1.91-1.912 0-1.055.855-1.91 1.91-1.91 1.056 0 1.912.855 1.912 1.91"/></g><g fill="#F66"><path d="M89.476 213.67c-9.562 0-18.25-3.794-24.656-9.945l52.74-47.588c4.725 6.046 7.55 13.644 7.55 21.895 0 19.65-15.984 35.638-35.634 35.638m0-71.276c8.833 0 16.92 3.24 23.153 8.58l-52.444 47.32c-3.995-5.757-6.345-12.74-6.345-20.262 0-19.65 15.987-35.638 35.636-35.638m0-7.136c-23.584 0-42.77 19.188-42.77 42.774 0 23.587 19.186 42.774 42.77 42.774 23.585 0 42.77-19.187 42.77-42.774 0-23.586-19.185-42.774-42.77-42.774" stroke="#FFF" stroke-width="8.686"/><path d="M89.476 213.67c-9.562 0-18.25-3.794-24.656-9.945l52.74-47.588c4.725 6.046 7.55 13.644 7.55 21.895 0 19.65-15.984 35.638-35.634 35.638m0-71.276c8.833 0 16.92 3.24 23.153 8.58l-52.444 47.32c-3.995-5.757-6.345-12.74-6.345-20.262 0-19.65 15.987-35.638 35.636-35.638m0-7.136c-23.584 0-42.77 19.188-42.77 42.774 0 23.587 19.186 42.774 42.77 42.774 23.585 0 42.77-19.187 42.77-42.774 0-23.586-19.185-42.774-42.77-42.774"/></g><path d="M204.078 238.533c-.47 0-1.198.128-1.198 1.198 0 1.177.92 1.177 1.198 1.177h12.275c.32 0 .77 0 .77.642 0 .362-.32 2.78-1.455 4.832-2.502 4.577-7.27 5.753-8.94 6.18-.833.215-1.474.365-1.474 1.156 0 .128.043 1.305 1.24 1.305.6 0 6.287-.984 9.752-5.198 2.737-3.336 3.528-7.613 3.528-8.875 0-1.925-1.368-2.417-2.887-2.417h-12.81zm13.494-1.262c.042.087.256.793.363 1.028.043.107.193.385.578.385.427 0 .727-.214.727-.642 0-.213-.214-.897-.385-1.282-.513-1.09-.578-1.305-.984-1.305-.234 0-.747.13-.747.578 0 .193.064.386.107.47.042.108.3.643.342.77zm2.61 0c.063.15.32.92.405 1.092.043.086.192.385.6.385.17 0 .705-.107.705-.663 0-.385-.45-1.433-.6-1.775-.34-.707-.427-.942-.833-.942-.258 0-.75.128-.75.6 0 .106.022.212.064.32.065.15.343.834.407.983zm5.256.194c-.363 0-1.154.042-1.154 1.133 0 1.112.876 1.112 1.154 1.112h12.532c.3 0 1.155 0 1.155-1.134 0-1.112-.877-1.112-1.155-1.112h-12.532zm11.313 7.42c.45 0 .77.065.77.536 0 .406-.49 1.99-1.346 3.23-2.353 3.336-6.565 3.913-8.683 4.212-1.068.15-1.688.236-1.688 1.134 0 1.24 1.07 1.24 1.326 1.24.556 0 1.71-.192 2.652-.385 2.523-.555 5.26-1.453 7.484-3.87 2.396-2.566 2.887-5.945 2.887-6.544 0-1.797-1.56-1.797-2.094-1.797h-14.2c-.364 0-1.155.042-1.155 1.133 0 1.112.878 1.112 1.156 1.112h12.895zm7.61-7.142c-.384.085-1.047.513-1.047 1.262 0 .598.47.876.9 1.112 1.24.663 2.715 1.433 3.677 2.096 2.117 1.454 2.31 1.582 2.78 1.582.513 0 1.22-.684 1.22-1.283 0-.277-.087-.555-.386-.854-.47-.492-3.015-2.01-4.127-2.652-2.075-1.177-2.545-1.348-3.016-1.262zm15.912 1.903c-.15-.043-.32-.064-.492-.064-.706 0-.834.365-1.155 1.284-2.61 7.657-6.65 10.352-13.494 11.143-.854.107-1.41.278-1.41 1.22 0 .277.085 1.325 1.368 1.325.535 0 1.968-.235 3.337-.577 2.78-.685 5.987-1.925 8.703-5.133 2.224-2.61 4.064-7.186 4.064-8.106 0-.684-.514-.962-.92-1.09zm10.134 4.79c.705.236 1.56.493 3.036 1.134 1.112.49 3.123 1.475 4.363 2.18 1.155.685 1.518.9 1.946.9.856 0 1.263-.878 1.263-1.477 0-.62-.236-.898-1.99-1.775-2.758-1.39-5.645-2.588-8.617-3.464v-4.342c0-.47-.043-1.262-1.284-1.262-1.26 0-1.26.898-1.26 1.262v16.618c0 .45.02 1.24 1.282 1.24 1.24 0 1.262-.834 1.262-1.24v-9.774zm5.945-5.517c.108.3.257.813.407 1.112.043.107.192.385.556.385.064 0 .748 0 .748-.663 0-.278-.362-1.262-.576-1.754-.32-.727-.47-1.005-.855-1.005-.215 0-.728.13-.728.578 0 .15.042.32.085.45.043.128.32.748.364.898zm2.588-.32c.45 1.26.535 1.475 1.005 1.475.17 0 .727-.107.727-.663 0-.3-.278-1.07-.598-1.754-.32-.706-.45-.962-.856-.962-.256 0-.748.15-.748.6 0 .127.02.234.064.34.064.13.342.814.406.963zm10.868 5.328c3.153.163 4.056 2.502 4.056 4.457 0 3.953-3.227 4.47-4.338 4.62-.607.073-1.066.147-1.066.8 0 .073 0 .858.86.858.19 0 1.88-.147 3.3-.977 2.976-1.747 2.976-4.412 2.976-5.27 0-2.592-1.362-6.042-6.292-6.042-3.82 0-7.032 2.49-7.032 6.842 0 2.443 1.14 4.28 2.9 4.28 1.14 0 1.882-.756 2.474-1.778.533-.903 1.6-3.272 2.162-7.788zm-1.644.044c-.266 1.984-.548 3.643-1.377 5.82-.444 1.2-.903 1.954-1.554 1.954-.666 0-1.36-.918-1.36-2.503 0-1.583.635-3.582 2.486-4.633.74-.415 1.42-.563 1.806-.637zm10.827 7.33c-.664 0-1.198.3-1.198 1.177 0 1.177.94 1.177 1.197 1.177h12.403c1.988 0 2.823-.706 2.823-2.823v-9.795c0-2.096-.835-2.823-2.823-2.823h-12.19c-.684 0-1.22.278-1.22 1.177 0 1.175.942 1.175 1.22 1.175H310.6c.73 0 1.092.342 1.092 1.07v8.575c0 .813-.428 1.09-1.09 1.09h-11.613zm22.43-5.303c.726-.15 1.945-.428 3.934-1.048 1.668-.535 4.106-1.39 5.24-1.86 2.395-.964 2.523-1.327 2.523-1.798 0-.706-.642-1.326-1.176-1.326-.384 0-.555.064-2.5.962-1.434.642-4.6 1.925-8.02 2.717v-5.732c0-.75-.32-1.134-1.24-1.134-1.092 0-1.24.577-1.24 1.133v13.196c0 .96.127 2.715 2.223 3.185.983.214 3.55.236 4.77.236 1.645 0 4.575 0 6.072-.064 2.16-.085 2.823-.32 2.823-1.368 0-1.112-.856-1.112-1.112-1.112-.6 0-1.52.085-2.117.106-1.22.065-2.568.086-4.663.086-1.027 0-3.572 0-4.384-.086-1.134-.128-1.134-.77-1.134-1.56v-4.535zm15.183-8.02c0-1.262-1.048-2.31-2.31-2.31-1.283 0-2.33 1.048-2.33 2.31 0 1.283 1.047 2.33 2.33 2.33 1.262 0 2.31-1.047 2.31-2.33zm-1.176 0c0 .642-.514 1.155-1.134 1.155-.64 0-1.155-.513-1.155-1.155 0-.62.514-1.134 1.155-1.134.62 0 1.134.514 1.134 1.134zm19.308 9.154c.45 0 1.325-.02 1.325-1.24s-.94-1.22-1.325-1.22H338.31c-.49 0-1.347.044-1.347 1.242 0 1.22.963 1.22 1.348 1.22h16.425zM374 239.005c0-1.86-.792-2.396-2.396-2.396h-9.794c-1.583 0-2.374.535-2.374 2.396v2.908c0 1.882.813 2.396 2.374 2.396h9.794c1.604 0 2.396-.535 2.396-2.396v-2.908zm-2.203 2.545c0 .555-.257.833-.834.833h-8.47c-.576 0-.854-.278-.854-.834v-2.14c0-.556.277-.856.854-.856h8.47c.555 0 .833.3.833.856v2.14zm-6.095 6.843c0-1.818-.748-2.374-2.374-2.374h-3.657c-1.645 0-2.372.576-2.372 2.373v4.726c0 1.817.748 2.373 2.373 2.373h3.658c1.647 0 2.374-.556 2.374-2.374v-4.727zm-2.138 4.256c0 .555-.257.854-.834.854h-2.46c-.577 0-.834-.3-.834-.855v-3.808c0-.535.257-.834.834-.834h2.46c.577 0 .834.3.834.834v3.807zm12.51-4.257c0-1.84-.77-2.374-2.374-2.374h-3.892c-1.647 0-2.395.576-2.395 2.373v4.726c0 1.817.748 2.373 2.395 2.373h3.892c1.625 0 2.374-.556 2.374-2.374v-4.727zm-2.117 4.256c0 .555-.257.854-.834.854h-2.76c-.576 0-.833-.3-.833-.855v-3.808c0-.535.257-.834.834-.834h2.76c.576 0 .833.3.833.834v3.807zM9.79 246.784c0-.6.278-.9.9-.9h5.412c.714 0 .898.3.898.9v1.358c0 .853-.3.876-1.06.876-.39 0-2.28-.046-2.487-.046-.414 0-1.105.023-1.105 1.036 0 .484.184 1.06.852 1.13.322.022 2.326.022 2.44.022 2.95 0 3.686-.07 3.686-2.718v-2.004c0-2.326-1.22-2.58-2.603-2.58h-6.77c-1.75 0-2.557.6-2.557 2.58v6.795c0 1.105.207 2.303 1.843 2.51.32.046 8.405.046 9.487.046 1.428 0 2.44 0 2.902-1.222.39-.99.483-2.625.483-2.925 0-1.036-.968-1.105-1.313-1.105-.783 0-.99.345-1.06.875-.207 1.82-.23 2.004-.852 2.142-.276.07-1.013.07-7.646.07-.92 0-1.45 0-1.45-1.014v-5.826zm-.045-10.85c.208-.32.3-.528.3-.713 0-.713-.968-.943-1.474-.943-.16 0-.644 0-1.105.507-1.197 1.267-2.717 2.88-4.514 3.846-2.302 1.22-2.348 1.244-2.348 1.935 0 .645.46 1.36 1.175 1.36.23 0 .483-.07 1.128-.416-.07.368-.092.598-.092.943v4.077c0 1.29-.07 4.238-1.704 6.91-.254.437-.462.783-.462 1.198 0 .76.76 1.29 1.45 1.29.416 0 .876-.047 1.844-2.258.806-1.865 1.266-4.468 1.266-7.025v-3.777c0-.622.3-.898.898-.898H21.19c.3 0 1.084 0 1.084-1.037 0-1.036-.783-1.036-1.083-1.036h-5.227c1.613-1.382 1.636-2.05 1.636-2.488 0-1.475-1.337-1.475-2.074-1.475h-5.78zm4.008 2.005c.253 0 .46.068.46.345 0 .39-1.497 1.543-1.59 1.612H5.44c.897-.622 1.703-1.336 2.394-1.958h5.92zm21.727 11.7c-1.105 2.58-3.155 3.408-4.836 4.007-.37.138-.9.323-.9 1.083 0 .714.53 1.313 1.153 1.313.668 0 4.537-1.36 6.402-5.183 1.957 3.593 5.527 5.16 6.333 5.16.668 0 1.128-.645 1.128-1.336 0-.714-.436-.9-.782-1.037-1.474-.6-3.593-1.497-4.974-4.007h2.234c1.934 0 2.395-.484 2.395-2.373v-1.796c0-1.91-.484-2.372-2.395-2.372h-2.902v-1.59h2.326c.53 0 .967-.137 1.036-.897.806.508 1.474.945 1.935.945.668 0 1.174-.668 1.174-1.36 0-.62-.115-.667-1.658-1.542-2.166-1.198-3.27-2.44-4.17-3.478-.39-.437-.713-.806-1.796-.806-.944 0-1.36.414-1.75.85-1.773 1.936-2.395 2.512-5.067 3.894-.345.184-.76.414-.76 1.06 0 .713.553 1.427 1.198 1.427.207 0 .507-.045 1.82-.897.114.76.644.806 1.06.806H36.1v1.588h-2.856c-1.91 0-2.395.46-2.395 2.373v1.797c0 1.912.508 2.373 2.396 2.373h2.234zm2.856-4.56h2.556c.438 0 .645.23.645.644v1.29c0 .414-.23.622-.645.622h-2.648c.092-.737.092-1.198.092-1.66v-.897zm-2.234.874c0 .438 0 .922-.092 1.682h-2.418c-.438 0-.645-.208-.645-.622v-1.29c0-.415.184-.645.645-.645h2.51v.874zm-1.797-6.472c.9-.714 1.774-1.52 2.51-2.44.208-.254.254-.324.415-.324.162 0 .23.093.392.254.76.92 1.59 1.773 2.533 2.51h-5.85zm-8.244-1.566c0-.414.208-.622.645-.622h.876c.14 0 .622 0 .622.415 0 .413-.737 2.486-1.15 3.454-.208.506-.416.99-.416 1.45 0 .3.07.415.622 1.383.46.783 1.014 2.234 1.014 3.64 0 1.29-.6 1.358-1.083 1.38-.438.024-.922.047-.922 1.06 0 .83.3 1.36 1.336 1.36s2.924 0 2.924-3.156c0-1.91-.713-3.984-1.59-5.205-.206-.276-.275-.414-.275-.622 0-.207.737-1.957.875-2.35.53-1.38.83-2.325.83-3.315 0-1.475-.76-1.75-2.304-1.75h-1.842c-1.935 0-2.395.46-2.395 2.37v17.552c0 .806.322 1.198 1.174 1.198 1.06 0 1.06-.9 1.06-1.198v-17.044zm36.63 1.866c-.76 2.97-.992 3.892-2.212 6.357-2.05 4.144-4.49 5.987-5.896 6.977-.415.277-.875.622-.875 1.175 0 .645.576 1.267 1.22 1.267 1.152 0 4.238-3.11 5.712-5.368 1.61-2.464 2.647-5.16 3.407-8.084-.046 2.21-.115 4.93-.46 7.923-.346 3.064-.737 3.364-1.935 3.364-.253 0-1.405-.07-1.68-.07-1.268 0-1.268 1.037-1.268 1.22 0 1.29.945 1.29 3.017 1.29 2.42 0 3.272-.436 3.917-3.223.713-3.178.76-10.525.76-11.56 0-2.143-.185-3.548-2.902-3.548h-5.412c.023-.093.483-1.59.483-2.096 0-.576-.53-.99-1.243-.99-.9 0-1.06.598-1.244 1.312-.254.967-.968 3.662-2.442 5.735-.668.92-.737 1.037-.737 1.36 0 .736.715 1.266 1.337 1.266 1.06 0 2.326-2.58 3.017-4.308h1.773c-1.336 5.16-4.33 7.554-5.527 8.5-.346.252-.645.528-.645.99 0 .62.53 1.243 1.197 1.243.69 0 1.958-1.267 2.718-2.142 2.948-3.432 3.892-6.703 4.445-8.59h1.474zm-10.826 8.245c.53-.253 1.566-.737 2.027-.99.53-.323.623-.645.623-1.014 0-.598-.276-1.29-.944-1.29-.21 0-.347.07-1.706.692v-4.307H53.2c.875 0 .967-.69.967-1.267 0-.414-.138-1.082-.967-1.082h-1.336v-3.11c0-.92-.414-1.197-1.243-1.197-1.105 0-1.105.9-1.105 1.2v3.108H48.41c.07-.645.115-1.91.115-2.21 0-.323 0-.99-.92-.99-.922 0-.945.667-.968 1.035-.07 1.705-.162 3.11-.6 4.906-.09.322-.598 1.91-.598 2.302 0 .76.736.968 1.104.968.622 0 .806-.415.922-.76.16-.438.506-1.843.644-2.902h1.405v5.25c-.737.277-1.658.6-2.97.968-.876.254-1.313.553-1.313 1.267 0 .645.437 1.313 1.128 1.313.553 0 1.635-.392 3.155-.92v5.895c0 .9.392 1.2 1.244 1.2 1.104 0 1.104-.9 1.104-1.2v-6.863zm16.243.517c0 3.438 1.48 5.774 2.632 7.09.79.905 1.134.955 1.38.955.396 0 .626-.265.626-.56 0-.28-.148-.478-.345-.74-1.89-2.485-2.27-4.936-2.27-6.746 0-2.32.692-4.59 2.057-6.466.494-.69.56-.773.56-1.02 0-.345-.264-.575-.626-.575-.213 0-.558.032-1.38.954-1.17 1.332-2.633 3.668-2.633 7.107zm8.818-4.113c-.198.988-.428 1.975-.69 2.962-.61 2.254-1.498 4.59-1.975 5.61-.33.724-.346.872-.346 1.053 0 .642.69.823 1.02.823.395 0 .625-.198.773-.477.33-.592 1.152-2.944 1.547-4.21.904-2.83 1.102-3.785 1.546-5.792 1.513-.033 3.11-.066 6.35-.23.312-.017.937-.033.937-.856 0-.84-.658-.872-.92-.872-.182 0-1.07.05-1.267.066-1.925.082-2.748.1-4.755.148.18-.987.198-1.217.198-1.43 0-.51-.313-.807-.987-.807-.23 0-.658.05-.806.56-.05.18-.082.328-.313 1.727h-2.303c-.543 0-.92.18-.92.87 0 .857.558.857 1.3.857h1.61zm10.873 2.798c0-.313 0-.625-.362-.823-.46-.23-2.303-.247-2.336-.247-.756 0-2.368.05-3.42.198-1.087.148-1.515.345-1.515.987 0 .082 0 .84.757.84.066 0 1.316-.133 1.497-.15.79-.08 1.61-.114 2.417-.114.395 0 .592 0 .84.015.41.033 1.1.1 1.25.1.147 0 .36-.018.56-.133.213-.148.31-.477.31-.674zm.477 6.53c0-.493-.246-.838-.855-.838-.148 0-.247.016-1.02.1-.757.08-1.63.114-2.336.114-.987 0-1.645-.1-1.99-.18-.576-.133-1.02-.363-1.02-.906 0-.214.065-.33.18-.576.05-.098.132-.247.132-.46 0-.445-.526-.626-.855-.626-.937 0-1.3 1.053-1.3 1.81 0 1.958 1.663 2.65 5.56 2.65 1.63 0 2.518-.133 2.814-.2.428-.097.69-.377.69-.887zm10.545-10.117c-1.25.05-2.862.067-4.277.084-.56 0-1.152 0-1.152.855 0 .87.66.87.955.87 1.48 0 3.044-.032 4.508-.08l.082 3.29c-.312-.083-.84-.215-1.63-.215-2.27 0-3.88 1.2-3.88 3.192 0 1.628 1.07 3.158 3.85 3.158.722 0 2.5-.115 3.108-1.464.263-.575.28-1.25.28-2.105.36.264.904.642 1.414 1.17.757.805.806.87 1.152.87.46 0 .92-.46.92-1.02 0-.28-.148-.592-.625-1.036-.543-.51-1.43-1.268-2.797-1.992l-.05-3.915c.33-.017 2.42-.1 2.534-.115.33-.033.675-.23.675-.823 0-.888-.675-.888-.922-.888-.016 0-2.04.098-2.32.098l-.016-2.007c0-.394-.066-.954-.938-.954-.905 0-.938.625-.92.97l.048 2.057zm.148 6.664c.033 1.004.05 1.728-.148 2.172-.313.69-1.234.79-1.678.79-.806 0-2.106-.23-2.106-1.596 0-1.48 1.563-1.695 2.287-1.695.822 0 1.283.198 1.645.33zm-7.19-9.59c-.887-.116-1.02.427-1.1.723-.05.214-.61 3.126-.61 6.877 0 1.924.148 4.54.412 5.692.13.543.41.757.904.757.527 0 .905-.214.905-.823 0-.197-.083-.724-.116-.954-.214-1.25-.313-3.093-.313-4.54 0-3.044.33-4.887.627-6.598.016-.082.016-.247.016-.345 0-.362-.1-.708-.724-.79zm9.822.937c.066.15.345.905.395.988.05.066.148.247.378.247.132 0 .576-.066.576-.494 0-.377-.478-1.315-.61-1.61-.197-.445-.28-.626-.592-.626-.214 0-.543.115-.543.444 0 .098.017.164.05.247.032.115.296.674.345.806zm1.908-.36c.05.147.313.82.346.904.033.05.164.246.378.246.148 0 .592-.082.592-.477 0-.312-.395-1.2-.51-1.43-.263-.56-.378-.758-.658-.758-.18 0-.56.115-.56.477 0 .017 0 .115.05.23.05.116.313.675.362.807zm11.186 1.792c-.164.1-1.036.493-1.217.61-.773.46-1.02.673-1.02 1.02 0 .476.395.87.905.87.263 0 .477-.098.92-.378 1.4-.872 1.96-1.217 3.143-1.86.69-.377.938-.51.938-1.085 0-.856-.708-.873-1.218-.873-.213 0-1.283.05-1.53.05-1.365.05-4.063.115-4.573.115-.345 0-2.4-.033-2.697-.033-.69 0-1.284 0-1.284.887 0 .872.71.905 1.334.905 1.908 0 4.41-.115 6.3-.23zm4.886 10.035c0-.28-.066-.84-.855-.84-.264 0-1.464.248-1.744.28-1.233.182-2.697.297-4.062.297-2.468 0-4.952-.312-4.952-1.94 0-.577.23-.955 1.02-1.745.658-.675.74-.758.74-1.037 0-.28-.28-.856-.954-.856-.28 0-.493.115-.888.444-.757.643-1.826 1.712-1.826 3.34 0 2.617 2.96 3.225 4.13 3.374.756.098 1.76.18 3.075.18 2.155 0 4.458-.213 5.38-.46.674-.18.937-.346.937-1.037zm6.613-7.156c1.727-.657 2.237-.805 2.895-1.003.05.198.543 1.76.56 1.794.13.33.33.445.723.445.544 0 .972-.296.972-.84 0-.378-.313-1.365-.46-1.81.18-.015.526-.065.838-.065.543 0 1.25.198 1.678.675.395.444.527 1.086.527 1.76 0 .773-.264 1.678-.856 2.172-.61.51-1.383.576-1.827.576-.098 0-.345 0-.707-.05-.395-.05-.444-.05-.494-.05-.608 0-.822.396-.822.823 0 .89 1.086 1.037 1.957 1.037 1.103 0 2.22-.23 3.077-.92 1.35-1.07 1.497-2.98 1.497-3.72 0-2.55-1.792-3.915-3.865-3.915-.527 0-1.053.066-1.563.148-.938-2.27-1.15-2.5-1.777-2.5-.312 0-.888.197-.888.756 0 .115.017.23.263.708.247.477.527 1.2.625 1.464-.625.164-2.006.64-2.763.888-.576-2.155-.658-2.435-.757-2.698-.115-.28-.263-.61-.84-.61-.196 0-.97.084-.97.824 0 .23.066.46.165.806.362 1.185.477 1.596.675 2.303-.18.066-1.695.626-2.353.938-.444.214-.543.444-.543.757 0 .378.23.97.805.97.313 0 .543-.098.84-.23.378-.164 1.398-.625 1.66-.74 1.12 4.64 1.235 5.15 1.58 7.354.082.526.18 1.086.954 1.086.328 0 1.035-.066 1.035-.89 0-.756-.904-4.44-1.842-8.24zm14.41-4.44h-3.29c-.36 0-.84.08-.84.79 0 .755.594.772.84.772h3.29v.823c0 .23.017.28.083.427-.263.05-.46.165-.675.576-.788 1.43-1.48 2.682-3.207 4.245-.213.18-.46.41-.46.806 0 .443.41.986.888.986.314 0 .577-.23.71-.362.36-.33.854-.84.953-.954v5.017c0 .593.213.872.937.872.823 0 .823-.61.823-.873v-7.37c.33-.526 1.036-1.694 1.036-2.155 0-.296-.116-.41-.182-.51.395 0 .79-.1.79-.69v-.84h3.93v.84c0 .51.265.706.906.706.724 0 .806-.427.806-.723v-.823h3.257c.346 0 .84-.082.84-.79 0-.773-.626-.773-.84-.773h-3.257v-.79c0-.544-.395-.675-.905-.675-.46 0-.806.164-.806.674v.79h-3.932v-.79c0-.544-.38-.675-.905-.675-.46 0-.79.18-.79.674v.79zM146 249.99c.87-.38 2.697-1.317 3.914-2.172 1.168-.823 1.267-1.036 1.267-1.415 0-.444-.394-.905-.887-.905-.264 0-.428.1-.675.313-.56.46-1.118.938-2.155 1.546-.214.115-1.234.625-1.464.74v-2.748c0-.493-.165-.872-.94-.872-.837 0-.837.658-.837.872v8.094c0 .626.082 1.547 1.102 1.76.362.083 2.994.083 3.586.083 1.465 0 2.172 0 2.6-1.005.33-.79.428-2.55.428-2.714 0-.114 0-.394-.214-.608-.18-.18-.527-.247-.74-.247-.264 0-.576.083-.708.576-.05.182-.148 1.186-.18 1.4-.165.987-.264.987-1.662.987h-1.728c-.378 0-.707-.115-.707-.724v-2.96zm7.862-7.634c-.263 0-1.003.18-1.003.806 0 .263.048.346.51 1.218.344.658.87 1.793 1.167 2.6.378 1.035.46 1.282 1.036 1.282.38 0 1.004-.214 1.004-.84 0-.575-.905-2.516-1.234-3.19-.938-1.876-1.135-1.876-1.48-1.876zm12.453-.05c-.526 0-.674.297-.84.74-.41 1.054-.854 1.992-1.446 2.98-.643 1.052-.66 1.1-.66 1.38 0 .478.576.807.988.807.345 0 .608 0 1.94-2.534.33-.624 1.07-2.022 1.07-2.582 0-.707-.905-.79-1.053-.79zm-7.205 1.926c0 .64-.1 2.04-.444 3.224-.362 1.217-1.086 2.78-2.65 4.195-.92.84-1.25 1.004-3.14 1.925-.083.05-.494.28-.494.757 0 .345.263 1.036.888 1.036.773 0 2.468-1.117 3.438-1.924 1.43-1.217 2.78-2.91 3.373-5.46.428 1.742 1.168 3.272 2.814 4.95 1.25 1.267 3.125 2.468 3.898 2.452.576 0 .905-.642.905-1.053 0-.477-.362-.675-.625-.806-1.596-.824-2.418-1.235-3.586-2.518-1.678-1.843-2.484-4.278-2.484-6.762v-3.307c0-.625-.263-.855-1.02-.855-.806 0-.872.51-.872.855v3.29zm13.917 4.31c0-3.44-1.464-5.775-2.65-7.107-.805-.922-1.15-.954-1.364-.954-.378.016-.625.246-.625.575 0 .264.148.46.345.74.823 1.087 2.27 3.29 2.27 6.746 0 3.323-1.316 5.445-2.056 6.465-.51.69-.56.756-.56 1.003 0 .33.23.576.626.576.263 0 .543-.1 1.07-.626.888-.905 2.944-3.406 2.944-7.42z" fill="#646464"/><g><path d="M265.306 32.473c0-8.115 6.605-14.718 14.726-14.718h1.812c8.12 0 14.696 6.603 14.696 14.718l-.004 7.034c0 1.875-1.5 3.395-3.38 3.395-1.875 0-3.396-1.52-3.396-3.395l.002-.024-.003-6.295H272.1v6.319c0 1.875-1.52 3.395-3.397 3.395-1.877 0-3.397-1.52-3.397-3.395v-7.034zm48.972.715h-10.912v-.715c0-11.86-9.654-21.51-21.522-21.51h-1.812c-11.868 0-21.524 9.65-21.524 21.51v.715H247.48c-1.59 0-2.88 1.29-2.88 2.877v66.76c0 1.59 1.29 2.878 2.88 2.878h66.798c1.59 0 2.88-1.288 2.88-2.877v-66.76c0-1.59-1.29-2.878-2.88-2.878zM158.29 48.964c1.19-2.523 5.887-11.57 5.918-20.722.02-5.9 4.067-17.622 4.11-17.74l.793-2.29-15.093-4.202-.628 2.164c-.01.032-.965 3.16-3.574 6.163-3.515 4.05-8.258 5.965-14.098 5.7-13.79-.632-16.41-12.91-16.513-13.424l-.427-2.213-15.416 2.81.583 2.35c.03.12 2.992 12.156 2.472 18.04-.805 9.12 3.275 18.57 4.23 21.187l-26.723 53.9 1.24 1.162c.41.38 10.372 9.33 46.207 10.97 35.84 1.637 46.58-6.368 47.02-6.71l1.342-1.043-21.442-56.103z" fill="#FACA00"/><g transform="translate(58.37 57.567)" fill="#FFF"><rect y="8.962" width="69.948" height="50.19" rx="7.172"/><path d="M44.276 1.38l14.85 10.74-29.35 9.295"/></g><g fill="#1257DC"><path d="M93.746 105.247c-7.54.285-13.872-5.537-14.142-13.002-.268-7.468 5.627-13.75 13.168-14.034 7.543-.286 13.875 5.537 14.142 13.002.27 7.466-5.627 13.75-13.168 14.035m25.538-35.29l-11.907.046-7.04-6.5c-.436-.406-1.018-.63-1.62-.626l-12.563.05c-.603 0-1.184.23-1.62.637l-7.042 6.557-11.904.05c-2.085.007-3.773 1.663-3.772 3.698l-.004 35.072c.002 2.037 1.688 3.68 3.773 3.67l53.696-.212c2.084-.007 3.772-1.664 3.773-3.698V73.625c.002-2.035-1.686-3.678-3.77-3.668"/><path d="M92.713 83.194c4.773-.18 8.78 3.504 8.95 8.227.168 4.726-3.562 8.702-8.335 8.883-4.773.18-8.78-3.505-8.948-8.228-.17-4.725 3.56-8.7 8.333-8.88"/></g><g transform="translate(165.684 37.997)" fill="#FFF"><rect width="41.251" height="75.285" rx="7.172"/><path d="M96.546 35.23h27.084c5.12 0 5.145 2.734 5.145 5.738 0 3.004-5.853 20.025-5.853 20.025V71.55h-30.61l3.586-16.284.648-20.036z"/><path d="M78.096 16.712h2.433s-.384-8.776 1.228-9.13c1.613-.354 7.89-.282 9.172.34 1.282.624.935 6.837.935 9.243 0 2.406 4.957 1.18 4.957 5.04 0 3.864.332 48.05.332 48.05h-30.79L78.095 16.71z"/></g><path d="M270.313 105.844h12.602v-4.31h-12.602v4.31zm20.166-28.63c-.247-.31-.624-.493-1.022-.493H263.77c-.397 0-.773.184-1.02.495-.247.313-.338.72-.246 1.108l5.205 22.06v6.764c0 .72.582 1.303 1.3 1.303h15.21c.717 0 1.3-.584 1.3-1.303v-6.765l5.205-22.06c.092-.386.002-.794-.246-1.107zm-40.196-26.003h2.29v6.02c-.375-.06-.757-.093-1.145-.093-.39 0-.773.033-1.146.094v-6.02zm4.893 7.005v-8.307c0-.72-.583-1.303-1.302-1.303h-4.894c-.717 0-1.3.584-1.3 1.303v8.307c-2 1.254-3.333 3.477-3.333 6.008v42.924c0 .72.582 1.303 1.302 1.303h11.557c.72 0 1.303-.584 1.303-1.303V64.223c0-2.53-1.334-4.754-3.333-6.008zm-20.077 47.63h-11.95l-.26-2.47h12.47l-.26 2.47zm-5.973-29.424c2.986 0 5.508 4.85 5.508 10.586 0 5.736-2.522 10.584-5.508 10.584-2.988 0-5.51-4.848-5.51-10.584 0-5.737 2.522-10.585 5.51-10.585zm9.773 11.814c0-10.247-4.582-21.08-4.778-21.535-.205-.48-.676-.79-1.197-.79h-7.61c-.52 0-.99.31-1.197.79-.195.455-4.776 11.287-4.776 21.534 0 9.467.695 13.432.813 14.033l.528 5.017c.07.662.63 1.166 1.295 1.166h14.296c.666 0 1.225-.504 1.295-1.166l.533-5.076v-.033c.155-.84.797-4.858.797-13.94z" fill="#2BB570"/><path d="M176.603 94.457h28.752V50.435h-28.752v44.022zm14.377 9.905c-1.75 0-3.167-1.418-3.167-3.165 0-1.75 1.417-3.166 3.167-3.166 1.75 0 3.166 1.417 3.166 3.167 0 1.747-1.417 3.165-3.166 3.165zm13.362-62.78h-26.726c-3.603 0-6.55 2.947-6.55 6.548v54.72c0 3.602 2.947 6.55 6.55 6.55h26.726c3.603 0 6.552-2.948 6.552-6.55V48.13c0-3.6-2.95-6.548-6.552-6.548z" fill="#1257DC"/></g><g><path d="M198.745 6.935c-33.09 0-59.918 26.763-59.918 59.777 0 33.013 26.827 59.777 59.918 59.777 33.093 0 59.92-26.765 59.92-59.778 0-33.014-26.827-59.777-59.92-59.777m0 9.067c28.027 0 50.83 22.748 50.83 50.71 0 27.96-22.803 50.71-50.83 50.71-28.027 0-50.83-22.75-50.83-50.71 0-27.962 22.803-50.71 50.83-50.71" stroke="#FFF" stroke-width="13.16" stroke-linecap="square" stroke-linejoin="round" fill="#00C592"/><path d="M198.745 6.935c-33.09 0-59.918 26.763-59.918 59.777 0 33.013 26.827 59.777 59.918 59.777 33.093 0 59.92-26.765 59.92-59.778 0-33.014-26.827-59.777-59.92-59.777m0 9.067c28.027 0 50.83 22.748 50.83 50.71 0 27.96-22.803 50.71-50.83 50.71-28.027 0-50.83-22.75-50.83-50.71 0-27.962 22.803-50.71 50.83-50.71" fill="#2BB570"/></g></g></svg>