<svg xmlns="http://www.w3.org/2000/svg" height="188" width="385" viewBox="0 0 385 188"><title>img</title><g fill-rule="evenodd" fill="none"><path stroke-linejoin="round" d="M178.56 59.413h20.49c12.16 0 22.01-9.856 22.01-22.013V25.013C221.06 12.86 211.2 3 199.05 3H28.19C16.026 3 6.182 12.855 6.182 25.013V37.4c0 12.154 9.854 22.013 22.01 22.013h130.02l19.65 17.5.7-17.5z" stroke="#6EA8F5" stroke-linecap="round" stroke-width="5.501" fill="#fff"/><path fill="#646464" d="M23.088 26.203V38.49c0 .995.6 1.32 1.388 1.32.602 0 1.388-.21 1.388-1.32V21.227c0-.462-.462-.97-1.18-.97-.856 0-1.018.554-1.203 1.063-.392 1.157-1.202 2.337-2.706 2.615-1.62.278-2.014.37-2.014 1.226 0 .858.67 1.043.972 1.043h3.356zm28.684-2.407c0-2.383-.995-3.054-3.055-3.054H35.203c-2.082 0-3.054.694-3.054 3.054v13.908c0 2.383.994 3.054 3.053 3.054h13.514c2.083 0 3.055-.694 3.055-3.054V23.796zm-2.5 13.56c0 .81-.37 1.18-1.156 1.18h-12.31c-.834 0-1.18-.416-1.18-1.156V24.12c0-.67.253-1.18 1.18-1.18h12.31c.81 0 1.157.416 1.157 1.18v13.236zm-2.336-9.44c0-2.014-.88-2.57-2.592-2.57h-4.86c-1.712 0-2.568.556-2.568 2.57v5.553c0 1.99.833 2.567 2.568 2.567h4.86c1.782 0 2.592-.624 2.592-2.568v-5.555zm-2.222 5.183c0 .577-.254.9-.902.9H40.04c-.625 0-.903-.323-.903-.9v-4.815c0-.578.278-.902.903-.902h3.772c.648 0 .902.324.902.902V33.1zm16.813-2.385c-.833 0-1.18 0-1.643.14.116-.626.162-.857.232-1.18H74c.555 0 1.04-.21 1.04-.95 0-.856-.67-.95-1.04-.95h-8.585v-1.18h7.035c.555 0 .925-.23.925-.855 0-.833-.648-.856-.925-.856h-7.035v-1.157h7.914c.44 0 1.063-.116 1.063-.95 0-.948-.856-.948-1.064-.948h-4.05c.184-.302.578-.973.578-1.297 0-.81-1.088-.902-1.412-.902-.694 0-.995.116-1.85 2.2h-4.63c-.184-.44-.624-1.274-.81-1.574-.23-.394-.485-.648-1.133-.648-.463 0-1.342.185-1.342.786 0 .186.14.486.626 1.435h-4.12c-.254 0-1.064 0-1.064.948s.833.95 1.065.95h7.798v1.156h-7.01c-.464 0-.927.162-.927.88 0 .832.694.832.926.832h7.01v1.18H54.47c-.65 0-1.065.278-1.065.95 0 .832.625.948 1.064.948h3.262c-.486 4.072-2.314 6.27-3.355 7.266-.625.602-.856.833-.856 1.342 0 .717.625 1.226 1.227 1.226 1.134 0 2.962-2.522 3.888-4.558v3.587c0 1.943.856 2.476 2.476 2.476h9.396c1.62 0 2.476-.533 2.476-2.476V33.19c0-1.966-.856-2.475-2.476-2.475h-8.98zm9.002 4.374v1.248h-9.512v-1.25h9.51zm-9.512-2.038c0-.463.232-.648.648-.648h8.215c.418 0 .65.21.65.648v.648h-9.512v-.648zm9.51 4.72v.765c0 .486-.277.648-.647.648h-8.214c-.393 0-.648-.162-.648-.648v-.764h9.51zM80.75 25.81c-.28 1.388-.603 2.776-.973 4.165-.856 3.17-2.106 6.456-2.777 7.89-.462 1.02-.486 1.227-.486 1.48 0 .904.972 1.16 1.435 1.16.555 0 .88-.28 1.088-.673.463-.833 1.62-4.142 2.175-5.924 1.273-3.98 1.55-5.322 2.175-8.145 2.13-.046 4.374-.093 8.932-.324.44-.024 1.32-.047 1.32-1.204 0-1.18-.926-1.227-1.297-1.227-.254 0-1.504.07-1.78.092-2.71.116-3.866.14-6.69.208.256-1.388.28-1.712.28-2.013 0-.717-.44-1.134-1.39-1.134-.324 0-.925.07-1.134.787-.07.254-.115.463-.44 2.43h-3.24c-.763 0-1.295.254-1.295 1.226 0 1.203.788 1.203 1.83 1.203h2.267zm15.295 3.933c0-.44 0-.88-.51-1.157-.647-.324-3.24-.347-3.285-.347-1.065 0-3.332.068-4.813.277-1.528.208-2.13.486-2.13 1.388 0 .116 0 1.18 1.065 1.18.093 0 1.85-.185 2.106-.208 1.11-.116 2.268-.162 3.402-.162.555 0 .833 0 1.18.023.578.047 1.55.14 1.76.14.207 0 .508-.024.785-.186.3-.208.44-.67.44-.95zm.67 9.187c0-.694-.346-1.18-1.202-1.18-.208 0-.346.023-1.434.14-1.064.114-2.29.16-3.286.16-1.388 0-2.314-.138-2.8-.254-.81-.185-1.435-.51-1.435-1.273 0-.3.093-.462.255-.81.07-.138.185-.347.185-.648 0-.624-.74-.88-1.203-.88-1.32 0-1.828 1.482-1.828 2.547 0 2.753 2.337 3.725 7.82 3.725 2.292 0 3.542-.185 3.958-.277.602-.14.972-.533.972-1.25zm6.378-13.144c-.3 1.412-.624 2.8-.994 4.19-.856 3.17-2.106 6.455-2.777 7.89-.464 1.018-.487 1.226-.487 1.48 0 .903.972 1.158 1.435 1.158.925 0 1.157-.58 2.082-3.124.625-1.713 2.384-6.873 3.356-11.663 1.524-.023 3.584-.07 7.844-.278.46-.024 1.32-.047 1.32-1.204 0-1.18-.88-1.227-1.3-1.227-.25 0-1.55.07-1.82.092-2.67.116-4.12.14-5.56.162.26-1.48.28-1.643.28-1.944 0-.648-.32-1.157-1.39-1.157-.323 0-.925.07-1.133.787-.07.23-.116.44-.44 2.36-3.24.046-3.61.046-3.887.116-.185.07-.648.278-.648 1.134 0 1.226.787 1.226 1.828 1.226h2.29zm14.83-4.073c.07.162.4.95.47 1.134.11.255.37.417.62.417.19 0 .79-.093.79-.67 0-.418-.49-1.482-.7-1.9-.53-1.086-.78-1.18-1.08-1.18-.17 0-.79.07-.79.65 0 .045.02.207.09.37.07.184.51.994.6 1.18zm.44 8.03c0-.44 0-.88-.51-1.157-.64-.324-3.24-.347-3.28-.347-1.07 0-3.33.068-4.81.277-1.53.208-2.13.486-2.13 1.388 0 .116 0 1.18 1.06 1.18.09 0 1.85-.185 2.11-.208 1.11-.116 2.26-.162 3.4-.162.55 0 .83 0 1.18.023.58.047 1.55.14 1.76.14s.51-.024.78-.186c.3-.208.44-.67.44-.95zm.67 9.187c0-.694-.34-1.18-1.2-1.18-.21 0-.35.023-1.43.14-1.07.114-2.29.16-3.29.16-1.39 0-2.31-.138-2.8-.254-.81-.185-1.43-.51-1.43-1.273 0-.3.09-.462.25-.81.07-.138.19-.347.19-.648 0-.624-.74-.88-1.21-.88-1.32 0-1.83 1.482-1.83 2.547 0 2.753 2.34 3.725 7.83 3.725 2.29 0 3.54-.185 3.95-.277.6-.14.97-.533.97-1.25zm-3.88-16.684c.09.185.34.81.51 1.203.11.23.34.44.6.44.07 0 .85-.025.85-.696 0-.347-.37-1.203-.83-2.082-.51-.95-.58-1.042-.97-1.042-.26 0-.76.14-.76.648 0 .116.02.255.06.394.07.162.47.95.54 1.134zm22.46 5.785c.32-.022 1.89-.092 2.24-.092 1.16-.046 1.83-.092 1.83-1.273 0-1.157-.88-1.203-1.3-1.203-.04 0-.23.023-.53.023-.32.023-1.94.093-2.31.116-.05-1.827-.05-2.012-.07-3.817-.03-1.088-.4-1.458-1.37-1.458-1.27 0-1.32.787-1.32 1.504 0 .555.12 3.216.14 3.84-2.36.047-2.8.047-6.73.047-.9 0-1.71 0-1.71 1.226 0 .394.11.81.51 1.042.23.138.37.185 2.12.185 1.76 0 3.45-.047 5.86-.093.02.44.04 2.592.04 3.078 0 2.985-.32 4.443-1.22 5.368-1.39 1.412-3.31 1.643-4.7 1.782-.86.093-1.32.3-1.32 1.11 0 .44.19 1.32 1.27 1.32 1.09 0 2.99-.347 4.08-.787 4.53-1.782 4.53-5.415 4.53-8.516v-.555c0-1.296-.02-1.435-.04-2.846zm-13.56-7.497c-.84 0-1.28.023-1.53.995-.26 1.018-.83 5.276-.83 9.928 0 2.082.09 5.947.62 7.798.23.764.63.926 1.2.926.42 0 1.3-.093 1.3-1.134 0-.278-.09-.95-.14-1.25-.3-1.85-.46-4.397-.46-6.364 0-2.938.35-5.9.44-6.687.04-.44.44-2.638.44-3.147 0-.995-.95-1.065-1.04-1.065zm28.7-.162v15.853c-3.12.254-4.39 2.06-4.39 3.193 0 .81.69 1.203 1.34 1.203 1.62 0 3.84-2.57 3.84-3.912V25.555c.51.3 3.08 1.666 3.63 2.013.81.51 1.79 1.226 1.79 2.615 0 .694-.31 1.874-1.39 3.355-.67.903-1.37 1.574-2.22 2.314l.04.07c3.54-1.574 4.72-4.698 4.72-6.364 0-2.29-1.57-3.656-3.08-4.883-2.75-2.244-2.86-2.337-4.09-4.304h-.19zm23.94 12.266c.1-.556.14-.787.21-1.597h8.68c.3 0 1.09 0 1.09-1.042 0-1.018-.79-1.018-1.09-1.018h-8.49v-1.643h6.96c.47 0 1.07-.093 1.07-.972 0-.926-.7-.95-1.07-.95h-6.96v-1.48h7.89c.28 0 1.06 0 1.06-1.04 0-.996-.78-1.02-1.06-1.02h-4.03c.26-.416.65-1.087.65-1.457 0-.556-.76-.857-1.39-.857-.83 0-1.04.418-1.13.626-.14.232-.7 1.435-.84 1.69h-4.55c-.19-.51-.68-1.412-.84-1.713-.11-.208-.32-.578-1.08-.578-.33 0-1.39.138-1.39.925 0 .162.07.278.55 1.365h-4.07c-.28 0-1.09.024-1.09 1.042s.81 1.018 1.09 1.018h7.8v1.48h-6.94c-.44 0-1.05.093-1.05.973 0 .95.74.95 1.05.95h6.94v1.642h-8.49c-.33 0-1.09 0-1.09 1.04 0 1.02.78 1.02 1.09 1.02h8.42c-.05.716-.12 1.017-.23 1.596h-7.64c-.28 0-1.09 0-1.09 1.018 0 .995.81.995 1.09.995h6.83c-.21.37-.79 1.34-2.06 2.22-1.71 1.204-2.89 1.458-5.16 1.92-.4.094-.95.37-.95 1.09 0 .508.3 1.387 1.36 1.387.65 0 2.66-.486 4.7-1.527 1.3-.67 3.19-2.083 4.4-4.582 2.29 4.906 8.75 6.11 9.28 6.11.9 0 1.27-.857 1.27-1.436 0-.67-.42-.902-.67-.97-2.36-.603-2.62-.65-3.12-.858-3.18-1.226-4.01-2.707-4.38-3.355h6.85c.26 0 1.07 0 1.07-1.02 0-.994-.81-.994-1.07-.994h-8.38zm29.43-9.58c0-2.014-.86-2.592-2.59-2.592h-10.6c-1.71 0-2.57.578-2.57 2.592v3.147c0 2.036.88 2.59 2.57 2.59h10.6c1.73 0 2.59-.577 2.59-2.59v-3.147zm-2.38 2.753c0 .6-.28.902-.91.902h-9.16c-.63 0-.93-.3-.93-.903v-2.315c0-.6.3-.925.93-.925h9.16c.6 0 .91.324.91.925v2.314zm-6.6 7.404c0-1.967-.81-2.568-2.57-2.568h-3.96c-1.78 0-2.56.624-2.56 2.568v5.114c0 1.967.81 2.57 2.56 2.57h3.96c1.78 0 2.57-.603 2.57-2.57v-5.114zm-2.31 4.605c0 .6-.28.925-.91.925h-2.66c-.62 0-.9-.324-.9-.926V33.7c0-.578.28-.902.9-.902h2.66c.63 0 .91.324.91.902v4.12zm13.53-4.606c0-1.99-.83-2.568-2.56-2.568h-4.22c-1.78 0-2.59.624-2.59 2.568v5.114c0 1.967.81 2.57 2.59 2.57h4.22c1.75 0 2.56-.603 2.56-2.57v-5.114zm-2.29 4.605c0 .6-.27.925-.9.925h-2.98c-.63 0-.91-.324-.91-.926V33.7c0-.578.28-.902.91-.902h2.98c.63 0 .9.324.9.902v4.12z"/><path stroke-linejoin="round" d="M85.012 131.207H23.19c-10.96 0-19.84-8.88-19.84-19.834v-10.108c0-10.95 8.88-19.834 19.84-19.834h87.6c10.96 0 19.834 8.88 19.834 19.835v10.108c0 10.95-8.88 19.834-19.834 19.834h-5.29l2.615 11.614-23.103-11.613z" stroke="#6EA8F5" stroke-linecap="round" stroke-width="5.501" fill="#fff"/><path fill="#646464" d="M17.9 98.3c-.474 0-1.204.13-1.204 1.204 0 1.182.924 1.182 1.203 1.182h12.333c.322 0 .773 0 .773.644 0 .366-.322 2.794-1.46 4.857-2.515 4.598-7.307 5.78-8.983 6.21-.838.214-1.482.365-1.482 1.16 0 .13.044 1.31 1.247 1.31.602 0 6.317-.988 9.798-5.22 2.75-3.353 3.546-7.65 3.546-8.918 0-1.935-1.374-2.43-2.9-2.43H17.9zm13.558-1.267c.042.086.257.795.365 1.03.043.11.193.388.58.388.43 0 .73-.214.73-.644 0-.215-.214-.902-.386-1.29-.516-1.095-.58-1.31-.99-1.31-.235 0-.75.13-.75.58 0 .194.064.387.107.473.043.107.3.644.344.773zm2.62 0c.065.15.323.924.41 1.096.042.085.193.385.6.385.173 0 .71-.107.71-.666 0-.387-.45-1.44-.602-1.784-.343-.71-.43-.946-.838-.946-.258 0-.752.13-.752.602 0 .107.022.215.065.322.065.15.345.838.41.99zm5.852.193c-.366 0-1.16.043-1.16 1.14 0 1.116.88 1.116 1.16 1.116h12.592c.3 0 1.16 0 1.16-1.138 0-1.118-.88-1.118-1.16-1.118H39.93zm11.367 7.456c.45 0 .773.065.773.538 0 .408-.494 1.998-1.353 3.244-2.364 3.352-6.597 3.932-8.724 4.233-1.075.15-1.698.237-1.698 1.14 0 1.245 1.074 1.245 1.332 1.245.56 0 1.72-.193 2.665-.386 2.535-.56 5.286-1.462 7.52-3.89 2.407-2.578 2.9-5.973 2.9-6.575 0-1.804-1.567-1.804-2.105-1.804H38.34c-.366 0-1.16.043-1.16 1.14 0 1.116.88 1.116 1.16 1.116h12.957zm8.214-7.176c-.386.085-1.052.515-1.052 1.267 0 .602.473.88.903 1.118 1.247.667 2.73 1.44 3.697 2.106 2.127 1.462 2.32 1.59 2.793 1.59.516 0 1.225-.687 1.225-1.29 0-.278-.086-.557-.387-.858-.473-.494-3.03-2.02-4.147-2.665-2.083-1.182-2.556-1.353-3.03-1.267zM75.5 99.418c-.15-.043-.322-.065-.494-.065-.71 0-.838.366-1.16 1.29-2.622 7.692-6.683 10.4-13.56 11.195-.86.107-1.418.28-1.418 1.225 0 .28.086 1.332 1.376 1.332.537 0 1.977-.237 3.352-.58 2.793-.688 6.016-1.934 8.745-5.157 2.234-2.622 4.082-7.22 4.082-8.144 0-.688-.516-.967-.924-1.096zm10.75 4.813c.71.238 1.568.495 3.05 1.14 1.118.494 3.138 1.483 4.385 2.192 1.16.687 1.525.902 1.955.902.86 0 1.268-.88 1.268-1.482 0-.624-.237-.903-2-1.784-2.77-1.397-5.67-2.6-8.658-3.48v-4.363c0-.473-.043-1.268-1.29-1.268-1.267 0-1.267.903-1.267 1.268v16.696c0 .452.022 1.247 1.29 1.247 1.246 0 1.268-.838 1.268-1.246v-9.82zm5.973-5.543c.11.3.26.817.41 1.118.043.107.193.386.558.386.065 0 .752 0 .752-.665 0-.28-.365-1.267-.58-1.762-.322-.73-.472-1.01-.86-1.01-.214 0-.73.13-.73.58 0 .15.043.323.086.452s.322.752.365.902zm2.6-.322c.453 1.268.54 1.483 1.01 1.483.173 0 .732-.108.732-.666 0-.3-.28-1.075-.602-1.762-.322-.71-.45-.967-.86-.967-.257 0-.75.15-.75.6 0 .13.02.238.063.345.065.13.344.817.408.967zm10.446-.838c-.17.215-1.82 2.15-4.98 3.588-.645.28-.99.495-.99 1.053 0 .645.495 1.31 1.097 1.31.6 0 2.256-.987 2.883-1.396 1.14.838 2.42 1.956 3.41 3.073-2.9 1.59-4.424 2.084-7.067 2.836-.624.173-.99.367-.99 1.033 0 .387.194 1.354 1.097 1.354.623 0 2.793-.817 4.26-1.42v3.998c0 1.87.79 2.385 2.38 2.385h9.13c1.66 0 2.39-.58 2.39-2.385v-4.297c0-1.827-.73-2.407-2.39-2.407h-6.31c.92-.58 3.52-2.255 5.65-4.898 1.05-1.332 1.22-1.89 1.22-2.536 0-.3-.04-.902-.6-1.29-.41-.278-.73-.278-1.5-.278h-5.53c.2-.28.35-.538.35-.86 0-.43-.48-.86-1.27-.86-.54 0-.8.216-1.16.667l-1.08 1.332zm7.16 1.676c.26 0 .6 0 .6.387 0 .236-1.03 1.998-4.25 4.276-1.18-1.16-2.6-2.3-3.74-3.094.17-.13 1.01-.817 1.72-1.57h5.67zm3.16 13.172c0 .58-.28.838-.84.838h-7.67c-.52 0-.84-.236-.84-.838v-3.202c0-.537.28-.838.84-.838h7.67c.58 0 .84.28.84.838v3.202z"/><g><path stroke-linejoin="round" d="M310.12 132.866h51.903c10.957 0 19.837-8.88 19.837-19.834v-10.108c0-10.95-8.88-19.834-19.837-19.834H284.35c-10.96 0-19.84 8.88-19.84 19.834v10.108c0 10.95 8.882 19.834 19.84 19.834h5.284l-2.616 11.614 23.103-11.614z" stroke="#6EA8F5" stroke-linecap="round" stroke-width="5.501" fill="#fff"/><path fill="#646464" d="M289.88 99.23c-.386-1.398-1.804-1.398-2.212-1.398-1.397 0-2.106.623-2.106 1.827v15.083c0 .838.494 1.246 1.332 1.246.194 0 1.29 0 1.29-1.247v-13.387c0-.064 0-.15.086-.15.085 0 .107.064.128.15l3.524 13.323c.108.428.624 1.31 1.74 1.31.796 0 1.613-.41 1.85-1.31l3.523-13.324c.02-.107.043-.15.107-.15.086 0 .086.086.086.15v13.387c0 .838.494 1.246 1.332 1.246.215 0 1.31 0 1.31-1.247V99.66c0-1.44-.966-1.828-2.212-1.828-.967 0-1.87.43-2.127 1.397l-3.588 13.364c-.043.13-.107.28-.236.28s-.172-.15-.215-.28l-3.61-13.365zm27.62 2.9h-7.178v-2.923c0-.666-.258-1.16-1.203-1.16-1.12 0-1.183.752-1.183 1.16v2.923h-2.557c-.58 0-1.203.215-1.203 1.16 0 1.14.966 1.14 1.203 1.14h2.557v4.662c0 .88.45 1.14 1.203 1.14 1.01 0 1.182-.582 1.182-1.14v-4.663h7.177v2.6c0 .257 0 2.277-.58 3.566-.732 1.654-2.71 3.16-6.018 3.63-1.504.216-1.998.28-1.998 1.162 0 .172.064 1.31 1.29 1.31.43 0 2.685-.236 5.006-1.332 3.932-1.87 4.705-4.985 4.705-8.23v-2.707h2.6c.58 0 1.204-.237 1.204-1.16 0-1.14-.968-1.14-1.205-1.14h-2.6v-3.008c0-.795-.386-1.14-1.224-1.14-1.074 0-1.18.667-1.18 1.14v3.008zm19.473 2.514c2.3-1.375 4.018-2.622 5.844-4.34.452-.43.624-.71.624-1.118 0-.774-.73-1.31-1.353-1.31-.344 0-.56.15-.838.365-.495.41-1.248 1.14-1.742 1.57-4.963 4.383-11.625 6.317-13.193 6.703-.666.172-1.16.323-1.16 1.118 0 .28.107 1.354 1.203 1.354.752 0 4.04-.988 8.058-2.943v9.67c0 .688.258 1.203 1.29 1.203 1.202 0 1.267-.773 1.267-1.203v-11.066zm20.827-3.46c.43 0 .688.043.688.387 0 .517-1.354 3.87-4.17 7.05-2.985 3.35-5.628 4.662-7.11 5.392-.474.237-.796.473-.796.99 0 .73.58 1.33 1.182 1.33 1.16 0 5.65-2.835 8.745-6.402 1.18 1.01 3.265 2.75 5.307 5.07.838.968 1.074 1.247 1.676 1.247.71 0 1.397-.6 1.397-1.354 0-.45-.13-.752-1.42-1.998-2.642-2.535-4.984-4.32-5.543-4.727 1.633-2.17 3.61-5.974 3.61-7.564 0-1.568-1.267-1.74-2.19-1.74h-10.853c-.6 0-1.224.215-1.224 1.16 0 1.16.966 1.16 1.224 1.16h9.476zm6.468-2.45c.065.13.302.84.362.99.13.3.35.493.65.493.17 0 .73-.107.73-.666 0-.385-.39-1.288-.6-1.74-.35-.75-.45-.988-.86-.988-.26 0-.755.15-.755.602 0 .022 0 .172.065.322.064.15.365.817.408.99zm-2.557.194c.13.322.28.817.41 1.118.064.15.214.386.558.386.065 0 .752 0 .752-.666 0-.28-.365-1.268-.58-1.783-.322-.752-.494-.967-.86-.967-.28 0-.73.15-.73.558 0 .194.064.387.107.473.043.13.3.752.344.88z"/></g><g><path stroke-linejoin="round" d="M296.898 54.435h58.522c10.95 0 19.83-8.88 19.83-19.834V24.494c0-10.95-8.88-19.834-19.83-19.834h-95.87c-10.954 0-19.834 8.88-19.834 19.833V34.6c0 10.95 8.88 19.835 19.835 19.835h16.86l-2.614 11.614 23.102-11.615z" stroke="#6EA8F5" stroke-linecap="round" stroke-width="5.501" fill="#fff"/><path fill="#646464" d="M253.093 34.568c-.615 0-1.11.278-1.11 1.09 0 1.092.872 1.092 1.11 1.092h11.504c1.845 0 2.618-.654 2.618-2.618v-9.084c0-1.944-.773-2.62-2.618-2.62H253.29c-.633 0-1.13.26-1.13 1.092 0 1.09.873 1.09 1.13 1.09h10.573c.675 0 1.012.32 1.012.993v7.954c0 .753-.397 1.01-1.012 1.01h-10.77zm21.372-2.697c.317 0 1.23-.138 1.23-.97 0-.32-.08-.557-.14-.735-.06-.18-.455-1.17-.674-1.746-1.01-2.64-1.407-2.64-1.823-2.64-.536 0-1.13.34-1.13.914 0 .258.098.476.197.674.357.734.814 1.647 1.35 3.273.257.834.396 1.23.99 1.23zm4.284-.932c.614 0 1.308-.178 1.308-.99 0-.557-.912-3.294-1.19-3.948-.397-.952-.615-1.23-1.19-1.23s-1.11.357-1.11.892c0 .22.08.417.158.635.297.754.694 1.726 1.11 3.372.2.773.318 1.268.913 1.268zm5.89-5.593c-.14-.02-.238-.02-.298-.02-.852 0-.952.556-1.13 1.448-.417 2.222-1.408 7.438-7.537 9.223-1.567.457-1.845.536-1.845 1.19 0 .298.16 1.07.972 1.07.496 0 1.983-.415 3.174-.95 2.26-1.012 4.522-2.797 6.03-6.03.95-2.063 1.447-4.622 1.447-4.98 0-.634-.416-.872-.813-.95zm11.375 2.856c.655.22 1.448.457 2.817 1.053 1.03.456 2.896 1.368 4.046 2.023 1.07.634 1.408.833 1.805.833.793 0 1.17-.814 1.17-1.37 0-.575-.218-.833-1.844-1.646-2.56-1.29-5.238-2.4-7.995-3.213v-4.026c0-.436-.04-1.17-1.19-1.17-1.17 0-1.17.833-1.17 1.17v15.412c0 .416.02 1.15 1.19 1.15 1.15 0 1.17-.773 1.17-1.15V28.2zm13.438-6.207c-.357.08-.972.476-.972 1.17 0 .556.438.813.834 1.032 1.15.615 2.52 1.33 3.412 1.943 1.964 1.35 2.142 1.468 2.578 1.468.476 0 1.13-.634 1.13-1.19 0-.258-.078-.516-.356-.793-.436-.456-2.797-1.865-3.828-2.46-1.924-1.09-2.36-1.25-2.797-1.17zm14.757 1.765c-.14-.04-.297-.06-.456-.06-.654 0-.774.338-1.07 1.19-2.42 7.102-6.17 9.6-12.517 10.335-.793.1-1.31.258-1.31 1.13 0 .258.08 1.23 1.27 1.23.496 0 1.825-.218 3.095-.535 2.578-.635 5.554-1.786 8.073-4.76 2.062-2.42 3.768-6.665 3.768-7.518 0-.635-.476-.893-.853-1.012zm6.655.338c.218-.556.754-1.944.754-2.4 0-.814-.954-.873-1.172-.873-.674 0-.813.377-.952.773-1.03 3.174-1.864 4.344-2.975 5.93-.237.318-.316.517-.316.735 0 .576.615 1.092 1.21 1.092.317 0 .535-.1.813-.456.396-.496 1.01-1.31 1.745-2.817h4.344v3.906h-5.95c-.675 0-.972.298-.972 1.012 0 .932.753.932.972.932h5.95v4.344h-7.36c-.514 0-.99.16-.99.992 0 .972.694.99.99.99h16.784c.71 0 .97-.356.97-1.05 0-.932-.73-.932-.97-.932h-7.282V31.93h5.852c.44 0 .97-.1.97-.972 0-.952-.69-.972-.97-.972h-5.852V26.08h6.562c.52 0 1-.16 1-1.013 0-.97-.72-.97-1-.97h-6.562v-2.878c0-.655-.258-.992-1.15-.992-.992 0-.992.734-.992.99v2.878h-3.45zm23.315 4.244l2.22-.674v6.208c0 .714.32.952 1.07.952.94 0 .94-.674.94-.952V27.07l1.6-.495c.16-.04.38-.08.44-.08.43 0 .43.338.43 1.13 0 1.032-.05 2.42-.13 2.877-.12.595-.3.694-.8.714-.65.02-1.11.02-1.11.893 0 1.17.91 1.17 1.43 1.17 1.03 0 2-.12 2.34-1.826.22-1.03.26-3.887.26-5.078 0-.813 0-2.102-1.59-2.102-.45 0-.85.1-1.09.18l-1.78.534V21.2c0-.675-.28-.933-1.08-.933-.93 0-.93.655-.93.933v4.403l-2.22.654v-3.272c0-.655-.26-.932-1.07-.932-.93 0-.93.654-.93.932v3.887l-1.27.377c-.4.118-.74.217-.74.912 0 .277.06 1.11.76 1.11.14 0 .28-.04.43-.08l.82-.237v7.28c0 2.22 1.19 2.34 2.58 2.34h5.21c1.03 0 2.5 0 3.08-1.448.31-.813.41-2.182.41-2.44 0-.952-.93-.952-1.07-.952-.81 0-.87.476-.99 1.35-.14 1.01-.22 1.368-.63 1.447-.18.04-3.65.04-5.48.04-.57 0-1.11 0-1.11-.794V28.34zm-6.88 6.05l-1.61.416c-.34.08-.81.218-.81.952 0 .496.26 1.17.85 1.17.54 0 2.68-.674 3.35-.892 2.05-.674 2.34-.813 2.34-1.587 0-.596-.25-1.012-.73-1.012-.18 0-1.05.297-1.35.377v-6.467h1.01c.72 0 .86-.495.86-1.03s-.22-.933-.86-.933h-1.01V21.28c0-.636-.24-.933-1.09-.933-.95 0-.95.634-.95.932v4.105h-1.39c-.22 0-.97 0-.97.99 0 .973.77.973.97.973h1.39v7.042z"/></g><path fill="#FACA00" d="M226.24 100.973l-15.35-3.56s-4.22 7.577-14.47 7.647c-10.26.07-14.58-7.452-14.58-7.452l-15.3 3.765-22.2 20.247 11.26 17.24 11.15-5.34.36 54.23 59.7-.4-.36-54.23 11.23 5.2 11.02-17.39-22.46-19.957z"/></g></svg>