<svg id="レイヤー_5" xmlns="http://www.w3.org/2000/svg" viewBox="0 0 30 30"><style>.st0{fill:#B7B7B7;} .st1{fill:#FFFFFF;} .st2{fill:#221714;}</style><path class="st0" d="M14.9 29.6C6.8 29.6.2 23 .2 14.9S6.8.2 14.9.2s14.7 6.6 14.7 14.7S23 29.6 14.9 29.6zm0-28.9C7.1.7.7 7.1.7 14.9s6.4 14.2 14.2 14.2c7.8 0 14.2-6.4 14.2-14.2S22.8.7 14.9.7z"/><circle class="st1" cx="14.9" cy="14.9" r="14.2"/><path class="st2" d="M8.482 9.892l1.484-1.485L21.35 19.792l-1.484 1.485z"/><path class="st2" d="M19.918 8.445l1.485 1.484L10.02 21.313 8.533 19.83z"/></svg>