<svg width="592" height="146" viewBox="0 0 592 146" xmlns="http://www.w3.org/2000/svg"><title>logo</title><g fill="none" fill-rule="evenodd"><g fill="#11B6C4"><path d="M294.776 66.122l-25.962-19.008c-.612-.448-.973-1.16-.973-1.918V4.536c0-1.945 2.206-3.067 3.774-1.92l23.162 16.96v46.546zM296.942 66.122l25.962-19.008c.612-.448.973-1.16.973-1.918V4.536c0-1.945-2.206-3.067-3.773-1.92l-23.162 16.96v46.546z"/></g><path d="M294.776 63.953l-25.962-19.008c-.612-.448-.973-1.16-.973-1.918V2.367c0-1.946 2.206-3.067 3.774-1.92l23.162 16.96v46.546z" fill="#5CF784"/><path d="M296.942 63.953l25.962-19.008c.612-.448.973-1.16.973-1.918V2.367c0-1.946-2.206-3.067-3.773-1.92l-23.162 16.96v46.546z" fill="#FFF310"/><g fill="#11B6C4"><path d="M24.263 116.823c-7.278 9.704-14.01 13.646-18.62 16.254-4.61 2.608-5.276 2.972-5.276 5.034 0 2.427 2.304 5.4 5.094 5.4 1.7 0 3.64-.91 5.824-2.245 11.1-6.854 17.71-15.163 20.317-18.5 2.67 2.427 3.155 2.913 9.038 8.978 1.577 1.698 2.91 2.122 4.124 2.122 2.972 0 5.58-2.91 5.58-5.943 0-.85-.12-1.88-1.76-3.64-2.667-2.85-5.76-5.7-11.22-10.007 4.49-7.64 8.553-17.83 8.553-20.135 0-3.215-3.64-4.306-5.823-4.306-3.032 0-3.76 1.88-4.61 4.366-2.425 6.914-3.395 9.704-5.882 14.253-2-1.395-7.157-4.913-12.19-8.066-2.73-1.76-4.367-2.548-5.944-2.548-2.67 0-4.73 2.79-4.73 5.033 0 2.002 1.333 2.972 3.395 4.246 4.43 2.728 10.13 6.73 14.133 9.703zM77.27 95.656c0-3.214-1.758-4.427-4.973-4.427-4.124 0-4.79 2.303-4.79 4.426v12.736c0 16.012-.97 18.923-6.733 25.534-1.577 1.82-1.82 2.79-1.82 3.76 0 3.215 3.215 5.216 5.702 5.216 1.03 0 2.486 0 5.64-4.003 6.368-8.188 6.975-16.983 6.975-30.083v-13.16zm6.49 41c0 1.394 0 5.822 5.7 5.822 4.55 0 14.436-3.7 20.5-12.797 2.488-3.7 5.096-9.825 5.096-12.797 0-3.76-4.307-4.306-5.398-4.306-2.85 0-3.457 1.698-4.428 4.73-2.79 8.613-8.733 13.405-11.1 13.405-.666 0-.666-.668-.666-1.456V94.928c0-3.275-1.88-4.367-4.912-4.367-3.882 0-4.792 2.003-4.792 4.368v41.727zm55.616-27.293c-1.76 15.162-9.34 20.742-14.313 24.38-1.577 1.153-3.215 2.366-3.215 4.49 0 2.668 2.487 5.094 4.792 5.094 1.455 0 2.972-.91 3.457-1.213 2-1.213 3.82-2.79 4.912-3.76 11.644-10.736 13.524-24.442 14.07-28.99h10.675c1.82 0 2 1.03 2 2.85 0 .242-.18 10.613-1.15 16.98-.487 3.398-1.578 4.49-4.975 4.49-.85 0-4.852-.425-5.76-.425-2.913 0-4.368 1.515-4.368 4.487 0 5.276 3.76 5.52 10.795 5.52 6.915 0 11.16-1.335 13.1-8.795 1.456-5.7 2.002-20.197 2.002-24.32 0-4.974-.183-9.947-8.128-9.947h-13.464c.12-2.67.12-4.974.12-5.277 0-2.365 0-5.276-5.093-5.276-3.7 0-4.306 2-4.55 3.153-.18.728-.18.97-.302 7.4h-12.92c-1.454 0-4.972.06-4.972 4.61 0 4.548 3.58 4.548 4.974 4.548h12.312zm58.83-13.464c0-3.52-1.94-4.67-5.155-4.67-4.305 0-5.033 2.364-5.033 4.67v24.926c0 3.517 2.002 4.61 5.156 4.61 4.184 0 5.033-2.245 5.033-4.61V95.9zm30.325-.79c0-3.64-2.243-4.67-5.214-4.67-3.882 0-5.095 1.94-5.095 4.67v22.26c0 3.94-.484 7.46-3.638 10.612-2.487 2.487-6.186 4.67-16.194 5.64-3.396.304-6.065.607-6.065 4.49 0 1.09.243 2.546 1.274 3.698 1.274 1.517 2.972 1.517 4.064 1.517 3.822 0 11.827-.91 19.166-4.73 11.705-6.066 11.705-17.59 11.705-21.592V95.11zm28.69-2.79c0-1.395-.123-4.488-4.307-4.488-3.58 0-4.913 1.274-4.913 4.488v4.185h-3.457c-1.03 0-4.488 0-4.488 4.124 0 3.335 1.577 4.487 4.488 4.487h7.884c.182 0 .97 0 .97.79 0 .787-3.456 5.882-8.672 10.067-4.913 3.942-5.398 4.366-5.398 6.49 0 2.304 1.76 5.397 4.55 5.397 1.515 0 2.425-.605 4.123-2v15.465c0 1.395.12 4.428 4.306 4.428 3.518 0 4.913-1.213 4.913-4.428v-17.467c1.454 1.82 3.274 4.064 5.275 4.064 2.548 0 3.943-2.548 3.943-4.67 0-1.82-.79-2.487-3.457-4.428-.91-.667-2.97-2.183-4.85-3.942 5.093-7.157 5.578-10.796 5.578-13.16 0-5.217-3.153-5.217-6.49-5.217V92.32zm12.735 18.62c-.06-2.548-3.093-3.154-3.82-3.154-1.517 0-1.88.606-3.458 3.396-1.455 2.548-1.637 2.85-1.637 3.76 0 2.123 2.668 3.094 3.82 3.094 1.214 0 1.82-.667 2.972-2.426.425-.667 2.123-3.215 2.123-4.67zm2.366-11.463c-.12 13.707-1.152 25.594-7.823 33.66-4.428 5.398-4.792 5.823-4.792 7.642 0 2.547 2.487 4.73 5.156 4.73 1.82 0 3.154-1.03 4.55-2.487 9.28-10.067 11.644-23.228 11.947-43.546h3.943c1.516 0 1.94.364 1.94 2.123 0 8.005-.242 20.863-1.334 29.597-.546 4.427-1.76 5.094-3.396 5.094-.425 0-2.548-.12-2.972-.12-.97 0-4.55 0-4.55 4.488 0 3.275 2.063 4.367 3.034 4.55.97.24 4.306.363 5.64.363 6.126 0 9.704-.788 10.856-7.58 1.03-6.37 1.82-20.38 1.82-36.33 0-5.822-.06-7.763-1.82-9.522-1.698-1.698-4.124-1.698-6.307-1.698h-20.196c-3.093 0-4.427 1.274-4.427 4.79 0 4.126 3.154 4.247 4.427 4.247h4.307zm38.028 6.49c-3.82 0-4.79.91-5.095 4.67-.363 4.366-.85 10.25-3.82 19.044-.85 2.548-.91 3.215-.91 3.82 0 3.337 3.457 5.035 5.76 5.035 2.913 0 3.64-1.94 4.732-5.64 2.91-9.765 3.64-21.046 3.64-22.622 0-1.213-.122-1.94-.73-2.73-.908-1.09-2.79-1.577-3.577-1.577zm16.557.363c0-1.88-.242-4.488-4.912-4.488-4.185 0-4.55 2.608-4.55 4.488v31.053c0 1.94.122 5.337 3.397 6.793.91.424 2.123.728 9.462.728 7.763 0 10.674 0 12.797-4.125 1.515-3.033 1.94-8.43 1.94-11.95 0-1.757 0-5.396-4.792-5.396-1.334 0-3.214.485-3.88 2-.304.73-.304 1.275-.668 5.763-.304 4.367-.546 4.367-5.216 4.367-2.426 0-3.58 0-3.58-1.7V106.33zm17.286-7.642c0-2.365-.606-3.457-9.036-6.246-7.036-2.366-15.163-4.125-17.346-4.125-4.064 0-4.367 4.185-4.367 5.034 0 3.216 2.366 3.762 4.004 4.065 4.124.788 9.158 1.82 15.405 4.427 5.094 2.123 6.003 2.487 7.156 2.487 2.73 0 4.185-3.458 4.185-5.642zm3.215 6.126c-3.275 0-5.337 1.82-5.337 4.064 0 .97.06 1.152 1.94 6.792 2.366 7.096 2.973 10.857 4.186 18.56.363 2.304 1.09 4.487 4.488 4.487 1.576 0 5.76-.303 5.76-4.427 0-2.183-1.576-11.342-4.73-20.864-2.486-7.58-3.274-8.612-6.307-8.612zm60.468.364c3.396-3.154 9.28-8.673 9.28-11.887 0-2.365-2.67-4.366-5.217-4.366-1.455 0-2.365.667-3.153 1.577-.85.91-4.55 5.64-5.46 6.672.122-4.063-3.698-4.063-4.487-4.063h-6.793v-1.336c0-3.214-2.486-3.82-4.912-3.82-1.94 0-4.366.727-4.366 3.82v1.335H370.27c-.85 0-4.488 0-4.488 3.94 0 3.883 3.64 3.883 4.488 3.883h12.494v4.245h-16.92c-1.154 0-4.49.06-4.49 4.064 0 3.942 3.58 3.942 4.49 3.942h16.13c-5.214 2.547-9.278 4.124-15.282 6.065-2.123.666-4.913 1.697-4.913 4.73 0 2.85 2.243 5.337 4.548 5.337 1.455 0 4.185-1.153 4.973-1.517v8.734c0 6.61 3.276 8.066 8.128 8.066H404.9c5.035 0 8.068-1.637 8.068-8.066v-12.07c0-6.49-3.094-8.066-8.067-8.066H393.38c1.577-1.03 3.153-2.062 4.67-3.214h16.557c1.03 0 4.488 0 4.488-4.003 0-4.002-3.578-4.002-4.488-4.002h-6.732zM380.4 126.83v-2.244c0-.85.544-1.274 1.272-1.274h20.985c.667 0 1.274.364 1.274 1.274v2.244H380.4zm23.53 6.67v2.427c0 .85-.485 1.274-1.273 1.274h-20.985c-.667 0-1.273-.363-1.273-1.273V133.5h23.53zm-11.887-28.322v-4.245h6.793c.425 0 .728-.06 1.03-.06-2.304 2.182-3.456 3.092-5.033 4.305h-2.79zm50.582 4.245c-1.82 15.163-9.34 20.682-14.313 24.32-1.577 1.153-3.215 2.366-3.215 4.49 0 2.668 2.487 5.094 4.792 5.094 1.454 0 2.97-.91 3.456-1.213 2-1.213 3.82-2.79 4.912-3.76 11.827-10.857 13.586-24.867 14.07-28.93h10.676c1.82 0 2 1.09 2 2.85 0 .243-.18 10.553-1.15 16.92-.486 3.398-1.578 4.49-4.975 4.49-.85 0-4.853-.425-5.762-.425-2.912 0-4.367 1.515-4.367 4.487 0 5.276 3.76 5.52 10.797 5.52 6.914 0 11.16-1.335 13.1-8.795 1.516-5.762 2-20.378 2-24.32 0-4.974-.18-9.826-8.126-9.826h-13.463c.12-3.336.12-4.185.12-5.337 0-2.427 0-5.338-5.093-5.338-3.7 0-4.306 2-4.55 3.153-.18.728-.18 1.395-.302 7.52h-12.92c-1.454 0-4.972 0-4.972 4.55 0 4.548 3.578 4.548 4.973 4.548h12.312zm24.2-15.647c.12.424.727 2.486.91 2.972.424 1.273 1.152 1.516 1.94 1.516.182 0 2.305 0 2.305-2.123 0-1.09-.79-3.698-1.516-5.58-.728-1.757-1.274-2.485-2.366-2.485-.546 0-2.426.242-2.426 1.88 0 .364.122.728.243 1.152.182.485.788 2.244.91 2.67zm7.096-.364c1.214 4.063 1.335 4.427 2.79 4.427.182 0 2.366 0 2.366-2.123 0-1.153-.79-3.64-1.577-5.58-.668-1.638-1.153-2.487-2.366-2.487-.607 0-2.426.303-2.426 1.94 0 .244.06.73.182 1.093.12.364.85 2.244 1.03 2.73zm45.367 16.254c9.097-5.52 13.04-8.733 15.344-10.796 1.64-1.455 2.124-2.547 2.124-3.88 0-2.973-2.91-5.4-5.58-5.4-.606 0-1.577.122-3.154 1.396-8.127 6.853-10.068 8.552-17.103 12.312-10.13 5.458-17.892 7.642-23.047 9.158-1.88.546-3.64 1.152-3.64 4.064 0 1.758.91 5.52 4.732 5.52 3.154 0 12.312-3.337 20.014-6.915v24.26c0 3.457 1.94 4.67 5.216 4.67 4.427 0 5.095-2.487 5.095-4.73v-29.66zm43.936 5.095c6.368 2.245 12.373 5.4 18.195 8.856 2.062 1.273 3.336 1.88 4.852 1.88 3.275 0 5.095-3.397 5.095-6.005 0-2.425-1.153-3.577-5.095-5.578-2.79-1.395-12.07-6.005-23.047-9.34v-9.947c0-1.94-.242-5.034-5.216-5.034-5.034 0-5.155 3.337-5.155 5.035v44.396c0 1.94.182 5.035 5.216 5.035s5.155-3.276 5.155-5.034v-24.26zm14.495-17.406c.243.79.668 2.123.91 2.91.485 1.396 1.274 1.578 1.94 1.578.244 0 2.306-.06 2.306-2.122 0-.97-.607-3.336-1.456-5.58-.667-1.698-1.274-2.548-2.426-2.548-.424 0-2.365.182-2.365 1.94 0 .123 0 .608.182 1.154.12.363.787 2.183.908 2.668zm7.096-1.03c1.213 4.002 1.335 4.427 2.79 4.427.182 0 2.366 0 2.366-2.122 0-1.03-.607-3.154-1.517-5.52-.727-1.758-1.273-2.547-2.426-2.547-.545 0-2.365.305-2.365 1.942 0 .303 0 .728.12 1.092.123.364.91 2.244 1.032 2.73zM140.52 55.595h-11.567c-1.235 0-2.014-.65-2.014-2.08V42.208c0-3.444-1.43-4.808-5.265-4.808-4.42 0-4.55 3.314-4.55 4.808v14.037c0 6.823 3.12 8.642 8.644 8.642h39.313c5.46 0 8.708-1.754 8.708-8.642V42.208c0-3.574-1.56-4.808-5.263-4.808-4.42 0-4.614 3.25-4.614 4.808v11.307c0 1.235-.714 2.08-2.014 2.08H150.33v-19.82h12.412c5.393 0 8.642-1.754 8.642-8.642V13.486c0-3.184-1.234-4.808-5.263-4.808-4.55 0-4.614 3.38-4.614 4.808v10.982c0 1.365-.716 2.08-2.08 2.08h-9.098V9.523c0-3.444-1.494-4.81-5.263-4.81-4.42 0-4.55 3.315-4.55 4.81v17.025h-9.228c-1.69 0-2.014-1.17-2.014-2.015V13.486c0-3.184-1.17-4.808-5.2-4.808-4.612 0-4.612 3.51-4.612 4.808v13.647c0 6.953 3.314 8.642 8.642 8.642h12.412v19.82zm92.73-40.94c0-6.042-2.73-7.862-7.864-7.862h-29.76c-5.135 0-7.864 1.82-7.864 7.863v8.513c0 6.367 2.99 7.927 7.863 7.927h29.76c4.94 0 7.864-1.625 7.864-7.928v-8.514zm-9.488 6.434c0 1.104-.585 1.754-1.755 1.754H199.07c-1.106 0-1.756-.585-1.756-1.755v-4.094c0-1.105.585-1.755 1.755-1.755h22.937c1.105 0 1.755.586 1.755 1.756v4.093zm-15.79 21.638c0-6.108-2.795-7.927-7.864-7.927H189.45c-5.132 0-7.862 1.82-7.862 7.928v14.556c0 6.11 2.73 7.863 7.863 7.863h10.658c5.07 0 7.863-1.754 7.863-7.863V42.728zm-9.293 11.827c0 .845-.326 1.82-1.756 1.82h-4.354c-1.17 0-1.754-.715-1.754-1.82v-9.162c0-1.105.585-1.755 1.754-1.755h4.354c1.105 0 1.755.585 1.755 1.755v9.162zm40.612-11.827c0-5.978-2.6-7.927-7.862-7.927h-11.567c-5.134 0-7.928 1.82-7.928 7.928v14.556c0 6.11 2.794 7.863 7.928 7.863h11.567c5.263 0 7.862-1.884 7.862-7.863V42.728zm-9.227 11.827c0 .845-.325 1.82-1.755 1.82h-5.458c-1.17 0-1.755-.715-1.755-1.82v-9.162c0-1.105.585-1.755 1.755-1.755h5.458c1.105 0 1.755.585 1.755 1.755v9.162zM393.78 31.94h12.347c1.69 0 3.77-.324 3.77-3.313 0-3.184-2.535-3.25-3.77-3.25h-4.03V23.3h2.406c2.08 0 3.054-1.106 3.054-2.99 0-2.015-1.105-2.99-3.054-2.99h-2.405v-2.014h2.794c1.3 0 4.03-.195 4.03-3.51 0-3.443-3.185-3.443-4.03-3.443h-2.794c0-1.885 0-3.77-4.68-3.77-3.702 0-3.897 2.015-3.897 3.77h-7.537c0-2.015 0-3.77-4.55-3.77-3.703 0-3.703 2.275-3.703 3.77h-3.12c-1.17 0-3.963.13-3.963 3.51 0 3.443 3.12 3.443 3.964 3.443h3.12v2.014h-2.47c-2.73 0-2.99 1.56-2.99 3.185 0 2.6 1.886 2.794 2.99 2.794h2.47v2.078h-3.9c-.91 0-3.898 0-3.898 3.314 0 3.25 2.99 3.25 3.9 3.25h11.826v1.754h-5.004c-6.888 0-8.123 1.364-8.123 8.058v7.797c-1.168.066-3.313.13-3.313 3.446 0 3.25 2.275 3.314 3.314 3.314v6.303c0 1.95.52 4.03 4.225 4.03 4.094 0 4.094-2.73 4.094-4.095V56.31h17.74v1.364c0 .715-.39 1.04-.976 1.17-.454.065-2.6-.065-3.054-.065-1.3 0-4.16 0-4.16 3.703 0 3.9 2.926 3.9 7.084 3.9 8.123 0 9.423-1.17 9.423-8.124v-1.95c1.3 0 3.314-.065 3.314-3.38 0-3.314-2.078-3.314-3.313-3.38v-7.796c0-6.888-1.43-8.058-8.123-8.058h-5.003V31.94zm-12.93 9.814v-1.17c0-.78.454-1.235 1.234-1.235h3.574v2.404h-4.81zm4.808 7.797h-4.81v-2.468h4.81v2.47zm8.123-10.2h3.575c.844 0 1.234.454 1.234 1.234v1.17h-4.81V39.35zm4.81 10.2h-4.81v-2.468h4.81v2.47zm-5.07-31.905h-7.537v-2.34h7.538v2.34zm0 7.733h-7.537v-2.47h7.538v2.47zM361.356 50.72c.52 0 1.56 0 2.34-.064-2.34.585-3.055 1.755-3.055 3.12 0 .714.195 1.494.39 2.014.26.78 2.014 4.548 2.34 5.458.714 1.82 1.364 3.51 3.703 3.51 1.04 0 4.16-.716 4.16-3.51 0-1.494-1.756-5.068-2.665-7.018-1.43-2.99-1.885-3.574-3.574-3.77 4.418-.65 4.418-4.223 4.418-7.797V14.266c0-6.823-1.364-8.058-8.057-8.058h-3.185c-6.823 0-8.057 1.3-8.057 8.058v28.397c0 4.224.195 7.148 4.613 7.863-1.95.195-2.6 1.235-3.12 2.664-.91 2.73-1.233 3.444-2.013 5.2-.91 2.143-1.365 2.988-1.365 4.158 0 2.924 3.25 3.64 4.224 3.64 2.404 0 3.12-1.496 4.29-4.16 1.103-2.6 2.403-5.653 2.403-7.993 0-2.6-2.014-3.12-2.924-3.38.716 0 .91.066 1.95.066h3.185zm1.104-20.143h-4.29v-4.55h4.29v4.55zm-4.29-14.426c0-.714.39-1.104 1.105-1.104h2.08c.844 0 1.104.455 1.104 1.105v3.315h-4.29V16.15zm4.29 21.445v3.444c0 .714-.326 1.104-1.105 1.104h-2.08c-.715 0-1.105-.39-1.105-1.105v-3.445h4.29zM436.733 16.8c1.494 0 2.34.196 2.34 1.885 0 .39-.39 5.783-1.886 11.112-4.483 15.986-16.57 23.07-20.21 25.213-1.948 1.105-3.443 2.144-3.443 4.614 0 3.444 2.664 6.238 5.718 6.238 3.38 0 10.268-5.46 13.777-9.098 7.927-8.122 10.462-16.83 11.566-20.404 2.015 6.628 5.004 12.932 9.423 18.325 2.923 3.574 10.59 11.177 15.075 11.177 3.12 0 5.718-3.054 5.718-6.238 0-1.235-.39-2.47-1.3-3.314-.65-.585-4.353-2.795-5.133-3.38-10.007-7.342-17.09-18.39-18.26-35.87-.39-5.783-.715-10.267-8.968-10.267h-13.71c-3.055 0-5.134 1.17-5.134 5.2 0 4.743 3.898 4.808 5.133 4.808h9.294z"/></g><path d="M24.263 114.654c-7.278 9.704-14.01 13.646-18.62 16.254-4.61 2.608-5.276 2.972-5.276 5.034 0 2.426 2.304 5.397 5.094 5.397 1.7 0 3.64-.91 5.824-2.245 11.1-6.853 17.71-15.162 20.317-18.498 2.67 2.426 3.155 2.91 9.038 8.976 1.577 1.7 2.91 2.123 4.124 2.123 2.972 0 5.58-2.91 5.58-5.944 0-.85-.12-1.88-1.76-3.64-2.667-2.85-5.76-5.7-11.22-10.006 4.49-7.642 8.553-17.83 8.553-20.135 0-3.214-3.64-4.306-5.823-4.306-3.032 0-3.76 1.88-4.61 4.367-2.425 6.915-3.395 9.705-5.882 14.254-2-1.395-7.157-4.913-12.19-8.067-2.73-1.758-4.367-2.547-5.944-2.547-2.67 0-4.73 2.79-4.73 5.034 0 2.002 1.333 2.972 3.395 4.246 4.43 2.73 10.13 6.732 14.133 9.704zM77.27 93.487c0-3.215-1.758-4.428-4.973-4.428-4.124 0-4.79 2.304-4.79 4.427v12.736c0 16.012-.97 18.923-6.733 25.534-1.577 1.82-1.82 2.79-1.82 3.76 0 3.215 3.215 5.216 5.702 5.216 1.03 0 2.486 0 5.64-4.003 6.368-8.188 6.975-16.982 6.975-30.082v-13.16zm6.49 41c0 1.394 0 5.82 5.7 5.82 4.55 0 14.436-3.698 20.5-12.796 2.488-3.698 5.096-9.824 5.096-12.796 0-3.76-4.307-4.306-5.398-4.306-2.85 0-3.457 1.698-4.428 4.73-2.79 8.613-8.733 13.404-11.1 13.404-.666 0-.666-.667-.666-1.455V92.76c0-3.276-1.88-4.368-4.912-4.368-3.882 0-4.792 2.002-4.792 4.367v41.726zm55.616-27.293c-1.76 15.162-9.34 20.742-14.313 24.38-1.577 1.153-3.215 2.366-3.215 4.49 0 2.668 2.487 5.094 4.792 5.094 1.455 0 2.972-.91 3.457-1.213 2-1.213 3.82-2.79 4.912-3.76 11.644-10.736 13.524-24.443 14.07-28.99h10.675c1.82 0 2 1.03 2 2.85 0 .242-.18 10.613-1.15 16.98-.487 3.397-1.578 4.49-4.975 4.49-.85 0-4.852-.425-5.76-.425-2.913 0-4.368 1.516-4.368 4.488 0 5.276 3.76 5.52 10.795 5.52 6.915 0 11.16-1.335 13.1-8.795 1.456-5.7 2.002-20.197 2.002-24.32 0-4.974-.183-9.948-8.128-9.948h-13.464c.12-2.668.12-4.973.12-5.276 0-2.366 0-5.278-5.093-5.278-3.7 0-4.306 2.002-4.55 3.154-.18.728-.18.97-.302 7.4h-12.92c-1.454 0-4.972.06-4.972 4.61 0 4.548 3.58 4.548 4.974 4.548h12.312zm58.83-13.465c0-3.518-1.94-4.67-5.155-4.67-4.305 0-5.033 2.365-5.033 4.67v24.926c0 3.518 2.002 4.61 5.156 4.61 4.184 0 5.033-2.244 5.033-4.61V93.73zm30.325-.79c0-3.638-2.243-4.67-5.214-4.67-3.882 0-5.095 1.942-5.095 4.67v22.26c0 3.942-.484 7.46-3.638 10.613-2.487 2.487-6.186 4.67-16.194 5.64-3.396.304-6.065.607-6.065 4.49 0 1.09.243 2.546 1.274 3.698 1.274 1.518 2.972 1.518 4.064 1.518 3.822 0 11.827-.91 19.166-4.73 11.705-6.066 11.705-17.59 11.705-21.593V92.94zm28.69-2.79c0-1.394-.123-4.487-4.307-4.487-3.58 0-4.913 1.274-4.913 4.488v4.186h-3.457c-1.03 0-4.488 0-4.488 4.124 0 3.336 1.577 4.488 4.488 4.488h7.884c.182 0 .97 0 .97.79 0 .787-3.456 5.882-8.672 10.066-4.913 3.943-5.398 4.367-5.398 6.49 0 2.305 1.76 5.398 4.55 5.398 1.515 0 2.425-.607 4.123-2.002v15.466c0 1.395.12 4.428 4.306 4.428 3.518 0 4.913-1.213 4.913-4.428V121.69c1.454 1.818 3.274 4.062 5.275 4.062 2.548 0 3.943-2.547 3.943-4.67 0-1.82-.79-2.486-3.457-4.427-.91-.667-2.97-2.183-4.85-3.942 5.093-7.157 5.578-10.796 5.578-13.16 0-5.217-3.153-5.217-6.49-5.217V90.15zm12.735 18.62c-.06-2.547-3.093-3.153-3.82-3.153-1.517 0-1.88.606-3.458 3.396-1.455 2.547-1.637 2.85-1.637 3.76 0 2.123 2.668 3.094 3.82 3.094 1.214 0 1.82-.668 2.972-2.426.425-.667 2.123-3.214 2.123-4.67zm2.366-11.462c-.12 13.707-1.152 25.594-7.823 33.66-4.428 5.398-4.792 5.823-4.792 7.642 0 2.548 2.487 4.73 5.156 4.73 1.82 0 3.154-1.03 4.55-2.486 9.28-10.068 11.644-23.23 11.947-43.546h3.943c1.516 0 1.94.364 1.94 2.122 0 8.006-.242 20.864-1.334 29.598-.546 4.427-1.76 5.094-3.396 5.094-.425 0-2.548-.12-2.972-.12-.97 0-4.55 0-4.55 4.487 0 3.274 2.063 4.366 3.034 4.548.97.242 4.306.364 5.64.364 6.126 0 9.704-.79 10.856-7.582 1.03-6.368 1.82-20.378 1.82-36.33 0-5.82-.06-7.762-1.82-9.52-1.698-1.7-4.124-1.7-6.307-1.7h-20.196c-3.093 0-4.427 1.275-4.427 4.792 0 4.124 3.154 4.246 4.427 4.246h4.307zm38.028 6.49c-3.82 0-4.79.91-5.095 4.67-.363 4.366-.85 10.25-3.82 19.043-.85 2.55-.91 3.216-.91 3.822 0 3.336 3.457 5.034 5.76 5.034 2.913 0 3.64-1.94 4.732-5.64 2.91-9.765 3.64-21.046 3.64-22.623 0-1.213-.122-1.94-.73-2.73-.908-1.09-2.79-1.576-3.577-1.576zm16.557.363c0-1.88-.242-4.487-4.912-4.487-4.185 0-4.55 2.608-4.55 4.488v31.054c0 1.94.122 5.337 3.397 6.793.91.424 2.123.727 9.462.727 7.763 0 10.674 0 12.797-4.124 1.515-3.032 1.94-8.43 1.94-11.948 0-1.76 0-5.398-4.792-5.398-1.334 0-3.214.486-3.88 2.002-.304.728-.304 1.273-.668 5.762-.304 4.366-.546 4.366-5.216 4.366-2.426 0-3.58 0-3.58-1.698V104.16zm17.286-7.64c0-2.366-.606-3.458-9.036-6.248-7.036-2.365-15.163-4.124-17.346-4.124-4.064 0-4.367 4.185-4.367 5.034 0 3.215 2.366 3.76 4.004 4.064 4.124.788 9.158 1.82 15.405 4.427 5.094 2.123 6.003 2.487 7.156 2.487 2.73 0 4.185-3.457 4.185-5.64zm3.215 6.125c-3.275 0-5.337 1.82-5.337 4.063 0 .97.06 1.153 1.94 6.793 2.366 7.097 2.973 10.858 4.186 18.56.363 2.305 1.09 4.488 4.488 4.488 1.576 0 5.76-.303 5.76-4.427 0-2.183-1.576-11.34-4.73-20.863-2.486-7.58-3.274-8.612-6.307-8.612zm60.468.364c3.396-3.155 9.28-8.674 9.28-11.89 0-2.364-2.67-4.365-5.217-4.365-1.455 0-2.365.667-3.153 1.577-.85.91-4.55 5.64-5.46 6.67.122-4.063-3.698-4.063-4.487-4.063h-6.793v-1.335c0-3.214-2.486-3.82-4.912-3.82-1.94 0-4.366.727-4.366 3.82v1.334H370.27c-.85 0-4.488 0-4.488 3.942 0 3.88 3.64 3.88 4.488 3.88h12.494v4.247h-16.92c-1.154 0-4.49.06-4.49 4.062 0 3.943 3.58 3.943 4.49 3.943h16.13c-5.214 2.547-9.278 4.124-15.282 6.065-2.123.667-4.913 1.698-4.913 4.73 0 2.85 2.243 5.337 4.548 5.337 1.455 0 4.185-1.152 4.973-1.516v8.735c0 6.61 3.276 8.066 8.128 8.066H404.9c5.035 0 8.068-1.636 8.068-8.065v-12.07c0-6.49-3.094-8.066-8.067-8.066H393.38c1.577-1.032 3.153-2.063 4.67-3.215h16.557c1.03 0 4.488 0 4.488-4.003s-3.578-4.003-4.488-4.003h-6.732zM380.4 124.66v-2.243c0-.85.544-1.274 1.272-1.274h20.985c.667 0 1.274.364 1.274 1.274v2.244H380.4zm23.53 6.672v2.426c0 .85-.485 1.274-1.273 1.274h-20.985c-.667 0-1.273-.364-1.273-1.274v-2.426h23.53zm-11.887-28.323v-4.247h6.793c.425 0 .728-.06 1.03-.06-2.304 2.183-3.456 3.093-5.033 4.306h-2.79zm50.582 4.244c-1.82 15.163-9.34 20.682-14.313 24.32-1.577 1.153-3.215 2.366-3.215 4.49 0 2.668 2.487 5.094 4.792 5.094 1.454 0 2.97-.91 3.456-1.213 2-1.213 3.82-2.79 4.912-3.76 11.827-10.857 13.586-24.867 14.07-28.93h10.676c1.82 0 2 1.09 2 2.85 0 .242-.18 10.553-1.15 16.92-.486 3.397-1.578 4.49-4.975 4.49-.85 0-4.853-.425-5.762-.425-2.912 0-4.367 1.516-4.367 4.488 0 5.276 3.76 5.52 10.797 5.52 6.914 0 11.16-1.335 13.1-8.795 1.516-5.762 2-20.38 2-24.32 0-4.974-.18-9.826-8.126-9.826h-13.463c.12-3.336.12-4.185.12-5.337 0-2.426 0-5.338-5.093-5.338-3.7 0-4.306 2.002-4.55 3.154-.18.728-.18 1.395-.302 7.52h-12.92c-1.454 0-4.972 0-4.972 4.55 0 4.548 3.578 4.548 4.973 4.548h12.312zm24.2-15.647c.12.424.727 2.486.91 2.97.424 1.275 1.152 1.518 1.94 1.518.182 0 2.305 0 2.305-2.123 0-1.092-.79-3.7-1.516-5.58-.728-1.76-1.274-2.486-2.366-2.486-.546 0-2.426.242-2.426 1.88 0 .364.122.727.243 1.152.182.485.788 2.244.91 2.67zm7.096-.364c1.214 4.063 1.335 4.427 2.79 4.427.182 0 2.366 0 2.366-2.123 0-1.152-.79-3.64-1.577-5.58-.668-1.637-1.153-2.486-2.366-2.486-.607 0-2.426.304-2.426 1.942 0 .242.06.728.182 1.09.12.365.85 2.246 1.03 2.73zm45.367 16.254c9.097-5.52 13.04-8.734 15.344-10.796 1.64-1.454 2.124-2.546 2.124-3.88 0-2.972-2.91-5.398-5.58-5.398-.606 0-1.577.12-3.154 1.395-8.127 6.853-10.068 8.55-17.103 12.312-10.13 5.457-17.892 7.64-23.047 9.157-1.88.546-3.64 1.152-3.64 4.063 0 1.76.91 5.52 4.732 5.52 3.154 0 12.312-3.336 20.014-6.915v24.26c0 3.457 1.94 4.67 5.216 4.67 4.427 0 5.095-2.486 5.095-4.73v-29.658zm43.936 5.094c6.368 2.245 12.373 5.4 18.195 8.856 2.062 1.274 3.336 1.88 4.852 1.88 3.275 0 5.095-3.396 5.095-6.004 0-2.426-1.153-3.578-5.095-5.58-2.79-1.395-12.07-6.004-23.047-9.34v-9.946c0-1.94-.242-5.034-5.216-5.034-5.034 0-5.155 3.336-5.155 5.034v44.395c0 1.942.182 5.035 5.216 5.035s5.155-3.275 5.155-5.034v-24.26zm14.495-17.405c.243.788.668 2.123.91 2.91.485 1.396 1.274 1.578 1.94 1.578.244 0 2.306-.06 2.306-2.123 0-.97-.607-3.335-1.456-5.58-.667-1.698-1.274-2.547-2.426-2.547-.424 0-2.365.182-2.365 1.94 0 .122 0 .608.182 1.153.12.364.787 2.184.908 2.67zm7.096-1.03c1.213 4.002 1.335 4.426 2.79 4.426.182 0 2.366 0 2.366-2.12 0-1.032-.607-3.155-1.517-5.52-.727-1.76-1.273-2.548-2.426-2.548-.545 0-2.365.303-2.365 1.94 0 .304 0 .73.12 1.093.123.364.91 2.244 1.032 2.73zM141.603 53.426h-11.567c-1.235 0-2.014-.65-2.014-2.08V40.04c0-3.445-1.43-4.81-5.264-4.81-4.42 0-4.55 3.315-4.55 4.81v14.035c0 6.823 3.12 8.643 8.644 8.643h39.314c5.46 0 8.708-1.755 8.708-8.643V40.04c0-3.575-1.56-4.81-5.264-4.81-4.42 0-4.614 3.25-4.614 4.81v11.306c0 1.235-.714 2.08-2.014 2.08h-11.567v-19.82h12.412c5.393 0 8.642-1.754 8.642-8.643V11.317c0-3.184-1.235-4.808-5.264-4.808-4.55 0-4.614 3.378-4.614 4.807V22.3c0 1.364-.715 2.08-2.08 2.08h-9.097V7.352c0-3.444-1.494-4.808-5.263-4.808-4.42 0-4.55 3.314-4.55 4.808V24.38h-9.227c-1.69 0-2.014-1.17-2.014-2.016V11.317c0-3.184-1.17-4.808-5.198-4.808-4.613 0-4.613 3.508-4.613 4.807v13.646c0 6.954 3.313 8.643 8.64 8.643h12.413v19.82zm92.73-40.94c0-6.042-2.73-7.862-7.864-7.862h-29.762c-5.134 0-7.863 1.82-7.863 7.863V21c0 6.368 2.99 7.927 7.863 7.927h29.76c4.94 0 7.864-1.624 7.864-7.927v-8.513zm-9.488 6.434c0 1.105-.585 1.755-1.755 1.755h-22.938c-1.105 0-1.755-.585-1.755-1.755v-4.094c0-1.104.585-1.754 1.755-1.754h22.938c1.105 0 1.755.585 1.755 1.754v4.094zm-15.79 21.64c0-6.11-2.795-7.93-7.864-7.93h-10.656c-5.133 0-7.863 1.82-7.863 7.93v14.555c0 6.108 2.73 7.863 7.864 7.863h10.657c5.07 0 7.864-1.755 7.864-7.863V40.56zm-9.293 11.826c0 .845-.325 1.82-1.755 1.82h-4.354c-1.17 0-1.754-.715-1.754-1.82v-9.163c0-1.104.584-1.754 1.753-1.754h4.354c1.105 0 1.755.584 1.755 1.753v9.163zm40.613-11.827c0-5.98-2.6-7.93-7.862-7.93h-11.567c-5.134 0-7.928 1.82-7.928 7.93v14.555c0 6.108 2.794 7.863 7.928 7.863h11.567c5.263 0 7.862-1.885 7.862-7.863V40.56zm-9.227 11.826c0 .845-.325 1.82-1.754 1.82h-5.46c-1.17 0-1.753-.715-1.753-1.82v-9.163c0-1.104.585-1.754 1.755-1.754h5.46c1.103 0 1.753.584 1.753 1.753v9.163zm163.716-22.614h12.346c1.69 0 3.77-.325 3.77-3.314 0-3.184-2.535-3.25-3.77-3.25h-4.03V21.13h2.406c2.08 0 3.054-1.105 3.054-2.99 0-2.014-1.105-2.99-3.054-2.99h-2.405v-2.013h2.795c1.3 0 4.03-.195 4.03-3.51 0-3.443-3.185-3.443-4.03-3.443h-2.794c0-1.885 0-3.77-4.677-3.77-3.704 0-3.9 2.015-3.9 3.77h-7.537c0-2.015 0-3.77-4.55-3.77-3.703 0-3.703 2.275-3.703 3.77h-3.12c-1.17 0-3.963.13-3.963 3.51 0 3.443 3.12 3.443 3.964 3.443h3.12v2.014h-2.47c-2.73 0-2.99 1.56-2.99 3.185 0 2.6 1.885 2.795 2.99 2.795h2.47v2.08h-3.9c-.91 0-3.9 0-3.9 3.313 0 3.25 2.99 3.25 3.9 3.25h11.827v1.754h-5.003c-6.888 0-8.123 1.364-8.123 8.057v7.798c-1.17.065-3.314.13-3.314 3.444 0 3.25 2.275 3.314 3.314 3.314v6.304c0 1.95.52 4.028 4.224 4.028 4.094 0 4.094-2.73 4.094-4.093v-6.24h17.74v1.365c0 .715-.39 1.04-.975 1.17-.454.065-2.6-.065-3.054-.065-1.3 0-4.16 0-4.16 3.704 0 3.9 2.926 3.9 7.085 3.9 8.122 0 9.422-1.17 9.422-8.124v-1.95c1.3 0 3.314-.065 3.314-3.38 0-3.313-2.08-3.313-3.314-3.378v-7.798c0-6.888-1.43-8.057-8.123-8.057h-5.003v-1.755zm-12.932 9.812v-1.17c0-.78.455-1.234 1.235-1.234h3.574v2.404h-4.808zm4.81 7.798h-4.81v-2.47h4.81v2.47zm8.122-10.202h3.574c.844 0 1.234.455 1.234 1.235v1.17h-4.808V37.18zm4.808 10.202h-4.808v-2.47h4.808v2.47zm-5.068-31.906h-7.538v-2.34h7.538v2.34zm0 7.733h-7.538v-2.47h7.538v2.47zM362.438 48.55c.52 0 1.56 0 2.34-.065-2.34.585-3.055 1.754-3.055 3.12 0 .714.195 1.494.39 2.013.26.78 2.014 4.55 2.34 5.46.714 1.818 1.364 3.508 3.703 3.508 1.04 0 4.16-.715 4.16-3.51 0-1.494-1.756-5.068-2.665-7.017-1.43-2.988-1.884-3.573-3.573-3.768 4.418-.65 4.418-4.224 4.418-7.798V12.097c0-6.823-1.364-8.058-8.057-8.058h-3.185c-6.823 0-8.057 1.3-8.057 8.057v28.397c0 4.224.195 7.148 4.613 7.863-1.95.195-2.6 1.235-3.12 2.664-.91 2.73-1.234 3.445-2.014 5.2-.91 2.144-1.365 2.99-1.365 4.16 0 2.923 3.25 3.638 4.225 3.638 2.404 0 3.12-1.495 4.29-4.16 1.104-2.6 2.403-5.653 2.403-7.992 0-2.6-2.014-3.12-2.924-3.38.715 0 .91.066 1.95.066h3.184zm1.104-20.145h-4.29V23.86h4.29v4.547zm-4.29-14.425c0-.715.39-1.105 1.106-1.105h2.08c.844 0 1.104.455 1.104 1.105v3.314h-4.29v-3.314zm4.29 21.444v3.444c0 .714-.325 1.104-1.104 1.104h-2.08c-.715 0-1.105-.39-1.105-1.104v-3.444h4.29zm74.275-20.795c1.494 0 2.34.196 2.34 1.886 0 .39-.39 5.783-1.886 11.112-4.482 15.985-16.57 23.068-20.208 25.213-1.95 1.105-3.444 2.145-3.444 4.614 0 3.444 2.664 6.24 5.718 6.24 3.38 0 10.268-5.46 13.777-9.1 7.927-8.122 10.462-16.83 11.566-20.403 2.014 6.63 5.003 12.932 9.422 18.326 2.924 3.574 10.592 11.177 15.076 11.177 3.12 0 5.718-3.054 5.718-6.24 0-1.233-.39-2.468-1.3-3.313-.65-.584-4.353-2.794-5.133-3.38-10.007-7.342-17.09-18.39-18.26-35.87-.39-5.782-.715-10.266-8.968-10.266h-13.71c-3.055 0-5.134 1.17-5.134 5.2 0 4.742 3.9 4.807 5.134 4.807h9.293z" fill="#FFF"/></g></svg>