<svg width="184" height="97" viewBox="0 0 184 97" xmlns="http://www.w3.org/2000/svg"><title>img</title><g fill="none" fill-rule="evenodd"><path d="M93.21 57.633c-1.445 0-2.616-1.158-2.616-2.586 0-1.43 1.17-2.586 2.615-2.586 1.442 0 2.613 1.158 2.613 2.587 0 1.428-1.17 2.586-2.614 2.586zm-.332 10.212c-.407.485-1.134.55-1.623.147l-5.482-4.514-5.227 4.498c-.48.413-1.208.363-1.626-.112-.418-.475-.367-1.195.113-1.608L85 61.12c.217-.185.487-.28.756-.28.262 0 .524.09.738.265l6.235 5.134c.49.402.555 1.12.148 1.605zm-16.92-12.798c0-1.43 1.17-2.586 2.615-2.586 1.444 0 2.614 1.158 2.614 2.587 0 1.428-1.17 2.586-2.614 2.586s-2.615-1.158-2.615-2.586zM96.88 77.93c-.603-1.054-.3-2.385.695-3.09 5.385-3.815 8.782-10.178 8.352-17.33-.59-9.832-8.596-17.854-18.528-18.572-11.77-.85-21.582 8.35-21.582 19.81 0 6.654 3.312 12.5 8.393 16.092.996.703 1.293 2.034.69 3.087l-8.396 14.66c-.904 1.577.25 3.533 2.08 3.533h34.612c1.833 0 2.985-1.956 2.08-3.534L96.882 77.93z" fill="#2BB570"/><path d="M95.178 29.115c-.732 1.877-2.82 2.79-4.712 2.06-1.856-.714-2.78-2.785-2.048-4.662.73-1.875 2.804-2.754 4.662-2.04 1.858.715 2.83 2.768 2.098 4.642m-1.13-6.706c-2.525-.973-2.692-2.195-1.906-4.21.432-1.108 1.596-4.096 5.395-5.15 3.48-.978 4.77-1.28 5.31-2.67.568-1.458-.403-2.79-2.327-3.532-3.365-1.294-4.49.867-5.013 1.905-.718 1.32-2.776.81-3.72.446-.912-.352-3.015-1.362-2.18-3.517 1.006-2.57 5.486-7.034 13.266-4.04 5.953 2.29 7.755 7.18 6.238 11.07-1.137 2.917-2.854 3.492-7.432 5.005-1.947.65-2.926.99-3.643 2.83-.406 1.044-1.153 2.953-3.988 1.86M48.107 71.964c1.092 1.27.946 3.16-.327 4.264-1.25 1.084-3.13.954-4.223-.316-1.09-1.27-.927-3.135.323-4.22s3.137-.997 4.227.272m-5.365-1.788c-1.7 1.474-2.662 1.12-3.834-.244-.646-.75-2.385-2.772-1.676-5.972.64-2.938.923-4 .114-4.94-.85-.988-2.208-.795-3.503.33-2.264 1.964-1.116 3.633-.558 4.423.69 1.043-.49 2.354-1.125 2.906-.614.53-2.176 1.68-3.432.225-1.495-1.74-3.024-6.773 2.212-11.316 4.006-3.478 8.3-2.893 10.563-.26 1.698 1.974 1.45 3.46.774 7.412-.284 1.683-.415 2.535.655 3.78.608.705 1.72 2-.19 3.654M123.857 78.71c-1.112 1.11-2.79 1.13-3.785.048-.977-1.062-.886-2.807.225-3.917 1.11-1.108 2.767-1.11 3.745-.047.98 1.063.926 2.81-.185 3.918m1.515-5.09c-1.33-1.444-1.027-2.36.166-3.553.657-.656 2.426-2.424 5.273-2.032 2.614.35 3.56.523 4.383-.3.863-.862.675-2.098-.338-3.2-1.772-1.926-3.237-.73-3.93-.153-.916.72-2.093-.26-2.59-.8-.48-.52-1.52-1.867-.246-3.143 1.523-1.52 5.964-3.34 10.06 1.113 3.135 3.406 2.672 7.41.368 9.712-1.73 1.726-3.05 1.62-6.56 1.32-1.497-.125-2.254-.176-3.344.912-.618.618-1.75 1.747-3.242.124" fill="#FACA00"/><g opacity=".7" transform="translate(3.554 2.906)" fill="#FF6A6A"><ellipse cx="2.458" cy="20.442" rx="2.458" ry="2.453"/><ellipse cx="18.843" cy="13.9" rx="2.458" ry="2.453"/><ellipse cx="36.867" cy="8.013" rx="2.458" ry="2.453"/><ellipse cx="53.252" cy="2.453" rx="2.458" ry="2.453"/></g><path d="M3.362 35.04c-1.728.596-1.333 1.905-1.108 2.56l.532 1.543c.12.353.408 1.023 1.33.705.74-.254 1.005-.627.74-1.4l-.394-1.14c-.127-.37-.028-.628.374-.767l9.666-3.327c.386-.132.634-.01.767.374l.386 1.125c.12.352.39 1.03 1.33.705.756-.26 1.005-.627.734-1.416l-.532-1.543c-.237-.688-.737-1.923-2.45-1.334l-.754.26c.022-.045.477-1.722.315-2.192-.157-.452-.617-.48-.808-.49 1.116-.628 1.43-.81 1.186-1.516-.173-.503-.627-.948-1.248-.734-.42.144-2.1 1.098-2.45 1.276-3.967 1.89-6.937 2.913-9.538 3.81-.352.12-1.023.35-.717 1.24.323.94.91.738 1.755.466-.01.08-.004.152.03.252.053.15.104.19.55.618.12.128.648.678.74.778l-.438.15zM5.6 37.61c-.253.088-.89.308-.59 1.18.295.856.85.72 1.202.6l1.006-.347c-.384.302-.61.736-.454 1.19.07.2.19.384.584.605.846.44 1.618.72 2.31.93-1.258 1.035-2.848 1.977-3.916 2.42-.626.253-1.313.546-.99 1.485.04.118.41 1.192 1.485.822.654-.225 3.875-1.935 6.054-4.112.63.084 1.974.278 3.908.12 1.554-.123 2.88-.41 3.384-.585 1.058-.364.67-1.488.636-1.59-.23-.67-.732-.76-1.258-.654-2.392.523-3.18.682-4.91.62.293-.4 2.202-3.14 1.682-4.65-.468-1.36-1.844-.887-2.246-.748L5.6 37.61zm4.525-4.898c.044-.09.07-.175.02-.326-.157-.453-.904-1.096-1.402-1.507 1.347-.558 1.816-.776 3.308-1.46-.037.108-.13.872-.157 1.07-.04.37-.14 1.117-.308 1.72l-1.46.502zM5.88 34.174c-.037-.325-.315-.586-.564-.82-.29-.294-.59-.566-.928-.787 1.666-.612 1.85-.675 2.426-.91.037.324.337.596.83 1.046.108.094.516.573.618.65l-2.383.82zm6.574 3.067c.453-.155.637-.22.707-.017.087.25-.557 1.543-1.606 2.75-.91-.25-1.796-.584-2.686-.935-.518-.197-.68-.234-.945-.237l4.53-1.56zM26.5 23.36c-.253.086-.504.23-.664.472-.302-.985-.834-.895-1.254-.75l-6.644 2.287c-.688.237-.784.777-.605 1.297.324.94 1.062.685 1.48.54l3.272 9.498c-.525.275-1.15.584-.856 1.44.062.185.42 1.057 1.308.75.403-.138 2.763-1.514 4.375-2.613l.647 1.878c.265.772.688.908 1.392.665.923-.317.663-1.072.57-1.34l-4.298-12.485c.42-.145.49-.263.58-.387.157.51.46 1.006 1.365.694l3.422-1.178c.353-.122.65-.186.817.3.11.32.275 1.238.33 1.613.368 2.162.198 3.685.094 4.47-1.458-1.505-2.39-3.23-2.91-4.252-.2-.42-.49-.882-1.28-.61-.15.052-1.04.358-.728 1.264.098.285.83 1.76 1.884 3.236 1.086 1.522 2.015 2.366 2.434 2.766-.152.428-.404 1.115-1.382 2.634-.343.53-.553.904-.402 1.34.213.62.896 1.024 1.534.804.235-.08.43-.223.745-.726.63-1.005 1.074-1.946 1.342-2.64.882.598 1.508.946 2.1 1.192 1.15.505 1.38.408 1.614.327.72-.25.977-1.088.78-1.658-.16-.47-.533-.623-.86-.755-1.83-.683-2.067-.77-2.982-1.357.907-4.18-.32-8.45-.51-9.002-.607-1.762-1.446-1.53-2.755-1.08L26.5 23.36zm-1.38 7.72l-2.465.848-.636-1.845 2.466-.85.635 1.847zm-1.23-3.575l-2.466.85-.63-1.83 2.467-.85.63 1.83zm-.634 6.168l2.466-.848.555 1.61c-.753.43-1.585.903-2.31 1.303l-.71-2.064zm12.312-14.28c-.335.116-.855.35-.59 1.123.284.822.922.603 1.157.522l3.708-1.277c.352-.122.872-.357.606-1.13-.284-.82-.922-.6-1.173-.515l-3.71 1.277zm11.382-1.723l2.534-.872c.72-.25.92-.655.665-1.393-.32-.923-1.09-.657-1.342-.57l-6.997 2.41c-.268.09-1.04.357-.7 1.347.336.972 1.142.695 1.377.614l2.35-.81L46.8 24.1l-2.7.93c-.79.272-.904.705-.65 1.444.313.906.984.73 1.353.604l2.702-.93 1.577 4.58c.243.705.627.948 1.466.66.99-.34.74-1.12.65-1.388l-1.58-4.58 2.77-.954c.79-.27.896-.72.648-1.443-.318-.923-1.017-.72-1.353-.604l-2.77.952-1.963-5.705zm-11.025 4.285c-.353.12-.872.356-.583 1.195.3.873.938.653 1.19.566l4.664-1.606c.588-.202.81-.54.572-1.23-.29-.838-.943-.613-1.178-.532l-4.665 1.607zm6.754-2.026c-.236.08-.895.458-.687 1.062.064.185.195.346.33.524.53.663.854 1.114 1.212 1.61.632.91.798 1.17 1.368.975.1-.035 1.024-.353.74-1.175-.075-.218-.132-.386-1.348-1.9-.818-1.014-1.03-1.298-1.616-1.096zm1.534 9.42c-.497-1.444-.91-1.66-2.368-1.156l-1.98.682c-1.46.503-1.63.936-1.14 2.363l.596 1.728c.497 1.443.926 1.652 2.352 1.16l1.98-.68c1.46-.503 1.652-.926 1.155-2.37l-.596-1.728zM42.92 31.31c.087.253.02.444-.264.543l-.94.323c-.285.098-.454-.012-.54-.264l-.382-1.107c-.087-.252-.02-.444.264-.542l.94-.323c.285-.1.454.012.54.264l.382 1.107zm-5.648-7.026c-.32.11-.877.34-.594 1.162.294.856.932.636 1.184.55l3.69-1.27c.337-.117.873-.358.596-1.163-.295-.856-.932-.637-1.184-.55l-3.692 1.27zm.855 2.484c-.318.11-.877.34-.594 1.162.29.84.926.62 1.178.532l3.693-1.27c.285-.1.89-.307.594-1.163-.29-.84-.926-.62-1.178-.533l-3.693 1.27zm12.263-4.56c.67-.232.663-.53.674-1.697 0-.655-.027-2.092-.183-2.545-.172-.503-.795-.57-1.25-.414-.468.163-.59.467-.592.73.002.225.064 1.386.06 1.65.004 1.37 0 1.633.058 1.8.226.656 1.033.547 1.234.477zm6.49-10.155c-.253.086-.767.282-.756.86-.047-.19-.27-1.11-1.427-.71-.772.266-.716.81-.696 1.085.244 2.506.34 3.768-.374 6.435-.108.394-.14.63-.012 1 .26.754.97 1.073 1.507.888.404-.138.54-.448.6-.6l2.307 6.695c.092.27.375 1.035 1.365.694.99-.342.712-1.148.63-1.383l-3.656-10.62c.004-1.298-.097-2.408-.194-3.125.186.593.488 1.033 1.377.727l2.264-.78.74 2.147-1.04.358c-1.343.462-1.718 1.173-1.226 2.6l2.403 6.98c.504 1.46 1.27 1.72 2.562 1.277l6.712-2.312c1.342-.462 1.745-1.145 1.248-2.588l-2.403-6.98c-.51-1.477-1.276-1.74-2.585-1.288l-1.057.364-.74-2.148 2.534-.872c.722-.25.903-.65.655-1.37-.312-.907-1.073-.663-1.325-.577l-9.413 3.243zm8.465 11.668l-2.433-7.063 1.192-.41 2.432 7.064-1.19.41zm-1.888-9.353l-1.192.41-.74-2.147 1.192-.41.74 2.147zm-.495 10.175c-.335.115-.555.022-.67-.314L60.2 18.154c-.087-.252-.073-.538.33-.677l.67-.23 2.433 7.063-.67.232zm2.853-8.885l.688-.237c.37-.127.562.05.66.336l2.092 6.075c.115.336.016.54-.32.655l-.687.237-2.433-7.065zM133.313 23.9c-.232-.102-.5-.166-.77-.1.43-.885 0-1.17-.387-1.34l-6.128-2.73c-.634-.282-1.053.032-1.266.512-.386.867.295 1.17.682 1.342l-3.9 8.76c-.545-.15-1.183-.342-1.535.447-.076.17-.395 1.012.425 1.377.37.166 2.915.742 4.755 1.024l-.77 1.734c-.318.712-.112 1.082.538 1.37.85.38 1.16-.316 1.27-.564l5.127-11.514c.387.172.515.136.657.107-.222.458-.334 1 .502 1.373l3.157 1.406c.326.144.575.293.375.74-.13.295-.613 1.045-.82 1.342-1.15 1.75-2.26 2.703-2.845 3.184-.036-2 .436-3.81.738-4.864.133-.423.23-.935-.496-1.26-.14-.06-.96-.426-1.332.41-.117.262-.565 1.77-.792 3.485-.23 1.77-.132 2.963-.1 3.515-.385.2-1.008.515-2.68.94-.585.147-.974.27-1.153.673-.255.572-.04 1.298.548 1.56.216.096.445.124.992-.022 1.094-.29 2.018-.66 2.656-.968.228.99.44 1.64.69 2.198.475 1.102.7 1.183.915 1.28.666.295 1.39-.124 1.625-.65.192-.433.033-.783-.11-1.087-.833-1.67-.94-1.885-1.198-2.89 3.353-2.327 5.277-6.106 5.504-6.617.724-1.624-.014-2.008-1.22-2.546l-3.653-1.626zm-5.987 4.493l-2.275-1.013.76-1.702 2.274 1.013-.758 1.703zm1.468-3.296l-2.275-1.013.75-1.687 2.275 1.013-.75 1.687zm-4.46 3.893l2.276 1.013-.662 1.485c-.805-.19-1.694-.402-2.46-.595l.847-1.903zm18.35 2.31c.325-.523.55-.905 1.16-1.728.148-.212.39-.55.487-.765.215-.48.14-.977-.696-1.35-.805-.357-1.173.053-1.38.313-.67.834-2.417 3.968-3.464 6.32-.276.62-.722 1.83-.84 2.39-.14.642.26.912.677 1.098.99.44 1.3-.255 1.44-.564.088-.202.467-1.22.564-1.436.53-1.192 1.437-2.31 2.99-3.175.718-.404 2.39-1.2 3.905-.524 2.15.957 1.014 4.01.263 5.698-1.392 3.126-3.09 3.983-6.163 3.097-.576-.164-.73-.233-2.14-.86-.262-.117-1.144-.51-1.565.434-.454 1.02.38 1.393 1.202 1.758 6.67 2.97 9.232.087 10.824-3.488.854-1.92 1.325-3.768 1.06-5.424-.165-1-.86-2.313-2.408-3.002-.944-.42-2.065-.567-3.204-.258-1.364.357-2.096.958-2.71 1.464zm19.27 8.282l4.425 1.97c.772.345 1.355.493 1.838-.59l.38-.85c.48-1.084-.02-1.418-.793-1.763L157.142 33.6c-.758-.338-1.356-.493-1.84.59l-.378.852c-.482 1.083.034 1.424.792 1.76l4.38 1.95-.255.574-5.51-2.453c-.432-.193-.872-.204-1.127.37-.296.664.194.938.488 1.07l5.51 2.452-.248.557-.898-.4c-1.44-.64-1.87-.462-2.505.962l-1.18 2.646c-.626 1.41-.477 1.865.963 2.505l6.345 2.825c1.44.64 1.878.447 2.505-.96l1.178-2.648c.648-1.454.447-1.878-.96-2.505l-3.59-1.6.247-.556 5.57 2.48c.496.22.89.173 1.13-.37.29-.65-.18-.93-.488-1.07l-5.572-2.48.255-.572zm.64-1.105l-2.028-.903.38-.85 2.026.9-.38.853zm-3.792-1.69l-1.764-.784c-.217-.096-.262-.246-.172-.447l.103-.232c.09-.202.245-.262.447-.172l1.764.785-.378.85zm7.652 2.39c.2.088.255.26.172.446l-.103.232c-.09.2-.247.26-.448.172l-1.75-.78.38-.85 1.75.78zm-3.69 7.83l-6.098-2.714.248-.557 6.097 2.715-.247.558zm-5.27-4.57c.088-.202.245-.262.446-.173l5.478 2.44c.217.096.255.26.172.447l-.124.28-6.097-2.715.123-.28zm4.82 5.577l-.123.278c-.095.217-.252.277-.453.187l-5.478-2.44c-.202-.09-.256-.26-.166-.462l.124-.28 6.097 2.716zm.445 4.666c.278.124.847.304 1.143-.362.324-.727-.31-1.01-.496-1.092l-10.6-4.72c-.357-.16-.437-.436-.293-.76l2.164-4.86c.165-.37.365-.987-.517-1.38-.943-.42-1.26.292-1.37.54l-2.246 5.045c-.6 1.347-.242 2.044.98 2.588l11.235 5.002zm13.215-8.69c-.61-.254-1.49-.61-1.863-.774-.34-.152-2.05-.932-2.438-1.104-.51-.228-1.1-.49-1.484.377-.214.48-.106.86.114 1.033.23.194.73.4 1.706.833.85.38 1.145.51 3.764 1.584-.02.25-.057.586-.054 1.496-1.938-.77-2.51-.987-3.577-1.463-.372-.165-2.14-1.026-2.557-1.212-.325-.144-.934-.36-1.292.445-.234.527-.052.867.122 1.02.275.214 1.862.94 2.28 1.125 1.145.51 1.415.612 5.09 2.1.098 1.156.157 1.442.277 1.922-.936-.732-1.878-1.28-2.884-1.73-1.254-.557-2.867-1.016-4.085-.78-.94.194-1.736.693-2.184 1.7-.564 1.268-.107 2.49.625 3.262 1.052 1.136 2.457 1.854 3.865 2.48 2.29 1.02 4.258 1.433 5.027 1.497.32.032.89.083 1.2-.614.083-.186.373-1.002-.432-1.36-.17-.076-.277-.087-1.233-.27-1.813-.345-3.07-.812-3.936-1.198-1.13-.503-1.918-.983-2.47-1.49-.183-.173-.78-.83-.47-1.525.336-.758 1.46-1.036 3.38-.182 1.5.67 2.88 1.616 4.068 2.776.294.298.433.36.542.408.526.235 1.23.03 1.498-.575.152-.34.078-.634.025-.806-.23-.9-.367-1.72-.483-2.625.9.308 2.39.84 2.868.887.396.028.756-.072.97-.552.102-.232.34-.887-.404-1.218-.2-.09-1.16-.35-1.375-.408-.538-.167-1.393-.454-2.218-.766-.012-.265-.015-.675.025-1.473.956.353 2.304.823 2.803.953.46.13 1.05.226 1.352-.455.393-.882-.288-1.186-.505-1.282-.232-.103-1.408-.46-1.67-.54-.562-.194-.97-.32-1.78-.625.05-.274.184-1.327.184-1.494-.003-.41-.25-.648-.605-.807-.185-.083-1.187-.455-1.56.38-.082.186-.127.37-.225 1.05z" fill="#818181"/><g opacity=".7" transform="rotate(43 74.185 182.81)" fill="#FF6A6A"><ellipse cx="2.991" cy="19.722" rx="2.727" ry="2.722"/><ellipse cx="19.844" cy="13.7" rx="2.727" ry="2.722"/><ellipse cx="35.945" cy="8.315" rx="2.727" ry="2.722"/><ellipse cx="52.798" cy="3.383" rx="2.727" ry="2.722"/></g></g></svg>