<svg xmlns="http://www.w3.org/2000/svg" height="94" width="165" viewBox="0 0 165 94"><title>img</title><g fill-rule="evenodd" fill="none"><path fill="#f66" d="M84.892 86.54c-9.48 0-18.092-3.758-24.443-9.85l52.28-47.143c4.69 5.99 7.49 13.517 7.49 21.69 0 19.467-15.85 35.304-35.328 35.304m0-70.606c8.757 0 16.778 3.208 22.948 8.5L55.854 71.31c-3.96-5.704-6.29-12.62-6.29-20.073 0-19.465 15.848-35.303 35.328-35.303m0-7.07c-23.38 0-42.402 19.008-42.402 42.373S61.51 93.61 84.892 93.61c23.378 0 42.398-19.008 42.398-42.373S108.27 8.864 84.892 8.864"/><path fill="#FACA00" d="M143.02 66c-1.4 1.548-3.756 1.657-5.316.25-1.53-1.38-1.654-3.728-.245-5.27 1.398-1.546 3.73-1.627 5.26-.247s1.708 3.73.3 5.268m1.4-6.906c-2.078-1.876-1.783-3.12-.274-4.776.825-.916 3.068-3.37 7.13-2.983 3.725.344 5.08.53 6.117-.614 1.097-1.198.646-2.852-.937-4.282-2.766-2.497-4.66-.825-5.546-.012-1.193 1.008-2.984-.247-3.764-.95-.75-.677-2.407-2.435-.796-4.208 1.92-2.116 7.912-4.772 14.316 1.01 4.907 4.424 4.832 9.824 1.916 13.02-2.184 2.4-4.058 2.32-9.04 2.09-2.124-.096-3.2-.128-4.572 1.387-.785.857-2.21 2.43-4.55.32M26.108 51.586c1.226 1.838.733 4.288-1.11 5.526-1.808 1.217-4.25.743-5.476-1.095-1.225-1.837-.713-4.25 1.097-5.47 1.808-1.217 4.263-.797 5.488 1.04M19.37 48.38c-2.458 1.654-3.662 1.035-4.98-.938-.723-1.086-2.676-4.012-1.237-8.084 1.31-3.74 1.848-5.087.94-6.447-.955-1.426-2.764-1.395-4.638-.133-3.278 2.206-2.04 4.575-1.438 5.698.736 1.476-1.018 3.002-1.937 3.62-.89.598-3.118 1.85-4.53-.257-1.677-2.52-2.873-9.35 4.707-14.448 5.798-3.903 11.324-2.445 13.866 1.365 1.907 2.858 1.345 4.762-.17 9.823-.642 2.157-.95 3.25.252 5.052.682 1.02 1.93 2.892-.834 4.75M134.788 21.33c-1.15 1.154-2.893 1.172-3.92.052-1.007-1.097-.92-2.91.24-4.056 1.15-1.15 2.86-1.156 3.876-.053 1.014 1.103.953 2.908-.196 4.058m1.568-5.275c-1.376-1.497-1.06-2.445.175-3.682.682-.68 2.514-2.513 5.466-2.106 2.702.36 3.684.54 4.534-.314.897-.894.702-2.175-.348-3.317-1.83-1.99-3.35-.755-4.067-.155-.95.747-2.167-.266-2.686-.828-.497-.54-1.574-1.935-.247-3.253 1.58-1.576 6.18-3.465 10.412 1.144 3.25 3.532 2.762 7.678.38 10.065-1.796 1.787-3.164 1.676-6.797 1.37-1.553-.13-2.332-.18-3.458.95-.645.636-1.818 1.807-3.364.125"/></g></svg>