<svg width="177" height="95" viewBox="0 0 177 95" xmlns="http://www.w3.org/2000/svg"><title>Group 2</title><g fill="none" fill-rule="evenodd"><path d="M69.992 3.046L56.872 0s-3.605 6.488-12.368 6.546C35.74 6.604 32.048.166 32.048.166L18.972 3.39 0 20.716l9.618 14.755 9.534-4.57.31 46.405 51.018-.34-.305-46.408 9.595 4.444 9.42-14.882L69.99 3.046z" fill="#FACA00"/><path d="M85.727 17.86c-3.78 0-6.424 2.81-6.424 6.656V93.98h82.85V24.517c0-3.845-3.493-6.657-7.277-6.657h-69.15z" fill="#1257DC"/><path d="M86.835 94.506h68.47V38.45c0-.28-.11-.39-.488-.39H87.84c-.383 0-1.005.106-1.005.39v56.056z" fill="#FFF"/><rect fill="#FFF" x="112.169" y="29.7" width="17.606" height="2.105" rx=".839"/><path d="M136.654 49.37l-7.782-1.797s-2.14 3.828-7.337 3.862c-5.2.034-7.39-3.764-7.39-3.764l-7.756 1.902-11.255 10.224 5.705 8.706 5.656-2.697.183 27.38 30.264-.2-.182-27.382 5.692 2.623 5.588-8.78-11.388-10.076z" fill="#FACA00"/><path d="M165.537 19.776c.175-.303.465-.54.83-.637l8.452-2.265c.727-.195 1.477.238 1.67.966.197.73-.236 1.478-.964 1.673l-8.453 2.265c-.728.195-1.477-.238-1.673-.966-.098-.364-.038-.734.137-1.036M161.145 15.714c-.06-.344.01-.712.226-1.02l5.02-7.168c.434-.618 1.286-.768 1.903-.335.618.433.768 1.284.335 1.903l-5.02 7.168c-.432.618-1.284.768-1.902.336-.31-.216-.5-.537-.56-.882" fill="#F66"/></g></svg>