<svg xmlns="http://www.w3.org/2000/svg" height="99" width="162" viewBox="0 0 162 99"><title>img</title><g fill-rule="evenodd" fill="none"><path fill="#646464" d="M73.59 89.44v7.09c0 .97.565 1.14 1.277 1.14 1.045 0 1.176-.65 1.176-1.14V85.97c0-.333-.32-.77-1.017-.77-.74 0-.87.364-1.06.858-.493 1.292-1.51 1.466-1.8 1.51-.61.1-1.104.174-1.104.93 0 .652.436.943.842.943h1.685zm8.36.828c.13-2.83 1.204-3.02 1.9-3.02.64 0 1.032.247 1.22.726.204.552.335.9 1.22.9.944 0 1.177-.667 1.177-.987 0-.784-.944-2.686-3.63-2.686-3.95 0-4.414 4.11-4.414 6.56 0 2.78.668 3.87 1.22 4.55.508.62 1.51 1.36 3.034 1.36 2.686 0 3.964-2.03 3.964-4.21 0-2.04-1.146-3.976-3.615-3.976-1.16 0-1.582.363-2.076.784zm1.596 1.192c.77 0 1.583.51 1.583 2.08 0 1.53-.756 2.09-1.598 2.09-.9 0-1.612-.66-1.612-2.08 0-1.39.668-2.09 1.626-2.09zm9.072-6.26c-.668 0-2.12.248-2.933 1.395C88.61 88.12 88.51 90.5 88.51 91.43c0 2.19.435 6.24 4.108 6.24 3.66 0 4.11-4.05 4.11-6.24 0-2.28-.48-6.23-4.11-6.23zm0 2.048c1.655 0 1.655 3.238 1.655 4.182 0 .96 0 4.2-1.655 4.2s-1.655-3.24-1.655-4.2c0-.944 0-4.182 1.655-4.182zm9.192 1.075c-2.923 0-4.287 2.15-4.287 4.677 0 1.31.435 4.67 4.387 4.67 1.01 0 2.44-.23 3.29-1.38.38-.52.69-1.2.69-1.74 0-.88-.92-.93-1.17-.93-.85 0-1 .37-1.19.9-.37 1.03-.97 1.11-1.61 1.11-1.55 0-1.9-1.37-1.9-2.65 0-2.29 1.09-2.61 1.96-2.61.89 0 1.35.508 1.55 1.1.18.5.29.83 1.11.83.35 0 1.23-.04 1.23-.94 0-.743-.87-3.037-4.06-3.037zm17.52 3.147c0-2.35-1.53-3.147-2.8-3.147-1.48 0-2.17 1.002-2.43 1.365-.65-1.22-1.7-1.365-2.19-1.365-1.31 0-1.86.827-2.14 1.234 0-.842-.26-1.234-1.24-1.234-1.04 0-1.17.64-1.17 1.132v7.085c0 .92.5 1.13 1.25 1.13 1.03 0 1.16-.64 1.16-1.13v-4.38c0-.58.16-1.746 1.28-1.746.87 0 1.09.696 1.09 1.376v4.75c0 .96.57 1.13 1.25 1.13 1.03 0 1.16-.64 1.16-1.13v-4.38c0-.69.2-1.746 1.28-1.746 1.02 0 1.09.956 1.09 1.366v4.76c0 .92.49 1.13 1.25 1.13 1.03 0 1.16-.64 1.16-1.13v-5.07zm9.55-2.17h-4.31v-1.755c0-.4-.16-.697-.72-.697-.68 0-.71.452-.71.697V89.3h-1.54c-.35 0-.72.13-.72.697 0 .684.58.684.72.684h1.54v2.8c0 .53.27.69.72.69.61 0 .71-.35.71-.69v-2.8h4.31v1.56c0 .16 0 1.37-.35 2.15-.44.99-1.63 1.89-3.61 2.18-.91.13-1.2.16-1.2.69 0 .11.04.79.77.79.26 0 1.61-.14 3.01-.8 2.36-1.12 2.82-2.99 2.82-4.94v-1.63h1.57c.35 0 .72-.14.72-.695 0-.685-.58-.685-.72-.685h-1.57v-1.806c0-.478-.23-.685-.73-.685-.65 0-.71.4-.71.684V89.3zm11.81 1.51c1.38-.825 2.41-1.574 3.51-2.607.27-.258.37-.426.37-.67 0-.465-.44-.788-.81-.788-.21 0-.34.09-.51.22-.29.245-.74.683-1.04.942-2.98 2.633-6.98 3.793-7.93 4.023-.4.11-.69.2-.69.67 0 .17.06.82.72.82.45 0 2.43-.6 4.84-1.77v5.81c0 .41.16.72.77.72.73 0 .77-.46.77-.72v-6.65zm12.62-2.077c.25 0 .41.025.41.232 0 .31-.81 2.325-2.5 4.235-1.8 2.01-3.39 2.8-4.28 3.24-.28.14-.47.28-.47.59 0 .44.34.8.71.8.69 0 3.39-1.7 5.25-3.84.71.6 1.96 1.65 3.19 3.04.5.58.64.75 1 .75.43 0 .84-.36.84-.81 0-.27-.08-.45-.85-1.2-1.59-1.53-2.99-2.6-3.33-2.84.98-1.31 2.17-3.59 2.17-4.546 0-.942-.76-1.045-1.32-1.045h-6.52c-.36 0-.73.128-.73.696 0 .697.58.697.73.697h5.7zm3.88-1.472c.04.08.18.505.22.595.08.18.21.297.39.297.1 0 .44-.065.44-.4 0-.233-.24-.775-.37-1.046-.2-.45-.27-.593-.51-.593-.16 0-.45.09-.45.36 0 .014 0 .104.04.195.03.09.22.49.24.593zm-1.54.117c.08.194.17.49.25.672.04.09.13.23.34.23.03 0 .45 0 .45-.4 0-.167-.22-.76-.35-1.07-.19-.452-.3-.58-.52-.58-.17 0-.44.09-.44.334 0 .116.04.233.07.284.02.078.18.452.2.53zM11.59 94.93h5.04l.71 1.93c.146.41.422.81.9.81.466 0 1.584-.29 1.584-1.11 0-.22-.06-.45-.102-.56l-3.354-9.13c-.523-1.422-1.365-1.67-2.28-1.67-1.234 0-1.844.61-2.236 1.67L8.498 96c-.102.28-.102.56-.102.6 0 .67.944 1.07 1.554 1.07.64 0 .857-.59.93-.81l.71-1.93zm2.164-5.91c.116-.32.233-.392.363-.392.102 0 .218.043.35.392l1.378 3.76H12.39l1.364-3.76zm11.235 5.94v1.57c0 .93.508 1.14 1.263 1.14 1.06 0 1.176-.65 1.176-1.14v-1.57c.55 0 1.306 0 1.306-1.03 0-1.02-.8-1.02-1.307-1.02v-6.475c0-.508-.364-1.234-1.41-1.234-.508 0-1.16.204-1.626.974l-3.76 6.196c-.146.24-.305.63-.305 1.12 0 .82.536 1.47 1.363 1.47h3.296zm-2.454-2.05c-.233 0-.233-.14-.233-.2 0-.07.044-.15.073-.21l2.22-3.64c.045-.073.118-.13.205-.13.16 0 .19.174.19.232v3.948h-2.454zM57.193 41.773c0-.45-.363-.668-.653-.668-.19 0-.232.043-.653.392-.886.74-1.86.842-2.28.842-.886 0-1.307-.233-2.76-1.06-1.03-.582-1.872-.9-2.874-.9-1.263 0-2.207.536-2.613.783-.233.145-1.002.61-1.002 1.118 0 .32.26.61.61.61.203 0 .334-.086.566-.29.973-.856 2.047-.943 2.38-.943 1.12 0 2.237.667 2.905 1.074.536.32 1.51.9 2.73.9 1.828 0 3.643-1.247 3.643-1.857z"/><g fill="#FACA00"><path d="M1.498 13.804l5.644 8.34h19.22l5.466-8.34"/><path d="M0 57.545h33.306V15.16l-5.882 8.973H6.098L0 15.123"/></g><g fill="#FACA00"><path d="M68.33 58.19l40.495 16.38V33.52L68.33 18.102M112.24 33.52v41.05l49.095-20.232V14.25M121.26.29L70.256 16.67l17.955 6.41 50.46-17.893M160.38 11.295l-17.037-4.793.028.082-50.853 18.032 17.882 6.382"/></g><path stroke="#858585" stroke-width=".845" stroke-linecap="square" d="M130.33 27.74v38.043"/><path fill="#858585" d="M128.22 62.79h4.218l-2.11 4.224M132.438 30.696h-4.218l2.11-4.223"/><g><path stroke="#858585" stroke-width=".845" stroke-linecap="square" d="M105.318 51.053L69.57 38.043"/><path fill="#858585" d="M73.103 37.083l-1.443 3.964-3.247-3.426M104.353 52.868l1.442-3.963 3.248 3.426"/></g><g stroke-width=".845"><path stroke="#858585" stroke-linecap="square" d="M116.404 51.39l42.642-16.05"/><path stroke="#979797" fill="#858585" d="M158.218 37.535l-1.373-3.988 4.68.62zM116.012 49.372l1.373 3.988-4.68-.62z"/></g></g></svg>