<svg width="191" height="88" viewBox="0 0 191 88" xmlns="http://www.w3.org/2000/svg"><title>img</title><g fill="none" fill-rule="evenodd"><g fill="#1257DC"><path d="M124.818 39.925c-1.456 0-2.647 1.21-2.647 2.69v7.806c0 1.48 1.192 2.69 2.648 2.69h36.697V39.925h-36.697zM170.656 39.925h-6.61V53.11h6.61c1.456 0 2.647-1.21 2.647-2.69v-7.806c0-1.48-1.19-2.69-2.647-2.69M169.144 37.502c-.274-2.115-1.534-6.29-7.176-7.347-5.54-1.04-7.072-4.856-7.49-6.895-.094-.433-.662-.53-.88-.135-1.136 2.068-2.868 6.5.72 9.684 4.478 3.98 10.348 2.105 14.07 5.125.32.27.804-.01.756-.433"/></g><path d="M147.982 78.89c-9.617 0-18.355-3.817-24.8-10.006l53.046-47.878c4.753 6.083 7.595 13.728 7.595 22.03 0 19.77-16.078 35.854-35.84 35.854m0-71.71c8.883 0 17.016 3.258 23.285 8.633L118.522 63.42c-4.018-5.79-6.38-12.816-6.38-20.385 0-19.77 16.077-35.855 35.84-35.855m0-7.18c-23.72 0-43.018 19.305-43.018 43.035 0 23.73 19.297 43.035 43.018 43.035 23.72 0 43.018-19.305 43.018-43.035C191 19.305 171.703 0 147.982 0" fill="#F66"/><g fill="#2377E4"><path d="M44.592 56.04c-5.577.208-10.262-4.114-10.464-9.654-.2-5.54 4.157-10.2 9.735-10.41 5.578-.21 10.263 4.113 10.463 9.653.202 5.538-4.157 10.2-9.734 10.41M63.47 29.857l-8.807.03-5.208-4.825c-.322-.3-.753-.466-1.2-.464l-9.29.033c-.445 0-.874.17-1.197.473L32.56 29.97l-8.803.033c-1.542.005-2.79 1.234-2.788 2.744l.004 26.026c.002 1.51 1.25 2.73 2.79 2.724l39.712-.145c1.54-.006 2.79-1.234 2.79-2.744l-.008-26.028c0-1.51-1.25-2.73-2.79-2.722"/><path d="M43.82 39.674c3.53-.132 6.494 2.603 6.622 6.108.125 3.506-2.632 6.455-6.162 6.588s-6.494-2.603-6.62-6.108c-.128-3.506 2.63-6.455 6.16-6.588"/></g><path d="M43.018 1.72C19.26 1.72 0 20.99 0 44.757c0 23.767 19.26 43.036 43.018 43.036 23.76 0 43.018-19.27 43.018-43.036 0-23.768-19.26-43.035-43.018-43.035m0 6.53c20.122 0 36.493 16.375 36.493 36.506 0 20.13-16.37 36.508-36.492 36.508-20.122 0-36.493-16.378-36.493-36.508 0-20.13 16.37-36.507 36.493-36.507" fill="#2BB570"/></g></svg>