<svg width="239" height="189" viewBox="0 0 239 189" xmlns="http://www.w3.org/2000/svg" xmlns:xlink="http://www.w3.org/1999/xlink"><title>icons</title><defs><path id="b" d="M.816 112.862h95.04V.002H.816z"/><path d="M131.768 54.99l-9.76 9.758c-1.434 1.435-3.756 1.438-5.187.006l-9.764-9.765H11.018C4.933 54.99 0 50.06 0 43.96V11.03C0 4.937 4.932 0 11.018 0h216.74c6.085 0 11.018 4.928 11.018 11.03v32.93c0 6.09-4.933 11.03-11.018 11.03h-95.99z" id="a"/><mask id="d" x="0" y="0" width="238.776" height="65.826" fill="#fff"><use xlink:href="#a"/></mask></defs><g fill="none" fill-rule="evenodd"><g transform="translate(80.204 75.763)"><path d="M37.664 56.703c-.477 0-.955-.16-1.344-.484l-11.37-9.424c-.894-.74-1.013-2.06-.27-2.946.74-.89 2.067-1.008 2.958-.27l9.997 8.284 9.53-8.254c.877-.76 2.205-.667 2.967.205.76.873.67 2.194-.207 2.952l-10.88 9.423c-.396.34-.888.513-1.38.513m-18.357-27.04c0-2.62 2.134-4.746 4.768-4.746 2.632 0 4.767 2.125 4.767 4.746 0 2.62-2.135 4.746-4.767 4.746-2.634 0-4.768-2.126-4.768-4.747m31.456-4.746c2.632 0 4.766 2.125 4.766 4.746 0 2.62-2.134 4.746-4.766 4.746s-4.766-2.126-4.766-4.747c0-2.62 2.134-4.746 4.766-4.746m-7.303 56.56l8.683-10.805c4.508-5.248 4.813-3.34 6.583-4.687 9.6-7.3 16.015-18.676 15.23-31.8C72.878 16.14 58.282 1.42 40.17.1 18.71-1.46.816 15.424.816 36.453c0 12.213 6.04 22.94 15.305 29.533 1.816 1.292 2.358 3.734 1.26 5.664L2.066 98.55c-1.648 2.896.453 6.485 3.796 6.485h36.402c-.104-9.594-.02-22.736 1.196-23.56" fill="#2BB570"/><mask id="c" fill="#fff"><use xlink:href="#b"/></mask><path fill="#FACA00" mask="url(#c)" d="M47.872 112.862h47.984V84.246H47.872M95.857 82.152l-8.68-10.806H72.69l1.017 10.806M56.552 71.346l-8.68 10.806H70.02l1.015-10.806"/></g><g transform="translate(.204 .61)"><use stroke="#D5D5D5" mask="url(#d)" stroke-width="3.673" fill="#FFF" xlink:href="#a"/><path d="M53.82 16.985c0 .268-.133.402-.4.402h-9.417v1.38h7.634c.25 0 .376.127.376.378v1.833c0 .25-.125.377-.376.377H32.853c-.25 0-.377-.126-.377-.377v-1.833c0-.25.126-.377.377-.377h7.634v-1.38H31.07c-.268 0-.402-.135-.402-.403v-1.933c0-.268.134-.402.402-.402h9.417v-1.532c0-.268.134-.402.402-.402h2.71c.27 0 .403.134.403.402v1.532h9.417c.267 0 .4.134.4.402v1.933zm-.702 10.698c0 .268-.125.402-.376.402H50.23c-.25 0-.376-.134-.376-.402V25.12H34.636v2.84c0 .25-.125.376-.377.376h-2.512c-.25 0-.376-.126-.376-.377v-5.023c0-.25.125-.377.376-.377h20.994c.25 0 .376.126.376.377v4.746zm-12.455-1.356c.268 0 .385.134.35.402-.116 1.187-.375 2.26-.777 3.213-.402.954-.938 1.808-1.607 2.56-1.39 1.525-3.467 2.68-6.23 3.467-.183.05-.325-.01-.426-.176l-1.105-2.06c-.135-.284-.034-.493.3-.627 2.177-.67 3.734-1.49 4.67-2.46.972-1.006 1.592-2.412 1.86-4.22.033-.217.167-.326.4-.326l2.563.227zm5.7-.126c.25 0 .377.127.377.378v5.424c0 .42.092.67.276.753.234.084.787.126 1.657.126.888 0 1.398-.14 1.532-.426.134-.268.243-1.155.327-2.662.016-.134.063-.238.138-.314.075-.075.17-.104.29-.088l2.485.2c.25.035.376.16.376.378-.015.184-.028.402-.036.653-.01.252-.03.57-.063.955-.016.218-.037.448-.062.69-.025.243-.07.5-.138.767-.084.3-.142.544-.176.728-.033.184-.067.31-.1.376-.084.252-.226.494-.427.73-.2.233-.42.384-.653.45-.268.135-.578.227-.93.277-.183.033-.38.06-.59.075-.21.017-.43.025-.665.025-.05 0-.13.005-.24.013-.108.008-.255.013-.44.013-.2.015-.375.02-.526.01-.15-.007-.293-.01-.427-.01h-1.243c-.326 0-.573-.01-.74-.027-.185-.016-.39-.037-.616-.062-.226-.024-.473-.062-.74-.112-.42-.067-.72-.176-.905-.327-.217-.15-.385-.334-.502-.55-.116-.27-.192-.545-.225-.83-.017-.184-.03-.377-.038-.578-.008-.2-.012-.41-.012-.627v-6.027c0-.25.125-.377.376-.377h2.663zm25.54 6.957c-1.09.653-2.224 1.11-3.404 1.37-1.18.258-2.407.472-3.68.64-.284.033-.452-.093-.502-.378l-.3-2.21c-.035-.285.1-.452.4-.503.87-.1 1.73-.226 2.574-.376.846-.15 1.68-.426 2.5-.828 1.12-.536 1.966-1.23 2.535-2.084.57-.854.804-1.792.703-2.813-.05-.653-.25-1.18-.602-1.582-.352-.402-.775-.71-1.268-.93-.494-.217-1.034-.363-1.62-.438-.586-.076-1.13-.113-1.632-.113-.37 0-.704.012-1.005.037l-.753.062c-.92.067-1.838.18-2.75.34-.912.158-1.82.32-2.725.49l-.4.074c-.303.05-.478-.075-.53-.377l-.45-2.21c-.034-.134-.017-.243.05-.327.067-.084.15-.15.25-.2h.05l1.934-.352h.05c.016-.016.042-.024.075-.024 2.997-.553 5.52-.74 7.57-.565 2.052.176 3.672.725 4.86 1.645 1.323.988 2.05 2.403 2.185 4.244.05.753-.004 1.485-.163 2.196-.16.712-.42 1.382-.78 2.01-.36.627-.806 1.217-1.342 1.77-.536.552-1.147 1.03-1.833 1.43zm31.74-17.93v2.436c0 .235-.076.394-.226.477h-.05c-.92.285-1.86.65-2.813 1.093-.954.443-1.837.98-2.65 1.607-.81.628-1.514 1.343-2.11 2.147-.593.804-.99 1.7-1.19 2.687-.22 1.088-.13 2.092.262 3.013.394.92 1.06 1.674 1.997 2.26.786.503 1.603.87 2.448 1.105.846.235 1.738.394 2.675.477.252.033.377.175.377.426l-.075 2.436c0 .268-.126.385-.377.352-1.02-.067-2.063-.222-3.126-.465-1.063-.244-2.068-.604-3.014-1.08-.946-.478-1.795-1.08-2.55-1.81-.752-.727-1.33-1.627-1.73-2.698-.453-1.19-.596-2.365-.428-3.528.167-1.164.536-2.26 1.105-3.29.57-1.03 1.306-1.963 2.21-2.8.904-.837 1.866-1.54 2.887-2.11-.786.017-1.623.042-2.51.076-.888.033-1.792.07-2.713.113l-2.698.125-2.41.114-1.922.087c-.552.025-.946.045-1.18.062-.285.017-.427-.125-.427-.427v-2.46c0-.235.134-.352.402-.352l19.386-.452c.118 0 .223.034.315.1.092.068.138.16.138.277zm11.978 10.85c-.45.082-.907.212-1.368.388-.46.176-.887.397-1.28.665-.394.268-.728.578-1.005.93-.276.35-.49.744-.64 1.18-.017.05-.025.117-.025.2v.05c-.017.05-.025.1-.025.152 0 .25.083.435.25.552.085.084.235.134.453.15.217.017.477-.04.778-.175.653-.32 1.222-.847 1.708-1.583.485-.737.87-1.574 1.155-2.51zm16.148-.53v.052l-.628 2.26c-.017.116-.067.2-.15.25-.084.05-.185.05-.302 0-.653-.134-1.293-.277-1.92-.427-.63-.15-1.27-.293-1.922-.427-.285 1.507-.653 2.97-1.105 4.394-.45 1.423-.987 2.838-1.606 4.244-.1.218-.276.285-.527.2l-2.16-.953c-.1-.05-.176-.116-.226-.2-.05-.084-.05-.184 0-.3.604-1.307 1.102-2.62 1.495-3.944.393-1.322.724-2.67.992-4.043-.82-.134-1.628-.247-2.423-.34-.796-.09-1.612-.162-2.45-.212-.183.737-.41 1.453-.677 2.148-.268.695-.586 1.343-.954 1.946s-.795 1.143-1.28 1.62c-.486.477-1.047.866-1.683 1.167-.82.403-1.657.566-2.51.49-.855-.074-1.608-.37-2.26-.89-.99-.77-1.483-1.758-1.483-2.964 0-.435.067-.845.2-1.23.252-.887.666-1.64 1.244-2.26.58-.62 1.236-1.13 1.972-1.532.737-.402 1.524-.707 2.36-.917.838-.21 1.666-.34 2.487-.39.133-1.037.212-2.1.237-3.188.025-1.09.038-2.043.038-2.864h-8.06c-.27 0-.403-.134-.403-.4v-2.412c0-.1.038-.188.113-.264.076-.075.172-.113.29-.113h11.023c.117 0 .21.038.276.113.067.076.1.163.1.264v1.657c0 .922-.033 2.03-.1 3.33-.067 1.296-.184 2.59-.35 3.878.802.067 1.598.147 2.384.24.787.09 1.582.187 2.386.288.2-1.323.335-2.645.402-3.968s.11-2.67.125-4.043c0-.234.12-.352.353-.352h2.436c.25 0 .375.118.375.352 0 2.846-.184 5.667-.552 8.463.703.134 1.398.272 2.084.414.687.142 1.365.29 2.034.44.252.05.36.192.328.426zm15.82-8.788v2.26c0 .284-.125.426-.377.426h-5.9c-.385 2.73-.84 5.416-1.368 8.06-.528 2.646-1.15 5.325-1.87 8.037-.085.217-.227.31-.428.276l-2.486-.63c-.285-.032-.385-.183-.3-.45.65-2.562 1.246-5.103 1.78-7.622.537-2.52.99-5.077 1.357-7.672h-4.344c-.25 0-.376-.142-.376-.427v-2.26c0-.252.126-.377.377-.377h4.772c.05-.452.088-.88.113-1.28.025-.403.063-.82.113-1.257l.126-1.18c.017-.268.167-.385.452-.352l2.51.2c.235.035.353.177.353.428-.068.586-.127 1.16-.177 1.72-.05.56-.117 1.135-.2 1.72h5.498c.253 0 .378.126.378.377zm8.237 15.342l.4 2.31c.052.135.04.24-.036.315-.077.075-.164.12-.265.138-.62.1-1.23.192-1.833.276-.603.085-1.214.168-1.833.252-.62.067-1.24.11-1.86.126-.62.016-1.238 0-1.858-.05-.602-.05-1.21-.16-1.82-.327-.61-.166-1.176-.413-1.695-.74-.52-.326-.942-.732-1.268-1.218-.328-.485-.483-1.088-.466-1.808l.025-1.18c0-.268.125-.402.376-.402h2.486c.268 0 .385.134.35.402 0 .15-.007.31-.024.477-.016.168-.016.344 0 .528.017.15.046.29.088.415.042.125.113.213.214.263.2.134.435.235.703.302.268.067.52.117.753.15.603.084 1.197.122 1.783.113.585-.007 1.18-.045 1.782-.112.603-.05 1.197-.13 1.783-.238.586-.11 1.18-.205 1.783-.29.234-.032.376.068.427.302zm.2-7.834c.017.57-.09 1.17-.326 1.808-.118.284-.248.565-.39.84-.142.277-.28.54-.414.792-.134.234-.302.3-.503.2l-2.385-1.08c-.218-.116-.268-.284-.15-.5l.552-.955c.167-.32.234-.51.2-.578-.033-.034-.134-.06-.3-.075H144.7c-.134 0-.23-.042-.29-.126-.057-.084-.086-.176-.086-.276v-2.436c0-.268.125-.402.376-.402h7.057c.435 0 .895.042 1.38.126.486.083.938.23 1.357.44.418.21.77.493 1.054.853.285.36.444.815.478 1.368zm14.842 5.5c-.118.45-.256.907-.415 1.368-.16.46-.34.908-.54 1.343-.2.4-.44.778-.715 1.13-.277.35-.586.648-.93.89-.343.243-.732.42-1.167.528-.435.11-.92.12-1.457.038-.435-.067-.85-.197-1.243-.39-.393-.192-.74-.427-1.042-.703-.3-.276-.57-.577-.803-.904-.235-.327-.436-.65-.603-.968-.636-1.188-1.13-2.456-1.482-3.804-.35-1.348-.602-2.69-.753-4.03-.15-1.34-.226-2.645-.226-3.918 0-1.272.043-2.444.127-3.515l.075-1.306c.033-.236.167-.353.402-.353h2.762c.1 0 .188.03.264.088.075.06.104.155.088.29l-.1 1.254c-.085.987-.126 2.063-.126 3.226 0 1.164.066 2.357.2 3.58.134 1.22.352 2.44.653 3.652.302 1.214.72 2.34 1.256 3.378.118.218.248.435.39.653.142.217.34.342.59.376.235 0 .427-.13.578-.39.15-.26.268-.498.35-.715.27-.702.487-1.38.654-2.033.084-.352.155-.7.214-1.043.058-.343.13-.69.213-1.042.05-.1.112-.188.187-.263.076-.077.18-.09.314-.04l2.588.58c.084.05.167.112.25.187.085.075.1.17.05.29-.1.367-.19.777-.275 1.23-.084.45-.193.895-.326 1.33zm11.425.577h-2.762c-.117 0-.205-.038-.264-.113-.058-.076-.096-.172-.113-.29-.033-2.125-.226-4.272-.577-6.44-.352-2.168-.887-4.232-1.607-6.19-.085-.235-.01-.394.225-.477l2.536-.854c.235-.066.41.026.528.277.77 2.193 1.352 4.44 1.746 6.742.393 2.3.606 4.607.64 6.918 0 .284-.117.427-.352.427zm12.355.175c0-.25.134-.376.402-.376h2.962c.268 0 .402.125.402.376v2.838c0 .25-.134.377-.402.377h-2.963c-.27 0-.403-.126-.403-.377V30.52zm3.616-15.57c.25 0 .377.144.377.428l-.452 12.305c0 .268-.142.402-.427.402h-2.46c-.284 0-.427-.134-.427-.402l-.452-12.305c0-.284.127-.427.378-.427h3.465z" fill="#575757"/></g></g></svg>