<svg height="91" width="658" xmlns="http://www.w3.org/2000/svg"><g fill="none" fill-rule="evenodd"><g fill-rule="nonzero"><path d="M180.772 50.018c-6.788 9.065-13.067 12.747-17.366 15.183-4.3 2.437-4.92 2.777-4.92 4.703 0 2.266 2.148 5.042 4.75 5.042 1.584 0 3.394-.85 5.43-2.096 10.352-6.403 16.518-14.164 18.95-17.28 2.49 2.266 2.942 2.72 8.43 8.385 1.47 1.586 2.714 1.982 3.845 1.982 2.773 0 5.206-2.72 5.206-5.552 0-.793-.114-1.756-1.64-3.4-2.49-2.66-5.375-5.324-10.466-9.346 4.186-7.14 7.976-16.657 7.976-18.81 0-3.002-3.394-4.022-5.43-4.022-2.83 0-3.507 1.757-4.3 4.08-2.262 6.458-3.167 9.064-5.486 13.312-1.867-1.303-6.675-4.588-11.37-7.534-2.546-1.643-4.073-2.38-5.544-2.38-2.49 0-4.412 2.606-4.412 4.702 0 1.87 1.245 2.776 3.168 3.966 4.13 2.55 9.447 6.288 13.18 9.064zm50.048-19.77c0-3.004-1.64-4.137-4.638-4.137-3.847 0-4.47 2.154-4.47 4.137v11.897c0 14.956-.904 17.675-6.278 23.85-1.47 1.7-1.697 2.606-1.697 3.512 0 3.003 2.998 4.872 5.318 4.872.96 0 2.32 0 5.26-3.74 5.94-7.647 6.505-15.86 6.505-28.098V30.247zm6.053 38.295c0 1.303 0 5.44 5.317 5.44 4.243 0 13.463-3.457 19.12-11.955 2.32-3.455 4.75-9.177 4.75-11.953 0-3.512-4.015-4.022-5.033-4.022-2.66 0-3.224 1.586-4.13 4.418-2.6 8.046-8.145 12.52-10.35 12.52-.623 0-.623-.622-.623-1.358V29.567c0-3.06-1.754-4.08-4.582-4.08-3.62 0-4.47 1.87-4.47 4.08v38.976zm52.48-25.493c-1.64 14.163-8.71 19.375-13.35 22.774-1.47 1.076-2.997 2.21-2.997 4.192 0 2.493 2.32 4.76 4.47 4.76 1.356 0 2.77-.85 3.223-1.134 1.866-1.133 3.563-2.606 4.58-3.512 10.862-10.028 12.615-22.83 13.125-27.08h9.955c1.697 0 1.867.963 1.867 2.663 0 .226-.17 9.914-1.075 15.862-.452 3.173-1.47 4.192-4.638 4.192-.792 0-4.526-.396-5.374-.396-2.715 0-4.073 1.417-4.073 4.193 0 4.93 3.507 5.155 10.07 5.155 6.448 0 10.407-1.246 12.217-8.214 1.358-5.325 1.867-18.865 1.867-22.717 0-4.646-.17-9.29-7.58-9.29h-12.557c.113-2.494.113-4.647.113-4.93 0-2.21 0-4.93-4.75-4.93-3.452 0-4.017 1.87-4.244 2.947-.17.68-.17.907-.282 6.912h-12.05c-1.357 0-4.638.056-4.638 4.305 0 4.25 3.338 4.25 4.64 4.25h11.482zm55.48-12.576c0-3.286-1.81-4.363-4.808-4.363-4.017 0-4.695 2.21-4.695 4.364v23.283c0 3.286 1.866 4.306 4.808 4.306 3.903 0 4.695-2.096 4.695-4.306zm28.283-.737c0-3.4-2.093-4.362-4.865-4.362-3.62 0-4.75 1.813-4.75 4.362v20.79c0 3.683-.453 6.97-3.394 9.915-2.32 2.323-5.77 4.362-15.104 5.27-3.167.282-5.656.565-5.656 4.19 0 1.02.226 2.38 1.188 3.457 1.188 1.415 2.77 1.415 3.79 1.415 3.563 0 11.03-.85 17.875-4.42 10.916-5.664 10.916-16.428 10.916-20.167zm18.093 40.34c0 2.528 2 2.876 6.874 2.876 3.742 0 7.528-.348 11.052-1.568 2.872-1.003 8.92-4.445 8.92-13.117 0-6.494-3.568-12.594-13.49-12.594-5.35 0-10.616 1.002-15.707 2.527-1.872.568-3.09 1.047-3.09 3.052 0 1.35.783 2.963 2.61 2.963.523 0 1.088-.174 1.61-.35 4.874-1.61 9.27-3.05 14.1-3.05 3.088 0 4.83.872 6.003 1.787 1.567 1.264 2.307 3.27 2.307 5.796 0 9.24-10.705 9.24-13.49 9.24-.826 0-1.87 0-2.915-.132-.478-.043-1.697-.174-2.088-.174-2.524 0-2.698 1.743-2.698 2.745zm55.38-26.452c-1.872 1.09-3.613 2.136-6.093 4.62-4.786 4.837-5.57 8.977-5.57 12.158 0 4.183 1.87 8.54 6.223 10.546 2.96 1.35 7.788 2.613 13.967 2.613 2.655 0 5.265 0 5.265-3.355 0-1.177-.435-2.223-1.87-2.57-.653-.175-1.045-.132-4.526-.132-8.05 0-13.097-1.656-13.097-7.626 0-6.406 5.742-11.112 8.745-12.943 4.394-2.702 7.05-3.4 10.53-3.442 2.393 0 4.395 0 4.395-2.92 0-2.79-2.002-2.79-4.482-2.79-4.656 0-28.98.83-31.242 1.047-2.09.218-2.83 1.133-2.83 3.007 0 1.22.35 3.006 2.873 3.006.478 0 2.784-.218 3.306-.262 4.786-.35 9.616-.654 14.403-.96zm47.677 13.945c-.957-.13-1.958-.26-3.394-.26-8.746 0-11.357 4.923-11.357 8.584 0 4.052 2.915 8.28 10.617 8.28 1.48 0 6.484-.044 8.616-4.358.695-1.395.74-2.746.74-4.314.695.61.956.697 2.653 2.09 1.784 1.483 2.22 1.962 3.133 1.962 1.784 0 2.828-1.57 2.828-2.963 0-.958-.48-1.786-1.566-2.788-2.002-1.787-4.265-3.268-6.7-4.445l-.48-8.89c-.087-1.83-1.175-2.527-2.828-2.527-2.568 0-2.872 1.612-2.785 2.79l.522 6.84zm.218 5.143c.043 3.617-.044 6.623-4.743 6.623-.784 0-5.178 0-5.178-3.573 0-3.225 3.742-3.79 5.874-3.79 2.175 0 3.22.39 4.047.74zm-11.01-15.776c2.176-.13 4.44-.218 5.657-.26 1-.045 2.916-.175 2.916-2.703 0-2.658-2.002-2.702-2.785-2.702-.087 0-3.786.174-4.177.174.435-1.655.74-2.745.74-3.704 0-2.222-2.524-2.31-3.133-2.31-1.393 0-2.263.61-2.568 1.657-.217.652-.783 3.877-.957 4.574-.827 0-6.57.13-6.92.175-.564.086-2.13.347-2.13 2.613 0 1.57.783 2.354 1.61 2.57.74.176 4.612.132 5.874.09-1.088 3.354-2.437 7.233-4.22 10.283-2.96 5.142-3.178 5.534-3.178 6.58 0 1.264 1.306 2.528 3.09 2.528 1.523 0 2.175-.828 2.872-2.048 3.785-6.624 5.874-12.943 7.31-17.52zm10.444-7.844c-.132.218-.436.785-.436 1.395 0 1.307 1.088 1.917 1.523 2.18 4.786 2.613 5.308 2.875 8.006 5.228.957.828 1.567 1.35 2.567 1.35 1.35 0 2.872-1.22 2.872-2.875 0-1.09-.61-2.004-1.914-3.05-3.655-2.876-8.572-5.534-10.226-5.534-1.35 0-2.132.915-2.393 1.307zm26.747-2.92c-1.61 0-2.74 0-3.263 2.136-.305 1.263-1.523 9.455-1.523 19.958 0 8.672.654 12.332.697 12.68.348 1.57.783 2.877 2.916 2.877 2.828 0 3.045-1.787 3.045-2.79 0-.566-.304-2.962-.39-3.703-.35-3.05-.48-6.145-.48-9.282 0-5.665.435-11.156.958-15.035.087-.653.652-3.747.652-4.488 0-2.266-2.35-2.353-2.61-2.353zm30.416 5.927c0-.96-.26-1.96-1.175-2.484-.522-.305-.87-.436-6.614-.436-5.83 0-12.01.305-13.054.48-.61.087-2.22.348-2.22 2.79 0 2.047 1.22 2.788 2.873 2.788.305 0 .914-.044 1.175-.044 3.96-.305 9.18-.348 11.618-.348.61 0 3.655.043 4.35.043 1.306 0 3.047-.262 3.047-2.79zm1.044 25.93c0-2.006-1.175-2.703-2.74-2.703-.567 0-3.352.48-3.96.567a48.13 48.13 0 0 1-5.744.392c-4.134 0-7.224-.48-7.224-3.05 0-.567.173-1.22.696-2.18.826-1.48.87-1.655.87-2.31 0-1.61-1.784-2.352-3.177-2.352-3.612 0-4.352 5.403-4.352 7.016 0 7.887 8.572 8.54 14.185 8.498 2.524 0 8.05-.306 9.747-1.003.914-.392 1.697-.915 1.697-2.876zm27.01-9.24c0-2.57.914-3.355 3.307-5.36 4.438-3.747 5.874-4.967 5.874-8.715 0-4.184-2.915-9.24-11.444-9.24-10.356 0-12.314 7.366-12.314 9.894 0 2.657 2.567 2.744 3.176 2.744 1.523 0 2.96-.48 3.22-2.048.48-2.833.87-5.055 5.7-5.055 1.828 0 5.222.436 5.222 3.792 0 2.222-1.61 3.443-4.83 5.84C573 53.648 573 56.917 573 58.529c0 1.655.13 3.442 3.176 3.442 2.96 0 2.96-2.18 2.96-3.18zm-3.046 6.45c-2 0-3.654 1.612-3.654 3.66 0 2.005 1.653 3.66 3.655 3.66 2.003 0 3.656-1.655 3.656-3.66a3.651 3.651 0 0 0-3.655-3.66z" fill="#f44"/><path d="M610.166 35.387c-1.345 2.125-4.127 2.743-6.275 1.4a4.469 4.469 0 0 1-1.404-6.204c1.344-2.122 4.098-2.705 6.21-1.386 2.11 1.32 2.815 4.067 1.47 6.19m.208-8.49c-2.867-1.792-2.78-3.33-1.338-5.612.795-1.255 2.936-4.64 7.85-5.024 4.507-.366 6.16-.427 7.155-2 1.045-1.653.17-3.52-2.016-4.886-3.823-2.39-5.717-.01-6.608 1.137-1.196 1.45-3.6.33-4.673-.34-1.035-.65-3.377-2.39-1.838-4.83 1.845-2.91 8.408-7.31 17.247-1.782 6.763 4.227 7.813 10.65 5.025 15.054-2.092 3.304-4.338 3.6-10.318 4.36-2.546.33-3.83.515-5.147 2.598-.747 1.182-2.118 3.344-5.34 1.328M30.785 74.194c1.182 2.574.06 5.58-2.527 6.784a5.03 5.03 0 0 1-6.72-2.477c-1.18-2.57-.04-5.53 2.5-6.713 2.54-1.184 5.567-.165 6.747 2.407m-7.89-5.402c-3.45 1.608-4.85.583-6.12-2.18-.7-1.52-2.58-5.617.07-10.494 2.417-4.48 3.372-6.08 2.497-7.984-.92-2-3.22-2.318-5.85-1.092-4.602 2.145-3.516 5.394-2.98 6.938.635 2.017-1.897 3.6-3.19 4.203-1.245.58-4.325 1.725-5.686-1.225C.02 53.43-.11 44.534 10.53 39.578c8.14-3.795 14.85-.847 17.3 4.486 1.836 4.002.738 6.304-2.21 12.418-1.25 2.606-1.862 3.93-.704 6.454.658 1.43 1.86 4.05-2.02 5.856" fill="#ffe858"/><path d="M46.427 30.737c.85 2.033-.105 4.34-2.15 5.206a3.913 3.913 0 0 1-5.156-2.11c-.846-2.03.12-4.3 2.126-5.15 2.007-.852 4.333.023 5.18 2.054m-5.985-4.414c-2.727 1.156-3.788.322-4.7-1.86-.5-1.2-1.853-4.437.34-8.157 2-3.418 2.787-4.635 2.158-6.14-.66-1.58-2.44-1.888-4.52-1.007-3.634 1.542-2.878 4.097-2.503 5.312.438 1.585-1.573 2.748-2.593 3.18-.985.418-3.41 1.225-4.388-1.106-1.16-2.786-1.022-9.706 7.386-13.27 6.43-2.73 11.567-.256 13.326 3.957 1.32 3.16.404 4.92-2.054 9.594-1.043 1.992-1.554 3.005-.722 4.998.472 1.13 1.335 3.2-1.73 4.498M632.343 73.57c-1.516 2.516-4.553 3.31-6.852 1.794-2.256-1.486-2.883-4.692-1.368-7.207 1.515-2.513 4.52-3.263 6.78-1.777 2.26 1.487 2.956 4.678 1.44 7.19m.443-9.916c-3.07-2.022-2.937-3.82-1.31-6.52.894-1.487 3.306-5.493 8.654-6.067 4.904-.543 6.7-.657 7.822-2.52 1.176-1.955.273-4.112-2.067-5.653-4.092-2.693-6.21.135-7.207 1.496-1.335 1.72-3.92.475-5.067-.28-1.107-.73-3.607-2.703-1.873-5.592 2.08-3.444 9.32-8.75 18.78-2.52 7.24 4.764 8.216 12.238 5.075 17.45-2.356 3.912-4.803 4.314-11.318 5.355-2.773.45-4.17.698-5.656 3.164-.842 1.4-2.386 3.958-5.833 1.687" fill="#89e2ea"/></g><path d="M108.807 90.356l29.01-14.517a6.041 6.041 0 0 0 3.344-5.402V36.562a6.041 6.041 0 0 0-3.345-5.401l-29.01-14.518a6.086 6.086 0 0 0-5.45 0L74.343 31.161A6.043 6.043 0 0 0 71 36.562v33.875a6.043 6.043 0 0 0 3.344 5.402l29.011 14.517a6.096 6.096 0 0 0 5.452 0" fill="#ff0211"/><path d="M146 36.968c0 8.686-7.04 15.725-15.725 15.725-8.686 0-15.727-7.039-15.727-15.725s7.041-15.725 15.727-15.725c8.684 0 15.725 7.04 15.725 15.725" fill="#4dc9ff"/><path d="M80.654 65.7l-3.073-1.541V55.06c0-2.664 1.501-5.319 4.597-4.983 2.893.314 5.128 2.883 5.82 4.57 1.084-.95 2.077-1.152 3.5-.957 1.583.219 7.545 2.49 7.545 10.562v10.716l-3.37-1.695V63.23c0-2.945-1.8-5.404-4.228-5.687-1-.117-1.866.689-1.895 2.417-.029 1.728 0 10.213 0 10.213l-3.09-1.552v-9.506c0-4.199-2.71-5.524-3.895-5.655-.669-.073-1.91.328-1.91 2.477z" fill="#fff"/></g></svg>