<svg xmlns="http://www.w3.org/2000/svg" height="191" width="240" xmlns:xlink="http://www.w3.org/1999/xlink" viewBox="0 0 240 191"><title>icons</title><defs><path id="a" d="M131.74 55.15l-9.77 9.764c-1.43 1.432-3.75 1.434-5.18.002l-9.77-9.767H11.018C4.933 55.15 0 50.205 0 44.12V11.03C0 4.938 4.932 0 11.018 0h216.74c6.08 0 11.02 4.943 11.02 11.028V44.12c0 6.092-4.94 11.03-11.02 11.03h-96.02z"/><mask id="b" height="65.989" width="238.776" y="0" x="0" fill="#fff"><use xlink:href="#a"/></mask></defs><g fill-rule="evenodd" fill="none"><path fill="#2377E4" d="M118.277 132.238c-.477 0-.955-.162-1.344-.486l-11.372-9.45c-.89-.74-1.01-2.065-.27-2.954.744-.892 2.07-1.01 2.96-.27l9.998 8.307 9.53-8.278c.877-.76 2.205-.67 2.965.206.762.875.67 2.2-.206 2.96l-10.88 9.45c-.395.342-.888.515-1.38.515m-18.356-27.12c0-2.628 2.135-4.758 4.77-4.758 2.63 0 4.765 2.13 4.765 4.76s-2.134 4.76-4.766 4.76c-2.635 0-4.77-2.132-4.77-4.76m31.457-4.76c2.632 0 4.766 2.13 4.766 4.76s-2.134 4.76-4.766 4.76-4.767-2.132-4.767-4.76 2.135-4.76 4.767-4.76m-10.223 54.505c1.02-1.294 2.57-2.035 4.252-2.035h.018l8.464.028v-.85c.023-6.463 4.103-11.967 9.808-14.138 7.233-7.092 11.534-17.133 10.873-28.216-1.08-18.098-15.675-32.86-33.787-34.183-21.46-1.565-39.354 15.367-39.354 36.458 0 12.218 6.008 22.95 15.233 29.57 1.787 1.28 2.415 3.817 1.33 5.73l-15.306 26.97c-1.65 2.902.448 6.512 3.79 6.512h38.817l-5.13-21.21c-.397-1.65-.037-3.337.99-4.635"/><g fill="#FACA00"><path d="M172.566 157.58l-10.885-.036-.006 2.56c-.007 2.264-1.853 4.098-4.114 4.09-2.26-.007-4.094-1.854-4.087-4.117l.007-2.56-8.866-.028-.01 2.558c-.006 2.263-1.85 4.097-4.113 4.09-2.26-.008-4.093-1.855-4.086-4.118l.01-2.56-11.005-.036c-.566 0-.917.443-.785.995l7.075 29.26c.43 1.646 2.153 2.984 3.852 2.99l26.653.088c1.7.006 3.43-1.322 3.872-2.963l7.267-29.216c.136-.55-.21-.998-.778-1"/><path d="M140.497 162.086c1.132.003 2.054-.912 2.057-2.046l.026-8.002c.013-3.578 2.93-6.48 6.506-6.47 3.574.013 6.474 2.935 6.463 6.512l-.028 8.004c-.004 1.132.913 2.055 2.044 2.06 1.13.002 2.053-.915 2.057-2.047l.026-8.002c.02-5.843-4.714-10.61-10.55-10.63-5.835-.02-10.6 4.718-10.62 10.56l-.025 8.002c-.006 1.132.91 2.055 2.042 2.06"/></g><g transform="translate(.612)"><use xlink:href="#a" mask="url(#b)" stroke="#D5D5D5" stroke-width="3.674" fill="#FFF"/><path fill="#575757" d="M37.06 18.852v-1.48h-3.09v1.48h3.09zm-5.876 2.06c-.252 0-.377-.126-.377-.377V15.31c0-.25.125-.375.377-.375h20.993c.25 0 .377.125.377.376v5.225c0 .25-.126.376-.377.376H31.184zm12.23-3.54h-3.466v1.48h3.465v-1.48zm5.976 1.48v-1.48H46.3v1.48h3.09zm-17.177 14.59c-.25 0-.377-.126-.377-.377V22.192c0-.268.126-.402.377-.402h18.934c.25 0 .377.134.377.402v10.873c0 .25-.126.377-.377.377h-3.59c1.037.335 2.02.67 2.95 1.004.93.335 1.804.687 2.624 1.055.135.05.22.13.252.24.034.108.01.23-.075.364l-1.105 1.758c-.05.083-.126.138-.226.163s-.193.012-.276-.038c-1.072-.502-2.235-.996-3.49-1.48-1.256-.487-2.604-.947-4.044-1.383-.134-.033-.226-.108-.276-.226-.05-.117-.042-.242.025-.376l.528-1.08h-5.5l.553.954c.117.218.075.394-.126.528-.47.267-.984.53-1.544.79s-1.193.524-1.896.792c-1.407.552-2.938 1.02-4.596 1.406-.184.05-.318-.01-.402-.176l-.878-1.858c-.067-.134-.072-.256-.013-.364.06-.11.156-.18.29-.214 1.138-.3 2.193-.598 3.164-.89s1.883-.616 2.737-.968h-4.017zm3.09-2.135h12.756v-1.08H35.3v1.08zm0-3.088h12.756v-1.08H35.3v1.08zm12.756-3.09V24.1H35.3v1.03H48.06zm23.277 9.718c-1.088.653-2.222 1.11-3.403 1.37-1.18.258-2.406.472-3.678.64-.285.033-.452-.093-.503-.378l-.3-2.21c-.034-.284.1-.45.4-.502.87-.1 1.73-.226 2.575-.376.845-.15 1.678-.427 2.498-.83 1.122-.535 1.967-1.23 2.537-2.083.57-.855.803-1.792.703-2.814-.05-.653-.25-1.18-.603-1.582s-.774-.71-1.268-.93-1.034-.363-1.62-.438c-.586-.076-1.13-.113-1.632-.113-.368 0-.703.012-1.004.037l-.755.063c-.92.067-1.837.18-2.75.34-.912.158-1.82.32-2.724.49l-.4.074c-.302.05-.478-.075-.528-.377l-.452-2.21c-.034-.133-.017-.242.05-.326s.15-.15.25-.2h.05l1.935-.352h.05c.017-.017.042-.025.075-.025 2.997-.553 5.52-.74 7.572-.565 2.05.175 3.67.724 4.86 1.644 1.32.988 2.05 2.403 2.183 4.244.05.754-.004 1.486-.163 2.198-.16.71-.418 1.38-.778 2.008-.36.628-.808 1.218-1.344 1.77-.536.553-1.147 1.03-1.833 1.432zm31.743-17.93v2.436c0 .235-.08.394-.23.477h-.05c-.92.286-1.86.65-2.81 1.094-.955.443-1.838.98-2.65 1.607s-1.515 1.344-2.11 2.148c-.594.804-.99 1.7-1.192 2.687-.218 1.088-.13 2.093.264 3.013.393.92 1.058 1.674 1.996 2.26.787.503 1.603.87 2.448 1.105.846.235 1.734.394 2.674.477.25.034.38.176.38.427l-.08 2.436c0 .268-.12.385-.37.352-1.03-.067-2.068-.222-3.13-.465s-2.068-.603-3.014-1.08-1.796-1.08-2.55-1.808c-.753-.728-1.33-1.628-1.732-2.7-.452-1.188-.594-2.364-.427-3.527.168-1.164.536-2.26 1.105-3.29s1.306-1.963 2.21-2.8 1.867-1.54 2.888-2.11c-.787.017-1.624.043-2.51.076-.89.035-1.793.072-2.713.114l-2.7.126c-.88.04-1.682.08-2.41.113l-1.922.087c-.552.026-.946.047-1.18.063-.285.017-.427-.125-.427-.427v-2.46c0-.235.134-.352.402-.352l19.39-.452c.11 0 .22.033.31.1s.14.16.14.277zm11.98 10.85c-.46.082-.91.212-1.37.388s-.89.398-1.28.665c-.4.27-.73.58-1.01.93-.27.352-.49.746-.64 1.18-.01.05-.02.118-.02.202v.05c-.02.05-.03.1-.03.15 0 .252.09.436.25.553.09.084.24.134.46.15.21.017.47-.04.77-.175.66-.318 1.23-.845 1.71-1.582.49-.737.87-1.574 1.16-2.51zm16.14-.53v.052l-.62 2.26c-.02.117-.07.2-.16.25-.08.05-.18.05-.3 0-.65-.133-1.29-.275-1.92-.426s-1.27-.293-1.92-.427c-.28 1.507-.65 2.972-1.1 4.395-.46 1.423-.99 2.837-1.61 4.243-.1.218-.28.285-.53.2l-2.16-.953c-.1-.05-.17-.117-.22-.2s-.05-.185 0-.302c.6-1.306 1.1-2.62 1.49-3.943.39-1.322.72-2.67.99-4.043-.82-.134-1.63-.247-2.42-.34-.8-.09-1.61-.162-2.45-.212-.18.736-.41 1.452-.68 2.147s-.58 1.342-.95 1.945-.8 1.143-1.28 1.62c-.49.477-1.05.866-1.68 1.167-.83.402-1.66.565-2.52.49-.85-.075-1.6-.372-2.26-.89-.98-.77-1.48-1.76-1.48-2.965 0-.435.07-.845.2-1.23.25-.887.67-1.64 1.25-2.26.57-.62 1.23-1.13 1.97-1.532.73-.402 1.52-.707 2.36-.916.84-.21 1.66-.34 2.48-.39.14-1.04.22-2.102.24-3.19.03-1.088.04-2.042.04-2.863h-8.06c-.27 0-.4-.133-.4-.4v-2.412c0-.1.04-.188.11-.264.08-.074.17-.112.29-.112h11.02c.12 0 .21.038.28.113.07.077.1.165.1.265v1.657c0 .92-.03 2.03-.1 3.328-.07 1.297-.18 2.59-.35 3.88.8.066 1.6.146 2.38.238.79.092 1.59.188 2.39.29.2-1.324.33-2.646.4-3.97.07-1.32.11-2.67.13-4.042 0-.234.11-.35.35-.35h2.43c.26 0 .38.116.38.35 0 2.846-.18 5.667-.55 8.463.7.133 1.4.27 2.08.413.69.142 1.37.29 2.04.44.25.05.36.192.32.426zm15.82-8.788v2.26c0 .285-.12.427-.37.427h-5.9c-.39 2.73-.85 5.416-1.37 8.06-.53 2.646-1.15 5.325-1.87 8.037-.09.217-.23.31-.43.276l-2.49-.628c-.28-.033-.38-.184-.3-.452.65-2.56 1.25-5.102 1.78-7.62.54-2.52.99-5.078 1.36-7.673h-4.34c-.25 0-.38-.142-.38-.427v-2.26c0-.25.13-.376.38-.376h4.77c.05-.452.09-.88.11-1.28.03-.403.06-.82.11-1.257l.13-1.18c.02-.268.17-.385.45-.35l2.51.2c.24.033.35.175.35.426-.06.586-.12 1.16-.17 1.72-.05.56-.12 1.135-.2 1.72h5.5c.25 0 .37.126.37.377zm8.24 15.344l.4 2.31c.05.134.04.238-.04.314-.07.075-.16.12-.26.138-.62.1-1.23.192-1.83.276-.61.084-1.22.167-1.84.25-.62.068-1.23.11-1.85.127-.62.015-1.24 0-1.86-.052-.61-.05-1.21-.16-1.82-.326s-1.18-.414-1.7-.74c-.52-.327-.94-.733-1.27-1.22-.32-.484-.48-1.087-.46-1.807l.02-1.18c0-.268.13-.402.38-.402h2.49c.27 0 .38.134.35.402 0 .15-.01.31-.03.477-.01.168-.01.343 0 .528.02.15.05.288.09.414.04.125.11.213.21.264.21.133.44.234.71.3s.52.118.75.152c.6.083 1.2.12 1.78.113.59-.01 1.18-.047 1.79-.113.6-.05 1.19-.13 1.78-.24s1.18-.204 1.78-.288c.24-.033.38.067.43.302zm.2-7.835c.02.568-.09 1.17-.33 1.807-.11.284-.24.565-.38.84-.15.277-.29.54-.42.792-.13.233-.3.3-.5.2l-2.39-1.08c-.21-.117-.26-.285-.15-.502l.55-.954c.17-.318.24-.51.21-.578-.04-.033-.14-.06-.31-.075h-7.6c-.14 0-.23-.04-.29-.125s-.09-.176-.09-.276v-2.437c0-.268.12-.402.38-.402h7.05c.44 0 .9.043 1.38.127.49.084.94.23 1.36.44.42.21.77.493 1.05.853.29.36.45.816.48 1.37zm14.84 5.498c-.12.452-.25.908-.41 1.37-.16.46-.34.907-.54 1.342-.2.402-.44.78-.72 1.13-.27.352-.58.65-.93.892-.34.242-.73.418-1.16.527-.44.108-.93.12-1.46.037-.44-.067-.85-.197-1.24-.39-.4-.192-.75-.426-1.05-.703-.3-.276-.57-.577-.8-.904-.23-.326-.44-.648-.6-.966-.64-1.19-1.13-2.457-1.48-3.805-.36-1.35-.61-2.692-.76-4.03-.15-1.34-.22-2.646-.22-3.92 0-1.27.04-2.443.12-3.514l.08-1.306c.03-.235.16-.352.4-.352h2.76c.1 0 .19.03.26.088.08.06.11.155.09.29l-.1 1.255c-.08.988-.12 2.064-.12 3.227 0 1.164.06 2.357.2 3.58.13 1.22.35 2.44.65 3.653.3 1.213.72 2.34 1.26 3.377.11.218.24.435.39.653.14.218.33.343.59.377.23 0 .42-.13.57-.39.15-.26.27-.498.35-.715.27-.703.49-1.38.66-2.034.08-.352.15-.7.21-1.042.06-.344.13-.69.21-1.043.05-.1.12-.188.19-.263.08-.076.18-.088.32-.038l2.58.578c.09.05.17.113.25.188.09.075.1.172.05.29-.1.367-.19.777-.27 1.23-.09.45-.19.895-.33 1.33zm11.43.578h-2.76c-.12 0-.21-.038-.27-.113-.06-.076-.09-.172-.11-.29-.03-2.125-.23-4.272-.58-6.44s-.89-4.23-1.61-6.19c-.08-.235 0-.394.23-.477l2.54-.854c.23-.067.41.025.52.276.77 2.193 1.36 4.44 1.75 6.743.39 2.302.61 4.61.64 6.92 0 .283-.12.426-.35.426zm12.35.175c0-.25.14-.375.4-.375h2.97c.27 0 .4.125.4.376v2.84c0 .25-.13.376-.4.376h-2.97c-.26 0-.4-.126-.4-.377v-2.84zm3.62-15.568c.25 0 .38.143.38.427l-.46 12.304c0 .268-.14.402-.42.402h-2.46c-.29 0-.43-.134-.43-.402l-.45-12.305c0-.285.12-.428.37-.428h3.47z"/></g></g></svg>